G04 #@! TF.GenerationSoftware,KiCad,Pcbnew,5.0.2-bee76a0~70~ubuntu18.04.1*
G04 #@! TF.CreationDate,2020-07-29T14:57:40+02:00*
G04 #@! TF.ProjectId,stator_controller,73746174-6f72-45f6-936f-6e74726f6c6c,rev?*
G04 #@! TF.SameCoordinates,PX66ff300PY8583b00*
G04 #@! TF.FileFunction,Copper,L2,Bot*
G04 #@! TF.FilePolarity,Positive*
%FSLAX46Y46*%
G04 Gerber Fmt 4.6, Leading zero omitted, Abs format (unit mm)*
G04 Created by KiCad (PCBNEW 5.0.2-bee76a0~70~ubuntu18.04.1) date ons 29 jul 2020 14:57:40*
%MOMM*%
%LPD*%
G01*
G04 APERTURE LIST*
G04 #@! TA.AperFunction,NonConductor*
%ADD10C,0.150000*%
G04 #@! TD*
G04 #@! TA.AperFunction,ComponentPad*
%ADD11O,1.727200X1.727200*%
G04 #@! TD*
G04 #@! TA.AperFunction,ComponentPad*
%ADD12R,2.600000X2.000000*%
G04 #@! TD*
G04 #@! TA.AperFunction,ComponentPad*
%ADD13O,2.600000X2.000000*%
G04 #@! TD*
G04 #@! TA.AperFunction,ComponentPad*
%ADD14O,2.000000X2.600000*%
G04 #@! TD*
G04 #@! TA.AperFunction,ComponentPad*
%ADD15R,2.000000X2.600000*%
G04 #@! TD*
G04 APERTURE END LIST*
D10*
X95000000Y65000000D02*
X95000000Y0D01*
X0Y65000000D02*
X95000000Y65000000D01*
X0Y0D02*
X0Y65000000D01*
X95000000Y0D02*
X0Y0D01*
D11*
G04 #@! TO.P,XA1,GND6*
G04 #@! TO.N,GND*
X79325000Y7920000D03*
G04 #@! TO.P,XA1,GND5*
X76785000Y7920000D03*
G04 #@! TO.P,XA1,D53*
G04 #@! TO.N,Net-(R56-Pad2)*
X79325000Y10460000D03*
G04 #@! TO.P,XA1,D52*
G04 #@! TO.N,Net-(R48-Pad2)*
X76785000Y10460000D03*
G04 #@! TO.P,XA1,D51*
G04 #@! TO.N,Net-(R47-Pad2)*
X79325000Y13000000D03*
G04 #@! TO.P,XA1,D50*
G04 #@! TO.N,Net-(R46-Pad2)*
X76785000Y13000000D03*
G04 #@! TO.P,XA1,D49*
G04 #@! TO.N,Net-(R45-Pad2)*
X79325000Y15540000D03*
G04 #@! TO.P,XA1,D48*
G04 #@! TO.N,Net-(R44-Pad2)*
X76785000Y15540000D03*
G04 #@! TO.P,XA1,D47*
G04 #@! TO.N,Net-(R43-Pad2)*
X79325000Y18080000D03*
G04 #@! TO.P,XA1,D46*
G04 #@! TO.N,Net-(R42-Pad2)*
X76785000Y18080000D03*
G04 #@! TO.P,XA1,D45*
G04 #@! TO.N,Net-(R41-Pad2)*
X79325000Y20620000D03*
G04 #@! TO.P,XA1,D44*
G04 #@! TO.N,Net-(R98-Pad2)*
X76785000Y20620000D03*
G04 #@! TO.P,XA1,D43*
G04 #@! TO.N,Net-(R40-Pad2)*
X79325000Y23160000D03*
G04 #@! TO.P,XA1,D42*
G04 #@! TO.N,Net-(R39-Pad2)*
X76785000Y23160000D03*
G04 #@! TO.P,XA1,D41*
G04 #@! TO.N,Net-(R38-Pad2)*
X79325000Y25700000D03*
G04 #@! TO.P,XA1,D40*
G04 #@! TO.N,Net-(R37-Pad2)*
X76785000Y25700000D03*
G04 #@! TO.P,XA1,D39*
G04 #@! TO.N,Net-(R36-Pad2)*
X79325000Y28240000D03*
G04 #@! TO.P,XA1,D38*
G04 #@! TO.N,Net-(R35-Pad2)*
X76785000Y28240000D03*
G04 #@! TO.P,XA1,D37*
G04 #@! TO.N,Net-(R34-Pad2)*
X79325000Y30780000D03*
G04 #@! TO.P,XA1,D36*
G04 #@! TO.N,Net-(R33-Pad2)*
X76785000Y30780000D03*
G04 #@! TO.P,XA1,D35*
G04 #@! TO.N,Net-(R32-Pad2)*
X79325000Y33320000D03*
G04 #@! TO.P,XA1,D34*
G04 #@! TO.N,Net-(R31-Pad2)*
X76785000Y33320000D03*
G04 #@! TO.P,XA1,D33*
G04 #@! TO.N,Net-(XA1-PadD33)*
X79325000Y35860000D03*
G04 #@! TO.P,XA1,D32*
G04 #@! TO.N,Net-(XA1-PadD32)*
X76785000Y35860000D03*
G04 #@! TO.P,XA1,D31*
G04 #@! TO.N,Net-(XA1-PadD31)*
X79325000Y38400000D03*
G04 #@! TO.P,XA1,D30*
G04 #@! TO.N,Net-(XA1-PadD30)*
X76785000Y38400000D03*
G04 #@! TO.P,XA1,D29*
G04 #@! TO.N,Net-(XA1-PadD29)*
X79325000Y40940000D03*
G04 #@! TO.P,XA1,D28*
G04 #@! TO.N,Net-(XA1-PadD28)*
X76785000Y40940000D03*
G04 #@! TO.P,XA1,D27*
G04 #@! TO.N,Net-(XA1-PadD27)*
X79325000Y43480000D03*
G04 #@! TO.P,XA1,D26*
G04 #@! TO.N,Net-(XA1-PadD26)*
X76785000Y43480000D03*
G04 #@! TO.P,XA1,D25*
G04 #@! TO.N,Net-(XA1-PadD25)*
X79325000Y46020000D03*
G04 #@! TO.P,XA1,D24*
G04 #@! TO.N,Net-(XA1-PadD24)*
X76785000Y46020000D03*
G04 #@! TO.P,XA1,D23*
G04 #@! TO.N,Net-(XA1-PadD23)*
X79325000Y48560000D03*
G04 #@! TO.P,XA1,D22*
G04 #@! TO.N,Net-(XA1-PadD22)*
X76785000Y48560000D03*
G04 #@! TO.P,XA1,5V4*
G04 #@! TO.N,+5V*
X79325000Y51100000D03*
G04 #@! TO.P,XA1,5V3*
X76785000Y51100000D03*
G04 #@! TO.P,XA1,A15*
G04 #@! TO.N,Net-(XA1-PadA15)*
X74245000Y2840000D03*
G04 #@! TO.P,XA1,A14*
G04 #@! TO.N,Net-(XA1-PadA14)*
X71705000Y2840000D03*
G04 #@! TO.P,XA1,A13*
G04 #@! TO.N,Net-(XA1-PadA13)*
X69165000Y2840000D03*
G04 #@! TO.P,XA1,A12*
G04 #@! TO.N,Net-(XA1-PadA12)*
X66625000Y2840000D03*
G04 #@! TO.P,XA1,A11*
G04 #@! TO.N,Net-(XA1-PadA11)*
X64085000Y2840000D03*
G04 #@! TO.P,XA1,A10*
G04 #@! TO.N,Net-(XA1-PadA10)*
X61545000Y2840000D03*
G04 #@! TO.P,XA1,A9*
G04 #@! TO.N,Net-(XA1-PadA9)*
X59005000Y2840000D03*
G04 #@! TO.P,XA1,A8*
G04 #@! TO.N,Net-(XA1-PadA8)*
X56465000Y2840000D03*
G04 #@! TO.P,XA1,A7*
G04 #@! TO.N,Net-(XA1-PadA7)*
X51385000Y2840000D03*
G04 #@! TO.P,XA1,A6*
G04 #@! TO.N,Net-(XA1-PadA6)*
X48845000Y2840000D03*
G04 #@! TO.P,XA1,A5*
G04 #@! TO.N,Net-(R26-Pad2)*
X46305000Y2840000D03*
G04 #@! TO.P,XA1,A4*
G04 #@! TO.N,Net-(R27-Pad2)*
X43765000Y2840000D03*
G04 #@! TO.P,XA1,A3*
G04 #@! TO.N,Net-(R28-Pad2)*
X41225000Y2840000D03*
G04 #@! TO.P,XA1,A2*
G04 #@! TO.N,Net-(R29-Pad2)*
X38685000Y2840000D03*
G04 #@! TO.P,XA1,A1*
G04 #@! TO.N,Net-(R30-Pad2)*
X36145000Y2840000D03*
G04 #@! TO.P,XA1,*
G04 #@! TO.N,*
X10745000Y2840000D03*
G04 #@! TO.P,XA1,D11*
G04 #@! TO.N,Net-(R17-Pad2)*
X16841000Y51100000D03*
G04 #@! TO.P,XA1,D12*
G04 #@! TO.N,Net-(R18-Pad2)*
X14301000Y51100000D03*
G04 #@! TO.P,XA1,D13*
G04 #@! TO.N,Net-(R3-Pad2)*
X11761000Y51100000D03*
G04 #@! TO.P,XA1,AREF*
G04 #@! TO.N,Net-(XA1-PadAREF)*
X6681000Y51100000D03*
G04 #@! TO.P,XA1,SDA*
G04 #@! TO.N,Net-(XA1-PadSDA)*
X4141000Y51100000D03*
G04 #@! TO.P,XA1,SCL*
G04 #@! TO.N,Net-(XA1-PadSCL)*
X1601000Y51100000D03*
G04 #@! TO.P,XA1,D10*
G04 #@! TO.N,Net-(R16-Pad2)*
X19381000Y51100000D03*
G04 #@! TO.P,XA1,D9*
G04 #@! TO.N,Net-(R15-Pad2)*
X21921000Y51100000D03*
G04 #@! TO.P,XA1,D8*
G04 #@! TO.N,Net-(R14-Pad2)*
X24461000Y51100000D03*
G04 #@! TO.P,XA1,GND1*
G04 #@! TO.N,GND*
X9221000Y51100000D03*
G04 #@! TO.P,XA1,D7*
G04 #@! TO.N,Net-(R13-Pad2)*
X28525000Y51100000D03*
G04 #@! TO.P,XA1,D6*
G04 #@! TO.N,Net-(R12-Pad2)*
X31065000Y51100000D03*
G04 #@! TO.P,XA1,D5*
G04 #@! TO.N,Net-(R11-Pad2)*
X33605000Y51100000D03*
G04 #@! TO.P,XA1,D4*
G04 #@! TO.N,Net-(R10-Pad2)*
X36145000Y51100000D03*
G04 #@! TO.P,XA1,D3*
G04 #@! TO.N,/HS2_SE*
X38685000Y51100000D03*
G04 #@! TO.P,XA1,D2*
G04 #@! TO.N,/CAL_TRIG*
X41225000Y51100000D03*
G04 #@! TO.P,XA1,D1*
G04 #@! TO.N,Net-(XA1-PadD1)*
X43765000Y51100000D03*
G04 #@! TO.P,XA1,D0*
G04 #@! TO.N,Net-(XA1-PadD0)*
X46305000Y51100000D03*
G04 #@! TO.P,XA1,D14*
G04 #@! TO.N,Net-(R19-Pad2)*
X51385000Y51100000D03*
G04 #@! TO.P,XA1,D15*
G04 #@! TO.N,Net-(R1-Pad1)*
X53925000Y51100000D03*
G04 #@! TO.P,XA1,D16*
G04 #@! TO.N,Net-(XA1-PadD16)*
X56465000Y51100000D03*
G04 #@! TO.P,XA1,D17*
G04 #@! TO.N,Net-(XA1-PadD17)*
X59005000Y51100000D03*
G04 #@! TO.P,XA1,D18*
G04 #@! TO.N,/HS1_SE*
X61545000Y51100000D03*
G04 #@! TO.P,XA1,D19*
G04 #@! TO.N,/LS1_SE*
X64085000Y51100000D03*
G04 #@! TO.P,XA1,D20*
G04 #@! TO.N,/LS2_SE*
X66625000Y51100000D03*
G04 #@! TO.P,XA1,D21*
G04 #@! TO.N,Net-(R2-Pad2)*
X69165000Y51100000D03*
G04 #@! TO.P,XA1,IORF*
G04 #@! TO.N,Net-(XA1-PadIORF)*
X13285000Y2840000D03*
G04 #@! TO.P,XA1,RST1*
G04 #@! TO.N,Net-(XA1-PadRST1)*
X15825000Y2840000D03*
G04 #@! TO.P,XA1,3V3*
G04 #@! TO.N,Net-(XA1-Pad3V3)*
X18365000Y2840000D03*
G04 #@! TO.P,XA1,5V1*
G04 #@! TO.N,Net-(XA1-Pad5V1)*
X20905000Y2840000D03*
G04 #@! TO.P,XA1,GND2*
G04 #@! TO.N,GND*
X23445000Y2840000D03*
G04 #@! TO.P,XA1,GND3*
X25985000Y2840000D03*
G04 #@! TO.P,XA1,VIN*
G04 #@! TO.N,VDD*
X28525000Y2840000D03*
G04 #@! TO.P,XA1,A0*
G04 #@! TO.N,Net-(R57-Pad2)*
X33605000Y2840000D03*
G04 #@! TD*
D12*
G04 #@! TO.P,J1,1*
G04 #@! TO.N,VDD*
X68530000Y40940000D03*
D13*
G04 #@! TO.P,J1,2*
G04 #@! TO.N,Net-(J1-Pad2)*
X68530000Y38400000D03*
G04 #@! TO.P,J1,3*
G04 #@! TO.N,GND*
X68530000Y35860000D03*
G04 #@! TO.P,J1,4*
G04 #@! TO.N,Net-(J1-Pad4)*
X68530000Y33320000D03*
G04 #@! TO.P,J1,5*
G04 #@! TO.N,/SYNC_LO_LO*
X68530000Y30780000D03*
G04 #@! TO.P,J1,6*
G04 #@! TO.N,/CE_LO_LO*
X68530000Y28240000D03*
G04 #@! TO.P,J1,7*
G04 #@! TO.N,/RAMPDIR_LO_LO*
X68530000Y25700000D03*
G04 #@! TO.P,J1,8*
G04 #@! TO.N,/RAMPCLK_LO_LO*
X68530000Y23160000D03*
G04 #@! TO.P,J1,9*
G04 #@! TO.N,/SCK_LO_LO*
X68530000Y20620000D03*
G04 #@! TO.P,J1,10*
G04 #@! TO.N,/SDI_LO_LO*
X68530000Y18080000D03*
G04 #@! TO.P,J1,11*
G04 #@! TO.N,/MUX_LO_LO*
X68530000Y15540000D03*
G04 #@! TO.P,J1,12*
G04 #@! TO.N,/CSB_LO_LO*
X68530000Y13000000D03*
G04 #@! TO.P,J1,13*
G04 #@! TO.N,/SYSREFREQ_LO_LO*
X68530000Y10460000D03*
G04 #@! TD*
G04 #@! TO.P,J2,13*
G04 #@! TO.N,/SYSREFREQ_LO_HI*
X87199000Y10460000D03*
G04 #@! TO.P,J2,12*
G04 #@! TO.N,/CSB_LO_HI*
X87199000Y13000000D03*
G04 #@! TO.P,J2,11*
G04 #@! TO.N,/MUX_LO_HI*
X87199000Y15540000D03*
G04 #@! TO.P,J2,10*
G04 #@! TO.N,/SDI_LO_HI*
X87199000Y18080000D03*
G04 #@! TO.P,J2,9*
G04 #@! TO.N,/SCK_LO_HI*
X87199000Y20620000D03*
G04 #@! TO.P,J2,8*
G04 #@! TO.N,/RAMPCLK_LO_HI*
X87199000Y23160000D03*
G04 #@! TO.P,J2,7*
G04 #@! TO.N,/RAMPDIR_LO_HI*
X87199000Y25700000D03*
G04 #@! TO.P,J2,6*
G04 #@! TO.N,/CE_LO_HI*
X87199000Y28240000D03*
G04 #@! TO.P,J2,5*
G04 #@! TO.N,/SYNC_LO_HI*
X87199000Y30780000D03*
G04 #@! TO.P,J2,4*
G04 #@! TO.N,Net-(J2-Pad4)*
X87199000Y33320000D03*
G04 #@! TO.P,J2,3*
G04 #@! TO.N,GND*
X87199000Y35860000D03*
G04 #@! TO.P,J2,2*
G04 #@! TO.N,Net-(J2-Pad2)*
X87199000Y38400000D03*
D12*
G04 #@! TO.P,J2,1*
G04 #@! TO.N,/11V_IN_HI*
X87199000Y40940000D03*
G04 #@! TD*
D13*
G04 #@! TO.P,J3,3*
G04 #@! TO.N,GND*
X76150000Y62530000D03*
G04 #@! TO.P,J3,2*
G04 #@! TO.N,Net-(J3-Pad2)*
X76150000Y59990000D03*
D12*
G04 #@! TO.P,J3,1*
G04 #@! TO.N,+5V*
X76150000Y57450000D03*
G04 #@! TD*
G04 #@! TO.P,J5,1*
G04 #@! TO.N,/~HS2*
X25858000Y22144000D03*
D13*
G04 #@! TO.P,J5,2*
G04 #@! TO.N,/HS2*
X25858000Y24684000D03*
G04 #@! TO.P,J5,3*
G04 #@! TO.N,/~HS1*
X25858000Y27224000D03*
G04 #@! TO.P,J5,4*
G04 #@! TO.N,/HS1*
X25858000Y29764000D03*
G04 #@! TD*
G04 #@! TO.P,J6,4*
G04 #@! TO.N,/LS1*
X53544000Y21382000D03*
G04 #@! TO.P,J6,3*
G04 #@! TO.N,/~LS1*
X53544000Y23922000D03*
G04 #@! TO.P,J6,2*
G04 #@! TO.N,/LS2*
X53544000Y26462000D03*
D12*
G04 #@! TO.P,J6,1*
G04 #@! TO.N,/~LS2*
X53544000Y29002000D03*
G04 #@! TD*
D14*
G04 #@! TO.P,J7,10*
G04 #@! TO.N,/G_LO*
X34240000Y59990000D03*
G04 #@! TO.P,J7,9*
G04 #@! TO.N,/~G_LO*
X31700000Y59990000D03*
G04 #@! TO.P,J7,8*
G04 #@! TO.N,/BL_LO*
X29160000Y59990000D03*
G04 #@! TO.P,J7,7*
G04 #@! TO.N,/~BL_LO*
X26620000Y59990000D03*
G04 #@! TO.P,J7,6*
G04 #@! TO.N,/LRU1*
X24080000Y59990000D03*
G04 #@! TO.P,J7,5*
G04 #@! TO.N,/~LRU1*
X21540000Y59990000D03*
G04 #@! TO.P,J7,4*
G04 #@! TO.N,/LRU2*
X19000000Y59990000D03*
G04 #@! TO.P,J7,3*
G04 #@! TO.N,/~LRU2*
X16460000Y59990000D03*
G04 #@! TO.P,J7,2*
G04 #@! TO.N,/BT*
X13920000Y59990000D03*
D15*
G04 #@! TO.P,J7,1*
G04 #@! TO.N,/~BT*
X11380000Y59990000D03*
G04 #@! TD*
D14*
G04 #@! TO.P,J9,6*
G04 #@! TO.N,/G_HI*
X46940000Y11730000D03*
G04 #@! TO.P,J9,5*
G04 #@! TO.N,/~G_HI*
X44400000Y11730000D03*
G04 #@! TO.P,J9,4*
G04 #@! TO.N,/BL_HI*
X41860000Y11730000D03*
G04 #@! TO.P,J9,3*
G04 #@! TO.N,/~BL_HI*
X39320000Y11730000D03*
G04 #@! TO.P,J9,2*
G04 #@! TO.N,/HRU*
X36780000Y11730000D03*
D15*
G04 #@! TO.P,J9,1*
G04 #@! TO.N,/~HRU*
X34240000Y11730000D03*
G04 #@! TD*
D13*
G04 #@! TO.P,J8,8*
G04 #@! TO.N,GND*
X8840000Y18080000D03*
G04 #@! TO.P,J8,7*
G04 #@! TO.N,/8V_IN_LO*
X8840000Y20620000D03*
G04 #@! TO.P,J8,6*
G04 #@! TO.N,GND*
X8840000Y23160000D03*
G04 #@! TO.P,J8,5*
G04 #@! TO.N,/-8V_IN*
X8840000Y25700000D03*
G04 #@! TO.P,J8,4*
G04 #@! TO.N,GND*
X8840000Y28240000D03*
G04 #@! TO.P,J8,3*
G04 #@! TO.N,/-18V_IN*
X8840000Y30780000D03*
G04 #@! TO.P,J8,2*
G04 #@! TO.N,GND*
X8840000Y33320000D03*
D12*
G04 #@! TO.P,J8,1*
G04 #@! TO.N,/18V_IN_LO*
X8840000Y35860000D03*
G04 #@! TD*
D13*
G04 #@! TO.P,J10,8*
G04 #@! TO.N,GND*
X15063000Y18080000D03*
G04 #@! TO.P,J10,7*
G04 #@! TO.N,/8V_IN_HI*
X15063000Y20620000D03*
G04 #@! TO.P,J10,6*
G04 #@! TO.N,GND*
X15063000Y23160000D03*
G04 #@! TO.P,J10,5*
G04 #@! TO.N,/-8V_IN*
X15063000Y25700000D03*
G04 #@! TO.P,J10,4*
G04 #@! TO.N,GND*
X15063000Y28240000D03*
G04 #@! TO.P,J10,3*
G04 #@! TO.N,/-18V_IN*
X15063000Y30780000D03*
G04 #@! TO.P,J10,2*
G04 #@! TO.N,GND*
X15063000Y33320000D03*
D12*
G04 #@! TO.P,J10,1*
G04 #@! TO.N,/18V_IN_HI*
X15063000Y35860000D03*
G04 #@! TD*
D13*
G04 #@! TO.P,J11,4*
G04 #@! TO.N,/TACH*
X22810000Y46020000D03*
G04 #@! TO.P,J11,3*
G04 #@! TO.N,/FAN_PWM*
X22810000Y43480000D03*
G04 #@! TO.P,J11,2*
G04 #@! TO.N,/18V_IN_HI*
X22810000Y40940000D03*
D12*
G04 #@! TO.P,J11,1*
G04 #@! TO.N,GND*
X22810000Y38400000D03*
G04 #@! TD*
D13*
G04 #@! TO.P,J4,15*
G04 #@! TO.N,/18V_IN_HI*
X3760000Y40940000D03*
G04 #@! TO.P,J4,14*
G04 #@! TO.N,GND*
X3760000Y38400000D03*
G04 #@! TO.P,J4,13*
G04 #@! TO.N,/18V_IN_LO*
X3760000Y35860000D03*
G04 #@! TO.P,J4,12*
G04 #@! TO.N,GND*
X3760000Y33320000D03*
G04 #@! TO.P,J4,11*
G04 #@! TO.N,/-18V_IN*
X3760000Y30780000D03*
G04 #@! TO.P,J4,10*
G04 #@! TO.N,GND*
X3760000Y28240000D03*
G04 #@! TO.P,J4,9*
G04 #@! TO.N,/-8V_IN*
X3760000Y25700000D03*
G04 #@! TO.P,J4,8*
G04 #@! TO.N,GND*
X3760000Y23160000D03*
G04 #@! TO.P,J4,7*
G04 #@! TO.N,/8V_IN_LO*
X3760000Y20620000D03*
G04 #@! TO.P,J4,6*
G04 #@! TO.N,GND*
X3760000Y18080000D03*
G04 #@! TO.P,J4,5*
G04 #@! TO.N,/8V_IN_HI*
X3760000Y15540000D03*
G04 #@! TO.P,J4,4*
G04 #@! TO.N,GND*
X3760000Y13000000D03*
G04 #@! TO.P,J4,3*
G04 #@! TO.N,VDD*
X3760000Y10460000D03*
G04 #@! TO.P,J4,2*
G04 #@! TO.N,GND*
X3760000Y7920000D03*
D12*
G04 #@! TO.P,J4,1*
G04 #@! TO.N,/11V_IN_HI*
X3760000Y5380000D03*
G04 #@! TD*
M02*
