M48
;DRILL file {KiCad 5.0.2-bee76a0~70~ubuntu18.04.1} date ons 29 jul 2020 14:57:46
;FORMAT={-:-/ absolute / metric / decimal}
FMAT,2
METRIC,TZ
T1C1.016
T2C1.200
%
G90
G05
T1
X1.601Y51.1
X4.141Y51.1
X6.681Y51.1
X9.221Y51.1
X10.745Y2.84
X11.761Y51.1
X13.285Y2.84
X14.301Y51.1
X15.825Y2.84
X16.841Y51.1
X18.365Y2.84
X19.381Y51.1
X20.905Y2.84
X21.921Y51.1
X23.445Y2.84
X24.461Y51.1
X25.985Y2.84
X28.525Y51.1
X28.525Y2.84
X31.065Y51.1
X33.605Y51.1
X33.605Y2.84
X36.145Y51.1
X36.145Y2.84
X38.685Y51.1
X38.685Y2.84
X41.225Y51.1
X41.225Y2.84
X43.765Y51.1
X43.765Y2.84
X46.305Y51.1
X46.305Y2.84
X48.845Y2.84
X51.385Y51.1
X51.385Y2.84
X53.925Y51.1
X56.465Y51.1
X56.465Y2.84
X59.005Y51.1
X59.005Y2.84
X61.545Y51.1
X61.545Y2.84
X64.085Y51.1
X64.085Y2.84
X66.625Y51.1
X66.625Y2.84
X69.165Y51.1
X69.165Y2.84
X71.705Y2.84
X74.245Y2.84
X76.785Y51.1
X76.785Y48.56
X76.785Y46.02
X76.785Y43.48
X76.785Y40.94
X76.785Y38.4
X76.785Y35.86
X76.785Y33.32
X76.785Y30.78
X76.785Y28.24
X76.785Y25.7
X76.785Y23.16
X76.785Y20.62
X76.785Y18.08
X76.785Y15.54
X76.785Y13.
X76.785Y10.46
X76.785Y7.92
X79.325Y51.1
X79.325Y48.56
X79.325Y46.02
X79.325Y43.48
X79.325Y40.94
X79.325Y38.4
X79.325Y35.86
X79.325Y33.32
X79.325Y30.78
X79.325Y28.24
X79.325Y25.7
X79.325Y23.16
X79.325Y20.62
X79.325Y18.08
X79.325Y15.54
X79.325Y13.
X79.325Y10.46
X79.325Y7.92
T2
X15.063Y35.86
X15.063Y33.32
X15.063Y30.78
X15.063Y28.24
X15.063Y25.7
X15.063Y23.16
X15.063Y20.62
X15.063Y18.08
X53.544Y29.002
X53.544Y26.462
X53.544Y23.922
X53.544Y21.382
X8.84Y35.86
X8.84Y33.32
X8.84Y30.78
X8.84Y28.24
X8.84Y25.7
X8.84Y23.16
X8.84Y20.62
X8.84Y18.08
X25.858Y29.764
X25.858Y27.224
X25.858Y24.684
X25.858Y22.144
X34.24Y11.73
X36.78Y11.73
X39.32Y11.73
X41.86Y11.73
X44.4Y11.73
X46.94Y11.73
X76.15Y62.53
X76.15Y59.99
X76.15Y57.45
X68.53Y40.94
X68.53Y38.4
X68.53Y35.86
X68.53Y33.32
X68.53Y30.78
X68.53Y28.24
X68.53Y25.7
X68.53Y23.16
X68.53Y20.62
X68.53Y18.08
X68.53Y15.54
X68.53Y13.
X68.53Y10.46
X11.38Y59.99
X13.92Y59.99
X16.46Y59.99
X19.Y59.99
X21.54Y59.99
X24.08Y59.99
X26.62Y59.99
X29.16Y59.99
X31.7Y59.99
X34.24Y59.99
X3.76Y40.94
X3.76Y38.4
X3.76Y35.86
X3.76Y33.32
X3.76Y30.78
X3.76Y28.24
X3.76Y25.7
X3.76Y23.16
X3.76Y20.62
X3.76Y18.08
X3.76Y15.54
X3.76Y13.
X3.76Y10.46
X3.76Y7.92
X3.76Y5.38
X87.199Y40.94
X87.199Y38.4
X87.199Y35.86
X87.199Y33.32
X87.199Y30.78
X87.199Y28.24
X87.199Y25.7
X87.199Y23.16
X87.199Y20.62
X87.199Y18.08
X87.199Y15.54
X87.199Y13.
X87.199Y10.46
X22.81Y46.02
X22.81Y43.48
X22.81Y40.94
X22.81Y38.4
T0
M30
