G04 #@! TF.GenerationSoftware,KiCad,Pcbnew,5.0.2-bee76a0~70~ubuntu18.04.1*
G04 #@! TF.CreationDate,2020-07-22T12:41:26+02:00*
G04 #@! TF.ProjectId,lear_regulators_and_power_distribution,6c656172-5f72-4656-9775-6c61746f7273,rev?*
G04 #@! TF.SameCoordinates,PX3dfd240PY80befc0*
G04 #@! TF.FileFunction,Copper,L1,Top*
G04 #@! TF.FilePolarity,Positive*
%FSLAX46Y46*%
G04 Gerber Fmt 4.6, Leading zero omitted, Abs format (unit mm)*
G04 Created by KiCad (PCBNEW 5.0.2-bee76a0~70~ubuntu18.04.1) date ons 22 jul 2020 12:41:26*
%MOMM*%
%LPD*%
G01*
G04 APERTURE LIST*
G04 #@! TA.AperFunction,NonConductor*
%ADD10C,0.150000*%
G04 #@! TD*
G04 #@! TA.AperFunction,SMDPad,CuDef*
%ADD11R,4.000000X2.500000*%
G04 #@! TD*
G04 #@! TA.AperFunction,SMDPad,CuDef*
%ADD12R,1.000000X1.600000*%
G04 #@! TD*
G04 #@! TA.AperFunction,SMDPad,CuDef*
%ADD13R,2.500000X4.000000*%
G04 #@! TD*
G04 #@! TA.AperFunction,SMDPad,CuDef*
%ADD14R,2.000000X3.000000*%
G04 #@! TD*
G04 #@! TA.AperFunction,SMDPad,CuDef*
%ADD15R,3.000000X2.000000*%
G04 #@! TD*
G04 #@! TA.AperFunction,ComponentPad*
%ADD16O,2.000000X2.600000*%
G04 #@! TD*
G04 #@! TA.AperFunction,ComponentPad*
%ADD17R,2.000000X2.600000*%
G04 #@! TD*
G04 #@! TA.AperFunction,ComponentPad*
%ADD18O,2.600000X2.000000*%
G04 #@! TD*
G04 #@! TA.AperFunction,ComponentPad*
%ADD19R,2.600000X2.000000*%
G04 #@! TD*
G04 #@! TA.AperFunction,SMDPad,CuDef*
%ADD20R,1.700000X0.900000*%
G04 #@! TD*
G04 #@! TA.AperFunction,SMDPad,CuDef*
%ADD21R,0.900000X1.700000*%
G04 #@! TD*
G04 #@! TA.AperFunction,SMDPad,CuDef*
%ADD22R,1.300000X1.300000*%
G04 #@! TD*
G04 #@! TA.AperFunction,SMDPad,CuDef*
%ADD23R,2.000000X1.300000*%
G04 #@! TD*
G04 #@! TA.AperFunction,ComponentPad*
%ADD24O,2.032000X2.540000*%
G04 #@! TD*
G04 #@! TA.AperFunction,Conductor*
%ADD25C,2.000000*%
G04 #@! TD*
G04 #@! TA.AperFunction,Conductor*
%ADD26C,1.000000*%
G04 #@! TD*
G04 APERTURE END LIST*
D10*
X95000000Y0D02*
X0Y0D01*
X95000000Y65000000D02*
X95000000Y0D01*
X0Y65000000D02*
X95000000Y65000000D01*
X0Y0D02*
X0Y65000000D01*
D11*
G04 #@! TO.P,C1,1*
G04 #@! TO.N,Net-(C1-Pad1)*
X59650000Y53720000D03*
G04 #@! TO.P,C1,2*
G04 #@! TO.N,GND*
X51650000Y53720000D03*
G04 #@! TD*
G04 #@! TO.P,C2,2*
G04 #@! TO.N,GND*
X83400000Y48640000D03*
G04 #@! TO.P,C2,1*
G04 #@! TO.N,Net-(C2-Pad1)*
X91400000Y48640000D03*
G04 #@! TD*
G04 #@! TO.P,C3,1*
G04 #@! TO.N,GND*
X11390000Y52450000D03*
G04 #@! TO.P,C3,2*
G04 #@! TO.N,Net-(C3-Pad2)*
X3390000Y52450000D03*
G04 #@! TD*
G04 #@! TO.P,C4,2*
G04 #@! TO.N,Net-(C3-Pad2)*
X17360000Y58800000D03*
G04 #@! TO.P,C4,1*
G04 #@! TO.N,GND*
X25360000Y58800000D03*
G04 #@! TD*
D12*
G04 #@! TO.P,C5,1*
G04 #@! TO.N,Net-(C5-Pad1)*
X53340000Y34670000D03*
G04 #@! TO.P,C5,2*
G04 #@! TO.N,GND*
X50340000Y34670000D03*
G04 #@! TD*
G04 #@! TO.P,C6,1*
G04 #@! TO.N,Net-(C6-Pad1)*
X85320000Y27050000D03*
G04 #@! TO.P,C6,2*
G04 #@! TO.N,GND*
X82320000Y27050000D03*
G04 #@! TD*
G04 #@! TO.P,C7,2*
G04 #@! TO.N,Net-(C7-Pad2)*
X8430000Y39750000D03*
G04 #@! TO.P,C7,1*
G04 #@! TO.N,GND*
X11430000Y39750000D03*
G04 #@! TD*
G04 #@! TO.P,C8,1*
G04 #@! TO.N,GND*
X25400000Y44830000D03*
G04 #@! TO.P,C8,2*
G04 #@! TO.N,Net-(C8-Pad2)*
X22400000Y44830000D03*
G04 #@! TD*
D11*
G04 #@! TO.P,C9,2*
G04 #@! TO.N,Net-(C9-Pad2)*
X3390000Y24510000D03*
G04 #@! TO.P,C9,1*
G04 #@! TO.N,GND*
X11390000Y24510000D03*
G04 #@! TD*
G04 #@! TO.P,C10,1*
G04 #@! TO.N,GND*
X25360000Y29590000D03*
G04 #@! TO.P,C10,2*
G04 #@! TO.N,Net-(C10-Pad2)*
X17360000Y29590000D03*
G04 #@! TD*
D12*
G04 #@! TO.P,C11,2*
G04 #@! TO.N,GND*
X50340000Y37210000D03*
G04 #@! TO.P,C11,1*
G04 #@! TO.N,Net-(C11-Pad1)*
X53340000Y37210000D03*
G04 #@! TD*
G04 #@! TO.P,C12,2*
G04 #@! TO.N,GND*
X82090000Y29590000D03*
G04 #@! TO.P,C12,1*
G04 #@! TO.N,Net-(C12-Pad1)*
X85090000Y29590000D03*
G04 #@! TD*
D11*
G04 #@! TO.P,C13,2*
G04 #@! TO.N,GND*
X51650000Y21970000D03*
G04 #@! TO.P,C13,1*
G04 #@! TO.N,Net-(C11-Pad1)*
X59650000Y21970000D03*
G04 #@! TD*
G04 #@! TO.P,C14,2*
G04 #@! TO.N,GND*
X83400000Y14350000D03*
G04 #@! TO.P,C14,1*
G04 #@! TO.N,Net-(C12-Pad1)*
X91400000Y14350000D03*
G04 #@! TD*
G04 #@! TO.P,C15,2*
G04 #@! TO.N,GND*
X33870000Y58800000D03*
G04 #@! TO.P,C15,1*
G04 #@! TO.N,Net-(C1-Pad1)*
X41870000Y58800000D03*
G04 #@! TD*
G04 #@! TO.P,C16,1*
G04 #@! TO.N,Net-(C16-Pad1)*
X76160000Y52450000D03*
G04 #@! TO.P,C16,2*
G04 #@! TO.N,GND*
X68160000Y52450000D03*
G04 #@! TD*
D12*
G04 #@! TO.P,C17,1*
G04 #@! TO.N,Net-(C17-Pad1)*
X35790000Y38480000D03*
G04 #@! TO.P,C17,2*
G04 #@! TO.N,GND*
X32790000Y38480000D03*
G04 #@! TD*
G04 #@! TO.P,C18,2*
G04 #@! TO.N,GND*
X66850000Y30860000D03*
G04 #@! TO.P,C18,1*
G04 #@! TO.N,Net-(C18-Pad1)*
X69850000Y30860000D03*
G04 #@! TD*
G04 #@! TO.P,C19,2*
G04 #@! TO.N,GND*
X32790000Y41020000D03*
G04 #@! TO.P,C19,1*
G04 #@! TO.N,Net-(C19-Pad1)*
X35790000Y41020000D03*
G04 #@! TD*
D11*
G04 #@! TO.P,C20,1*
G04 #@! TO.N,Net-(C19-Pad1)*
X41870000Y25780000D03*
G04 #@! TO.P,C20,2*
G04 #@! TO.N,GND*
X33870000Y25780000D03*
G04 #@! TD*
D12*
G04 #@! TO.P,C21,1*
G04 #@! TO.N,Net-(C21-Pad1)*
X69850000Y33400000D03*
G04 #@! TO.P,C21,2*
G04 #@! TO.N,GND*
X66850000Y33400000D03*
G04 #@! TD*
D11*
G04 #@! TO.P,C22,2*
G04 #@! TO.N,GND*
X68160000Y18160000D03*
G04 #@! TO.P,C22,1*
G04 #@! TO.N,Net-(C21-Pad1)*
X76160000Y18160000D03*
G04 #@! TD*
D13*
G04 #@! TO.P,C23,1*
G04 #@! TO.N,Net-(C23-Pad1)*
X21360000Y10730000D03*
G04 #@! TO.P,C23,2*
G04 #@! TO.N,GND*
X21360000Y2730000D03*
G04 #@! TD*
D14*
G04 #@! TO.P,D1,1*
G04 #@! TO.N,Net-(C1-Pad1)*
X61785000Y46100000D03*
G04 #@! TO.P,D1,2*
G04 #@! TO.N,Net-(C11-Pad1)*
X57135000Y46100000D03*
G04 #@! TD*
D15*
G04 #@! TO.P,D2,1*
G04 #@! TO.N,Net-(C2-Pad1)*
X89940000Y42075000D03*
G04 #@! TO.P,D2,2*
G04 #@! TO.N,Net-(C12-Pad1)*
X89940000Y37425000D03*
G04 #@! TD*
D14*
G04 #@! TO.P,D3,2*
G04 #@! TO.N,Net-(C5-Pad1)*
X49515000Y46100000D03*
G04 #@! TO.P,D3,1*
G04 #@! TO.N,Net-(C11-Pad1)*
X54165000Y46100000D03*
G04 #@! TD*
D15*
G04 #@! TO.P,D4,2*
G04 #@! TO.N,Net-(C6-Pad1)*
X84860000Y37425000D03*
G04 #@! TO.P,D4,1*
G04 #@! TO.N,Net-(C12-Pad1)*
X84860000Y42075000D03*
G04 #@! TD*
D14*
G04 #@! TO.P,D5,1*
G04 #@! TO.N,Net-(C1-Pad1)*
X44005000Y49910000D03*
G04 #@! TO.P,D5,2*
G04 #@! TO.N,Net-(C19-Pad1)*
X39355000Y49910000D03*
G04 #@! TD*
D15*
G04 #@! TO.P,D6,1*
G04 #@! TO.N,Net-(C16-Pad1)*
X74700000Y45885000D03*
G04 #@! TO.P,D6,2*
G04 #@! TO.N,Net-(C21-Pad1)*
X74700000Y41235000D03*
G04 #@! TD*
D14*
G04 #@! TO.P,D7,2*
G04 #@! TO.N,Net-(C17-Pad1)*
X31735000Y49910000D03*
G04 #@! TO.P,D7,1*
G04 #@! TO.N,Net-(C19-Pad1)*
X36385000Y49910000D03*
G04 #@! TD*
D15*
G04 #@! TO.P,D8,2*
G04 #@! TO.N,Net-(C18-Pad1)*
X69620000Y41235000D03*
G04 #@! TO.P,D8,1*
G04 #@! TO.N,Net-(C21-Pad1)*
X69620000Y45885000D03*
G04 #@! TD*
D16*
G04 #@! TO.P,J1,2*
G04 #@! TO.N,GND*
X54380000Y61340000D03*
D17*
G04 #@! TO.P,J1,1*
G04 #@! TO.N,Net-(C1-Pad1)*
X56920000Y61340000D03*
G04 #@! TD*
G04 #@! TO.P,J2,1*
G04 #@! TO.N,Net-(C2-Pad1)*
X88670000Y56260000D03*
D16*
G04 #@! TO.P,J2,2*
G04 #@! TO.N,GND*
X86130000Y56260000D03*
G04 #@! TD*
D17*
G04 #@! TO.P,J3,1*
G04 #@! TO.N,GND*
X8660000Y60070000D03*
D16*
G04 #@! TO.P,J3,2*
G04 #@! TO.N,Net-(C3-Pad2)*
X6120000Y60070000D03*
G04 #@! TD*
D18*
G04 #@! TO.P,J4,2*
G04 #@! TO.N,GND*
X9930000Y13080000D03*
D19*
G04 #@! TO.P,J4,1*
G04 #@! TO.N,Net-(C9-Pad2)*
X9930000Y15620000D03*
G04 #@! TD*
G04 #@! TO.P,J5,1*
G04 #@! TO.N,Net-(C9-Pad2)*
X3580000Y15620000D03*
D18*
G04 #@! TO.P,J5,2*
G04 #@! TO.N,GND*
X3580000Y13080000D03*
G04 #@! TD*
G04 #@! TO.P,J6,2*
G04 #@! TO.N,GND*
X23900000Y16890000D03*
D19*
G04 #@! TO.P,J6,1*
G04 #@! TO.N,Net-(C10-Pad2)*
X23900000Y19430000D03*
G04 #@! TD*
G04 #@! TO.P,J7,1*
G04 #@! TO.N,Net-(C10-Pad2)*
X17550000Y19430000D03*
D18*
G04 #@! TO.P,J7,2*
G04 #@! TO.N,GND*
X17550000Y16890000D03*
G04 #@! TD*
D16*
G04 #@! TO.P,J8,2*
G04 #@! TO.N,GND*
X54380000Y13080000D03*
D17*
G04 #@! TO.P,J8,1*
G04 #@! TO.N,Net-(C11-Pad1)*
X56920000Y13080000D03*
G04 #@! TD*
G04 #@! TO.P,J9,1*
G04 #@! TO.N,Net-(C12-Pad1)*
X89940000Y5460000D03*
D16*
G04 #@! TO.P,J9,2*
G04 #@! TO.N,GND*
X87400000Y5460000D03*
G04 #@! TD*
G04 #@! TO.P,J10,2*
G04 #@! TO.N,GND*
X70890000Y60070000D03*
D17*
G04 #@! TO.P,J10,1*
G04 #@! TO.N,Net-(C16-Pad1)*
X73430000Y60070000D03*
G04 #@! TD*
D19*
G04 #@! TO.P,J11,1*
G04 #@! TO.N,Net-(C23-Pad1)*
X9930000Y6730000D03*
D18*
G04 #@! TO.P,J11,2*
G04 #@! TO.N,GND*
X9930000Y4190000D03*
G04 #@! TD*
D17*
G04 #@! TO.P,J12,1*
G04 #@! TO.N,Net-(C19-Pad1)*
X39140000Y16890000D03*
D16*
G04 #@! TO.P,J12,2*
G04 #@! TO.N,GND*
X36600000Y16890000D03*
G04 #@! TD*
G04 #@! TO.P,J13,2*
G04 #@! TO.N,GND*
X70890000Y9270000D03*
D17*
G04 #@! TO.P,J13,1*
G04 #@! TO.N,Net-(C21-Pad1)*
X73430000Y9270000D03*
G04 #@! TD*
D18*
G04 #@! TO.P,J14,2*
G04 #@! TO.N,GND*
X28980000Y2920000D03*
D19*
G04 #@! TO.P,J14,1*
G04 #@! TO.N,Net-(C23-Pad1)*
X28980000Y5460000D03*
G04 #@! TD*
G04 #@! TO.P,J15,1*
G04 #@! TO.N,Net-(C23-Pad1)*
X35330000Y5460000D03*
D18*
G04 #@! TO.P,J15,2*
G04 #@! TO.N,GND*
X35330000Y2920000D03*
G04 #@! TD*
G04 #@! TO.P,J16,2*
G04 #@! TO.N,GND*
X41680000Y2920000D03*
D19*
G04 #@! TO.P,J16,1*
G04 #@! TO.N,Net-(C23-Pad1)*
X41680000Y5460000D03*
G04 #@! TD*
D18*
G04 #@! TO.P,J17,2*
G04 #@! TO.N,GND*
X48030000Y2920000D03*
D19*
G04 #@! TO.P,J17,1*
G04 #@! TO.N,Net-(C23-Pad1)*
X48030000Y5460000D03*
G04 #@! TD*
D20*
G04 #@! TO.P,R1,2*
G04 #@! TO.N,Net-(C5-Pad1)*
X55650000Y34310000D03*
G04 #@! TO.P,R1,1*
G04 #@! TO.N,Net-(C11-Pad1)*
X55650000Y37210000D03*
G04 #@! TD*
G04 #@! TO.P,R2,1*
G04 #@! TO.N,Net-(C12-Pad1)*
X87400000Y29590000D03*
G04 #@! TO.P,R2,2*
G04 #@! TO.N,Net-(C6-Pad1)*
X87400000Y26690000D03*
G04 #@! TD*
D21*
G04 #@! TO.P,R3,2*
G04 #@! TO.N,Net-(C9-Pad2)*
X3220000Y39750000D03*
G04 #@! TO.P,R3,1*
G04 #@! TO.N,Net-(C7-Pad2)*
X6120000Y39750000D03*
G04 #@! TD*
G04 #@! TO.P,R4,2*
G04 #@! TO.N,Net-(C10-Pad2)*
X17370000Y44830000D03*
G04 #@! TO.P,R4,1*
G04 #@! TO.N,Net-(C8-Pad2)*
X20270000Y44830000D03*
G04 #@! TD*
D20*
G04 #@! TO.P,R5,1*
G04 #@! TO.N,Net-(C19-Pad1)*
X37870000Y41200000D03*
G04 #@! TO.P,R5,2*
G04 #@! TO.N,Net-(C17-Pad1)*
X37870000Y38300000D03*
G04 #@! TD*
G04 #@! TO.P,R6,1*
G04 #@! TO.N,Net-(C21-Pad1)*
X72160000Y33580000D03*
G04 #@! TO.P,R6,2*
G04 #@! TO.N,Net-(C18-Pad1)*
X72160000Y30680000D03*
G04 #@! TD*
D22*
G04 #@! TO.P,RV1,3*
G04 #@! TO.N,GND*
X50360000Y32010000D03*
D23*
G04 #@! TO.P,RV1,2*
G04 #@! TO.N,Net-(C5-Pad1)*
X55860000Y30860000D03*
D22*
G04 #@! TO.P,RV1,1*
X50360000Y29710000D03*
G04 #@! TD*
G04 #@! TO.P,RV2,1*
G04 #@! TO.N,Net-(C6-Pad1)*
X82110000Y22090000D03*
D23*
G04 #@! TO.P,RV2,2*
X87610000Y23240000D03*
D22*
G04 #@! TO.P,RV2,3*
G04 #@! TO.N,GND*
X82110000Y24390000D03*
G04 #@! TD*
G04 #@! TO.P,RV3,3*
G04 #@! TO.N,Net-(C7-Pad2)*
X10140000Y33520000D03*
D23*
G04 #@! TO.P,RV3,2*
X4640000Y34670000D03*
D22*
G04 #@! TO.P,RV3,1*
G04 #@! TO.N,GND*
X10140000Y35820000D03*
G04 #@! TD*
G04 #@! TO.P,RV4,1*
G04 #@! TO.N,GND*
X24110000Y40900000D03*
D23*
G04 #@! TO.P,RV4,2*
G04 #@! TO.N,Net-(C8-Pad2)*
X18610000Y39750000D03*
D22*
G04 #@! TO.P,RV4,3*
X24110000Y38600000D03*
G04 #@! TD*
G04 #@! TO.P,RV5,1*
G04 #@! TO.N,Net-(C17-Pad1)*
X32580000Y33520000D03*
D23*
G04 #@! TO.P,RV5,2*
X38080000Y34670000D03*
D22*
G04 #@! TO.P,RV5,3*
G04 #@! TO.N,GND*
X32580000Y35820000D03*
G04 #@! TD*
G04 #@! TO.P,RV6,3*
G04 #@! TO.N,GND*
X66870000Y28200000D03*
D23*
G04 #@! TO.P,RV6,2*
G04 #@! TO.N,Net-(C18-Pad1)*
X72370000Y27050000D03*
D22*
G04 #@! TO.P,RV6,1*
X66870000Y25900000D03*
G04 #@! TD*
D24*
G04 #@! TO.P,U1,2*
G04 #@! TO.N,Net-(C11-Pad1)*
X55650000Y39750000D03*
G04 #@! TO.P,U1,3*
G04 #@! TO.N,Net-(C1-Pad1)*
X58190000Y39750000D03*
G04 #@! TO.P,U1,1*
G04 #@! TO.N,Net-(C5-Pad1)*
X53110000Y39750000D03*
G04 #@! TD*
G04 #@! TO.P,U2,1*
G04 #@! TO.N,Net-(C6-Pad1)*
X84860000Y32130000D03*
G04 #@! TO.P,U2,3*
G04 #@! TO.N,Net-(C2-Pad1)*
X89940000Y32130000D03*
G04 #@! TO.P,U2,2*
G04 #@! TO.N,Net-(C12-Pad1)*
X87400000Y32130000D03*
G04 #@! TD*
G04 #@! TO.P,U5,2*
G04 #@! TO.N,Net-(C19-Pad1)*
X37870000Y43560000D03*
G04 #@! TO.P,U5,3*
G04 #@! TO.N,Net-(C1-Pad1)*
X40410000Y43560000D03*
G04 #@! TO.P,U5,1*
G04 #@! TO.N,Net-(C17-Pad1)*
X35330000Y43560000D03*
G04 #@! TD*
G04 #@! TO.P,U6,1*
G04 #@! TO.N,Net-(C18-Pad1)*
X69620000Y35940000D03*
G04 #@! TO.P,U6,3*
G04 #@! TO.N,Net-(C16-Pad1)*
X74700000Y35940000D03*
G04 #@! TO.P,U6,2*
G04 #@! TO.N,Net-(C21-Pad1)*
X72160000Y35940000D03*
G04 #@! TD*
G04 #@! TO.P,U3,1*
G04 #@! TO.N,Net-(C7-Pad2)*
X9930000Y44830000D03*
G04 #@! TO.P,U3,3*
G04 #@! TO.N,Net-(C9-Pad2)*
X4850000Y44830000D03*
G04 #@! TO.P,U3,2*
G04 #@! TO.N,Net-(C3-Pad2)*
X7390000Y44830000D03*
G04 #@! TD*
G04 #@! TO.P,U4,2*
G04 #@! TO.N,Net-(C3-Pad2)*
X21360000Y49910000D03*
G04 #@! TO.P,U4,3*
G04 #@! TO.N,Net-(C10-Pad2)*
X18820000Y49910000D03*
G04 #@! TO.P,U4,1*
G04 #@! TO.N,Net-(C8-Pad2)*
X23900000Y49910000D03*
G04 #@! TD*
D25*
G04 #@! TO.N,Net-(C1-Pad1)*
X41870000Y52045000D02*
X44005000Y49910000D01*
X41870000Y58800000D02*
X41870000Y52045000D01*
X40410000Y46315000D02*
X44005000Y49910000D01*
X40410000Y43560000D02*
X40410000Y46315000D01*
X56920000Y56450000D02*
X59650000Y53720000D01*
X56920000Y61340000D02*
X56920000Y56450000D01*
X61785000Y51585000D02*
X59650000Y53720000D01*
X61785000Y46100000D02*
X61785000Y51585000D01*
X58190000Y42505000D02*
X61785000Y46100000D01*
X58190000Y39750000D02*
X58190000Y42505000D01*
X45870000Y58800000D02*
X41870000Y58800000D01*
X50910010Y63840010D02*
X45870000Y58800000D01*
X55689990Y63840010D02*
X50910010Y63840010D01*
X56580010Y62949990D02*
X55689990Y63840010D01*
X56580010Y61679990D02*
X56580010Y62949990D01*
X56920000Y61340000D02*
X56580010Y61679990D01*
G04 #@! TO.N,GND*
X8660000Y55180000D02*
X11390000Y52450000D01*
X8660000Y60070000D02*
X8660000Y55180000D01*
X12146010Y40354727D02*
X11485642Y39694359D01*
X12146010Y48443990D02*
X12146010Y40354727D01*
X11390000Y49200000D02*
X12146010Y48443990D01*
X11390000Y52450000D02*
X11390000Y49200000D01*
X12146010Y37826010D02*
X10140000Y35820000D01*
X12146010Y40354727D02*
X12146010Y37826010D01*
X12340010Y28710010D02*
X12340010Y37632010D01*
X12340010Y37632010D02*
X12146010Y37826010D01*
X11390000Y27760000D02*
X12340010Y28710010D01*
X11390000Y24510000D02*
X11390000Y27760000D01*
X12430001Y13659999D02*
X11850002Y13080000D01*
X11850002Y13080000D02*
X9930000Y13080000D01*
X12430001Y20219999D02*
X12430001Y13659999D01*
X11390000Y21260000D02*
X12430001Y20219999D01*
X11390000Y24510000D02*
X11390000Y21260000D01*
X9930000Y13080000D02*
X3580000Y13080000D01*
X25400000Y42190000D02*
X24110000Y40900000D01*
X25400000Y44830000D02*
X25400000Y42190000D01*
X25360000Y32840000D02*
X25360000Y29590000D01*
X25960001Y33440001D02*
X25360000Y32840000D01*
X25960001Y41469999D02*
X25960001Y33440001D01*
X25400000Y42030000D02*
X25960001Y41469999D01*
X25400000Y44830000D02*
X25400000Y42030000D01*
X25820002Y16890000D02*
X23900000Y16890000D01*
X26400001Y17469999D02*
X25820002Y16890000D01*
X25360000Y26340000D02*
X26400001Y25299999D01*
X26400001Y25299999D02*
X26400001Y17469999D01*
X25360000Y29590000D02*
X25360000Y26340000D01*
X17550000Y16890000D02*
X23900000Y16890000D01*
X26116010Y45546010D02*
X25400000Y44830000D01*
X26116010Y54793990D02*
X26116010Y45546010D01*
X25360000Y55550000D02*
X26116010Y54793990D01*
X25360000Y58800000D02*
X25360000Y55550000D01*
X32790000Y41020000D02*
X32790000Y38480000D01*
X32790000Y36030000D02*
X32580000Y35820000D01*
X32790000Y38480000D02*
X32790000Y36030000D01*
X32790000Y41320000D02*
X32790000Y41020000D01*
X29534990Y55214990D02*
X29534990Y44575010D01*
X29534990Y44575010D02*
X32790000Y41320000D01*
X33120000Y58800000D02*
X29534990Y55214990D01*
X33870000Y58800000D02*
X33120000Y58800000D01*
X33870000Y29030000D02*
X33870000Y25780000D01*
X30379990Y32520010D02*
X33870000Y29030000D01*
X30379990Y34431273D02*
X30379990Y32520010D01*
X31768717Y35820000D02*
X30379990Y34431273D01*
X32580000Y35820000D02*
X31768717Y35820000D01*
X33870000Y19620000D02*
X36600000Y16890000D01*
X33870000Y25780000D02*
X33870000Y19620000D01*
X54380000Y56450000D02*
X51650000Y53720000D01*
X54380000Y61340000D02*
X54380000Y56450000D01*
X50360000Y34650000D02*
X50340000Y34670000D01*
X50360000Y32010000D02*
X50360000Y34650000D01*
X50340000Y34670000D02*
X50340000Y37210000D01*
X47314990Y40535010D02*
X50340000Y37510000D01*
X50340000Y37510000D02*
X50340000Y37210000D01*
X50900000Y53720000D02*
X47314990Y50134990D01*
X47314990Y50134990D02*
X47314990Y40535010D01*
X51650000Y53720000D02*
X50900000Y53720000D01*
X51650000Y25220000D02*
X51650000Y21970000D01*
X48159990Y28710010D02*
X51650000Y25220000D01*
X48159990Y30621273D02*
X48159990Y28710010D01*
X49548717Y32010000D02*
X48159990Y30621273D01*
X50360000Y32010000D02*
X49548717Y32010000D01*
X51650000Y15810000D02*
X54380000Y13080000D01*
X51650000Y21970000D02*
X51650000Y15810000D01*
X70890000Y55180000D02*
X68160000Y52450000D01*
X70890000Y60070000D02*
X70890000Y55180000D01*
X66850000Y51140000D02*
X66850000Y33400000D01*
X68160000Y52450000D02*
X66850000Y51140000D01*
X66850000Y33400000D02*
X66850000Y30860000D01*
X66850000Y28220000D02*
X66870000Y28200000D01*
X66850000Y30860000D02*
X66850000Y28220000D01*
X82090000Y27280000D02*
X82320000Y27050000D01*
X82090000Y29590000D02*
X82090000Y27280000D01*
X82320000Y24600000D02*
X82110000Y24390000D01*
X82320000Y27050000D02*
X82320000Y24600000D01*
X83400000Y53530000D02*
X86130000Y56260000D01*
X83400000Y48640000D02*
X83400000Y53530000D01*
X68160000Y21410000D02*
X68160000Y18160000D01*
X64669990Y24900010D02*
X68160000Y21410000D01*
X66058717Y28200000D02*
X64669990Y26811273D01*
X64669990Y26811273D02*
X64669990Y24900010D01*
X66870000Y28200000D02*
X66058717Y28200000D01*
X83400000Y17600000D02*
X83400000Y14350000D01*
X79909990Y21090010D02*
X83400000Y17600000D01*
X79909990Y23001273D02*
X79909990Y21090010D01*
X81298717Y24390000D02*
X79909990Y23001273D01*
X82110000Y24390000D02*
X81298717Y24390000D01*
X68160000Y12000000D02*
X70890000Y9270000D01*
X68160000Y18160000D02*
X68160000Y12000000D01*
X83400000Y9460000D02*
X87400000Y5460000D01*
X83400000Y14350000D02*
X83400000Y9460000D01*
X19900000Y4190000D02*
X21360000Y2730000D01*
X9930000Y4190000D02*
X19900000Y4190000D01*
X28790000Y2730000D02*
X28980000Y2920000D01*
X21360000Y2730000D02*
X28790000Y2730000D01*
X28980000Y2920000D02*
X35330000Y2920000D01*
X35330000Y2920000D02*
X41680000Y2920000D01*
X41680000Y2920000D02*
X48030000Y2920000D01*
X13740000Y13080000D02*
X17550000Y16890000D01*
X9930000Y13080000D02*
X13740000Y13080000D01*
X23900000Y16890000D02*
X36600000Y16890000D01*
X51380000Y13080000D02*
X54380000Y13080000D01*
X37110000Y13080000D02*
X51380000Y13080000D01*
X36600000Y13590000D02*
X37110000Y13080000D01*
X36600000Y16890000D02*
X36600000Y13590000D01*
X51330000Y2920000D02*
X48030000Y2920000D01*
X54380000Y5970000D02*
X51330000Y2920000D01*
X54380000Y13080000D02*
X54380000Y5970000D01*
X67890000Y9270000D02*
X70890000Y9270000D01*
X54380000Y11159998D02*
X56269998Y9270000D01*
X56269998Y9270000D02*
X67890000Y9270000D01*
X54380000Y13080000D02*
X54380000Y11159998D01*
X82090000Y47330000D02*
X82090000Y29590000D01*
X83400000Y48640000D02*
X82090000Y47330000D01*
X84400000Y5460000D02*
X87400000Y5460000D01*
X72779998Y5460000D02*
X84400000Y5460000D01*
X70890000Y7349998D02*
X72779998Y5460000D01*
X70890000Y9270000D02*
X70890000Y7349998D01*
G04 #@! TO.N,Net-(C2-Pad1)*
X88670000Y51370000D02*
X91400000Y48640000D01*
X88670000Y56260000D02*
X88670000Y51370000D01*
X91400000Y43535000D02*
X89940000Y42075000D01*
X91400000Y48640000D02*
X91400000Y43535000D01*
X93440000Y39075000D02*
X90440000Y42075000D01*
X90440000Y42075000D02*
X89940000Y42075000D01*
X89940000Y32384000D02*
X93440000Y35884000D01*
X93440000Y35884000D02*
X93440000Y39075000D01*
X89940000Y32130000D02*
X89940000Y32384000D01*
G04 #@! TO.N,Net-(C3-Pad2)*
X6120000Y55180000D02*
X3390000Y52450000D01*
X6120000Y60070000D02*
X6120000Y55180000D01*
X16610000Y58800000D02*
X17360000Y58800000D01*
X6120000Y61990002D02*
X6699999Y62570001D01*
X12839999Y62570001D02*
X16610000Y58800000D01*
X6699999Y62570001D02*
X12839999Y62570001D01*
X6120000Y60070000D02*
X6120000Y61990002D01*
X7390000Y48450000D02*
X3390000Y52450000D01*
X7390000Y44830000D02*
X7390000Y48450000D01*
X21360000Y54800000D02*
X17360000Y58800000D01*
X21360000Y49910000D02*
X21360000Y54800000D01*
G04 #@! TO.N,Net-(C5-Pad1)*
X49515000Y43345000D02*
X53110000Y39750000D01*
X49515000Y46100000D02*
X49515000Y43345000D01*
X55290000Y34670000D02*
X55650000Y34310000D01*
X53340000Y34670000D02*
X55290000Y34670000D01*
X55650000Y31070000D02*
X55860000Y30860000D01*
X55650000Y34310000D02*
X55650000Y31070000D01*
X54710000Y29710000D02*
X55860000Y30860000D01*
X50360000Y29710000D02*
X54710000Y29710000D01*
D26*
X52040010Y35969990D02*
X53340000Y34670000D01*
X52040010Y38680010D02*
X52040010Y35969990D01*
X53110000Y39750000D02*
X52040010Y38680010D01*
D25*
G04 #@! TO.N,Net-(C6-Pad1)*
X86460000Y22090000D02*
X87610000Y23240000D01*
X82110000Y22090000D02*
X86460000Y22090000D01*
X87040000Y27050000D02*
X87400000Y26690000D01*
X85320000Y27050000D02*
X87040000Y27050000D01*
X87400000Y23450000D02*
X87610000Y23240000D01*
X87400000Y26690000D02*
X87400000Y23450000D01*
X84860000Y37425000D02*
X84860000Y32130000D01*
D26*
X83790010Y31060010D02*
X84860000Y32130000D01*
X83790010Y28119990D02*
X83790010Y31060010D01*
X84860000Y27050000D02*
X83790010Y28119990D01*
X85320000Y27050000D02*
X84860000Y27050000D01*
D25*
G04 #@! TO.N,Net-(C7-Pad2)*
X6120000Y36150000D02*
X4640000Y34670000D01*
X6120000Y39750000D02*
X6120000Y36150000D01*
X6120000Y39750000D02*
X8430000Y39750000D01*
X9930000Y41250000D02*
X8430000Y39750000D01*
X9930000Y44830000D02*
X9930000Y41250000D01*
X7490000Y33520000D02*
X10140000Y33520000D01*
X6120000Y34890000D02*
X7490000Y33520000D01*
X6120000Y36150000D02*
X6120000Y34890000D01*
G04 #@! TO.N,Net-(C8-Pad2)*
X23900000Y46630000D02*
X23900000Y46640000D01*
X23900000Y46640000D02*
X23900000Y49910000D01*
X22400000Y45130000D02*
X23900000Y46630000D01*
X22400000Y44830000D02*
X22400000Y45130000D01*
X22100000Y44830000D02*
X22400000Y45130000D01*
X20270000Y44830000D02*
X22100000Y44830000D01*
X20270000Y41410000D02*
X18610000Y39750000D01*
X20270000Y44830000D02*
X20270000Y41410000D01*
X22760000Y38600000D02*
X23759991Y38600000D01*
X21610000Y39750000D02*
X22760000Y38600000D01*
X18610000Y39750000D02*
X21610000Y39750000D01*
G04 #@! TO.N,Net-(C9-Pad2)*
X3220000Y43200000D02*
X3220000Y39750000D01*
X4850000Y44830000D02*
X3220000Y43200000D01*
X3220000Y36900000D02*
X3220000Y39750000D01*
X2439999Y36119999D02*
X3220000Y36900000D01*
X3390000Y27760000D02*
X2439999Y28710001D01*
X2439999Y28710001D02*
X2439999Y36119999D01*
X3390000Y24510000D02*
X3390000Y27760000D01*
X3390000Y15810000D02*
X3580000Y15620000D01*
X3390000Y24510000D02*
X3390000Y15810000D01*
X3580000Y15620000D02*
X9930000Y15620000D01*
G04 #@! TO.N,Net-(C10-Pad2)*
X23900000Y19430000D02*
X17550000Y19430000D01*
X17550000Y29400000D02*
X17360000Y29590000D01*
X17550000Y19430000D02*
X17550000Y29400000D01*
X17370000Y48460000D02*
X18820000Y49910000D01*
X17370000Y44830000D02*
X17370000Y48460000D01*
X17360000Y32840000D02*
X17360000Y29590000D01*
X16409999Y33790001D02*
X17360000Y32840000D01*
X16409999Y41019999D02*
X16409999Y33790001D01*
X17370000Y41980000D02*
X16409999Y41019999D01*
X17370000Y44830000D02*
X17370000Y41980000D01*
G04 #@! TO.N,Net-(C11-Pad1)*
X55650000Y39750000D02*
X55650000Y46100000D01*
X54165000Y46100000D02*
X55650000Y46100000D01*
X55650000Y46100000D02*
X57135000Y46100000D01*
X55650000Y39750000D02*
X55650000Y37210000D01*
X59650000Y33610000D02*
X56050000Y37210000D01*
X56050000Y37210000D02*
X55650000Y37210000D01*
X59650000Y21970000D02*
X59650000Y33610000D01*
X59650000Y15810000D02*
X56920000Y13080000D01*
X59650000Y21970000D02*
X59650000Y15810000D01*
D26*
X53340000Y37210000D02*
X55650000Y37210000D01*
D25*
G04 #@! TO.N,Net-(C12-Pad1)*
X89510000Y37425000D02*
X84860000Y42075000D01*
X89940000Y37425000D02*
X89510000Y37425000D01*
X87400000Y34885000D02*
X89940000Y37425000D01*
X87400000Y32130000D02*
X87400000Y34885000D01*
X87400000Y32130000D02*
X87400000Y29590000D01*
X87800000Y29590000D02*
X87400000Y29590000D01*
X91400000Y25990000D02*
X87800000Y29590000D01*
X91400000Y14350000D02*
X91400000Y25990000D01*
X91400000Y6920000D02*
X89940000Y5460000D01*
X91400000Y14350000D02*
X91400000Y6920000D01*
D26*
X85090000Y29590000D02*
X87400000Y29590000D01*
D25*
G04 #@! TO.N,Net-(C16-Pad1)*
X73430000Y55180000D02*
X76160000Y52450000D01*
X73430000Y60070000D02*
X73430000Y55180000D01*
X76160000Y47345000D02*
X74700000Y45885000D01*
X76160000Y52450000D02*
X76160000Y47345000D01*
X78200000Y42885000D02*
X75200000Y45885000D01*
X75200000Y45885000D02*
X74700000Y45885000D01*
X78200000Y39694000D02*
X78200000Y42885000D01*
X74700000Y36194000D02*
X78200000Y39694000D01*
X74700000Y35940000D02*
X74700000Y36194000D01*
G04 #@! TO.N,Net-(C17-Pad1)*
X31735000Y47155000D02*
X35330000Y43560000D01*
X31735000Y49910000D02*
X31735000Y47155000D01*
X37870000Y34880000D02*
X38080000Y34670000D01*
X37870000Y38300000D02*
X37870000Y34880000D01*
X35970000Y38300000D02*
X35790000Y38480000D01*
X37870000Y38300000D02*
X35970000Y38300000D01*
X36930000Y33520000D02*
X38080000Y34670000D01*
X32580000Y33520000D02*
X36930000Y33520000D01*
D26*
X34490010Y39779990D02*
X35790000Y38480000D01*
X34490010Y42720010D02*
X34490010Y39779990D01*
X35330000Y43560000D02*
X34490010Y42720010D01*
D25*
G04 #@! TO.N,Net-(C18-Pad1)*
X69620000Y41235000D02*
X69620000Y35940000D01*
X71220000Y25900000D02*
X72370000Y27050000D01*
X66870000Y25900000D02*
X71220000Y25900000D01*
X71980000Y30860000D02*
X72160000Y30680000D01*
X69850000Y30860000D02*
X71980000Y30860000D01*
X72160000Y27260000D02*
X72370000Y27050000D01*
X72160000Y30680000D02*
X72160000Y27260000D01*
D26*
X68550010Y31929990D02*
X68550010Y34870010D01*
X68550010Y34870010D02*
X69620000Y35940000D01*
X69620000Y30860000D02*
X68550010Y31929990D01*
X69850000Y30860000D02*
X69620000Y30860000D01*
D25*
G04 #@! TO.N,Net-(C19-Pad1)*
X37870000Y43560000D02*
X37870000Y49910000D01*
X36385000Y49910000D02*
X37870000Y49910000D01*
X37870000Y49910000D02*
X39355000Y49910000D01*
X37870000Y43560000D02*
X37870000Y41200000D01*
X41870000Y19620000D02*
X39140000Y16890000D01*
X41870000Y25780000D02*
X41870000Y19620000D01*
X38270000Y41200000D02*
X37870000Y41200000D01*
X41870000Y37600000D02*
X38270000Y41200000D01*
X41870000Y25780000D02*
X41870000Y37600000D01*
X37690000Y41020000D02*
X37870000Y41200000D01*
D26*
X35790000Y41020000D02*
X37690000Y41020000D01*
D25*
G04 #@! TO.N,Net-(C21-Pad1)*
X70050000Y45885000D02*
X74700000Y41235000D01*
X69620000Y45885000D02*
X70050000Y45885000D01*
X72160000Y38695000D02*
X74700000Y41235000D01*
X72160000Y35940000D02*
X72160000Y38695000D01*
X72160000Y35940000D02*
X72160000Y33580000D01*
X72560000Y33580000D02*
X72160000Y33580000D01*
X76160000Y29980000D02*
X72560000Y33580000D01*
X76160000Y18160000D02*
X76160000Y29980000D01*
X76160000Y12000000D02*
X73430000Y9270000D01*
X76160000Y18160000D02*
X76160000Y12000000D01*
D26*
X71980000Y33400000D02*
X72160000Y33580000D01*
X69850000Y33400000D02*
X71980000Y33400000D01*
D25*
G04 #@! TO.N,Net-(C23-Pad1)*
X17360000Y6730000D02*
X21360000Y10730000D01*
X9930000Y6730000D02*
X17360000Y6730000D01*
X26630000Y5460000D02*
X21360000Y10730000D01*
X28980000Y5460000D02*
X26630000Y5460000D01*
X28980000Y5460000D02*
X35330000Y5460000D01*
X35330000Y5460000D02*
X41680000Y5460000D01*
X41680000Y5460000D02*
X48030000Y5460000D01*
G04 #@! TD*
M02*
