M48
;DRILL file {KiCad 5.0.2-bee76a0~70~ubuntu18.04.1} date ons 22 jul 2020 11:27:58
;FORMAT={-:-/ absolute / metric / decimal}
FMAT,2
METRIC,TZ
T1C0.800
T2C1.016
T3C1.143
T4C1.200
T5C1.400
%
G90
G05
T1
X41.11Y30.85
X41.11Y18.15
X43.65Y30.85
X43.65Y18.15
X46.19Y30.85
X46.19Y18.15
X48.73Y30.85
X48.73Y18.15
X51.27Y30.85
X51.27Y18.15
X53.81Y30.85
X53.81Y18.15
X56.35Y30.85
X56.35Y18.15
X58.89Y30.85
X58.89Y18.15
T2
X20.296Y8.2
X22.836Y8.2
X25.376Y8.2
X27.916Y8.2
X29.44Y56.46
X30.456Y8.2
X31.98Y56.46
X32.996Y8.2
X34.52Y56.46
X35.536Y8.2
X37.06Y56.46
X38.076Y8.2
X39.6Y56.46
X40.616Y8.2
X42.14Y56.46
X43.156Y8.2
X44.68Y56.46
X47.22Y56.46
X47.22Y8.2
X49.76Y8.2
X52.3Y56.46
X52.3Y8.2
X54.84Y56.46
X54.84Y8.2
X57.38Y56.46
X57.38Y8.2
X59.92Y56.46
X59.92Y8.2
X62.46Y56.46
X62.46Y8.2
X65.Y56.46
X65.Y8.2
X65.127Y33.6
X65.127Y31.06
X65.127Y28.52
X67.667Y33.6
X67.667Y31.06
X67.667Y28.52
T3
X31.96Y51.
X34.5Y51.
X37.04Y51.
T4
X13.Y43.
X13.Y40.46
X13.Y35.
X13.Y32.46
X15.46Y27.5
X18.Y27.5
X45.96Y36.
X48.5Y36.
X51.04Y36.
X53.58Y36.
X9.5Y13.58
X9.5Y11.04
X9.5Y8.5
T5
X4.5Y40.5
X4.5Y35.42
X5.5Y54.5
X5.5Y49.42
X4.5Y27.
X4.5Y21.92
T0
M30
