G04 #@! TF.GenerationSoftware,KiCad,Pcbnew,5.0.2-bee76a0~70~ubuntu18.04.1*
G04 #@! TF.CreationDate,2020-07-22T11:28:10+02:00*
G04 #@! TF.ProjectId,stator_controller,73746174-6f72-45f6-936f-6e74726f6c6c,rev?*
G04 #@! TF.SameCoordinates,PX55d4a80PY6dac2c0*
G04 #@! TF.FileFunction,Copper,L1,Top*
G04 #@! TF.FilePolarity,Positive*
%FSLAX46Y46*%
G04 Gerber Fmt 4.6, Leading zero omitted, Abs format (unit mm)*
G04 Created by KiCad (PCBNEW 5.0.2-bee76a0~70~ubuntu18.04.1) date ons 22 jul 2020 11:28:10*
%MOMM*%
%LPD*%
G01*
G04 APERTURE LIST*
G04 #@! TA.AperFunction,NonConductor*
%ADD10C,0.150000*%
G04 #@! TD*
G04 #@! TA.AperFunction,SMDPad,CuDef*
%ADD11R,1.600000X1.000000*%
G04 #@! TD*
G04 #@! TA.AperFunction,SMDPad,CuDef*
%ADD12R,2.500000X4.000000*%
G04 #@! TD*
G04 #@! TA.AperFunction,SMDPad,CuDef*
%ADD13R,1.000000X1.600000*%
G04 #@! TD*
G04 #@! TA.AperFunction,SMDPad,CuDef*
%ADD14R,0.800000X0.900000*%
G04 #@! TD*
G04 #@! TA.AperFunction,ComponentPad*
%ADD15O,2.000000X2.600000*%
G04 #@! TD*
G04 #@! TA.AperFunction,ComponentPad*
%ADD16R,2.000000X2.600000*%
G04 #@! TD*
G04 #@! TA.AperFunction,ComponentPad*
%ADD17O,2.600000X2.000000*%
G04 #@! TD*
G04 #@! TA.AperFunction,ComponentPad*
%ADD18R,2.600000X2.000000*%
G04 #@! TD*
G04 #@! TA.AperFunction,SMDPad,CuDef*
%ADD19R,0.900000X0.800000*%
G04 #@! TD*
G04 #@! TA.AperFunction,SMDPad,CuDef*
%ADD20R,0.900000X1.700000*%
G04 #@! TD*
G04 #@! TA.AperFunction,SMDPad,CuDef*
%ADD21R,1.700000X0.900000*%
G04 #@! TD*
G04 #@! TA.AperFunction,ComponentPad*
%ADD22O,1.200000X2.000000*%
G04 #@! TD*
G04 #@! TA.AperFunction,ComponentPad*
%ADD23O,2.032000X2.540000*%
G04 #@! TD*
G04 #@! TA.AperFunction,ComponentPad*
%ADD24O,1.727200X1.727200*%
G04 #@! TD*
G04 #@! TA.AperFunction,ComponentPad*
%ADD25R,3.600000X2.080000*%
G04 #@! TD*
G04 #@! TA.AperFunction,ComponentPad*
%ADD26O,3.600000X2.080000*%
G04 #@! TD*
G04 #@! TA.AperFunction,SMDPad,CuDef*
%ADD27R,1.270000X1.470000*%
G04 #@! TD*
G04 #@! TA.AperFunction,Conductor*
%ADD28C,2.000000*%
G04 #@! TD*
G04 #@! TA.AperFunction,Conductor*
%ADD29C,1.000000*%
G04 #@! TD*
G04 #@! TA.AperFunction,Conductor*
%ADD30C,0.254000*%
G04 #@! TD*
G04 APERTURE END LIST*
D10*
X73500000Y65000000D02*
X0Y65000000D01*
X73500000Y0D02*
X73500000Y65000000D01*
X0Y0D02*
X73500000Y0D01*
X0Y65000000D02*
X0Y0D01*
D11*
G04 #@! TO.P,C1,2*
G04 #@! TO.N,GND*
X34500000Y41000000D03*
G04 #@! TO.P,C1,1*
G04 #@! TO.N,/V_MEAS*
X34500000Y38000000D03*
G04 #@! TD*
D12*
G04 #@! TO.P,C2,1*
G04 #@! TO.N,Net-(C2-Pad1)*
X23500000Y50000000D03*
G04 #@! TO.P,C2,2*
G04 #@! TO.N,GND*
X23500000Y42000000D03*
G04 #@! TD*
D13*
G04 #@! TO.P,C3,2*
G04 #@! TO.N,GND*
X33500000Y47500000D03*
G04 #@! TO.P,C3,1*
G04 #@! TO.N,Net-(C2-Pad1)*
X30500000Y47500000D03*
G04 #@! TD*
G04 #@! TO.P,C4,1*
G04 #@! TO.N,+5V*
X38500000Y47500000D03*
G04 #@! TO.P,C4,2*
G04 #@! TO.N,GND*
X35500000Y47500000D03*
G04 #@! TD*
D12*
G04 #@! TO.P,C5,2*
G04 #@! TO.N,GND*
X46000000Y44000000D03*
G04 #@! TO.P,C5,1*
G04 #@! TO.N,+5V*
X46000000Y52000000D03*
G04 #@! TD*
D14*
G04 #@! TO.P,D1,1*
G04 #@! TO.N,/V_MEAS*
X38000000Y38000000D03*
G04 #@! TO.P,D1,*
G04 #@! TO.N,*
X37050000Y40000000D03*
G04 #@! TO.P,D1,2*
G04 #@! TO.N,GND*
X38950000Y40000000D03*
G04 #@! TD*
D15*
G04 #@! TO.P,J4,4*
G04 #@! TO.N,Net-(J4-Pad4)*
X45960000Y36000000D03*
G04 #@! TO.P,J4,3*
G04 #@! TO.N,Net-(J4-Pad3)*
X48500000Y36000000D03*
G04 #@! TO.P,J4,2*
G04 #@! TO.N,Net-(J4-Pad2)*
X51040000Y36000000D03*
D16*
G04 #@! TO.P,J4,1*
G04 #@! TO.N,Net-(J4-Pad1)*
X53580000Y36000000D03*
G04 #@! TD*
D17*
G04 #@! TO.P,J5,2*
G04 #@! TO.N,Net-(J2-Pad1)*
X13000000Y40460000D03*
D18*
G04 #@! TO.P,J5,1*
G04 #@! TO.N,Net-(C2-Pad1)*
X13000000Y43000000D03*
G04 #@! TD*
D19*
G04 #@! TO.P,Q1,3*
G04 #@! TO.N,Net-(D3-Pad2)*
X17000000Y14500000D03*
G04 #@! TO.P,Q1,2*
G04 #@! TO.N,GND*
X19000000Y15450000D03*
G04 #@! TO.P,Q1,1*
G04 #@! TO.N,Net-(Q1-Pad1)*
X19000000Y13550000D03*
G04 #@! TD*
D20*
G04 #@! TO.P,R1,1*
G04 #@! TO.N,Net-(J2-Pad1)*
X25050000Y36000000D03*
G04 #@! TO.P,R1,2*
G04 #@! TO.N,/V_MEAS*
X27950000Y36000000D03*
G04 #@! TD*
D21*
G04 #@! TO.P,R2,2*
G04 #@! TO.N,GND*
X32000000Y40950000D03*
G04 #@! TO.P,R2,1*
G04 #@! TO.N,/V_MEAS*
X32000000Y38050000D03*
G04 #@! TD*
G04 #@! TO.P,R3,2*
G04 #@! TO.N,Net-(Q1-Pad1)*
X38000000Y13450000D03*
G04 #@! TO.P,R3,1*
G04 #@! TO.N,Net-(A1-Pad25)*
X38000000Y10550000D03*
G04 #@! TD*
G04 #@! TO.P,R4,2*
G04 #@! TO.N,Net-(R4-Pad2)*
X60500000Y13450000D03*
G04 #@! TO.P,R4,1*
G04 #@! TO.N,Net-(A1-Pad17)*
X60500000Y10550000D03*
G04 #@! TD*
G04 #@! TO.P,R5,1*
G04 #@! TO.N,Net-(A1-Pad20)*
X52000000Y10550000D03*
G04 #@! TO.P,R5,2*
G04 #@! TO.N,Net-(R5-Pad2)*
X52000000Y13450000D03*
G04 #@! TD*
G04 #@! TO.P,R6,2*
G04 #@! TO.N,Net-(R6-Pad2)*
X43500000Y13450000D03*
G04 #@! TO.P,R6,1*
G04 #@! TO.N,Net-(A1-Pad23)*
X43500000Y10550000D03*
G04 #@! TD*
G04 #@! TO.P,R7,1*
G04 #@! TO.N,Net-(A1-Pad18)*
X57500000Y10500000D03*
G04 #@! TO.P,R7,2*
G04 #@! TO.N,Net-(R7-Pad2)*
X57500000Y13400000D03*
G04 #@! TD*
G04 #@! TO.P,R8,2*
G04 #@! TO.N,Net-(R8-Pad2)*
X49500000Y13450000D03*
G04 #@! TO.P,R8,1*
G04 #@! TO.N,Net-(A1-Pad21)*
X49500000Y10550000D03*
G04 #@! TD*
G04 #@! TO.P,R9,1*
G04 #@! TO.N,Net-(A1-Pad24)*
X40500000Y10550000D03*
G04 #@! TO.P,R9,2*
G04 #@! TO.N,Net-(R9-Pad2)*
X40500000Y13450000D03*
G04 #@! TD*
G04 #@! TO.P,R10,2*
G04 #@! TO.N,Net-(R10-Pad2)*
X55000000Y13450000D03*
G04 #@! TO.P,R10,1*
G04 #@! TO.N,Net-(A1-Pad19)*
X55000000Y10550000D03*
G04 #@! TD*
G04 #@! TO.P,R11,1*
G04 #@! TO.N,Net-(A1-Pad22)*
X47000000Y10600000D03*
G04 #@! TO.P,R11,2*
G04 #@! TO.N,Net-(R11-Pad2)*
X47000000Y13500000D03*
G04 #@! TD*
D22*
G04 #@! TO.P,U1,16*
G04 #@! TO.N,Net-(R4-Pad2)*
X58890000Y18150000D03*
G04 #@! TO.P,U1,1*
G04 #@! TO.N,GND*
X58890000Y30850000D03*
G04 #@! TO.P,U1,15*
G04 #@! TO.N,Net-(R7-Pad2)*
X56350000Y18150000D03*
G04 #@! TO.P,U1,2*
G04 #@! TO.N,+5V*
X56350000Y30850000D03*
G04 #@! TO.P,U1,14*
G04 #@! TO.N,Net-(R10-Pad2)*
X53810000Y18150000D03*
G04 #@! TO.P,U1,3*
G04 #@! TO.N,Net-(J4-Pad1)*
X53810000Y30850000D03*
G04 #@! TO.P,U1,13*
G04 #@! TO.N,Net-(R5-Pad2)*
X51270000Y18150000D03*
G04 #@! TO.P,U1,4*
G04 #@! TO.N,Net-(J4-Pad2)*
X51270000Y30850000D03*
G04 #@! TO.P,U1,12*
G04 #@! TO.N,Net-(R8-Pad2)*
X48730000Y18150000D03*
G04 #@! TO.P,U1,5*
G04 #@! TO.N,Net-(J4-Pad3)*
X48730000Y30850000D03*
G04 #@! TO.P,U1,11*
G04 #@! TO.N,Net-(R11-Pad2)*
X46190000Y18150000D03*
G04 #@! TO.P,U1,6*
G04 #@! TO.N,Net-(J4-Pad4)*
X46190000Y30850000D03*
G04 #@! TO.P,U1,10*
G04 #@! TO.N,Net-(R6-Pad2)*
X43650000Y18150000D03*
G04 #@! TO.P,U1,7*
G04 #@! TO.N,GND*
X43650000Y30850000D03*
G04 #@! TO.P,U1,9*
G04 #@! TO.N,Net-(R9-Pad2)*
X41110000Y18150000D03*
G04 #@! TO.P,U1,8*
G04 #@! TO.N,Net-(J8-Pad2)*
X41110000Y30850000D03*
G04 #@! TD*
D23*
G04 #@! TO.P,U2,1*
G04 #@! TO.N,Net-(C2-Pad1)*
X31960000Y51000000D03*
G04 #@! TO.P,U2,3*
G04 #@! TO.N,+5V*
X37040000Y51000000D03*
G04 #@! TO.P,U2,2*
G04 #@! TO.N,GND*
X34500000Y51000000D03*
G04 #@! TD*
D24*
G04 #@! TO.P,A1,RST2*
G04 #@! TO.N,N/C*
X65127000Y33600000D03*
G04 #@! TO.P,A1,GND4*
X67667000Y33600000D03*
G04 #@! TO.P,A1,MOSI*
X67667000Y31060000D03*
G04 #@! TO.P,A1,SCK*
X65127000Y31060000D03*
G04 #@! TO.P,A1,5V2*
X67667000Y28520000D03*
G04 #@! TO.P,A1,9*
G04 #@! TO.N,/V_MEAS*
X52300000Y56460000D03*
G04 #@! TO.P,A1,8*
G04 #@! TO.N,Net-(A1-Pad8)*
X47220000Y56460000D03*
G04 #@! TO.P,A1,7*
G04 #@! TO.N,Net-(A1-Pad7)*
X44680000Y56460000D03*
G04 #@! TO.P,A1,6*
G04 #@! TO.N,Net-(A1-Pad6)*
X42140000Y56460000D03*
G04 #@! TO.P,A1,5*
G04 #@! TO.N,+5V*
X39600000Y56460000D03*
G04 #@! TO.P,A1,4*
G04 #@! TO.N,Net-(A1-Pad4)*
X37060000Y56460000D03*
G04 #@! TO.P,A1,3*
G04 #@! TO.N,Net-(A1-Pad3)*
X34520000Y56460000D03*
G04 #@! TO.P,A1,2*
G04 #@! TO.N,Net-(A1-Pad2)*
X31980000Y56460000D03*
G04 #@! TO.P,A1,15*
G04 #@! TO.N,Net-(A1-Pad15)*
X65000000Y8200000D03*
G04 #@! TO.P,A1,16*
G04 #@! TO.N,Net-(A1-Pad16)*
X62460000Y8200000D03*
G04 #@! TO.P,A1,17*
G04 #@! TO.N,Net-(A1-Pad17)*
X59920000Y8200000D03*
G04 #@! TO.P,A1,18*
G04 #@! TO.N,Net-(A1-Pad18)*
X57380000Y8200000D03*
G04 #@! TO.P,A1,19*
G04 #@! TO.N,Net-(A1-Pad19)*
X54840000Y8200000D03*
G04 #@! TO.P,A1,20*
G04 #@! TO.N,Net-(A1-Pad20)*
X52300000Y8200000D03*
G04 #@! TO.P,A1,21*
G04 #@! TO.N,Net-(A1-Pad21)*
X49760000Y8200000D03*
G04 #@! TO.P,A1,22*
G04 #@! TO.N,Net-(A1-Pad22)*
X47220000Y8200000D03*
G04 #@! TO.P,A1,29*
G04 #@! TO.N,Net-(A1-Pad29)*
X27916000Y8200000D03*
G04 #@! TO.P,A1,23*
G04 #@! TO.N,Net-(A1-Pad23)*
X43156000Y8200000D03*
G04 #@! TO.P,A1,24*
G04 #@! TO.N,Net-(A1-Pad24)*
X40616000Y8200000D03*
G04 #@! TO.P,A1,25*
G04 #@! TO.N,Net-(A1-Pad25)*
X38076000Y8200000D03*
G04 #@! TO.P,A1,32*
G04 #@! TO.N,N/C*
X20296000Y8200000D03*
G04 #@! TO.P,A1,31*
X22836000Y8200000D03*
G04 #@! TO.P,A1,30*
G04 #@! TO.N,Net-(A1-Pad30)*
X25376000Y8200000D03*
G04 #@! TO.P,A1,28*
G04 #@! TO.N,Net-(A1-Pad28)*
X30456000Y8200000D03*
G04 #@! TO.P,A1,27*
G04 #@! TO.N,Net-(A1-Pad27)*
X32996000Y8200000D03*
G04 #@! TO.P,A1,26*
G04 #@! TO.N,Net-(A1-Pad26)*
X35536000Y8200000D03*
G04 #@! TO.P,A1,1*
G04 #@! TO.N,Net-(A1-Pad1)*
X29440000Y56460000D03*
G04 #@! TO.P,A1,10*
G04 #@! TO.N,/V_MOTOR*
X54840000Y56460000D03*
G04 #@! TO.P,A1,11*
G04 #@! TO.N,Net-(A1-Pad11)*
X57380000Y56460000D03*
G04 #@! TO.P,A1,12*
G04 #@! TO.N,Net-(A1-Pad12)*
X59920000Y56460000D03*
G04 #@! TO.P,A1,13*
G04 #@! TO.N,Net-(A1-Pad13)*
X62460000Y56460000D03*
G04 #@! TO.P,A1,14*
G04 #@! TO.N,Net-(A1-Pad14)*
X65000000Y56460000D03*
G04 #@! TO.P,A1,MISO*
G04 #@! TO.N,N/C*
X65127000Y28520000D03*
G04 #@! TD*
D25*
G04 #@! TO.P,J2,1*
G04 #@! TO.N,Net-(J2-Pad1)*
X4500000Y40500000D03*
D26*
G04 #@! TO.P,J2,2*
G04 #@! TO.N,GND*
X4500000Y35420000D03*
G04 #@! TD*
D25*
G04 #@! TO.P,J3,1*
G04 #@! TO.N,+5V*
X5500000Y54500000D03*
D26*
G04 #@! TO.P,J3,2*
G04 #@! TO.N,GND*
X5500000Y49420000D03*
G04 #@! TD*
G04 #@! TO.P,J7,2*
G04 #@! TO.N,GND*
X4500000Y21920000D03*
D25*
G04 #@! TO.P,J7,1*
G04 #@! TO.N,Net-(J7-Pad1)*
X4500000Y27000000D03*
G04 #@! TD*
D17*
G04 #@! TO.P,J8,2*
G04 #@! TO.N,Net-(J8-Pad2)*
X13000000Y32460000D03*
D18*
G04 #@! TO.P,J8,1*
G04 #@! TO.N,Net-(J2-Pad1)*
X13000000Y35000000D03*
G04 #@! TD*
D16*
G04 #@! TO.P,J9,1*
G04 #@! TO.N,Net-(J8-Pad2)*
X18000000Y27500000D03*
D15*
G04 #@! TO.P,J9,2*
G04 #@! TO.N,Net-(J7-Pad1)*
X15460000Y27500000D03*
G04 #@! TD*
D11*
G04 #@! TO.P,C6,2*
G04 #@! TO.N,GND*
X33500000Y32500000D03*
G04 #@! TO.P,C6,1*
G04 #@! TO.N,/V_MOTOR*
X33500000Y29500000D03*
G04 #@! TD*
D14*
G04 #@! TO.P,D2,1*
G04 #@! TO.N,/V_MOTOR*
X36500000Y29500000D03*
G04 #@! TO.P,D2,*
G04 #@! TO.N,*
X35550000Y31500000D03*
G04 #@! TO.P,D2,2*
G04 #@! TO.N,GND*
X37450000Y31500000D03*
G04 #@! TD*
D20*
G04 #@! TO.P,R12,1*
G04 #@! TO.N,Net-(J8-Pad2)*
X25050000Y29500000D03*
G04 #@! TO.P,R12,2*
G04 #@! TO.N,/V_MOTOR*
X27950000Y29500000D03*
G04 #@! TD*
D21*
G04 #@! TO.P,R13,2*
G04 #@! TO.N,GND*
X31000000Y32450000D03*
G04 #@! TO.P,R13,1*
G04 #@! TO.N,/V_MOTOR*
X31000000Y29550000D03*
G04 #@! TD*
D27*
G04 #@! TO.P,D3,2*
G04 #@! TO.N,Net-(D3-Pad2)*
X19935000Y11500000D03*
G04 #@! TO.P,D3,1*
G04 #@! TO.N,Net-(D3-Pad1)*
X16065000Y11500000D03*
G04 #@! TD*
D17*
G04 #@! TO.P,J1,3*
G04 #@! TO.N,GND*
X9500000Y13580000D03*
G04 #@! TO.P,J1,2*
G04 #@! TO.N,Net-(D3-Pad2)*
X9500000Y11040000D03*
D18*
G04 #@! TO.P,J1,1*
G04 #@! TO.N,Net-(D3-Pad1)*
X9500000Y8500000D03*
G04 #@! TD*
D28*
G04 #@! TO.N,GND*
X34500000Y51000000D02*
X34500000Y47500000D01*
X33500000Y47500000D02*
X34500000Y47500000D01*
X34500000Y47500000D02*
X35500000Y47500000D01*
X5500000Y46380000D02*
X5500000Y49420000D01*
X1499999Y42379999D02*
X5500000Y46380000D01*
X1499999Y38420001D02*
X1499999Y42379999D01*
X4500000Y35420000D02*
X1499999Y38420001D01*
X29000000Y42000000D02*
X34500000Y47500000D01*
X23500000Y42000000D02*
X29000000Y42000000D01*
X38000000Y44000000D02*
X46000000Y44000000D01*
X34500000Y47500000D02*
X38000000Y44000000D01*
X43650000Y27850000D02*
X44500000Y27000000D01*
X43650000Y30850000D02*
X43650000Y27850000D01*
X58890000Y27850000D02*
X58890000Y30850000D01*
X58040000Y27000000D02*
X58890000Y27850000D01*
X44500000Y27000000D02*
X58040000Y27000000D01*
X58890000Y31250000D02*
X58890000Y30850000D01*
X70340001Y42700001D02*
X58890000Y31250000D01*
X34450000Y40950000D02*
X34500000Y41000000D01*
X32000000Y40950000D02*
X34450000Y40950000D01*
X38410001Y41650001D02*
X38950000Y41110002D01*
X35150001Y41650001D02*
X38410001Y41650001D01*
X38950000Y41110002D02*
X38950000Y40000000D01*
X34500000Y41000000D02*
X35150001Y41650001D01*
X33450000Y32450000D02*
X33500000Y32500000D01*
X31000000Y32450000D02*
X33450000Y32450000D01*
X36910001Y33150001D02*
X37450000Y32610002D01*
X34150001Y33150001D02*
X36910001Y33150001D01*
X37450000Y32610002D02*
X37450000Y31500000D01*
X33500000Y32500000D02*
X34150001Y33150001D01*
X70340001Y10485871D02*
X62854130Y3000000D01*
X70340001Y42700001D02*
X70340001Y10485871D01*
X10539998Y3000000D02*
X3539998Y10000000D01*
X62854130Y3000000D02*
X10539998Y3000000D01*
X6200000Y13580000D02*
X9500000Y13580000D01*
X3539998Y10919998D02*
X6200000Y13580000D01*
X3539998Y10000000D02*
X3539998Y10919998D01*
X9800000Y13580000D02*
X13370000Y17150000D01*
X9500000Y13580000D02*
X9800000Y13580000D01*
X19000000Y16650000D02*
X19500000Y17150000D01*
X19000000Y15450000D02*
X19000000Y16650000D01*
X13370000Y17150000D02*
X19500000Y17150000D01*
X4500000Y10960002D02*
X4500000Y21920000D01*
X3539998Y10000000D02*
X4500000Y10960002D01*
X43650000Y31421283D02*
X43650000Y30850000D01*
X37450000Y31550000D02*
X38950010Y33050010D01*
X42021273Y33050010D02*
X43650000Y31421283D01*
X38950010Y33050010D02*
X42021273Y33050010D01*
X37450000Y31500000D02*
X37450000Y31550000D01*
X9300000Y49420000D02*
X5500000Y49420000D01*
X13350010Y53470010D02*
X9300000Y49420000D01*
X32877901Y53470010D02*
X13350010Y53470010D01*
X34500000Y51847911D02*
X32877901Y53470010D01*
X34500000Y51000000D02*
X34500000Y51847911D01*
X4740000Y49420000D02*
X5500000Y49420000D01*
X2499999Y51660001D02*
X4740000Y49420000D01*
X70340001Y42700001D02*
X70340001Y44728719D01*
X70340001Y44728719D02*
X72540011Y46928728D01*
X2499999Y56500001D02*
X2499999Y51660001D01*
X72540011Y46928728D02*
X72540011Y55085402D01*
X7999998Y62000000D02*
X2499999Y56500001D01*
X72540011Y55085402D02*
X65625413Y62000000D01*
X65625413Y62000000D02*
X7999998Y62000000D01*
X38950000Y43050000D02*
X38000000Y44000000D01*
X38950000Y41110002D02*
X38950000Y43050000D01*
D29*
G04 #@! TO.N,/V_MEAS*
X37950000Y38050000D02*
X38000000Y38000000D01*
X32000000Y38050000D02*
X37950000Y38050000D01*
X31950000Y38000000D02*
X32000000Y38050000D01*
X29950000Y36000000D02*
X32000000Y38050000D01*
X27950000Y36000000D02*
X29950000Y36000000D01*
X39400000Y38000000D02*
X42400000Y41000000D01*
X38000000Y38000000D02*
X39400000Y38000000D01*
X52300000Y55238686D02*
X52300000Y56460000D01*
X52300000Y45789998D02*
X52300000Y55238686D01*
X47510002Y41000000D02*
X52300000Y45789998D01*
X42400000Y41000000D02*
X47510002Y41000000D01*
D28*
G04 #@! TO.N,Net-(C2-Pad1)*
X30500000Y49540000D02*
X30500000Y47500000D01*
X31960000Y51000000D02*
X30500000Y49540000D01*
X24500000Y51000000D02*
X23500000Y50000000D01*
X31960000Y51000000D02*
X24500000Y51000000D01*
X16500000Y43000000D02*
X23500000Y50000000D01*
X13000000Y43000000D02*
X16500000Y43000000D01*
G04 #@! TO.N,+5V*
X39600000Y53560000D02*
X37040000Y51000000D01*
X39600000Y56460000D02*
X39600000Y53560000D01*
X41160000Y52000000D02*
X46000000Y52000000D01*
X39600000Y53560000D02*
X41160000Y52000000D01*
X38500000Y49540000D02*
X37040000Y51000000D01*
X38500000Y47500000D02*
X38500000Y49540000D01*
X38021313Y59260001D02*
X39600000Y57681314D01*
X14060001Y59260001D02*
X38021313Y59260001D01*
X39600000Y57681314D02*
X39600000Y56460000D01*
X9300000Y54500000D02*
X14060001Y59260001D01*
X5500000Y54500000D02*
X9300000Y54500000D01*
X65254129Y59260001D02*
X38021313Y59260001D01*
X70340001Y54174129D02*
X65254129Y59260001D01*
X70340001Y47840001D02*
X70340001Y54174129D01*
X56350000Y33850000D02*
X70340001Y47840001D01*
X56350000Y30850000D02*
X56350000Y33850000D01*
G04 #@! TO.N,Net-(J2-Pad1)*
X12960000Y40500000D02*
X13000000Y40460000D01*
X4500000Y40500000D02*
X12960000Y40500000D01*
X13000000Y40460000D02*
X13000000Y35000000D01*
X24050000Y35000000D02*
X25050000Y36000000D01*
X13000000Y35000000D02*
X24050000Y35000000D01*
D29*
G04 #@! TO.N,Net-(J4-Pad4)*
X46190000Y35770000D02*
X45960000Y36000000D01*
X46190000Y30850000D02*
X46190000Y35770000D01*
G04 #@! TO.N,Net-(J4-Pad3)*
X48730000Y35770000D02*
X48500000Y36000000D01*
X48730000Y30850000D02*
X48730000Y35770000D01*
G04 #@! TO.N,Net-(J4-Pad2)*
X51270000Y35770000D02*
X51040000Y36000000D01*
X51270000Y30850000D02*
X51270000Y35770000D01*
G04 #@! TO.N,Net-(J4-Pad1)*
X53810000Y35770000D02*
X53580000Y36000000D01*
X53810000Y30850000D02*
X53810000Y35770000D01*
G04 #@! TO.N,Net-(Q1-Pad1)*
X37900000Y13550000D02*
X38000000Y13450000D01*
X19000000Y13550000D02*
X37900000Y13550000D01*
G04 #@! TO.N,Net-(A1-Pad25)*
X38076000Y10474000D02*
X38000000Y10550000D01*
X38076000Y8200000D02*
X38076000Y10474000D01*
G04 #@! TO.N,Net-(R4-Pad2)*
X60500000Y16540000D02*
X58890000Y18150000D01*
X60500000Y13450000D02*
X60500000Y16540000D01*
G04 #@! TO.N,Net-(A1-Pad17)*
X59920000Y9970000D02*
X60500000Y10550000D01*
X59920000Y8200000D02*
X59920000Y9970000D01*
G04 #@! TO.N,Net-(A1-Pad20)*
X52300000Y10250000D02*
X52000000Y10550000D01*
X52300000Y8200000D02*
X52300000Y10250000D01*
G04 #@! TO.N,Net-(R5-Pad2)*
X52000000Y17420000D02*
X51270000Y18150000D01*
X52000000Y13450000D02*
X52000000Y17420000D01*
G04 #@! TO.N,Net-(R6-Pad2)*
X43500000Y18000000D02*
X43650000Y18150000D01*
X43500000Y13450000D02*
X43500000Y18000000D01*
G04 #@! TO.N,Net-(A1-Pad23)*
X43156000Y10206000D02*
X43500000Y10550000D01*
X43156000Y8200000D02*
X43156000Y10206000D01*
G04 #@! TO.N,Net-(A1-Pad18)*
X57380000Y10380000D02*
X57500000Y10500000D01*
X57380000Y8200000D02*
X57380000Y10380000D01*
G04 #@! TO.N,Net-(R7-Pad2)*
X57500000Y17000000D02*
X56350000Y18150000D01*
X57500000Y13400000D02*
X57500000Y17000000D01*
G04 #@! TO.N,Net-(R8-Pad2)*
X49500000Y17380000D02*
X48730000Y18150000D01*
X49500000Y13450000D02*
X49500000Y17380000D01*
G04 #@! TO.N,Net-(A1-Pad21)*
X49760000Y10290000D02*
X49500000Y10550000D01*
X49760000Y8200000D02*
X49760000Y10290000D01*
G04 #@! TO.N,Net-(A1-Pad24)*
X40616000Y10434000D02*
X40500000Y10550000D01*
X40616000Y8200000D02*
X40616000Y10434000D01*
G04 #@! TO.N,Net-(R9-Pad2)*
X40500000Y17540000D02*
X41110000Y18150000D01*
X40500000Y13450000D02*
X40500000Y17540000D01*
G04 #@! TO.N,Net-(R10-Pad2)*
X55000000Y16960000D02*
X53810000Y18150000D01*
X55000000Y13450000D02*
X55000000Y16960000D01*
G04 #@! TO.N,Net-(A1-Pad19)*
X54840000Y10390000D02*
X55000000Y10550000D01*
X54840000Y8200000D02*
X54840000Y10390000D01*
G04 #@! TO.N,Net-(A1-Pad22)*
X47220000Y10380000D02*
X47000000Y10600000D01*
X47220000Y8200000D02*
X47220000Y10380000D01*
G04 #@! TO.N,Net-(R11-Pad2)*
X47000000Y17340000D02*
X46190000Y18150000D01*
X47000000Y13500000D02*
X47000000Y17340000D01*
D28*
G04 #@! TO.N,Net-(J7-Pad1)*
X14960000Y27000000D02*
X15460000Y27500000D01*
X4500000Y27000000D02*
X14960000Y27000000D01*
G04 #@! TO.N,Net-(J8-Pad2)*
X17660010Y27839990D02*
X18000000Y27500000D01*
X17660010Y28711273D02*
X17660010Y27839990D01*
X13911283Y32460000D02*
X17660010Y28711273D01*
X13000000Y32460000D02*
X13911283Y32460000D01*
X41110000Y30450000D02*
X41110000Y30850000D01*
X38109999Y27449999D02*
X41110000Y30450000D01*
X21050001Y27449999D02*
X38109999Y27449999D01*
X21000000Y27500000D02*
X21050001Y27449999D01*
X18000000Y27500000D02*
X21000000Y27500000D01*
D29*
X23000000Y29500000D02*
X25050000Y29500000D01*
X21000000Y27500000D02*
X23000000Y29500000D01*
G04 #@! TO.N,/V_MOTOR*
X33450000Y29550000D02*
X33500000Y29500000D01*
X31000000Y29550000D02*
X33450000Y29550000D01*
X33500000Y29500000D02*
X36500000Y29500000D01*
X30950000Y29500000D02*
X31000000Y29550000D01*
X54840000Y55238686D02*
X54840000Y56460000D01*
X54840000Y46632928D02*
X54840000Y55238686D01*
X46299990Y39799990D02*
X48007063Y39799991D01*
X48007063Y39799991D02*
X54840000Y46632928D01*
X43299990Y36799990D02*
X46299990Y39799990D01*
X34799990Y36799990D02*
X43299990Y36799990D01*
X29799990Y34799990D02*
X32799990Y34799990D01*
X29000000Y34000000D02*
X29799990Y34799990D01*
X29000000Y29500000D02*
X29000000Y34000000D01*
X32799990Y34799990D02*
X34799990Y36799990D01*
X27950000Y29500000D02*
X29000000Y29500000D01*
X29000000Y29500000D02*
X30950000Y29500000D01*
G04 #@! TO.N,Net-(D3-Pad2)*
X15550000Y14500000D02*
X17000000Y14500000D01*
X15260000Y14500000D02*
X15550000Y14500000D01*
X11800000Y11040000D02*
X15260000Y14500000D01*
X9500000Y11040000D02*
X11800000Y11040000D01*
X18600000Y11500000D02*
X19935000Y11500000D01*
X17000000Y13100000D02*
X18600000Y11500000D01*
X17000000Y14500000D02*
X17000000Y13100000D01*
G04 #@! TO.N,Net-(D3-Pad1)*
X13065000Y8500000D02*
X16065000Y11500000D01*
X9500000Y8500000D02*
X13065000Y8500000D01*
G04 #@! TD*
D30*
G04 #@! TO.N,GND*
G36*
X73373000Y710000D02*
X710000Y710000D01*
X710000Y11040000D01*
X7532969Y11040000D01*
X7659864Y10402055D01*
X7890489Y10056900D01*
X7742191Y9957809D01*
X7601843Y9747765D01*
X7552560Y9500000D01*
X7552560Y7500000D01*
X7601843Y7252235D01*
X7742191Y7042191D01*
X7952235Y6901843D01*
X8200000Y6852560D01*
X10800000Y6852560D01*
X11047765Y6901843D01*
X11257809Y7042191D01*
X11398157Y7252235D01*
X11420587Y7365000D01*
X12953217Y7365000D01*
X13065000Y7342765D01*
X13176783Y7365000D01*
X13507855Y7430854D01*
X13883289Y7681711D01*
X13946613Y7776482D01*
X14505000Y8334869D01*
X14505000Y7755431D01*
X14845259Y6933974D01*
X15473974Y6305259D01*
X16295431Y5965000D01*
X17184569Y5965000D01*
X18006026Y6305259D01*
X18634741Y6933974D01*
X18904472Y7585161D01*
X19215570Y7119570D01*
X19711275Y6788350D01*
X20148402Y6701400D01*
X20443598Y6701400D01*
X20880725Y6788350D01*
X21376430Y7119570D01*
X21566000Y7403281D01*
X21755570Y7119570D01*
X22251275Y6788350D01*
X22688402Y6701400D01*
X22983598Y6701400D01*
X23420725Y6788350D01*
X23916430Y7119570D01*
X24106000Y7403281D01*
X24295570Y7119570D01*
X24791275Y6788350D01*
X25228402Y6701400D01*
X25523598Y6701400D01*
X25960725Y6788350D01*
X26456430Y7119570D01*
X26646000Y7403281D01*
X26835570Y7119570D01*
X27331275Y6788350D01*
X27768402Y6701400D01*
X28063598Y6701400D01*
X28500725Y6788350D01*
X28996430Y7119570D01*
X29186000Y7403281D01*
X29375570Y7119570D01*
X29871275Y6788350D01*
X30308402Y6701400D01*
X30603598Y6701400D01*
X31040725Y6788350D01*
X31536430Y7119570D01*
X31726000Y7403281D01*
X31915570Y7119570D01*
X32411275Y6788350D01*
X32848402Y6701400D01*
X33143598Y6701400D01*
X33580725Y6788350D01*
X34076430Y7119570D01*
X34266000Y7403281D01*
X34455570Y7119570D01*
X34951275Y6788350D01*
X35388402Y6701400D01*
X35683598Y6701400D01*
X36120725Y6788350D01*
X36616430Y7119570D01*
X36806000Y7403281D01*
X36995570Y7119570D01*
X37491275Y6788350D01*
X37928402Y6701400D01*
X38223598Y6701400D01*
X38660725Y6788350D01*
X39156430Y7119570D01*
X39346000Y7403281D01*
X39535570Y7119570D01*
X40031275Y6788350D01*
X40468402Y6701400D01*
X40763598Y6701400D01*
X41200725Y6788350D01*
X41696430Y7119570D01*
X41886000Y7403281D01*
X42075570Y7119570D01*
X42571275Y6788350D01*
X43008402Y6701400D01*
X43303598Y6701400D01*
X43740725Y6788350D01*
X44236430Y7119570D01*
X44567650Y7615275D01*
X44683959Y8200000D01*
X44567650Y8784725D01*
X44291000Y9198760D01*
X44291000Y9452560D01*
X44350000Y9452560D01*
X44597765Y9501843D01*
X44807809Y9642191D01*
X44948157Y9852235D01*
X44997440Y10100000D01*
X44997440Y11000000D01*
X44987495Y11050000D01*
X45502560Y11050000D01*
X45502560Y10150000D01*
X45551843Y9902235D01*
X45692191Y9692191D01*
X45902235Y9551843D01*
X46085001Y9515489D01*
X46085000Y9198761D01*
X45808350Y8784725D01*
X45692041Y8200000D01*
X45808350Y7615275D01*
X46139570Y7119570D01*
X46635275Y6788350D01*
X47072402Y6701400D01*
X47367598Y6701400D01*
X47804725Y6788350D01*
X48300430Y7119570D01*
X48490000Y7403281D01*
X48679570Y7119570D01*
X49175275Y6788350D01*
X49612402Y6701400D01*
X49907598Y6701400D01*
X50344725Y6788350D01*
X50840430Y7119570D01*
X51030000Y7403281D01*
X51219570Y7119570D01*
X51715275Y6788350D01*
X52152402Y6701400D01*
X52447598Y6701400D01*
X52884725Y6788350D01*
X53380430Y7119570D01*
X53570000Y7403281D01*
X53759570Y7119570D01*
X54255275Y6788350D01*
X54692402Y6701400D01*
X54987598Y6701400D01*
X55424725Y6788350D01*
X55920430Y7119570D01*
X56110000Y7403281D01*
X56299570Y7119570D01*
X56795275Y6788350D01*
X57232402Y6701400D01*
X57527598Y6701400D01*
X57964725Y6788350D01*
X58460430Y7119570D01*
X58650000Y7403281D01*
X58839570Y7119570D01*
X59335275Y6788350D01*
X59772402Y6701400D01*
X60067598Y6701400D01*
X60504725Y6788350D01*
X61000430Y7119570D01*
X61190000Y7403281D01*
X61379570Y7119570D01*
X61875275Y6788350D01*
X62312402Y6701400D01*
X62607598Y6701400D01*
X63044725Y6788350D01*
X63540430Y7119570D01*
X63730000Y7403281D01*
X63919570Y7119570D01*
X64415275Y6788350D01*
X64852402Y6701400D01*
X65147598Y6701400D01*
X65584725Y6788350D01*
X66080430Y7119570D01*
X66411650Y7615275D01*
X66527959Y8200000D01*
X66411650Y8784725D01*
X66080430Y9280430D01*
X65584725Y9611650D01*
X65147598Y9698600D01*
X64852402Y9698600D01*
X64415275Y9611650D01*
X63919570Y9280430D01*
X63730000Y8996719D01*
X63540430Y9280430D01*
X63044725Y9611650D01*
X62607598Y9698600D01*
X62312402Y9698600D01*
X61875275Y9611650D01*
X61379570Y9280430D01*
X61190000Y8996719D01*
X61055000Y9198760D01*
X61055000Y9452560D01*
X61350000Y9452560D01*
X61597765Y9501843D01*
X61807809Y9642191D01*
X61948157Y9852235D01*
X61997440Y10100000D01*
X61997440Y11000000D01*
X61948157Y11247765D01*
X61807809Y11457809D01*
X61597765Y11598157D01*
X61350000Y11647440D01*
X60800610Y11647440D01*
X60500000Y11707235D01*
X60199389Y11647440D01*
X59650000Y11647440D01*
X59402235Y11598157D01*
X59192191Y11457809D01*
X59051843Y11247765D01*
X59002560Y11000000D01*
X59002560Y10639898D01*
X58997440Y10632235D01*
X58997440Y10950000D01*
X58948157Y11197765D01*
X58807809Y11407809D01*
X58597765Y11548157D01*
X58350000Y11597440D01*
X57800610Y11597440D01*
X57500000Y11657235D01*
X57199390Y11597440D01*
X56650000Y11597440D01*
X56402235Y11548157D01*
X56287415Y11471436D01*
X56097765Y11598157D01*
X55850000Y11647440D01*
X55300610Y11647440D01*
X54999999Y11707235D01*
X54699389Y11647440D01*
X54150000Y11647440D01*
X53902235Y11598157D01*
X53692191Y11457809D01*
X53551843Y11247765D01*
X53502560Y11000000D01*
X53502560Y10100000D01*
X53551843Y9852235D01*
X53692191Y9642191D01*
X53705001Y9633632D01*
X53705000Y9198761D01*
X53570000Y8996719D01*
X53435000Y9198760D01*
X53435000Y9832544D01*
X53448157Y9852235D01*
X53497440Y10100000D01*
X53497440Y11000000D01*
X53448157Y11247765D01*
X53307809Y11457809D01*
X53097765Y11598157D01*
X52850000Y11647440D01*
X52300610Y11647440D01*
X52000000Y11707235D01*
X51699390Y11647440D01*
X51150000Y11647440D01*
X50902235Y11598157D01*
X50750000Y11496436D01*
X50597765Y11598157D01*
X50350000Y11647440D01*
X49800610Y11647440D01*
X49500000Y11707235D01*
X49199390Y11647440D01*
X48650000Y11647440D01*
X48402235Y11598157D01*
X48287415Y11521436D01*
X48097765Y11648157D01*
X47850000Y11697440D01*
X47300610Y11697440D01*
X47000000Y11757235D01*
X46699390Y11697440D01*
X46150000Y11697440D01*
X45902235Y11648157D01*
X45692191Y11507809D01*
X45551843Y11297765D01*
X45502560Y11050000D01*
X44987495Y11050000D01*
X44948157Y11247765D01*
X44807809Y11457809D01*
X44597765Y11598157D01*
X44350000Y11647440D01*
X43800607Y11647440D01*
X43499999Y11707235D01*
X43199393Y11647440D01*
X42650000Y11647440D01*
X42402235Y11598157D01*
X42192191Y11457809D01*
X42051843Y11247765D01*
X42002560Y11000000D01*
X42002560Y10225079D01*
X41998765Y10206000D01*
X42002560Y10186921D01*
X42002560Y10100000D01*
X42021001Y10007291D01*
X42021000Y9198761D01*
X41886000Y8996719D01*
X41751000Y9198760D01*
X41751000Y9604232D01*
X41807809Y9642191D01*
X41948157Y9852235D01*
X41997440Y10100000D01*
X41997440Y11000000D01*
X41948157Y11247765D01*
X41807809Y11457809D01*
X41597765Y11598157D01*
X41350000Y11647440D01*
X40800610Y11647440D01*
X40500000Y11707235D01*
X40199390Y11647440D01*
X39650000Y11647440D01*
X39402235Y11598157D01*
X39250000Y11496436D01*
X39097765Y11598157D01*
X38850000Y11647440D01*
X38300610Y11647440D01*
X38000000Y11707235D01*
X37699390Y11647440D01*
X37150000Y11647440D01*
X36902235Y11598157D01*
X36692191Y11457809D01*
X36551843Y11247765D01*
X36502560Y11000000D01*
X36502560Y10100000D01*
X36551843Y9852235D01*
X36692191Y9642191D01*
X36902235Y9501843D01*
X36941001Y9494132D01*
X36941000Y9198761D01*
X36806000Y8996719D01*
X36616430Y9280430D01*
X36120725Y9611650D01*
X35683598Y9698600D01*
X35388402Y9698600D01*
X34951275Y9611650D01*
X34455570Y9280430D01*
X34266000Y8996719D01*
X34076430Y9280430D01*
X33580725Y9611650D01*
X33143598Y9698600D01*
X32848402Y9698600D01*
X32411275Y9611650D01*
X31915570Y9280430D01*
X31726000Y8996719D01*
X31536430Y9280430D01*
X31040725Y9611650D01*
X30603598Y9698600D01*
X30308402Y9698600D01*
X29871275Y9611650D01*
X29375570Y9280430D01*
X29186000Y8996719D01*
X28996430Y9280430D01*
X28500725Y9611650D01*
X28063598Y9698600D01*
X27768402Y9698600D01*
X27331275Y9611650D01*
X26835570Y9280430D01*
X26646000Y8996719D01*
X26456430Y9280430D01*
X25960725Y9611650D01*
X25523598Y9698600D01*
X25228402Y9698600D01*
X24791275Y9611650D01*
X24295570Y9280430D01*
X24106000Y8996719D01*
X23916430Y9280430D01*
X23420725Y9611650D01*
X22983598Y9698600D01*
X22688402Y9698600D01*
X22251275Y9611650D01*
X21755570Y9280430D01*
X21566000Y8996719D01*
X21376430Y9280430D01*
X20880725Y9611650D01*
X20443598Y9698600D01*
X20148402Y9698600D01*
X19711275Y9611650D01*
X19215570Y9280430D01*
X18904472Y8814839D01*
X18634741Y9466026D01*
X18006026Y10094741D01*
X17230497Y10415976D01*
X17298157Y10517235D01*
X17347440Y10765000D01*
X17347440Y11147428D01*
X17718389Y10776479D01*
X17781711Y10681711D01*
X18092571Y10474001D01*
X18157145Y10430854D01*
X18600000Y10342765D01*
X18711783Y10365000D01*
X18803564Y10365000D01*
X18842191Y10307191D01*
X19052235Y10166843D01*
X19300000Y10117560D01*
X20570000Y10117560D01*
X20817765Y10166843D01*
X21027809Y10307191D01*
X21168157Y10517235D01*
X21217440Y10765000D01*
X21217440Y12235000D01*
X21181636Y12415000D01*
X36882544Y12415000D01*
X36902235Y12401843D01*
X37150000Y12352560D01*
X37699393Y12352560D01*
X37999999Y12292765D01*
X38300607Y12352560D01*
X38850000Y12352560D01*
X39097765Y12401843D01*
X39250000Y12503564D01*
X39402235Y12401843D01*
X39650000Y12352560D01*
X40199389Y12352560D01*
X40500000Y12292765D01*
X40800610Y12352560D01*
X41350000Y12352560D01*
X41597765Y12401843D01*
X41807809Y12542191D01*
X41948157Y12752235D01*
X41997440Y13000000D01*
X41997440Y13900000D01*
X41948157Y14147765D01*
X41807809Y14357809D01*
X41635000Y14473277D01*
X41635000Y16615473D01*
X42000385Y16859615D01*
X42273344Y17268127D01*
X42345000Y17628364D01*
X42345000Y17988764D01*
X42365001Y17888212D01*
X42365000Y14473277D01*
X42192191Y14357809D01*
X42051843Y14147765D01*
X42002560Y13900000D01*
X42002560Y13000000D01*
X42051843Y12752235D01*
X42192191Y12542191D01*
X42402235Y12401843D01*
X42650000Y12352560D01*
X43199389Y12352560D01*
X43500000Y12292765D01*
X43800610Y12352560D01*
X44350000Y12352560D01*
X44597765Y12401843D01*
X44807809Y12542191D01*
X44948157Y12752235D01*
X44997440Y13000000D01*
X44997440Y13900000D01*
X44948157Y14147765D01*
X44807809Y14357809D01*
X44635000Y14473277D01*
X44635000Y17001216D01*
X44813344Y17268127D01*
X44885000Y17628364D01*
X44885000Y18671635D01*
X44885000Y18671636D01*
X44955000Y18671636D01*
X44955000Y17628365D01*
X45026656Y17268128D01*
X45299615Y16859615D01*
X45708127Y16586656D01*
X45865001Y16555452D01*
X45865000Y14523277D01*
X45692191Y14407809D01*
X45551843Y14197765D01*
X45502560Y13950000D01*
X45502560Y13050000D01*
X45551843Y12802235D01*
X45692191Y12592191D01*
X45902235Y12451843D01*
X46150000Y12402560D01*
X46699389Y12402560D01*
X47000000Y12342765D01*
X47300610Y12402560D01*
X47850000Y12402560D01*
X48097765Y12451843D01*
X48212585Y12528564D01*
X48402235Y12401843D01*
X48650000Y12352560D01*
X49199389Y12352560D01*
X49500000Y12292765D01*
X49800610Y12352560D01*
X50350000Y12352560D01*
X50597765Y12401843D01*
X50750000Y12503564D01*
X50902235Y12401843D01*
X51150000Y12352560D01*
X51699389Y12352560D01*
X52000000Y12292765D01*
X52300610Y12352560D01*
X52850000Y12352560D01*
X53097765Y12401843D01*
X53307809Y12542191D01*
X53448157Y12752235D01*
X53497440Y13000000D01*
X53497440Y13900000D01*
X53448157Y14147765D01*
X53307809Y14357809D01*
X53135000Y14473277D01*
X53135000Y16715699D01*
X53328127Y16586656D01*
X53810000Y16490805D01*
X53855094Y16499775D01*
X53865001Y16489867D01*
X53865000Y14473277D01*
X53692191Y14357809D01*
X53551843Y14147765D01*
X53502560Y13900000D01*
X53502560Y13000000D01*
X53551843Y12752235D01*
X53692191Y12542191D01*
X53902235Y12401843D01*
X54150000Y12352560D01*
X54699389Y12352560D01*
X55000000Y12292765D01*
X55300610Y12352560D01*
X55850000Y12352560D01*
X56097765Y12401843D01*
X56212585Y12478564D01*
X56402235Y12351843D01*
X56650000Y12302560D01*
X57199389Y12302560D01*
X57500000Y12242765D01*
X57800610Y12302560D01*
X58350000Y12302560D01*
X58597765Y12351843D01*
X58807809Y12492191D01*
X58948157Y12702235D01*
X58997440Y12950000D01*
X58997440Y13850000D01*
X58948157Y14097765D01*
X58807809Y14307809D01*
X58635000Y14423277D01*
X58635000Y16541528D01*
X58890000Y16490805D01*
X58935094Y16499775D01*
X59365001Y16069867D01*
X59365000Y14473277D01*
X59192191Y14357809D01*
X59051843Y14147765D01*
X59002560Y13900000D01*
X59002560Y13000000D01*
X59051843Y12752235D01*
X59192191Y12542191D01*
X59402235Y12401843D01*
X59650000Y12352560D01*
X60199389Y12352560D01*
X60500000Y12292765D01*
X60800610Y12352560D01*
X61350000Y12352560D01*
X61597765Y12401843D01*
X61807809Y12542191D01*
X61948157Y12752235D01*
X61997440Y13000000D01*
X61997440Y13900000D01*
X61948157Y14147765D01*
X61807809Y14357809D01*
X61635000Y14473277D01*
X61635000Y16428217D01*
X61657235Y16540000D01*
X61569146Y16982855D01*
X61478583Y17118392D01*
X61318289Y17358289D01*
X61223521Y17421611D01*
X60125000Y18520131D01*
X60125000Y18671635D01*
X60053344Y19031873D01*
X59780385Y19440385D01*
X59371873Y19713344D01*
X58890000Y19809195D01*
X58408128Y19713344D01*
X57999616Y19440385D01*
X57726656Y19031873D01*
X57655000Y18671636D01*
X57655000Y18450131D01*
X57585000Y18520131D01*
X57585000Y18671635D01*
X57513344Y19031873D01*
X57240385Y19440385D01*
X56831873Y19713344D01*
X56350000Y19809195D01*
X55868128Y19713344D01*
X55459616Y19440385D01*
X55186656Y19031873D01*
X55115000Y18671636D01*
X55115000Y18450131D01*
X55045000Y18520131D01*
X55045000Y18671635D01*
X54973344Y19031873D01*
X54700385Y19440385D01*
X54291873Y19713344D01*
X53810000Y19809195D01*
X53328128Y19713344D01*
X52919616Y19440385D01*
X52646656Y19031873D01*
X52575000Y18671636D01*
X52575000Y18450132D01*
X52505000Y18520132D01*
X52505000Y18671635D01*
X52433344Y19031873D01*
X52160385Y19440385D01*
X51751873Y19713344D01*
X51270000Y19809195D01*
X50788128Y19713344D01*
X50379616Y19440385D01*
X50106656Y19031873D01*
X50035000Y18671636D01*
X50035000Y18450132D01*
X49965000Y18520132D01*
X49965000Y18671635D01*
X49893344Y19031873D01*
X49620385Y19440385D01*
X49211873Y19713344D01*
X48730000Y19809195D01*
X48248128Y19713344D01*
X47839616Y19440385D01*
X47566656Y19031873D01*
X47495000Y18671636D01*
X47495000Y18450132D01*
X47425000Y18520132D01*
X47425000Y18671635D01*
X47353344Y19031873D01*
X47080385Y19440385D01*
X46671873Y19713344D01*
X46190000Y19809195D01*
X45708128Y19713344D01*
X45299616Y19440385D01*
X45026656Y19031873D01*
X44955000Y18671636D01*
X44885000Y18671636D01*
X44813344Y19031873D01*
X44540385Y19440385D01*
X44131873Y19713344D01*
X43650000Y19809195D01*
X43168128Y19713344D01*
X42759616Y19440385D01*
X42486656Y19031873D01*
X42415000Y18671636D01*
X42415000Y18363150D01*
X42345000Y18011236D01*
X42345000Y18671635D01*
X42273344Y19031873D01*
X42000385Y19440385D01*
X41591873Y19713344D01*
X41110000Y19809195D01*
X40628128Y19713344D01*
X40219616Y19440385D01*
X39946656Y19031873D01*
X39875000Y18671636D01*
X39875000Y18520131D01*
X39776480Y18421611D01*
X39681712Y18358289D01*
X39496085Y18080478D01*
X39430854Y17982854D01*
X39342765Y17540000D01*
X39365001Y17428212D01*
X39365000Y14473277D01*
X39250000Y14396436D01*
X39097765Y14498157D01*
X38850000Y14547440D01*
X38450171Y14547440D01*
X38342855Y14619146D01*
X38011783Y14685000D01*
X37900000Y14707235D01*
X37788217Y14685000D01*
X19983026Y14685000D01*
X19988327Y14690301D01*
X20085000Y14923690D01*
X20085000Y15164250D01*
X19926250Y15323000D01*
X19127000Y15323000D01*
X19127000Y15303000D01*
X18873000Y15303000D01*
X18873000Y15323000D01*
X18073750Y15323000D01*
X17988219Y15237469D01*
X17907809Y15357809D01*
X17697765Y15498157D01*
X17486081Y15540263D01*
X17442855Y15569146D01*
X17111783Y15635000D01*
X17000000Y15657235D01*
X16888217Y15635000D01*
X15371783Y15635000D01*
X15260000Y15657235D01*
X15148217Y15635000D01*
X14817145Y15569146D01*
X14441711Y15318289D01*
X14378389Y15223521D01*
X11329869Y12175000D01*
X11008015Y12175000D01*
X10978769Y12218769D01*
X10812371Y12329952D01*
X11045922Y12513683D01*
X11359144Y13071645D01*
X11390124Y13199566D01*
X11270777Y13453000D01*
X9627000Y13453000D01*
X9627000Y13433000D01*
X9373000Y13433000D01*
X9373000Y13453000D01*
X7729223Y13453000D01*
X7609876Y13199566D01*
X7640856Y13071645D01*
X7954078Y12513683D01*
X8187629Y12329952D01*
X8021231Y12218769D01*
X7659864Y11677945D01*
X7532969Y11040000D01*
X710000Y11040000D01*
X710000Y13960434D01*
X7609876Y13960434D01*
X7729223Y13707000D01*
X9373000Y13707000D01*
X9373000Y15215000D01*
X9627000Y15215000D01*
X9627000Y13707000D01*
X11270777Y13707000D01*
X11390124Y13960434D01*
X11359144Y14088355D01*
X11045922Y14646317D01*
X10543020Y15041942D01*
X9927000Y15215000D01*
X9627000Y15215000D01*
X9373000Y15215000D01*
X9073000Y15215000D01*
X8456980Y15041942D01*
X7954078Y14646317D01*
X7640856Y14088355D01*
X7609876Y13960434D01*
X710000Y13960434D01*
X710000Y15976310D01*
X17915000Y15976310D01*
X17915000Y15735750D01*
X18073750Y15577000D01*
X18873000Y15577000D01*
X18873000Y16326250D01*
X19127000Y16326250D01*
X19127000Y15577000D01*
X19926250Y15577000D01*
X20085000Y15735750D01*
X20085000Y15976310D01*
X19988327Y16209699D01*
X19809698Y16388327D01*
X19576309Y16485000D01*
X19285750Y16485000D01*
X19127000Y16326250D01*
X18873000Y16326250D01*
X18714250Y16485000D01*
X18423691Y16485000D01*
X18190302Y16388327D01*
X18011673Y16209699D01*
X17915000Y15976310D01*
X710000Y15976310D01*
X710000Y21533290D01*
X2110252Y21533290D01*
X2143901Y21396338D01*
X2465794Y20825399D01*
X2981673Y20421103D01*
X3613000Y20245000D01*
X4373000Y20245000D01*
X4373000Y21793000D01*
X4627000Y21793000D01*
X4627000Y20245000D01*
X5387000Y20245000D01*
X6018327Y20421103D01*
X6534206Y20825399D01*
X6856099Y21396338D01*
X6889748Y21533290D01*
X6770922Y21793000D01*
X4627000Y21793000D01*
X4373000Y21793000D01*
X2229078Y21793000D01*
X2110252Y21533290D01*
X710000Y21533290D01*
X710000Y22306710D01*
X2110252Y22306710D01*
X2229078Y22047000D01*
X4373000Y22047000D01*
X4373000Y23595000D01*
X4627000Y23595000D01*
X4627000Y22047000D01*
X6770922Y22047000D01*
X6889748Y22306710D01*
X6856099Y22443662D01*
X6534206Y23014601D01*
X6018327Y23418897D01*
X5387000Y23595000D01*
X4627000Y23595000D01*
X4373000Y23595000D01*
X3613000Y23595000D01*
X2981673Y23418897D01*
X2465794Y23014601D01*
X2143901Y22443662D01*
X2110252Y22306710D01*
X710000Y22306710D01*
X710000Y23884569D01*
X65305000Y23884569D01*
X65305000Y22995431D01*
X65645259Y22173974D01*
X66273974Y21545259D01*
X67095431Y21205000D01*
X67984569Y21205000D01*
X68806026Y21545259D01*
X69434741Y22173974D01*
X69775000Y22995431D01*
X69775000Y23884569D01*
X69434741Y24706026D01*
X68806026Y25334741D01*
X67984569Y25675000D01*
X67095431Y25675000D01*
X66273974Y25334741D01*
X65645259Y24706026D01*
X65305000Y23884569D01*
X710000Y23884569D01*
X710000Y35033290D01*
X2110252Y35033290D01*
X2143901Y34896338D01*
X2465794Y34325399D01*
X2981673Y33921103D01*
X3613000Y33745000D01*
X4373000Y33745000D01*
X4373000Y35293000D01*
X4627000Y35293000D01*
X4627000Y33745000D01*
X5387000Y33745000D01*
X6018327Y33921103D01*
X6534206Y34325399D01*
X6856099Y34896338D01*
X6889748Y35033290D01*
X6770922Y35293000D01*
X4627000Y35293000D01*
X4373000Y35293000D01*
X2229078Y35293000D01*
X2110252Y35033290D01*
X710000Y35033290D01*
X710000Y35806710D01*
X2110252Y35806710D01*
X2229078Y35547000D01*
X4373000Y35547000D01*
X4373000Y37095000D01*
X4627000Y37095000D01*
X4627000Y35547000D01*
X6770922Y35547000D01*
X6889748Y35806710D01*
X6856099Y35943662D01*
X6534206Y36514601D01*
X6018327Y36918897D01*
X5387000Y37095000D01*
X4627000Y37095000D01*
X4373000Y37095000D01*
X3613000Y37095000D01*
X2981673Y36918897D01*
X2465794Y36514601D01*
X2143901Y35943662D01*
X2110252Y35806710D01*
X710000Y35806710D01*
X710000Y41540000D01*
X2052560Y41540000D01*
X2052560Y39460000D01*
X2101843Y39212235D01*
X2242191Y39002191D01*
X2452235Y38861843D01*
X2700000Y38812560D01*
X6300000Y38812560D01*
X6547765Y38861843D01*
X6552490Y38865000D01*
X11365000Y38865000D01*
X11365001Y36539868D01*
X11242191Y36457809D01*
X11101843Y36247765D01*
X11052560Y36000000D01*
X11052560Y34000000D01*
X11101843Y33752235D01*
X11242191Y33542191D01*
X11390489Y33443100D01*
X11159864Y33097945D01*
X11032969Y32460000D01*
X11159864Y31822055D01*
X11521231Y31281231D01*
X12062055Y30919864D01*
X12538969Y30825000D01*
X13234045Y30825000D01*
X14760223Y29298821D01*
X14281231Y28978769D01*
X14051532Y28635000D01*
X6552490Y28635000D01*
X6547765Y28638157D01*
X6300000Y28687440D01*
X2700000Y28687440D01*
X2452235Y28638157D01*
X2242191Y28497809D01*
X2101843Y28287765D01*
X2052560Y28040000D01*
X2052560Y25960000D01*
X2101843Y25712235D01*
X2242191Y25502191D01*
X2452235Y25361843D01*
X2700000Y25312560D01*
X6300000Y25312560D01*
X6547765Y25361843D01*
X6552490Y25365000D01*
X14798970Y25365000D01*
X14960000Y25332969D01*
X15121030Y25365000D01*
X15121031Y25365000D01*
X15597945Y25459864D01*
X15812203Y25603027D01*
X16097944Y25659864D01*
X16443100Y25890490D01*
X16542191Y25742191D01*
X16752235Y25601843D01*
X17000000Y25552560D01*
X19000000Y25552560D01*
X19247765Y25601843D01*
X19457809Y25742191D01*
X19539868Y25865000D01*
X20637598Y25865000D01*
X20888970Y25814999D01*
X20888971Y25814999D01*
X21050000Y25782968D01*
X21211030Y25814999D01*
X37948969Y25814999D01*
X38109999Y25782968D01*
X38271029Y25814999D01*
X38271030Y25814999D01*
X38747944Y25909863D01*
X39288768Y26271230D01*
X39379987Y26407749D01*
X42152253Y29180014D01*
X42288769Y29271231D01*
X42626560Y29776770D01*
X42866526Y29486920D01*
X43294719Y29260408D01*
X43332391Y29256538D01*
X43523000Y29381269D01*
X43523000Y30723000D01*
X43777000Y30723000D01*
X43777000Y29381269D01*
X43967609Y29256538D01*
X44005281Y29260408D01*
X44433474Y29486920D01*
X44742390Y29860053D01*
X44885000Y30323000D01*
X44885000Y30723000D01*
X43777000Y30723000D01*
X43523000Y30723000D01*
X43503000Y30723000D01*
X43503000Y30977000D01*
X43523000Y30977000D01*
X43523000Y32318731D01*
X43777000Y32318731D01*
X43777000Y30977000D01*
X44885000Y30977000D01*
X44885000Y31377000D01*
X44742390Y31839947D01*
X44433474Y32213080D01*
X44005281Y32439592D01*
X43967609Y32443462D01*
X43777000Y32318731D01*
X43523000Y32318731D01*
X43332391Y32443462D01*
X43294719Y32439592D01*
X42866526Y32213080D01*
X42557610Y31839947D01*
X42512589Y31693798D01*
X42288769Y32028769D01*
X41747945Y32390136D01*
X41110000Y32517031D01*
X40472056Y32390136D01*
X39931231Y32028769D01*
X39569864Y31487945D01*
X39503855Y31156094D01*
X37609927Y29262165D01*
X37657235Y29500000D01*
X37569146Y29942855D01*
X37540263Y29986081D01*
X37498157Y30197765D01*
X37357809Y30407809D01*
X37237469Y30488219D01*
X37323000Y30573750D01*
X37323000Y31373000D01*
X37577000Y31373000D01*
X37577000Y30573750D01*
X37735750Y30415000D01*
X37976310Y30415000D01*
X38209699Y30511673D01*
X38388327Y30690302D01*
X38485000Y30923691D01*
X38485000Y31214250D01*
X38326250Y31373000D01*
X37577000Y31373000D01*
X37323000Y31373000D01*
X37303000Y31373000D01*
X37303000Y31627000D01*
X37323000Y31627000D01*
X37323000Y32426250D01*
X37577000Y32426250D01*
X37577000Y31627000D01*
X38326250Y31627000D01*
X38485000Y31785750D01*
X38485000Y32076309D01*
X38388327Y32309698D01*
X38209699Y32488327D01*
X37976310Y32585000D01*
X37735750Y32585000D01*
X37577000Y32426250D01*
X37323000Y32426250D01*
X37164250Y32585000D01*
X36923690Y32585000D01*
X36690301Y32488327D01*
X36511673Y32309698D01*
X36497013Y32274306D01*
X36407809Y32407809D01*
X36197765Y32548157D01*
X35950000Y32597440D01*
X35150000Y32597440D01*
X34935000Y32554674D01*
X34935000Y32627002D01*
X34776252Y32627002D01*
X34935000Y32785750D01*
X34935000Y33126309D01*
X34838327Y33359698D01*
X34659699Y33538327D01*
X34426310Y33635000D01*
X33785750Y33635000D01*
X33627000Y33476250D01*
X33627000Y32627000D01*
X33647000Y32627000D01*
X33647000Y32373000D01*
X33627000Y32373000D01*
X33627000Y31523750D01*
X33785750Y31365000D01*
X34426310Y31365000D01*
X34502560Y31396584D01*
X34502560Y31050000D01*
X34551843Y30802235D01*
X34663587Y30635000D01*
X34362541Y30635000D01*
X34300000Y30647440D01*
X33750611Y30647440D01*
X33561783Y30685000D01*
X33450000Y30707235D01*
X33338217Y30685000D01*
X31111783Y30685000D01*
X31000000Y30707235D01*
X30888217Y30685000D01*
X30699389Y30647440D01*
X30150000Y30647440D01*
X30135000Y30644456D01*
X30135000Y31365000D01*
X30714250Y31365000D01*
X30873000Y31523750D01*
X30873000Y32323000D01*
X31127000Y32323000D01*
X31127000Y31523750D01*
X31285750Y31365000D01*
X31976310Y31365000D01*
X32209699Y31461673D01*
X32275000Y31526974D01*
X32340301Y31461673D01*
X32573690Y31365000D01*
X33214250Y31365000D01*
X33373000Y31523750D01*
X33373000Y32373000D01*
X32223750Y32373000D01*
X32173750Y32323000D01*
X31127000Y32323000D01*
X30873000Y32323000D01*
X30853000Y32323000D01*
X30853000Y32577000D01*
X30873000Y32577000D01*
X30873000Y33376250D01*
X31127000Y33376250D01*
X31127000Y32577000D01*
X32326250Y32577000D01*
X32376250Y32627000D01*
X33373000Y32627000D01*
X33373000Y33476250D01*
X33214250Y33635000D01*
X32573690Y33635000D01*
X32340301Y33538327D01*
X32225000Y33423026D01*
X32209699Y33438327D01*
X31976310Y33535000D01*
X31285750Y33535000D01*
X31127000Y33376250D01*
X30873000Y33376250D01*
X30714250Y33535000D01*
X30140131Y33535000D01*
X30270122Y33664990D01*
X32688207Y33664990D01*
X32799990Y33642755D01*
X32911773Y33664990D01*
X33242845Y33730844D01*
X33618279Y33981701D01*
X33681603Y34076472D01*
X35270122Y35664990D01*
X43188207Y35664990D01*
X43299990Y35642755D01*
X43411773Y35664990D01*
X43742845Y35730844D01*
X44118279Y35981701D01*
X44181603Y36076472D01*
X44325000Y36219869D01*
X44325000Y35538970D01*
X44419864Y35062056D01*
X44781231Y34521231D01*
X45055001Y34338304D01*
X45055000Y31774293D01*
X45026656Y31731873D01*
X44955000Y31371636D01*
X44955000Y30328365D01*
X45026656Y29968128D01*
X45299615Y29559615D01*
X45708127Y29286656D01*
X46190000Y29190805D01*
X46671872Y29286656D01*
X47080385Y29559615D01*
X47353344Y29968127D01*
X47425000Y30328364D01*
X47425000Y31371635D01*
X47353344Y31731873D01*
X47325000Y31774293D01*
X47325000Y34518713D01*
X47595001Y34338304D01*
X47595000Y31774293D01*
X47566656Y31731873D01*
X47495000Y31371636D01*
X47495000Y30328365D01*
X47566656Y29968128D01*
X47839615Y29559615D01*
X48248127Y29286656D01*
X48730000Y29190805D01*
X49211872Y29286656D01*
X49620385Y29559615D01*
X49893344Y29968127D01*
X49965000Y30328364D01*
X49965000Y31371635D01*
X49893344Y31731873D01*
X49865000Y31774293D01*
X49865000Y34518713D01*
X50135001Y34338304D01*
X50135000Y31774293D01*
X50106656Y31731873D01*
X50035000Y31371636D01*
X50035000Y30328365D01*
X50106656Y29968128D01*
X50379615Y29559615D01*
X50788127Y29286656D01*
X51270000Y29190805D01*
X51751872Y29286656D01*
X52160385Y29559615D01*
X52433344Y29968127D01*
X52505000Y30328364D01*
X52505000Y31371635D01*
X52433344Y31731873D01*
X52405000Y31774293D01*
X52405000Y34087369D01*
X52580000Y34052560D01*
X52675001Y34052560D01*
X52675000Y31774293D01*
X52646656Y31731873D01*
X52575000Y31371636D01*
X52575000Y30328365D01*
X52646656Y29968128D01*
X52919615Y29559615D01*
X53328127Y29286656D01*
X53810000Y29190805D01*
X54291872Y29286656D01*
X54700385Y29559615D01*
X54973098Y29967759D01*
X55171231Y29671231D01*
X55712055Y29309864D01*
X56350000Y29182969D01*
X56987944Y29309864D01*
X57528769Y29671231D01*
X57752589Y30006202D01*
X57797610Y29860053D01*
X58106526Y29486920D01*
X58534719Y29260408D01*
X58572391Y29256538D01*
X58763000Y29381269D01*
X58763000Y30723000D01*
X59017000Y30723000D01*
X59017000Y29381269D01*
X59207609Y29256538D01*
X59245281Y29260408D01*
X59673474Y29486920D01*
X59982390Y29860053D01*
X60125000Y30323000D01*
X60125000Y30723000D01*
X59017000Y30723000D01*
X58763000Y30723000D01*
X58743000Y30723000D01*
X58743000Y30977000D01*
X58763000Y30977000D01*
X58763000Y32318731D01*
X59017000Y32318731D01*
X59017000Y30977000D01*
X60125000Y30977000D01*
X60125000Y31377000D01*
X59982390Y31839947D01*
X59673474Y32213080D01*
X59245281Y32439592D01*
X59207609Y32443462D01*
X59017000Y32318731D01*
X58763000Y32318731D01*
X58572391Y32443462D01*
X58534719Y32439592D01*
X58106526Y32213080D01*
X57985000Y32066291D01*
X57985000Y33172762D01*
X58412238Y33600000D01*
X63599041Y33600000D01*
X63715350Y33015275D01*
X64046570Y32519570D01*
X64330281Y32330000D01*
X64046570Y32140430D01*
X63715350Y31644725D01*
X63599041Y31060000D01*
X63715350Y30475275D01*
X64046570Y29979570D01*
X64330281Y29790000D01*
X64046570Y29600430D01*
X63715350Y29104725D01*
X63599041Y28520000D01*
X63715350Y27935275D01*
X64046570Y27439570D01*
X64542275Y27108350D01*
X64979402Y27021400D01*
X65274598Y27021400D01*
X65711725Y27108350D01*
X66207430Y27439570D01*
X66397000Y27723281D01*
X66586570Y27439570D01*
X67082275Y27108350D01*
X67519402Y27021400D01*
X67814598Y27021400D01*
X68251725Y27108350D01*
X68747430Y27439570D01*
X69078650Y27935275D01*
X69194959Y28520000D01*
X69078650Y29104725D01*
X68747430Y29600430D01*
X68463719Y29790000D01*
X68747430Y29979570D01*
X69078650Y30475275D01*
X69194959Y31060000D01*
X69078650Y31644725D01*
X68747430Y32140430D01*
X68463719Y32330000D01*
X68747430Y32519570D01*
X69078650Y33015275D01*
X69194959Y33600000D01*
X69078650Y34184725D01*
X68747430Y34680430D01*
X68251725Y35011650D01*
X67814598Y35098600D01*
X67519402Y35098600D01*
X67082275Y35011650D01*
X66586570Y34680430D01*
X66397000Y34396719D01*
X66207430Y34680430D01*
X65711725Y35011650D01*
X65274598Y35098600D01*
X64979402Y35098600D01*
X64542275Y35011650D01*
X64046570Y34680430D01*
X63715350Y34184725D01*
X63599041Y33600000D01*
X58412238Y33600000D01*
X71382254Y46570015D01*
X71518770Y46661232D01*
X71880137Y47202056D01*
X71975001Y47678970D01*
X71975001Y47678974D01*
X72007031Y47840000D01*
X71975001Y48001026D01*
X71975001Y54013104D01*
X72007031Y54174130D01*
X71975001Y54335156D01*
X71975001Y54335160D01*
X71880137Y54812074D01*
X71518770Y55352898D01*
X71382254Y55444115D01*
X66524117Y60302251D01*
X66432898Y60438770D01*
X65892074Y60800137D01*
X65415160Y60895001D01*
X65415159Y60895001D01*
X65254129Y60927032D01*
X65093099Y60895001D01*
X38182343Y60895001D01*
X38021313Y60927032D01*
X37860283Y60895001D01*
X14221031Y60895001D01*
X14060001Y60927032D01*
X13898971Y60895001D01*
X13898970Y60895001D01*
X13422056Y60800137D01*
X12881232Y60438770D01*
X12790015Y60302254D01*
X8622762Y56135000D01*
X7552490Y56135000D01*
X7547765Y56138157D01*
X7300000Y56187440D01*
X3700000Y56187440D01*
X3452235Y56138157D01*
X3242191Y55997809D01*
X3101843Y55787765D01*
X3052560Y55540000D01*
X3052560Y53460000D01*
X3101843Y53212235D01*
X3242191Y53002191D01*
X3452235Y52861843D01*
X3700000Y52812560D01*
X7300000Y52812560D01*
X7547765Y52861843D01*
X7552490Y52865000D01*
X9138970Y52865000D01*
X9300000Y52832969D01*
X9461030Y52865000D01*
X9461031Y52865000D01*
X9937945Y52959864D01*
X10478769Y53321231D01*
X10569988Y53457750D01*
X13235000Y56122761D01*
X13235000Y56015431D01*
X13575259Y55193974D01*
X14203974Y54565259D01*
X15025431Y54225000D01*
X15914569Y54225000D01*
X16736026Y54565259D01*
X17364741Y55193974D01*
X17705000Y56015431D01*
X17705000Y56904569D01*
X17406587Y57625001D01*
X28486139Y57625001D01*
X28359570Y57540430D01*
X28028350Y57044725D01*
X27912041Y56460000D01*
X28028350Y55875275D01*
X28359570Y55379570D01*
X28855275Y55048350D01*
X29292402Y54961400D01*
X29587598Y54961400D01*
X30024725Y55048350D01*
X30520430Y55379570D01*
X30710000Y55663281D01*
X30899570Y55379570D01*
X31395275Y55048350D01*
X31832402Y54961400D01*
X32127598Y54961400D01*
X32564725Y55048350D01*
X33060430Y55379570D01*
X33250000Y55663281D01*
X33439570Y55379570D01*
X33935275Y55048350D01*
X34372402Y54961400D01*
X34667598Y54961400D01*
X35104725Y55048350D01*
X35600430Y55379570D01*
X35790000Y55663281D01*
X35979570Y55379570D01*
X36475275Y55048350D01*
X36912402Y54961400D01*
X37207598Y54961400D01*
X37644725Y55048350D01*
X37965000Y55262352D01*
X37965001Y54237240D01*
X36572020Y52844258D01*
X36395812Y52809208D01*
X35849695Y52444305D01*
X35748804Y52293311D01*
X35577630Y52511236D01*
X35014477Y52827926D01*
X34882944Y52859975D01*
X34627000Y52740836D01*
X34627000Y51127000D01*
X34647000Y51127000D01*
X34647000Y50873000D01*
X34627000Y50873000D01*
X34627000Y49259164D01*
X34882944Y49140025D01*
X35014477Y49172074D01*
X35577630Y49488764D01*
X35748804Y49706689D01*
X35849695Y49555695D01*
X36395813Y49190792D01*
X36572019Y49155742D01*
X36865001Y48862761D01*
X36865000Y47338970D01*
X36959864Y46862056D01*
X37321231Y46321231D01*
X37862055Y45959864D01*
X38500000Y45832969D01*
X39137944Y45959864D01*
X39387047Y46126309D01*
X44115000Y46126309D01*
X44115000Y44285750D01*
X44273750Y44127000D01*
X45873000Y44127000D01*
X45873000Y46476250D01*
X46127000Y46476250D01*
X46127000Y44127000D01*
X47726250Y44127000D01*
X47885000Y44285750D01*
X47885000Y46126309D01*
X47788327Y46359698D01*
X47609699Y46538327D01*
X47376310Y46635000D01*
X46285750Y46635000D01*
X46127000Y46476250D01*
X45873000Y46476250D01*
X45714250Y46635000D01*
X44623690Y46635000D01*
X44390301Y46538327D01*
X44211673Y46359698D01*
X44115000Y46126309D01*
X39387047Y46126309D01*
X39678769Y46321231D01*
X40040136Y46862055D01*
X40135000Y47338969D01*
X40135000Y49378970D01*
X40167031Y49540000D01*
X40135000Y49701031D01*
X40040136Y50177945D01*
X39678769Y50718769D01*
X39542252Y50809986D01*
X39352239Y51000000D01*
X39600000Y51247761D01*
X39890014Y50957748D01*
X39981231Y50821231D01*
X40522055Y50459864D01*
X40998969Y50365000D01*
X40998973Y50365000D01*
X41159999Y50332970D01*
X41321025Y50365000D01*
X44102560Y50365000D01*
X44102560Y50000000D01*
X44151843Y49752235D01*
X44292191Y49542191D01*
X44502235Y49401843D01*
X44750000Y49352560D01*
X47250000Y49352560D01*
X47497765Y49401843D01*
X47707809Y49542191D01*
X47848157Y49752235D01*
X47897440Y50000000D01*
X47897440Y54000000D01*
X47848157Y54247765D01*
X47707809Y54457809D01*
X47497765Y54598157D01*
X47250000Y54647440D01*
X44750000Y54647440D01*
X44502235Y54598157D01*
X44292191Y54457809D01*
X44151843Y54247765D01*
X44102560Y54000000D01*
X44102560Y53635000D01*
X41837239Y53635000D01*
X41235000Y54237238D01*
X41235000Y55262351D01*
X41555275Y55048350D01*
X41992402Y54961400D01*
X42287598Y54961400D01*
X42724725Y55048350D01*
X43220430Y55379570D01*
X43410000Y55663281D01*
X43599570Y55379570D01*
X44095275Y55048350D01*
X44532402Y54961400D01*
X44827598Y54961400D01*
X45264725Y55048350D01*
X45760430Y55379570D01*
X45950000Y55663281D01*
X46139570Y55379570D01*
X46635275Y55048350D01*
X47072402Y54961400D01*
X47367598Y54961400D01*
X47804725Y55048350D01*
X48300430Y55379570D01*
X48631650Y55875275D01*
X48747959Y56460000D01*
X48631650Y57044725D01*
X48300430Y57540430D01*
X48173861Y57625001D01*
X51346139Y57625001D01*
X51219570Y57540430D01*
X50888350Y57044725D01*
X50772041Y56460000D01*
X50888350Y55875275D01*
X51165000Y55461240D01*
X51165000Y55126904D01*
X51165001Y55126899D01*
X51165000Y46260130D01*
X47885000Y42980129D01*
X47885000Y43714250D01*
X47726250Y43873000D01*
X46127000Y43873000D01*
X46127000Y43853000D01*
X45873000Y43853000D01*
X45873000Y43873000D01*
X44273750Y43873000D01*
X44115000Y43714250D01*
X44115000Y42135000D01*
X42511783Y42135000D01*
X42400000Y42157235D01*
X42288217Y42135000D01*
X41957145Y42069146D01*
X41581711Y41818289D01*
X41518389Y41723521D01*
X39921871Y40127002D01*
X39826252Y40127002D01*
X39985000Y40285750D01*
X39985000Y40576309D01*
X39888327Y40809698D01*
X39709699Y40988327D01*
X39476310Y41085000D01*
X39235750Y41085000D01*
X39077000Y40926250D01*
X39077000Y40127000D01*
X39097000Y40127000D01*
X39097000Y39873000D01*
X39077000Y39873000D01*
X39077000Y39853000D01*
X38823000Y39853000D01*
X38823000Y39873000D01*
X38803000Y39873000D01*
X38803000Y40127000D01*
X38823000Y40127000D01*
X38823000Y40926250D01*
X38664250Y41085000D01*
X38423690Y41085000D01*
X38190301Y40988327D01*
X38011673Y40809698D01*
X37997013Y40774306D01*
X37907809Y40907809D01*
X37697765Y41048157D01*
X37450000Y41097440D01*
X36650000Y41097440D01*
X36402235Y41048157D01*
X36192191Y40907809D01*
X36051843Y40697765D01*
X36002560Y40450000D01*
X36002560Y39550000D01*
X36051843Y39302235D01*
X36130178Y39185000D01*
X32111783Y39185000D01*
X32000000Y39207235D01*
X31888217Y39185000D01*
X31699389Y39147440D01*
X31150000Y39147440D01*
X30902235Y39098157D01*
X30692191Y38957809D01*
X30551843Y38747765D01*
X30502560Y38500000D01*
X30502560Y38157692D01*
X29479869Y37135000D01*
X28973277Y37135000D01*
X28857809Y37307809D01*
X28647765Y37448157D01*
X28400000Y37497440D01*
X27500000Y37497440D01*
X27252235Y37448157D01*
X27042191Y37307809D01*
X26901843Y37097765D01*
X26852560Y36850000D01*
X26852560Y36300611D01*
X26792765Y36000000D01*
X26852560Y35699389D01*
X26852560Y35150000D01*
X26901843Y34902235D01*
X27042191Y34692191D01*
X27252235Y34551843D01*
X27500000Y34502560D01*
X27970748Y34502560D01*
X27930854Y34442854D01*
X27842765Y34000000D01*
X27865001Y33888212D01*
X27865000Y30997440D01*
X27500000Y30997440D01*
X27252235Y30948157D01*
X27042191Y30807809D01*
X26901843Y30597765D01*
X26852560Y30350000D01*
X26852560Y29800611D01*
X26792765Y29500000D01*
X26852560Y29199389D01*
X26852560Y29084999D01*
X26147440Y29084999D01*
X26147440Y29199389D01*
X26207235Y29500000D01*
X26147440Y29800611D01*
X26147440Y30350000D01*
X26098157Y30597765D01*
X25957809Y30807809D01*
X25747765Y30948157D01*
X25500000Y30997440D01*
X24600000Y30997440D01*
X24352235Y30948157D01*
X24142191Y30807809D01*
X24026723Y30635000D01*
X23111782Y30635000D01*
X22999999Y30657235D01*
X22580291Y30573750D01*
X22557145Y30569146D01*
X22181711Y30318289D01*
X22118389Y30223521D01*
X21051630Y29156761D01*
X21000000Y29167031D01*
X20838970Y29135000D01*
X19539868Y29135000D01*
X19457809Y29257809D01*
X19247765Y29398157D01*
X19155136Y29416582D01*
X18929996Y29753527D01*
X18929994Y29753529D01*
X18838779Y29890042D01*
X18702266Y29981257D01*
X15318521Y33365000D01*
X23888970Y33365000D01*
X24050000Y33332969D01*
X24211030Y33365000D01*
X24211031Y33365000D01*
X24687945Y33459864D01*
X25228769Y33821231D01*
X25319988Y33957750D01*
X26319986Y34957747D01*
X26590136Y35362054D01*
X26717031Y36000000D01*
X26590136Y36637945D01*
X26228769Y37178769D01*
X25687945Y37540136D01*
X25050000Y37667031D01*
X24412054Y37540136D01*
X24007747Y37269986D01*
X23372762Y36635000D01*
X14635000Y36635000D01*
X14635000Y39515047D01*
X14840136Y39822055D01*
X14967031Y40460000D01*
X14840136Y41097945D01*
X14661696Y41365000D01*
X16338970Y41365000D01*
X16500000Y41332969D01*
X16661030Y41365000D01*
X16661031Y41365000D01*
X17137945Y41459864D01*
X17518660Y41714250D01*
X21615000Y41714250D01*
X21615000Y39873691D01*
X21711673Y39640302D01*
X21890301Y39461673D01*
X22123690Y39365000D01*
X23214250Y39365000D01*
X23373000Y39523750D01*
X23373000Y41873000D01*
X23627000Y41873000D01*
X23627000Y39523750D01*
X23785750Y39365000D01*
X24876310Y39365000D01*
X25109699Y39461673D01*
X25288327Y39640302D01*
X25385000Y39873691D01*
X25385000Y40664250D01*
X30515000Y40664250D01*
X30515000Y40373691D01*
X30611673Y40140302D01*
X30790301Y39961673D01*
X31023690Y39865000D01*
X31714250Y39865000D01*
X31873000Y40023750D01*
X31873000Y40823000D01*
X32127000Y40823000D01*
X32127000Y40023750D01*
X32285750Y39865000D01*
X32976310Y39865000D01*
X33209699Y39961673D01*
X33275000Y40026974D01*
X33340301Y39961673D01*
X33573690Y39865000D01*
X34214250Y39865000D01*
X34373000Y40023750D01*
X34373000Y40873000D01*
X34627000Y40873000D01*
X34627000Y40023750D01*
X34785750Y39865000D01*
X35426310Y39865000D01*
X35659699Y39961673D01*
X35838327Y40140302D01*
X35935000Y40373691D01*
X35935000Y40714250D01*
X35776250Y40873000D01*
X34627000Y40873000D01*
X34373000Y40873000D01*
X33223750Y40873000D01*
X33173750Y40823000D01*
X32127000Y40823000D01*
X31873000Y40823000D01*
X30673750Y40823000D01*
X30515000Y40664250D01*
X25385000Y40664250D01*
X25385000Y41526309D01*
X30515000Y41526309D01*
X30515000Y41235750D01*
X30673750Y41077000D01*
X31873000Y41077000D01*
X31873000Y41876250D01*
X32127000Y41876250D01*
X32127000Y41077000D01*
X33326250Y41077000D01*
X33376250Y41127000D01*
X34373000Y41127000D01*
X34373000Y41976250D01*
X34627000Y41976250D01*
X34627000Y41127000D01*
X35776250Y41127000D01*
X35935000Y41285750D01*
X35935000Y41626309D01*
X35838327Y41859698D01*
X35659699Y42038327D01*
X35426310Y42135000D01*
X34785750Y42135000D01*
X34627000Y41976250D01*
X34373000Y41976250D01*
X34214250Y42135000D01*
X33573690Y42135000D01*
X33340301Y42038327D01*
X33225000Y41923026D01*
X33209699Y41938327D01*
X32976310Y42035000D01*
X32285750Y42035000D01*
X32127000Y41876250D01*
X31873000Y41876250D01*
X31714250Y42035000D01*
X31023690Y42035000D01*
X30790301Y41938327D01*
X30611673Y41759698D01*
X30515000Y41526309D01*
X25385000Y41526309D01*
X25385000Y41714250D01*
X25226250Y41873000D01*
X23627000Y41873000D01*
X23373000Y41873000D01*
X21773750Y41873000D01*
X21615000Y41714250D01*
X17518660Y41714250D01*
X17678769Y41821231D01*
X17769988Y41957750D01*
X19938547Y44126309D01*
X21615000Y44126309D01*
X21615000Y42285750D01*
X21773750Y42127000D01*
X23373000Y42127000D01*
X23373000Y44476250D01*
X23627000Y44476250D01*
X23627000Y42127000D01*
X25226250Y42127000D01*
X25385000Y42285750D01*
X25385000Y44126309D01*
X25288327Y44359698D01*
X25109699Y44538327D01*
X24876310Y44635000D01*
X23785750Y44635000D01*
X23627000Y44476250D01*
X23373000Y44476250D01*
X23214250Y44635000D01*
X22123690Y44635000D01*
X21890301Y44538327D01*
X21711673Y44359698D01*
X21615000Y44126309D01*
X19938547Y44126309D01*
X23164799Y47352560D01*
X24750000Y47352560D01*
X24997765Y47401843D01*
X25207809Y47542191D01*
X25348157Y47752235D01*
X25397440Y48000000D01*
X25397440Y49365000D01*
X28865000Y49365000D01*
X28865001Y47338969D01*
X28959865Y46862055D01*
X29321232Y46321231D01*
X29862056Y45959864D01*
X30500000Y45832969D01*
X31137945Y45959864D01*
X31678769Y46321231D01*
X32040136Y46862055D01*
X32110191Y47214250D01*
X32365000Y47214250D01*
X32365000Y46573690D01*
X32461673Y46340301D01*
X32640302Y46161673D01*
X32873691Y46065000D01*
X33214250Y46065000D01*
X33373000Y46223750D01*
X33373000Y47373000D01*
X33627000Y47373000D01*
X33627000Y46223750D01*
X33785750Y46065000D01*
X34126309Y46065000D01*
X34359698Y46161673D01*
X34500000Y46301974D01*
X34640302Y46161673D01*
X34873691Y46065000D01*
X35214250Y46065000D01*
X35373000Y46223750D01*
X35373000Y47373000D01*
X35627000Y47373000D01*
X35627000Y46223750D01*
X35785750Y46065000D01*
X36126309Y46065000D01*
X36359698Y46161673D01*
X36538327Y46340301D01*
X36635000Y46573690D01*
X36635000Y47214250D01*
X36476250Y47373000D01*
X35627000Y47373000D01*
X35373000Y47373000D01*
X34523750Y47373000D01*
X34500000Y47349250D01*
X34476250Y47373000D01*
X33627000Y47373000D01*
X33373000Y47373000D01*
X32523750Y47373000D01*
X32365000Y47214250D01*
X32110191Y47214250D01*
X32135000Y47338969D01*
X32135000Y48426310D01*
X32365000Y48426310D01*
X32365000Y47785750D01*
X32523750Y47627000D01*
X33373000Y47627000D01*
X33373000Y48776250D01*
X33627000Y48776250D01*
X33627000Y47627000D01*
X34476250Y47627000D01*
X34500000Y47650750D01*
X34523750Y47627000D01*
X35373000Y47627000D01*
X35373000Y48776250D01*
X35627000Y48776250D01*
X35627000Y47627000D01*
X36476250Y47627000D01*
X36635000Y47785750D01*
X36635000Y48426310D01*
X36538327Y48659699D01*
X36359698Y48838327D01*
X36126309Y48935000D01*
X35785750Y48935000D01*
X35627000Y48776250D01*
X35373000Y48776250D01*
X35214250Y48935000D01*
X34873691Y48935000D01*
X34640302Y48838327D01*
X34500000Y48698026D01*
X34359698Y48838327D01*
X34126309Y48935000D01*
X33785750Y48935000D01*
X33627000Y48776250D01*
X33373000Y48776250D01*
X33214250Y48935000D01*
X32873691Y48935000D01*
X32640302Y48838327D01*
X32461673Y48659699D01*
X32365000Y48426310D01*
X32135000Y48426310D01*
X32135000Y48862762D01*
X32427981Y49155742D01*
X32604188Y49190792D01*
X33150305Y49555695D01*
X33251196Y49706689D01*
X33422370Y49488764D01*
X33985523Y49172074D01*
X34117056Y49140025D01*
X34373000Y49259164D01*
X34373000Y50873000D01*
X34353000Y50873000D01*
X34353000Y51127000D01*
X34373000Y51127000D01*
X34373000Y52740836D01*
X34117056Y52859975D01*
X33985523Y52827926D01*
X33422370Y52511236D01*
X33251196Y52293311D01*
X33150305Y52444305D01*
X32604187Y52809208D01*
X31960000Y52937345D01*
X31315812Y52809208D01*
X31055091Y52635000D01*
X24812541Y52635000D01*
X24750000Y52647440D01*
X24598491Y52647440D01*
X24500000Y52667031D01*
X24401509Y52647440D01*
X22250000Y52647440D01*
X22002235Y52598157D01*
X21792191Y52457809D01*
X21651843Y52247765D01*
X21602560Y52000000D01*
X21602560Y50414799D01*
X15822762Y44635000D01*
X14362541Y44635000D01*
X14300000Y44647440D01*
X11700000Y44647440D01*
X11452235Y44598157D01*
X11242191Y44457809D01*
X11101843Y44247765D01*
X11052560Y44000000D01*
X11052560Y42135000D01*
X6552490Y42135000D01*
X6547765Y42138157D01*
X6300000Y42187440D01*
X2700000Y42187440D01*
X2452235Y42138157D01*
X2242191Y41997809D01*
X2101843Y41787765D01*
X2052560Y41540000D01*
X710000Y41540000D01*
X710000Y49033290D01*
X3110252Y49033290D01*
X3143901Y48896338D01*
X3465794Y48325399D01*
X3981673Y47921103D01*
X4613000Y47745000D01*
X5373000Y47745000D01*
X5373000Y49293000D01*
X5627000Y49293000D01*
X5627000Y47745000D01*
X6387000Y47745000D01*
X7018327Y47921103D01*
X7534206Y48325399D01*
X7856099Y48896338D01*
X7889748Y49033290D01*
X7770922Y49293000D01*
X5627000Y49293000D01*
X5373000Y49293000D01*
X3229078Y49293000D01*
X3110252Y49033290D01*
X710000Y49033290D01*
X710000Y49806710D01*
X3110252Y49806710D01*
X3229078Y49547000D01*
X5373000Y49547000D01*
X5373000Y51095000D01*
X5627000Y51095000D01*
X5627000Y49547000D01*
X7770922Y49547000D01*
X7889748Y49806710D01*
X7856099Y49943662D01*
X7534206Y50514601D01*
X7018327Y50918897D01*
X6387000Y51095000D01*
X5627000Y51095000D01*
X5373000Y51095000D01*
X4613000Y51095000D01*
X3981673Y50918897D01*
X3465794Y50514601D01*
X3143901Y49943662D01*
X3110252Y49806710D01*
X710000Y49806710D01*
X710000Y64290000D01*
X73373000Y64290000D01*
X73373000Y710000D01*
X73373000Y710000D01*
G37*
X73373000Y710000D02*
X710000Y710000D01*
X710000Y11040000D01*
X7532969Y11040000D01*
X7659864Y10402055D01*
X7890489Y10056900D01*
X7742191Y9957809D01*
X7601843Y9747765D01*
X7552560Y9500000D01*
X7552560Y7500000D01*
X7601843Y7252235D01*
X7742191Y7042191D01*
X7952235Y6901843D01*
X8200000Y6852560D01*
X10800000Y6852560D01*
X11047765Y6901843D01*
X11257809Y7042191D01*
X11398157Y7252235D01*
X11420587Y7365000D01*
X12953217Y7365000D01*
X13065000Y7342765D01*
X13176783Y7365000D01*
X13507855Y7430854D01*
X13883289Y7681711D01*
X13946613Y7776482D01*
X14505000Y8334869D01*
X14505000Y7755431D01*
X14845259Y6933974D01*
X15473974Y6305259D01*
X16295431Y5965000D01*
X17184569Y5965000D01*
X18006026Y6305259D01*
X18634741Y6933974D01*
X18904472Y7585161D01*
X19215570Y7119570D01*
X19711275Y6788350D01*
X20148402Y6701400D01*
X20443598Y6701400D01*
X20880725Y6788350D01*
X21376430Y7119570D01*
X21566000Y7403281D01*
X21755570Y7119570D01*
X22251275Y6788350D01*
X22688402Y6701400D01*
X22983598Y6701400D01*
X23420725Y6788350D01*
X23916430Y7119570D01*
X24106000Y7403281D01*
X24295570Y7119570D01*
X24791275Y6788350D01*
X25228402Y6701400D01*
X25523598Y6701400D01*
X25960725Y6788350D01*
X26456430Y7119570D01*
X26646000Y7403281D01*
X26835570Y7119570D01*
X27331275Y6788350D01*
X27768402Y6701400D01*
X28063598Y6701400D01*
X28500725Y6788350D01*
X28996430Y7119570D01*
X29186000Y7403281D01*
X29375570Y7119570D01*
X29871275Y6788350D01*
X30308402Y6701400D01*
X30603598Y6701400D01*
X31040725Y6788350D01*
X31536430Y7119570D01*
X31726000Y7403281D01*
X31915570Y7119570D01*
X32411275Y6788350D01*
X32848402Y6701400D01*
X33143598Y6701400D01*
X33580725Y6788350D01*
X34076430Y7119570D01*
X34266000Y7403281D01*
X34455570Y7119570D01*
X34951275Y6788350D01*
X35388402Y6701400D01*
X35683598Y6701400D01*
X36120725Y6788350D01*
X36616430Y7119570D01*
X36806000Y7403281D01*
X36995570Y7119570D01*
X37491275Y6788350D01*
X37928402Y6701400D01*
X38223598Y6701400D01*
X38660725Y6788350D01*
X39156430Y7119570D01*
X39346000Y7403281D01*
X39535570Y7119570D01*
X40031275Y6788350D01*
X40468402Y6701400D01*
X40763598Y6701400D01*
X41200725Y6788350D01*
X41696430Y7119570D01*
X41886000Y7403281D01*
X42075570Y7119570D01*
X42571275Y6788350D01*
X43008402Y6701400D01*
X43303598Y6701400D01*
X43740725Y6788350D01*
X44236430Y7119570D01*
X44567650Y7615275D01*
X44683959Y8200000D01*
X44567650Y8784725D01*
X44291000Y9198760D01*
X44291000Y9452560D01*
X44350000Y9452560D01*
X44597765Y9501843D01*
X44807809Y9642191D01*
X44948157Y9852235D01*
X44997440Y10100000D01*
X44997440Y11000000D01*
X44987495Y11050000D01*
X45502560Y11050000D01*
X45502560Y10150000D01*
X45551843Y9902235D01*
X45692191Y9692191D01*
X45902235Y9551843D01*
X46085001Y9515489D01*
X46085000Y9198761D01*
X45808350Y8784725D01*
X45692041Y8200000D01*
X45808350Y7615275D01*
X46139570Y7119570D01*
X46635275Y6788350D01*
X47072402Y6701400D01*
X47367598Y6701400D01*
X47804725Y6788350D01*
X48300430Y7119570D01*
X48490000Y7403281D01*
X48679570Y7119570D01*
X49175275Y6788350D01*
X49612402Y6701400D01*
X49907598Y6701400D01*
X50344725Y6788350D01*
X50840430Y7119570D01*
X51030000Y7403281D01*
X51219570Y7119570D01*
X51715275Y6788350D01*
X52152402Y6701400D01*
X52447598Y6701400D01*
X52884725Y6788350D01*
X53380430Y7119570D01*
X53570000Y7403281D01*
X53759570Y7119570D01*
X54255275Y6788350D01*
X54692402Y6701400D01*
X54987598Y6701400D01*
X55424725Y6788350D01*
X55920430Y7119570D01*
X56110000Y7403281D01*
X56299570Y7119570D01*
X56795275Y6788350D01*
X57232402Y6701400D01*
X57527598Y6701400D01*
X57964725Y6788350D01*
X58460430Y7119570D01*
X58650000Y7403281D01*
X58839570Y7119570D01*
X59335275Y6788350D01*
X59772402Y6701400D01*
X60067598Y6701400D01*
X60504725Y6788350D01*
X61000430Y7119570D01*
X61190000Y7403281D01*
X61379570Y7119570D01*
X61875275Y6788350D01*
X62312402Y6701400D01*
X62607598Y6701400D01*
X63044725Y6788350D01*
X63540430Y7119570D01*
X63730000Y7403281D01*
X63919570Y7119570D01*
X64415275Y6788350D01*
X64852402Y6701400D01*
X65147598Y6701400D01*
X65584725Y6788350D01*
X66080430Y7119570D01*
X66411650Y7615275D01*
X66527959Y8200000D01*
X66411650Y8784725D01*
X66080430Y9280430D01*
X65584725Y9611650D01*
X65147598Y9698600D01*
X64852402Y9698600D01*
X64415275Y9611650D01*
X63919570Y9280430D01*
X63730000Y8996719D01*
X63540430Y9280430D01*
X63044725Y9611650D01*
X62607598Y9698600D01*
X62312402Y9698600D01*
X61875275Y9611650D01*
X61379570Y9280430D01*
X61190000Y8996719D01*
X61055000Y9198760D01*
X61055000Y9452560D01*
X61350000Y9452560D01*
X61597765Y9501843D01*
X61807809Y9642191D01*
X61948157Y9852235D01*
X61997440Y10100000D01*
X61997440Y11000000D01*
X61948157Y11247765D01*
X61807809Y11457809D01*
X61597765Y11598157D01*
X61350000Y11647440D01*
X60800610Y11647440D01*
X60500000Y11707235D01*
X60199389Y11647440D01*
X59650000Y11647440D01*
X59402235Y11598157D01*
X59192191Y11457809D01*
X59051843Y11247765D01*
X59002560Y11000000D01*
X59002560Y10639898D01*
X58997440Y10632235D01*
X58997440Y10950000D01*
X58948157Y11197765D01*
X58807809Y11407809D01*
X58597765Y11548157D01*
X58350000Y11597440D01*
X57800610Y11597440D01*
X57500000Y11657235D01*
X57199390Y11597440D01*
X56650000Y11597440D01*
X56402235Y11548157D01*
X56287415Y11471436D01*
X56097765Y11598157D01*
X55850000Y11647440D01*
X55300610Y11647440D01*
X54999999Y11707235D01*
X54699389Y11647440D01*
X54150000Y11647440D01*
X53902235Y11598157D01*
X53692191Y11457809D01*
X53551843Y11247765D01*
X53502560Y11000000D01*
X53502560Y10100000D01*
X53551843Y9852235D01*
X53692191Y9642191D01*
X53705001Y9633632D01*
X53705000Y9198761D01*
X53570000Y8996719D01*
X53435000Y9198760D01*
X53435000Y9832544D01*
X53448157Y9852235D01*
X53497440Y10100000D01*
X53497440Y11000000D01*
X53448157Y11247765D01*
X53307809Y11457809D01*
X53097765Y11598157D01*
X52850000Y11647440D01*
X52300610Y11647440D01*
X52000000Y11707235D01*
X51699390Y11647440D01*
X51150000Y11647440D01*
X50902235Y11598157D01*
X50750000Y11496436D01*
X50597765Y11598157D01*
X50350000Y11647440D01*
X49800610Y11647440D01*
X49500000Y11707235D01*
X49199390Y11647440D01*
X48650000Y11647440D01*
X48402235Y11598157D01*
X48287415Y11521436D01*
X48097765Y11648157D01*
X47850000Y11697440D01*
X47300610Y11697440D01*
X47000000Y11757235D01*
X46699390Y11697440D01*
X46150000Y11697440D01*
X45902235Y11648157D01*
X45692191Y11507809D01*
X45551843Y11297765D01*
X45502560Y11050000D01*
X44987495Y11050000D01*
X44948157Y11247765D01*
X44807809Y11457809D01*
X44597765Y11598157D01*
X44350000Y11647440D01*
X43800607Y11647440D01*
X43499999Y11707235D01*
X43199393Y11647440D01*
X42650000Y11647440D01*
X42402235Y11598157D01*
X42192191Y11457809D01*
X42051843Y11247765D01*
X42002560Y11000000D01*
X42002560Y10225079D01*
X41998765Y10206000D01*
X42002560Y10186921D01*
X42002560Y10100000D01*
X42021001Y10007291D01*
X42021000Y9198761D01*
X41886000Y8996719D01*
X41751000Y9198760D01*
X41751000Y9604232D01*
X41807809Y9642191D01*
X41948157Y9852235D01*
X41997440Y10100000D01*
X41997440Y11000000D01*
X41948157Y11247765D01*
X41807809Y11457809D01*
X41597765Y11598157D01*
X41350000Y11647440D01*
X40800610Y11647440D01*
X40500000Y11707235D01*
X40199390Y11647440D01*
X39650000Y11647440D01*
X39402235Y11598157D01*
X39250000Y11496436D01*
X39097765Y11598157D01*
X38850000Y11647440D01*
X38300610Y11647440D01*
X38000000Y11707235D01*
X37699390Y11647440D01*
X37150000Y11647440D01*
X36902235Y11598157D01*
X36692191Y11457809D01*
X36551843Y11247765D01*
X36502560Y11000000D01*
X36502560Y10100000D01*
X36551843Y9852235D01*
X36692191Y9642191D01*
X36902235Y9501843D01*
X36941001Y9494132D01*
X36941000Y9198761D01*
X36806000Y8996719D01*
X36616430Y9280430D01*
X36120725Y9611650D01*
X35683598Y9698600D01*
X35388402Y9698600D01*
X34951275Y9611650D01*
X34455570Y9280430D01*
X34266000Y8996719D01*
X34076430Y9280430D01*
X33580725Y9611650D01*
X33143598Y9698600D01*
X32848402Y9698600D01*
X32411275Y9611650D01*
X31915570Y9280430D01*
X31726000Y8996719D01*
X31536430Y9280430D01*
X31040725Y9611650D01*
X30603598Y9698600D01*
X30308402Y9698600D01*
X29871275Y9611650D01*
X29375570Y9280430D01*
X29186000Y8996719D01*
X28996430Y9280430D01*
X28500725Y9611650D01*
X28063598Y9698600D01*
X27768402Y9698600D01*
X27331275Y9611650D01*
X26835570Y9280430D01*
X26646000Y8996719D01*
X26456430Y9280430D01*
X25960725Y9611650D01*
X25523598Y9698600D01*
X25228402Y9698600D01*
X24791275Y9611650D01*
X24295570Y9280430D01*
X24106000Y8996719D01*
X23916430Y9280430D01*
X23420725Y9611650D01*
X22983598Y9698600D01*
X22688402Y9698600D01*
X22251275Y9611650D01*
X21755570Y9280430D01*
X21566000Y8996719D01*
X21376430Y9280430D01*
X20880725Y9611650D01*
X20443598Y9698600D01*
X20148402Y9698600D01*
X19711275Y9611650D01*
X19215570Y9280430D01*
X18904472Y8814839D01*
X18634741Y9466026D01*
X18006026Y10094741D01*
X17230497Y10415976D01*
X17298157Y10517235D01*
X17347440Y10765000D01*
X17347440Y11147428D01*
X17718389Y10776479D01*
X17781711Y10681711D01*
X18092571Y10474001D01*
X18157145Y10430854D01*
X18600000Y10342765D01*
X18711783Y10365000D01*
X18803564Y10365000D01*
X18842191Y10307191D01*
X19052235Y10166843D01*
X19300000Y10117560D01*
X20570000Y10117560D01*
X20817765Y10166843D01*
X21027809Y10307191D01*
X21168157Y10517235D01*
X21217440Y10765000D01*
X21217440Y12235000D01*
X21181636Y12415000D01*
X36882544Y12415000D01*
X36902235Y12401843D01*
X37150000Y12352560D01*
X37699393Y12352560D01*
X37999999Y12292765D01*
X38300607Y12352560D01*
X38850000Y12352560D01*
X39097765Y12401843D01*
X39250000Y12503564D01*
X39402235Y12401843D01*
X39650000Y12352560D01*
X40199389Y12352560D01*
X40500000Y12292765D01*
X40800610Y12352560D01*
X41350000Y12352560D01*
X41597765Y12401843D01*
X41807809Y12542191D01*
X41948157Y12752235D01*
X41997440Y13000000D01*
X41997440Y13900000D01*
X41948157Y14147765D01*
X41807809Y14357809D01*
X41635000Y14473277D01*
X41635000Y16615473D01*
X42000385Y16859615D01*
X42273344Y17268127D01*
X42345000Y17628364D01*
X42345000Y17988764D01*
X42365001Y17888212D01*
X42365000Y14473277D01*
X42192191Y14357809D01*
X42051843Y14147765D01*
X42002560Y13900000D01*
X42002560Y13000000D01*
X42051843Y12752235D01*
X42192191Y12542191D01*
X42402235Y12401843D01*
X42650000Y12352560D01*
X43199389Y12352560D01*
X43500000Y12292765D01*
X43800610Y12352560D01*
X44350000Y12352560D01*
X44597765Y12401843D01*
X44807809Y12542191D01*
X44948157Y12752235D01*
X44997440Y13000000D01*
X44997440Y13900000D01*
X44948157Y14147765D01*
X44807809Y14357809D01*
X44635000Y14473277D01*
X44635000Y17001216D01*
X44813344Y17268127D01*
X44885000Y17628364D01*
X44885000Y18671635D01*
X44885000Y18671636D01*
X44955000Y18671636D01*
X44955000Y17628365D01*
X45026656Y17268128D01*
X45299615Y16859615D01*
X45708127Y16586656D01*
X45865001Y16555452D01*
X45865000Y14523277D01*
X45692191Y14407809D01*
X45551843Y14197765D01*
X45502560Y13950000D01*
X45502560Y13050000D01*
X45551843Y12802235D01*
X45692191Y12592191D01*
X45902235Y12451843D01*
X46150000Y12402560D01*
X46699389Y12402560D01*
X47000000Y12342765D01*
X47300610Y12402560D01*
X47850000Y12402560D01*
X48097765Y12451843D01*
X48212585Y12528564D01*
X48402235Y12401843D01*
X48650000Y12352560D01*
X49199389Y12352560D01*
X49500000Y12292765D01*
X49800610Y12352560D01*
X50350000Y12352560D01*
X50597765Y12401843D01*
X50750000Y12503564D01*
X50902235Y12401843D01*
X51150000Y12352560D01*
X51699389Y12352560D01*
X52000000Y12292765D01*
X52300610Y12352560D01*
X52850000Y12352560D01*
X53097765Y12401843D01*
X53307809Y12542191D01*
X53448157Y12752235D01*
X53497440Y13000000D01*
X53497440Y13900000D01*
X53448157Y14147765D01*
X53307809Y14357809D01*
X53135000Y14473277D01*
X53135000Y16715699D01*
X53328127Y16586656D01*
X53810000Y16490805D01*
X53855094Y16499775D01*
X53865001Y16489867D01*
X53865000Y14473277D01*
X53692191Y14357809D01*
X53551843Y14147765D01*
X53502560Y13900000D01*
X53502560Y13000000D01*
X53551843Y12752235D01*
X53692191Y12542191D01*
X53902235Y12401843D01*
X54150000Y12352560D01*
X54699389Y12352560D01*
X55000000Y12292765D01*
X55300610Y12352560D01*
X55850000Y12352560D01*
X56097765Y12401843D01*
X56212585Y12478564D01*
X56402235Y12351843D01*
X56650000Y12302560D01*
X57199389Y12302560D01*
X57500000Y12242765D01*
X57800610Y12302560D01*
X58350000Y12302560D01*
X58597765Y12351843D01*
X58807809Y12492191D01*
X58948157Y12702235D01*
X58997440Y12950000D01*
X58997440Y13850000D01*
X58948157Y14097765D01*
X58807809Y14307809D01*
X58635000Y14423277D01*
X58635000Y16541528D01*
X58890000Y16490805D01*
X58935094Y16499775D01*
X59365001Y16069867D01*
X59365000Y14473277D01*
X59192191Y14357809D01*
X59051843Y14147765D01*
X59002560Y13900000D01*
X59002560Y13000000D01*
X59051843Y12752235D01*
X59192191Y12542191D01*
X59402235Y12401843D01*
X59650000Y12352560D01*
X60199389Y12352560D01*
X60500000Y12292765D01*
X60800610Y12352560D01*
X61350000Y12352560D01*
X61597765Y12401843D01*
X61807809Y12542191D01*
X61948157Y12752235D01*
X61997440Y13000000D01*
X61997440Y13900000D01*
X61948157Y14147765D01*
X61807809Y14357809D01*
X61635000Y14473277D01*
X61635000Y16428217D01*
X61657235Y16540000D01*
X61569146Y16982855D01*
X61478583Y17118392D01*
X61318289Y17358289D01*
X61223521Y17421611D01*
X60125000Y18520131D01*
X60125000Y18671635D01*
X60053344Y19031873D01*
X59780385Y19440385D01*
X59371873Y19713344D01*
X58890000Y19809195D01*
X58408128Y19713344D01*
X57999616Y19440385D01*
X57726656Y19031873D01*
X57655000Y18671636D01*
X57655000Y18450131D01*
X57585000Y18520131D01*
X57585000Y18671635D01*
X57513344Y19031873D01*
X57240385Y19440385D01*
X56831873Y19713344D01*
X56350000Y19809195D01*
X55868128Y19713344D01*
X55459616Y19440385D01*
X55186656Y19031873D01*
X55115000Y18671636D01*
X55115000Y18450131D01*
X55045000Y18520131D01*
X55045000Y18671635D01*
X54973344Y19031873D01*
X54700385Y19440385D01*
X54291873Y19713344D01*
X53810000Y19809195D01*
X53328128Y19713344D01*
X52919616Y19440385D01*
X52646656Y19031873D01*
X52575000Y18671636D01*
X52575000Y18450132D01*
X52505000Y18520132D01*
X52505000Y18671635D01*
X52433344Y19031873D01*
X52160385Y19440385D01*
X51751873Y19713344D01*
X51270000Y19809195D01*
X50788128Y19713344D01*
X50379616Y19440385D01*
X50106656Y19031873D01*
X50035000Y18671636D01*
X50035000Y18450132D01*
X49965000Y18520132D01*
X49965000Y18671635D01*
X49893344Y19031873D01*
X49620385Y19440385D01*
X49211873Y19713344D01*
X48730000Y19809195D01*
X48248128Y19713344D01*
X47839616Y19440385D01*
X47566656Y19031873D01*
X47495000Y18671636D01*
X47495000Y18450132D01*
X47425000Y18520132D01*
X47425000Y18671635D01*
X47353344Y19031873D01*
X47080385Y19440385D01*
X46671873Y19713344D01*
X46190000Y19809195D01*
X45708128Y19713344D01*
X45299616Y19440385D01*
X45026656Y19031873D01*
X44955000Y18671636D01*
X44885000Y18671636D01*
X44813344Y19031873D01*
X44540385Y19440385D01*
X44131873Y19713344D01*
X43650000Y19809195D01*
X43168128Y19713344D01*
X42759616Y19440385D01*
X42486656Y19031873D01*
X42415000Y18671636D01*
X42415000Y18363150D01*
X42345000Y18011236D01*
X42345000Y18671635D01*
X42273344Y19031873D01*
X42000385Y19440385D01*
X41591873Y19713344D01*
X41110000Y19809195D01*
X40628128Y19713344D01*
X40219616Y19440385D01*
X39946656Y19031873D01*
X39875000Y18671636D01*
X39875000Y18520131D01*
X39776480Y18421611D01*
X39681712Y18358289D01*
X39496085Y18080478D01*
X39430854Y17982854D01*
X39342765Y17540000D01*
X39365001Y17428212D01*
X39365000Y14473277D01*
X39250000Y14396436D01*
X39097765Y14498157D01*
X38850000Y14547440D01*
X38450171Y14547440D01*
X38342855Y14619146D01*
X38011783Y14685000D01*
X37900000Y14707235D01*
X37788217Y14685000D01*
X19983026Y14685000D01*
X19988327Y14690301D01*
X20085000Y14923690D01*
X20085000Y15164250D01*
X19926250Y15323000D01*
X19127000Y15323000D01*
X19127000Y15303000D01*
X18873000Y15303000D01*
X18873000Y15323000D01*
X18073750Y15323000D01*
X17988219Y15237469D01*
X17907809Y15357809D01*
X17697765Y15498157D01*
X17486081Y15540263D01*
X17442855Y15569146D01*
X17111783Y15635000D01*
X17000000Y15657235D01*
X16888217Y15635000D01*
X15371783Y15635000D01*
X15260000Y15657235D01*
X15148217Y15635000D01*
X14817145Y15569146D01*
X14441711Y15318289D01*
X14378389Y15223521D01*
X11329869Y12175000D01*
X11008015Y12175000D01*
X10978769Y12218769D01*
X10812371Y12329952D01*
X11045922Y12513683D01*
X11359144Y13071645D01*
X11390124Y13199566D01*
X11270777Y13453000D01*
X9627000Y13453000D01*
X9627000Y13433000D01*
X9373000Y13433000D01*
X9373000Y13453000D01*
X7729223Y13453000D01*
X7609876Y13199566D01*
X7640856Y13071645D01*
X7954078Y12513683D01*
X8187629Y12329952D01*
X8021231Y12218769D01*
X7659864Y11677945D01*
X7532969Y11040000D01*
X710000Y11040000D01*
X710000Y13960434D01*
X7609876Y13960434D01*
X7729223Y13707000D01*
X9373000Y13707000D01*
X9373000Y15215000D01*
X9627000Y15215000D01*
X9627000Y13707000D01*
X11270777Y13707000D01*
X11390124Y13960434D01*
X11359144Y14088355D01*
X11045922Y14646317D01*
X10543020Y15041942D01*
X9927000Y15215000D01*
X9627000Y15215000D01*
X9373000Y15215000D01*
X9073000Y15215000D01*
X8456980Y15041942D01*
X7954078Y14646317D01*
X7640856Y14088355D01*
X7609876Y13960434D01*
X710000Y13960434D01*
X710000Y15976310D01*
X17915000Y15976310D01*
X17915000Y15735750D01*
X18073750Y15577000D01*
X18873000Y15577000D01*
X18873000Y16326250D01*
X19127000Y16326250D01*
X19127000Y15577000D01*
X19926250Y15577000D01*
X20085000Y15735750D01*
X20085000Y15976310D01*
X19988327Y16209699D01*
X19809698Y16388327D01*
X19576309Y16485000D01*
X19285750Y16485000D01*
X19127000Y16326250D01*
X18873000Y16326250D01*
X18714250Y16485000D01*
X18423691Y16485000D01*
X18190302Y16388327D01*
X18011673Y16209699D01*
X17915000Y15976310D01*
X710000Y15976310D01*
X710000Y21533290D01*
X2110252Y21533290D01*
X2143901Y21396338D01*
X2465794Y20825399D01*
X2981673Y20421103D01*
X3613000Y20245000D01*
X4373000Y20245000D01*
X4373000Y21793000D01*
X4627000Y21793000D01*
X4627000Y20245000D01*
X5387000Y20245000D01*
X6018327Y20421103D01*
X6534206Y20825399D01*
X6856099Y21396338D01*
X6889748Y21533290D01*
X6770922Y21793000D01*
X4627000Y21793000D01*
X4373000Y21793000D01*
X2229078Y21793000D01*
X2110252Y21533290D01*
X710000Y21533290D01*
X710000Y22306710D01*
X2110252Y22306710D01*
X2229078Y22047000D01*
X4373000Y22047000D01*
X4373000Y23595000D01*
X4627000Y23595000D01*
X4627000Y22047000D01*
X6770922Y22047000D01*
X6889748Y22306710D01*
X6856099Y22443662D01*
X6534206Y23014601D01*
X6018327Y23418897D01*
X5387000Y23595000D01*
X4627000Y23595000D01*
X4373000Y23595000D01*
X3613000Y23595000D01*
X2981673Y23418897D01*
X2465794Y23014601D01*
X2143901Y22443662D01*
X2110252Y22306710D01*
X710000Y22306710D01*
X710000Y23884569D01*
X65305000Y23884569D01*
X65305000Y22995431D01*
X65645259Y22173974D01*
X66273974Y21545259D01*
X67095431Y21205000D01*
X67984569Y21205000D01*
X68806026Y21545259D01*
X69434741Y22173974D01*
X69775000Y22995431D01*
X69775000Y23884569D01*
X69434741Y24706026D01*
X68806026Y25334741D01*
X67984569Y25675000D01*
X67095431Y25675000D01*
X66273974Y25334741D01*
X65645259Y24706026D01*
X65305000Y23884569D01*
X710000Y23884569D01*
X710000Y35033290D01*
X2110252Y35033290D01*
X2143901Y34896338D01*
X2465794Y34325399D01*
X2981673Y33921103D01*
X3613000Y33745000D01*
X4373000Y33745000D01*
X4373000Y35293000D01*
X4627000Y35293000D01*
X4627000Y33745000D01*
X5387000Y33745000D01*
X6018327Y33921103D01*
X6534206Y34325399D01*
X6856099Y34896338D01*
X6889748Y35033290D01*
X6770922Y35293000D01*
X4627000Y35293000D01*
X4373000Y35293000D01*
X2229078Y35293000D01*
X2110252Y35033290D01*
X710000Y35033290D01*
X710000Y35806710D01*
X2110252Y35806710D01*
X2229078Y35547000D01*
X4373000Y35547000D01*
X4373000Y37095000D01*
X4627000Y37095000D01*
X4627000Y35547000D01*
X6770922Y35547000D01*
X6889748Y35806710D01*
X6856099Y35943662D01*
X6534206Y36514601D01*
X6018327Y36918897D01*
X5387000Y37095000D01*
X4627000Y37095000D01*
X4373000Y37095000D01*
X3613000Y37095000D01*
X2981673Y36918897D01*
X2465794Y36514601D01*
X2143901Y35943662D01*
X2110252Y35806710D01*
X710000Y35806710D01*
X710000Y41540000D01*
X2052560Y41540000D01*
X2052560Y39460000D01*
X2101843Y39212235D01*
X2242191Y39002191D01*
X2452235Y38861843D01*
X2700000Y38812560D01*
X6300000Y38812560D01*
X6547765Y38861843D01*
X6552490Y38865000D01*
X11365000Y38865000D01*
X11365001Y36539868D01*
X11242191Y36457809D01*
X11101843Y36247765D01*
X11052560Y36000000D01*
X11052560Y34000000D01*
X11101843Y33752235D01*
X11242191Y33542191D01*
X11390489Y33443100D01*
X11159864Y33097945D01*
X11032969Y32460000D01*
X11159864Y31822055D01*
X11521231Y31281231D01*
X12062055Y30919864D01*
X12538969Y30825000D01*
X13234045Y30825000D01*
X14760223Y29298821D01*
X14281231Y28978769D01*
X14051532Y28635000D01*
X6552490Y28635000D01*
X6547765Y28638157D01*
X6300000Y28687440D01*
X2700000Y28687440D01*
X2452235Y28638157D01*
X2242191Y28497809D01*
X2101843Y28287765D01*
X2052560Y28040000D01*
X2052560Y25960000D01*
X2101843Y25712235D01*
X2242191Y25502191D01*
X2452235Y25361843D01*
X2700000Y25312560D01*
X6300000Y25312560D01*
X6547765Y25361843D01*
X6552490Y25365000D01*
X14798970Y25365000D01*
X14960000Y25332969D01*
X15121030Y25365000D01*
X15121031Y25365000D01*
X15597945Y25459864D01*
X15812203Y25603027D01*
X16097944Y25659864D01*
X16443100Y25890490D01*
X16542191Y25742191D01*
X16752235Y25601843D01*
X17000000Y25552560D01*
X19000000Y25552560D01*
X19247765Y25601843D01*
X19457809Y25742191D01*
X19539868Y25865000D01*
X20637598Y25865000D01*
X20888970Y25814999D01*
X20888971Y25814999D01*
X21050000Y25782968D01*
X21211030Y25814999D01*
X37948969Y25814999D01*
X38109999Y25782968D01*
X38271029Y25814999D01*
X38271030Y25814999D01*
X38747944Y25909863D01*
X39288768Y26271230D01*
X39379987Y26407749D01*
X42152253Y29180014D01*
X42288769Y29271231D01*
X42626560Y29776770D01*
X42866526Y29486920D01*
X43294719Y29260408D01*
X43332391Y29256538D01*
X43523000Y29381269D01*
X43523000Y30723000D01*
X43777000Y30723000D01*
X43777000Y29381269D01*
X43967609Y29256538D01*
X44005281Y29260408D01*
X44433474Y29486920D01*
X44742390Y29860053D01*
X44885000Y30323000D01*
X44885000Y30723000D01*
X43777000Y30723000D01*
X43523000Y30723000D01*
X43503000Y30723000D01*
X43503000Y30977000D01*
X43523000Y30977000D01*
X43523000Y32318731D01*
X43777000Y32318731D01*
X43777000Y30977000D01*
X44885000Y30977000D01*
X44885000Y31377000D01*
X44742390Y31839947D01*
X44433474Y32213080D01*
X44005281Y32439592D01*
X43967609Y32443462D01*
X43777000Y32318731D01*
X43523000Y32318731D01*
X43332391Y32443462D01*
X43294719Y32439592D01*
X42866526Y32213080D01*
X42557610Y31839947D01*
X42512589Y31693798D01*
X42288769Y32028769D01*
X41747945Y32390136D01*
X41110000Y32517031D01*
X40472056Y32390136D01*
X39931231Y32028769D01*
X39569864Y31487945D01*
X39503855Y31156094D01*
X37609927Y29262165D01*
X37657235Y29500000D01*
X37569146Y29942855D01*
X37540263Y29986081D01*
X37498157Y30197765D01*
X37357809Y30407809D01*
X37237469Y30488219D01*
X37323000Y30573750D01*
X37323000Y31373000D01*
X37577000Y31373000D01*
X37577000Y30573750D01*
X37735750Y30415000D01*
X37976310Y30415000D01*
X38209699Y30511673D01*
X38388327Y30690302D01*
X38485000Y30923691D01*
X38485000Y31214250D01*
X38326250Y31373000D01*
X37577000Y31373000D01*
X37323000Y31373000D01*
X37303000Y31373000D01*
X37303000Y31627000D01*
X37323000Y31627000D01*
X37323000Y32426250D01*
X37577000Y32426250D01*
X37577000Y31627000D01*
X38326250Y31627000D01*
X38485000Y31785750D01*
X38485000Y32076309D01*
X38388327Y32309698D01*
X38209699Y32488327D01*
X37976310Y32585000D01*
X37735750Y32585000D01*
X37577000Y32426250D01*
X37323000Y32426250D01*
X37164250Y32585000D01*
X36923690Y32585000D01*
X36690301Y32488327D01*
X36511673Y32309698D01*
X36497013Y32274306D01*
X36407809Y32407809D01*
X36197765Y32548157D01*
X35950000Y32597440D01*
X35150000Y32597440D01*
X34935000Y32554674D01*
X34935000Y32627002D01*
X34776252Y32627002D01*
X34935000Y32785750D01*
X34935000Y33126309D01*
X34838327Y33359698D01*
X34659699Y33538327D01*
X34426310Y33635000D01*
X33785750Y33635000D01*
X33627000Y33476250D01*
X33627000Y32627000D01*
X33647000Y32627000D01*
X33647000Y32373000D01*
X33627000Y32373000D01*
X33627000Y31523750D01*
X33785750Y31365000D01*
X34426310Y31365000D01*
X34502560Y31396584D01*
X34502560Y31050000D01*
X34551843Y30802235D01*
X34663587Y30635000D01*
X34362541Y30635000D01*
X34300000Y30647440D01*
X33750611Y30647440D01*
X33561783Y30685000D01*
X33450000Y30707235D01*
X33338217Y30685000D01*
X31111783Y30685000D01*
X31000000Y30707235D01*
X30888217Y30685000D01*
X30699389Y30647440D01*
X30150000Y30647440D01*
X30135000Y30644456D01*
X30135000Y31365000D01*
X30714250Y31365000D01*
X30873000Y31523750D01*
X30873000Y32323000D01*
X31127000Y32323000D01*
X31127000Y31523750D01*
X31285750Y31365000D01*
X31976310Y31365000D01*
X32209699Y31461673D01*
X32275000Y31526974D01*
X32340301Y31461673D01*
X32573690Y31365000D01*
X33214250Y31365000D01*
X33373000Y31523750D01*
X33373000Y32373000D01*
X32223750Y32373000D01*
X32173750Y32323000D01*
X31127000Y32323000D01*
X30873000Y32323000D01*
X30853000Y32323000D01*
X30853000Y32577000D01*
X30873000Y32577000D01*
X30873000Y33376250D01*
X31127000Y33376250D01*
X31127000Y32577000D01*
X32326250Y32577000D01*
X32376250Y32627000D01*
X33373000Y32627000D01*
X33373000Y33476250D01*
X33214250Y33635000D01*
X32573690Y33635000D01*
X32340301Y33538327D01*
X32225000Y33423026D01*
X32209699Y33438327D01*
X31976310Y33535000D01*
X31285750Y33535000D01*
X31127000Y33376250D01*
X30873000Y33376250D01*
X30714250Y33535000D01*
X30140131Y33535000D01*
X30270122Y33664990D01*
X32688207Y33664990D01*
X32799990Y33642755D01*
X32911773Y33664990D01*
X33242845Y33730844D01*
X33618279Y33981701D01*
X33681603Y34076472D01*
X35270122Y35664990D01*
X43188207Y35664990D01*
X43299990Y35642755D01*
X43411773Y35664990D01*
X43742845Y35730844D01*
X44118279Y35981701D01*
X44181603Y36076472D01*
X44325000Y36219869D01*
X44325000Y35538970D01*
X44419864Y35062056D01*
X44781231Y34521231D01*
X45055001Y34338304D01*
X45055000Y31774293D01*
X45026656Y31731873D01*
X44955000Y31371636D01*
X44955000Y30328365D01*
X45026656Y29968128D01*
X45299615Y29559615D01*
X45708127Y29286656D01*
X46190000Y29190805D01*
X46671872Y29286656D01*
X47080385Y29559615D01*
X47353344Y29968127D01*
X47425000Y30328364D01*
X47425000Y31371635D01*
X47353344Y31731873D01*
X47325000Y31774293D01*
X47325000Y34518713D01*
X47595001Y34338304D01*
X47595000Y31774293D01*
X47566656Y31731873D01*
X47495000Y31371636D01*
X47495000Y30328365D01*
X47566656Y29968128D01*
X47839615Y29559615D01*
X48248127Y29286656D01*
X48730000Y29190805D01*
X49211872Y29286656D01*
X49620385Y29559615D01*
X49893344Y29968127D01*
X49965000Y30328364D01*
X49965000Y31371635D01*
X49893344Y31731873D01*
X49865000Y31774293D01*
X49865000Y34518713D01*
X50135001Y34338304D01*
X50135000Y31774293D01*
X50106656Y31731873D01*
X50035000Y31371636D01*
X50035000Y30328365D01*
X50106656Y29968128D01*
X50379615Y29559615D01*
X50788127Y29286656D01*
X51270000Y29190805D01*
X51751872Y29286656D01*
X52160385Y29559615D01*
X52433344Y29968127D01*
X52505000Y30328364D01*
X52505000Y31371635D01*
X52433344Y31731873D01*
X52405000Y31774293D01*
X52405000Y34087369D01*
X52580000Y34052560D01*
X52675001Y34052560D01*
X52675000Y31774293D01*
X52646656Y31731873D01*
X52575000Y31371636D01*
X52575000Y30328365D01*
X52646656Y29968128D01*
X52919615Y29559615D01*
X53328127Y29286656D01*
X53810000Y29190805D01*
X54291872Y29286656D01*
X54700385Y29559615D01*
X54973098Y29967759D01*
X55171231Y29671231D01*
X55712055Y29309864D01*
X56350000Y29182969D01*
X56987944Y29309864D01*
X57528769Y29671231D01*
X57752589Y30006202D01*
X57797610Y29860053D01*
X58106526Y29486920D01*
X58534719Y29260408D01*
X58572391Y29256538D01*
X58763000Y29381269D01*
X58763000Y30723000D01*
X59017000Y30723000D01*
X59017000Y29381269D01*
X59207609Y29256538D01*
X59245281Y29260408D01*
X59673474Y29486920D01*
X59982390Y29860053D01*
X60125000Y30323000D01*
X60125000Y30723000D01*
X59017000Y30723000D01*
X58763000Y30723000D01*
X58743000Y30723000D01*
X58743000Y30977000D01*
X58763000Y30977000D01*
X58763000Y32318731D01*
X59017000Y32318731D01*
X59017000Y30977000D01*
X60125000Y30977000D01*
X60125000Y31377000D01*
X59982390Y31839947D01*
X59673474Y32213080D01*
X59245281Y32439592D01*
X59207609Y32443462D01*
X59017000Y32318731D01*
X58763000Y32318731D01*
X58572391Y32443462D01*
X58534719Y32439592D01*
X58106526Y32213080D01*
X57985000Y32066291D01*
X57985000Y33172762D01*
X58412238Y33600000D01*
X63599041Y33600000D01*
X63715350Y33015275D01*
X64046570Y32519570D01*
X64330281Y32330000D01*
X64046570Y32140430D01*
X63715350Y31644725D01*
X63599041Y31060000D01*
X63715350Y30475275D01*
X64046570Y29979570D01*
X64330281Y29790000D01*
X64046570Y29600430D01*
X63715350Y29104725D01*
X63599041Y28520000D01*
X63715350Y27935275D01*
X64046570Y27439570D01*
X64542275Y27108350D01*
X64979402Y27021400D01*
X65274598Y27021400D01*
X65711725Y27108350D01*
X66207430Y27439570D01*
X66397000Y27723281D01*
X66586570Y27439570D01*
X67082275Y27108350D01*
X67519402Y27021400D01*
X67814598Y27021400D01*
X68251725Y27108350D01*
X68747430Y27439570D01*
X69078650Y27935275D01*
X69194959Y28520000D01*
X69078650Y29104725D01*
X68747430Y29600430D01*
X68463719Y29790000D01*
X68747430Y29979570D01*
X69078650Y30475275D01*
X69194959Y31060000D01*
X69078650Y31644725D01*
X68747430Y32140430D01*
X68463719Y32330000D01*
X68747430Y32519570D01*
X69078650Y33015275D01*
X69194959Y33600000D01*
X69078650Y34184725D01*
X68747430Y34680430D01*
X68251725Y35011650D01*
X67814598Y35098600D01*
X67519402Y35098600D01*
X67082275Y35011650D01*
X66586570Y34680430D01*
X66397000Y34396719D01*
X66207430Y34680430D01*
X65711725Y35011650D01*
X65274598Y35098600D01*
X64979402Y35098600D01*
X64542275Y35011650D01*
X64046570Y34680430D01*
X63715350Y34184725D01*
X63599041Y33600000D01*
X58412238Y33600000D01*
X71382254Y46570015D01*
X71518770Y46661232D01*
X71880137Y47202056D01*
X71975001Y47678970D01*
X71975001Y47678974D01*
X72007031Y47840000D01*
X71975001Y48001026D01*
X71975001Y54013104D01*
X72007031Y54174130D01*
X71975001Y54335156D01*
X71975001Y54335160D01*
X71880137Y54812074D01*
X71518770Y55352898D01*
X71382254Y55444115D01*
X66524117Y60302251D01*
X66432898Y60438770D01*
X65892074Y60800137D01*
X65415160Y60895001D01*
X65415159Y60895001D01*
X65254129Y60927032D01*
X65093099Y60895001D01*
X38182343Y60895001D01*
X38021313Y60927032D01*
X37860283Y60895001D01*
X14221031Y60895001D01*
X14060001Y60927032D01*
X13898971Y60895001D01*
X13898970Y60895001D01*
X13422056Y60800137D01*
X12881232Y60438770D01*
X12790015Y60302254D01*
X8622762Y56135000D01*
X7552490Y56135000D01*
X7547765Y56138157D01*
X7300000Y56187440D01*
X3700000Y56187440D01*
X3452235Y56138157D01*
X3242191Y55997809D01*
X3101843Y55787765D01*
X3052560Y55540000D01*
X3052560Y53460000D01*
X3101843Y53212235D01*
X3242191Y53002191D01*
X3452235Y52861843D01*
X3700000Y52812560D01*
X7300000Y52812560D01*
X7547765Y52861843D01*
X7552490Y52865000D01*
X9138970Y52865000D01*
X9300000Y52832969D01*
X9461030Y52865000D01*
X9461031Y52865000D01*
X9937945Y52959864D01*
X10478769Y53321231D01*
X10569988Y53457750D01*
X13235000Y56122761D01*
X13235000Y56015431D01*
X13575259Y55193974D01*
X14203974Y54565259D01*
X15025431Y54225000D01*
X15914569Y54225000D01*
X16736026Y54565259D01*
X17364741Y55193974D01*
X17705000Y56015431D01*
X17705000Y56904569D01*
X17406587Y57625001D01*
X28486139Y57625001D01*
X28359570Y57540430D01*
X28028350Y57044725D01*
X27912041Y56460000D01*
X28028350Y55875275D01*
X28359570Y55379570D01*
X28855275Y55048350D01*
X29292402Y54961400D01*
X29587598Y54961400D01*
X30024725Y55048350D01*
X30520430Y55379570D01*
X30710000Y55663281D01*
X30899570Y55379570D01*
X31395275Y55048350D01*
X31832402Y54961400D01*
X32127598Y54961400D01*
X32564725Y55048350D01*
X33060430Y55379570D01*
X33250000Y55663281D01*
X33439570Y55379570D01*
X33935275Y55048350D01*
X34372402Y54961400D01*
X34667598Y54961400D01*
X35104725Y55048350D01*
X35600430Y55379570D01*
X35790000Y55663281D01*
X35979570Y55379570D01*
X36475275Y55048350D01*
X36912402Y54961400D01*
X37207598Y54961400D01*
X37644725Y55048350D01*
X37965000Y55262352D01*
X37965001Y54237240D01*
X36572020Y52844258D01*
X36395812Y52809208D01*
X35849695Y52444305D01*
X35748804Y52293311D01*
X35577630Y52511236D01*
X35014477Y52827926D01*
X34882944Y52859975D01*
X34627000Y52740836D01*
X34627000Y51127000D01*
X34647000Y51127000D01*
X34647000Y50873000D01*
X34627000Y50873000D01*
X34627000Y49259164D01*
X34882944Y49140025D01*
X35014477Y49172074D01*
X35577630Y49488764D01*
X35748804Y49706689D01*
X35849695Y49555695D01*
X36395813Y49190792D01*
X36572019Y49155742D01*
X36865001Y48862761D01*
X36865000Y47338970D01*
X36959864Y46862056D01*
X37321231Y46321231D01*
X37862055Y45959864D01*
X38500000Y45832969D01*
X39137944Y45959864D01*
X39387047Y46126309D01*
X44115000Y46126309D01*
X44115000Y44285750D01*
X44273750Y44127000D01*
X45873000Y44127000D01*
X45873000Y46476250D01*
X46127000Y46476250D01*
X46127000Y44127000D01*
X47726250Y44127000D01*
X47885000Y44285750D01*
X47885000Y46126309D01*
X47788327Y46359698D01*
X47609699Y46538327D01*
X47376310Y46635000D01*
X46285750Y46635000D01*
X46127000Y46476250D01*
X45873000Y46476250D01*
X45714250Y46635000D01*
X44623690Y46635000D01*
X44390301Y46538327D01*
X44211673Y46359698D01*
X44115000Y46126309D01*
X39387047Y46126309D01*
X39678769Y46321231D01*
X40040136Y46862055D01*
X40135000Y47338969D01*
X40135000Y49378970D01*
X40167031Y49540000D01*
X40135000Y49701031D01*
X40040136Y50177945D01*
X39678769Y50718769D01*
X39542252Y50809986D01*
X39352239Y51000000D01*
X39600000Y51247761D01*
X39890014Y50957748D01*
X39981231Y50821231D01*
X40522055Y50459864D01*
X40998969Y50365000D01*
X40998973Y50365000D01*
X41159999Y50332970D01*
X41321025Y50365000D01*
X44102560Y50365000D01*
X44102560Y50000000D01*
X44151843Y49752235D01*
X44292191Y49542191D01*
X44502235Y49401843D01*
X44750000Y49352560D01*
X47250000Y49352560D01*
X47497765Y49401843D01*
X47707809Y49542191D01*
X47848157Y49752235D01*
X47897440Y50000000D01*
X47897440Y54000000D01*
X47848157Y54247765D01*
X47707809Y54457809D01*
X47497765Y54598157D01*
X47250000Y54647440D01*
X44750000Y54647440D01*
X44502235Y54598157D01*
X44292191Y54457809D01*
X44151843Y54247765D01*
X44102560Y54000000D01*
X44102560Y53635000D01*
X41837239Y53635000D01*
X41235000Y54237238D01*
X41235000Y55262351D01*
X41555275Y55048350D01*
X41992402Y54961400D01*
X42287598Y54961400D01*
X42724725Y55048350D01*
X43220430Y55379570D01*
X43410000Y55663281D01*
X43599570Y55379570D01*
X44095275Y55048350D01*
X44532402Y54961400D01*
X44827598Y54961400D01*
X45264725Y55048350D01*
X45760430Y55379570D01*
X45950000Y55663281D01*
X46139570Y55379570D01*
X46635275Y55048350D01*
X47072402Y54961400D01*
X47367598Y54961400D01*
X47804725Y55048350D01*
X48300430Y55379570D01*
X48631650Y55875275D01*
X48747959Y56460000D01*
X48631650Y57044725D01*
X48300430Y57540430D01*
X48173861Y57625001D01*
X51346139Y57625001D01*
X51219570Y57540430D01*
X50888350Y57044725D01*
X50772041Y56460000D01*
X50888350Y55875275D01*
X51165000Y55461240D01*
X51165000Y55126904D01*
X51165001Y55126899D01*
X51165000Y46260130D01*
X47885000Y42980129D01*
X47885000Y43714250D01*
X47726250Y43873000D01*
X46127000Y43873000D01*
X46127000Y43853000D01*
X45873000Y43853000D01*
X45873000Y43873000D01*
X44273750Y43873000D01*
X44115000Y43714250D01*
X44115000Y42135000D01*
X42511783Y42135000D01*
X42400000Y42157235D01*
X42288217Y42135000D01*
X41957145Y42069146D01*
X41581711Y41818289D01*
X41518389Y41723521D01*
X39921871Y40127002D01*
X39826252Y40127002D01*
X39985000Y40285750D01*
X39985000Y40576309D01*
X39888327Y40809698D01*
X39709699Y40988327D01*
X39476310Y41085000D01*
X39235750Y41085000D01*
X39077000Y40926250D01*
X39077000Y40127000D01*
X39097000Y40127000D01*
X39097000Y39873000D01*
X39077000Y39873000D01*
X39077000Y39853000D01*
X38823000Y39853000D01*
X38823000Y39873000D01*
X38803000Y39873000D01*
X38803000Y40127000D01*
X38823000Y40127000D01*
X38823000Y40926250D01*
X38664250Y41085000D01*
X38423690Y41085000D01*
X38190301Y40988327D01*
X38011673Y40809698D01*
X37997013Y40774306D01*
X37907809Y40907809D01*
X37697765Y41048157D01*
X37450000Y41097440D01*
X36650000Y41097440D01*
X36402235Y41048157D01*
X36192191Y40907809D01*
X36051843Y40697765D01*
X36002560Y40450000D01*
X36002560Y39550000D01*
X36051843Y39302235D01*
X36130178Y39185000D01*
X32111783Y39185000D01*
X32000000Y39207235D01*
X31888217Y39185000D01*
X31699389Y39147440D01*
X31150000Y39147440D01*
X30902235Y39098157D01*
X30692191Y38957809D01*
X30551843Y38747765D01*
X30502560Y38500000D01*
X30502560Y38157692D01*
X29479869Y37135000D01*
X28973277Y37135000D01*
X28857809Y37307809D01*
X28647765Y37448157D01*
X28400000Y37497440D01*
X27500000Y37497440D01*
X27252235Y37448157D01*
X27042191Y37307809D01*
X26901843Y37097765D01*
X26852560Y36850000D01*
X26852560Y36300611D01*
X26792765Y36000000D01*
X26852560Y35699389D01*
X26852560Y35150000D01*
X26901843Y34902235D01*
X27042191Y34692191D01*
X27252235Y34551843D01*
X27500000Y34502560D01*
X27970748Y34502560D01*
X27930854Y34442854D01*
X27842765Y34000000D01*
X27865001Y33888212D01*
X27865000Y30997440D01*
X27500000Y30997440D01*
X27252235Y30948157D01*
X27042191Y30807809D01*
X26901843Y30597765D01*
X26852560Y30350000D01*
X26852560Y29800611D01*
X26792765Y29500000D01*
X26852560Y29199389D01*
X26852560Y29084999D01*
X26147440Y29084999D01*
X26147440Y29199389D01*
X26207235Y29500000D01*
X26147440Y29800611D01*
X26147440Y30350000D01*
X26098157Y30597765D01*
X25957809Y30807809D01*
X25747765Y30948157D01*
X25500000Y30997440D01*
X24600000Y30997440D01*
X24352235Y30948157D01*
X24142191Y30807809D01*
X24026723Y30635000D01*
X23111782Y30635000D01*
X22999999Y30657235D01*
X22580291Y30573750D01*
X22557145Y30569146D01*
X22181711Y30318289D01*
X22118389Y30223521D01*
X21051630Y29156761D01*
X21000000Y29167031D01*
X20838970Y29135000D01*
X19539868Y29135000D01*
X19457809Y29257809D01*
X19247765Y29398157D01*
X19155136Y29416582D01*
X18929996Y29753527D01*
X18929994Y29753529D01*
X18838779Y29890042D01*
X18702266Y29981257D01*
X15318521Y33365000D01*
X23888970Y33365000D01*
X24050000Y33332969D01*
X24211030Y33365000D01*
X24211031Y33365000D01*
X24687945Y33459864D01*
X25228769Y33821231D01*
X25319988Y33957750D01*
X26319986Y34957747D01*
X26590136Y35362054D01*
X26717031Y36000000D01*
X26590136Y36637945D01*
X26228769Y37178769D01*
X25687945Y37540136D01*
X25050000Y37667031D01*
X24412054Y37540136D01*
X24007747Y37269986D01*
X23372762Y36635000D01*
X14635000Y36635000D01*
X14635000Y39515047D01*
X14840136Y39822055D01*
X14967031Y40460000D01*
X14840136Y41097945D01*
X14661696Y41365000D01*
X16338970Y41365000D01*
X16500000Y41332969D01*
X16661030Y41365000D01*
X16661031Y41365000D01*
X17137945Y41459864D01*
X17518660Y41714250D01*
X21615000Y41714250D01*
X21615000Y39873691D01*
X21711673Y39640302D01*
X21890301Y39461673D01*
X22123690Y39365000D01*
X23214250Y39365000D01*
X23373000Y39523750D01*
X23373000Y41873000D01*
X23627000Y41873000D01*
X23627000Y39523750D01*
X23785750Y39365000D01*
X24876310Y39365000D01*
X25109699Y39461673D01*
X25288327Y39640302D01*
X25385000Y39873691D01*
X25385000Y40664250D01*
X30515000Y40664250D01*
X30515000Y40373691D01*
X30611673Y40140302D01*
X30790301Y39961673D01*
X31023690Y39865000D01*
X31714250Y39865000D01*
X31873000Y40023750D01*
X31873000Y40823000D01*
X32127000Y40823000D01*
X32127000Y40023750D01*
X32285750Y39865000D01*
X32976310Y39865000D01*
X33209699Y39961673D01*
X33275000Y40026974D01*
X33340301Y39961673D01*
X33573690Y39865000D01*
X34214250Y39865000D01*
X34373000Y40023750D01*
X34373000Y40873000D01*
X34627000Y40873000D01*
X34627000Y40023750D01*
X34785750Y39865000D01*
X35426310Y39865000D01*
X35659699Y39961673D01*
X35838327Y40140302D01*
X35935000Y40373691D01*
X35935000Y40714250D01*
X35776250Y40873000D01*
X34627000Y40873000D01*
X34373000Y40873000D01*
X33223750Y40873000D01*
X33173750Y40823000D01*
X32127000Y40823000D01*
X31873000Y40823000D01*
X30673750Y40823000D01*
X30515000Y40664250D01*
X25385000Y40664250D01*
X25385000Y41526309D01*
X30515000Y41526309D01*
X30515000Y41235750D01*
X30673750Y41077000D01*
X31873000Y41077000D01*
X31873000Y41876250D01*
X32127000Y41876250D01*
X32127000Y41077000D01*
X33326250Y41077000D01*
X33376250Y41127000D01*
X34373000Y41127000D01*
X34373000Y41976250D01*
X34627000Y41976250D01*
X34627000Y41127000D01*
X35776250Y41127000D01*
X35935000Y41285750D01*
X35935000Y41626309D01*
X35838327Y41859698D01*
X35659699Y42038327D01*
X35426310Y42135000D01*
X34785750Y42135000D01*
X34627000Y41976250D01*
X34373000Y41976250D01*
X34214250Y42135000D01*
X33573690Y42135000D01*
X33340301Y42038327D01*
X33225000Y41923026D01*
X33209699Y41938327D01*
X32976310Y42035000D01*
X32285750Y42035000D01*
X32127000Y41876250D01*
X31873000Y41876250D01*
X31714250Y42035000D01*
X31023690Y42035000D01*
X30790301Y41938327D01*
X30611673Y41759698D01*
X30515000Y41526309D01*
X25385000Y41526309D01*
X25385000Y41714250D01*
X25226250Y41873000D01*
X23627000Y41873000D01*
X23373000Y41873000D01*
X21773750Y41873000D01*
X21615000Y41714250D01*
X17518660Y41714250D01*
X17678769Y41821231D01*
X17769988Y41957750D01*
X19938547Y44126309D01*
X21615000Y44126309D01*
X21615000Y42285750D01*
X21773750Y42127000D01*
X23373000Y42127000D01*
X23373000Y44476250D01*
X23627000Y44476250D01*
X23627000Y42127000D01*
X25226250Y42127000D01*
X25385000Y42285750D01*
X25385000Y44126309D01*
X25288327Y44359698D01*
X25109699Y44538327D01*
X24876310Y44635000D01*
X23785750Y44635000D01*
X23627000Y44476250D01*
X23373000Y44476250D01*
X23214250Y44635000D01*
X22123690Y44635000D01*
X21890301Y44538327D01*
X21711673Y44359698D01*
X21615000Y44126309D01*
X19938547Y44126309D01*
X23164799Y47352560D01*
X24750000Y47352560D01*
X24997765Y47401843D01*
X25207809Y47542191D01*
X25348157Y47752235D01*
X25397440Y48000000D01*
X25397440Y49365000D01*
X28865000Y49365000D01*
X28865001Y47338969D01*
X28959865Y46862055D01*
X29321232Y46321231D01*
X29862056Y45959864D01*
X30500000Y45832969D01*
X31137945Y45959864D01*
X31678769Y46321231D01*
X32040136Y46862055D01*
X32110191Y47214250D01*
X32365000Y47214250D01*
X32365000Y46573690D01*
X32461673Y46340301D01*
X32640302Y46161673D01*
X32873691Y46065000D01*
X33214250Y46065000D01*
X33373000Y46223750D01*
X33373000Y47373000D01*
X33627000Y47373000D01*
X33627000Y46223750D01*
X33785750Y46065000D01*
X34126309Y46065000D01*
X34359698Y46161673D01*
X34500000Y46301974D01*
X34640302Y46161673D01*
X34873691Y46065000D01*
X35214250Y46065000D01*
X35373000Y46223750D01*
X35373000Y47373000D01*
X35627000Y47373000D01*
X35627000Y46223750D01*
X35785750Y46065000D01*
X36126309Y46065000D01*
X36359698Y46161673D01*
X36538327Y46340301D01*
X36635000Y46573690D01*
X36635000Y47214250D01*
X36476250Y47373000D01*
X35627000Y47373000D01*
X35373000Y47373000D01*
X34523750Y47373000D01*
X34500000Y47349250D01*
X34476250Y47373000D01*
X33627000Y47373000D01*
X33373000Y47373000D01*
X32523750Y47373000D01*
X32365000Y47214250D01*
X32110191Y47214250D01*
X32135000Y47338969D01*
X32135000Y48426310D01*
X32365000Y48426310D01*
X32365000Y47785750D01*
X32523750Y47627000D01*
X33373000Y47627000D01*
X33373000Y48776250D01*
X33627000Y48776250D01*
X33627000Y47627000D01*
X34476250Y47627000D01*
X34500000Y47650750D01*
X34523750Y47627000D01*
X35373000Y47627000D01*
X35373000Y48776250D01*
X35627000Y48776250D01*
X35627000Y47627000D01*
X36476250Y47627000D01*
X36635000Y47785750D01*
X36635000Y48426310D01*
X36538327Y48659699D01*
X36359698Y48838327D01*
X36126309Y48935000D01*
X35785750Y48935000D01*
X35627000Y48776250D01*
X35373000Y48776250D01*
X35214250Y48935000D01*
X34873691Y48935000D01*
X34640302Y48838327D01*
X34500000Y48698026D01*
X34359698Y48838327D01*
X34126309Y48935000D01*
X33785750Y48935000D01*
X33627000Y48776250D01*
X33373000Y48776250D01*
X33214250Y48935000D01*
X32873691Y48935000D01*
X32640302Y48838327D01*
X32461673Y48659699D01*
X32365000Y48426310D01*
X32135000Y48426310D01*
X32135000Y48862762D01*
X32427981Y49155742D01*
X32604188Y49190792D01*
X33150305Y49555695D01*
X33251196Y49706689D01*
X33422370Y49488764D01*
X33985523Y49172074D01*
X34117056Y49140025D01*
X34373000Y49259164D01*
X34373000Y50873000D01*
X34353000Y50873000D01*
X34353000Y51127000D01*
X34373000Y51127000D01*
X34373000Y52740836D01*
X34117056Y52859975D01*
X33985523Y52827926D01*
X33422370Y52511236D01*
X33251196Y52293311D01*
X33150305Y52444305D01*
X32604187Y52809208D01*
X31960000Y52937345D01*
X31315812Y52809208D01*
X31055091Y52635000D01*
X24812541Y52635000D01*
X24750000Y52647440D01*
X24598491Y52647440D01*
X24500000Y52667031D01*
X24401509Y52647440D01*
X22250000Y52647440D01*
X22002235Y52598157D01*
X21792191Y52457809D01*
X21651843Y52247765D01*
X21602560Y52000000D01*
X21602560Y50414799D01*
X15822762Y44635000D01*
X14362541Y44635000D01*
X14300000Y44647440D01*
X11700000Y44647440D01*
X11452235Y44598157D01*
X11242191Y44457809D01*
X11101843Y44247765D01*
X11052560Y44000000D01*
X11052560Y42135000D01*
X6552490Y42135000D01*
X6547765Y42138157D01*
X6300000Y42187440D01*
X2700000Y42187440D01*
X2452235Y42138157D01*
X2242191Y41997809D01*
X2101843Y41787765D01*
X2052560Y41540000D01*
X710000Y41540000D01*
X710000Y49033290D01*
X3110252Y49033290D01*
X3143901Y48896338D01*
X3465794Y48325399D01*
X3981673Y47921103D01*
X4613000Y47745000D01*
X5373000Y47745000D01*
X5373000Y49293000D01*
X5627000Y49293000D01*
X5627000Y47745000D01*
X6387000Y47745000D01*
X7018327Y47921103D01*
X7534206Y48325399D01*
X7856099Y48896338D01*
X7889748Y49033290D01*
X7770922Y49293000D01*
X5627000Y49293000D01*
X5373000Y49293000D01*
X3229078Y49293000D01*
X3110252Y49033290D01*
X710000Y49033290D01*
X710000Y49806710D01*
X3110252Y49806710D01*
X3229078Y49547000D01*
X5373000Y49547000D01*
X5373000Y51095000D01*
X5627000Y51095000D01*
X5627000Y49547000D01*
X7770922Y49547000D01*
X7889748Y49806710D01*
X7856099Y49943662D01*
X7534206Y50514601D01*
X7018327Y50918897D01*
X6387000Y51095000D01*
X5627000Y51095000D01*
X5373000Y51095000D01*
X4613000Y51095000D01*
X3981673Y50918897D01*
X3465794Y50514601D01*
X3143901Y49943662D01*
X3110252Y49806710D01*
X710000Y49806710D01*
X710000Y64290000D01*
X73373000Y64290000D01*
X73373000Y710000D01*
G04 #@! TD*
M02*
