G04 #@! TF.GenerationSoftware,KiCad,Pcbnew,5.0.2-bee76a0~70~ubuntu18.04.1*
G04 #@! TF.CreationDate,2020-04-16T21:46:49+02:00*
G04 #@! TF.ProjectId,lo_amp,6c6f5f61-6d70-42e6-9b69-6361645f7063,rev?*
G04 #@! TF.SameCoordinates,PX60e4b00PY7f2c270*
G04 #@! TF.FileFunction,Copper,L1,Top*
G04 #@! TF.FilePolarity,Positive*
%FSLAX46Y46*%
G04 Gerber Fmt 4.6, Leading zero omitted, Abs format (unit mm)*
G04 Created by KiCad (PCBNEW 5.0.2-bee76a0~70~ubuntu18.04.1) date tor 16 apr 2020 21:46:49*
%MOMM*%
%LPD*%
G01*
G04 APERTURE LIST*
G04 #@! TA.AperFunction,NonConductor*
%ADD10C,0.300000*%
G04 #@! TD*
G04 #@! TA.AperFunction,SMDPad,CuDef*
%ADD11R,0.800000X0.750000*%
G04 #@! TD*
G04 #@! TA.AperFunction,SMDPad,CuDef*
%ADD12R,4.000000X2.500000*%
G04 #@! TD*
G04 #@! TA.AperFunction,Conductor*
%ADD13R,0.890000X0.460000*%
G04 #@! TD*
G04 #@! TA.AperFunction,ViaPad*
%ADD14C,0.970000*%
G04 #@! TD*
G04 #@! TA.AperFunction,SMDPad,CuDef*
%ADD15R,5.080000X2.420000*%
G04 #@! TD*
G04 #@! TA.AperFunction,SMDPad,CuDef*
%ADD16R,5.080000X2.290000*%
G04 #@! TD*
G04 #@! TA.AperFunction,ComponentPad*
%ADD17O,2.600000X2.000000*%
G04 #@! TD*
G04 #@! TA.AperFunction,ComponentPad*
%ADD18R,2.600000X2.000000*%
G04 #@! TD*
G04 #@! TA.AperFunction,SMDPad,CuDef*
%ADD19R,0.600000X0.400000*%
G04 #@! TD*
G04 #@! TA.AperFunction,SMDPad,CuDef*
%ADD20R,0.900000X0.500000*%
G04 #@! TD*
G04 #@! TA.AperFunction,SMDPad,CuDef*
%ADD21R,0.600000X1.100000*%
G04 #@! TD*
G04 #@! TA.AperFunction,SMDPad,CuDef*
%ADD22R,0.400000X0.200000*%
G04 #@! TD*
G04 #@! TA.AperFunction,ViaPad*
%ADD23C,0.800000*%
G04 #@! TD*
G04 #@! TA.AperFunction,Conductor*
%ADD24C,0.600000*%
G04 #@! TD*
G04 #@! TA.AperFunction,Conductor*
%ADD25C,0.250000*%
G04 #@! TD*
G04 #@! TA.AperFunction,Conductor*
%ADD26C,4.000000*%
G04 #@! TD*
G04 #@! TA.AperFunction,Conductor*
%ADD27C,2.000000*%
G04 #@! TD*
G04 #@! TA.AperFunction,Conductor*
%ADD28C,0.400000*%
G04 #@! TD*
G04 #@! TA.AperFunction,Conductor*
%ADD29C,0.254000*%
G04 #@! TD*
G04 APERTURE END LIST*
D10*
X38052857Y19800000D02*
X37910000Y19871429D01*
X37695714Y19871429D01*
X37481428Y19800000D01*
X37338571Y19657143D01*
X37267142Y19514286D01*
X37195714Y19228572D01*
X37195714Y19014286D01*
X37267142Y18728572D01*
X37338571Y18585715D01*
X37481428Y18442858D01*
X37695714Y18371429D01*
X37838571Y18371429D01*
X38052857Y18442858D01*
X38124285Y18514286D01*
X38124285Y19014286D01*
X37838571Y19014286D01*
X39624285Y18371429D02*
X39124285Y19085715D01*
X38767142Y18371429D02*
X38767142Y19871429D01*
X39338571Y19871429D01*
X39481428Y19800000D01*
X39552857Y19728572D01*
X39624285Y19585715D01*
X39624285Y19371429D01*
X39552857Y19228572D01*
X39481428Y19157143D01*
X39338571Y19085715D01*
X38767142Y19085715D01*
X40767142Y19157143D02*
X40267142Y19157143D01*
X40267142Y18371429D02*
X40267142Y19871429D01*
X40981428Y19871429D01*
X41410000Y19871429D02*
X42338571Y19871429D01*
X41838571Y19300000D01*
X42052857Y19300000D01*
X42195714Y19228572D01*
X42267142Y19157143D01*
X42338571Y19014286D01*
X42338571Y18657143D01*
X42267142Y18514286D01*
X42195714Y18442858D01*
X42052857Y18371429D01*
X41624285Y18371429D01*
X41481428Y18442858D01*
X41410000Y18514286D01*
X43267142Y19871429D02*
X43410000Y19871429D01*
X43552857Y19800000D01*
X43624285Y19728572D01*
X43695714Y19585715D01*
X43767142Y19300000D01*
X43767142Y18942858D01*
X43695714Y18657143D01*
X43624285Y18514286D01*
X43552857Y18442858D01*
X43410000Y18371429D01*
X43267142Y18371429D01*
X43124285Y18442858D01*
X43052857Y18514286D01*
X42981428Y18657143D01*
X42910000Y18942858D01*
X42910000Y19300000D01*
X42981428Y19585715D01*
X43052857Y19728572D01*
X43124285Y19800000D01*
X43267142Y19871429D01*
X45052857Y19371429D02*
X45052857Y18371429D01*
X44695714Y19942858D02*
X44338571Y18871429D01*
X45267142Y18871429D01*
X45767142Y19728572D02*
X45838571Y19800000D01*
X45981428Y19871429D01*
X46338571Y19871429D01*
X46481428Y19800000D01*
X46552857Y19728572D01*
X46624285Y19585715D01*
X46624285Y19442858D01*
X46552857Y19228572D01*
X45695714Y18371429D01*
X46624285Y18371429D01*
X38945714Y21165429D02*
X38445714Y21879715D01*
X38088571Y21165429D02*
X38088571Y22665429D01*
X38660000Y22665429D01*
X38802857Y22594000D01*
X38874285Y22522572D01*
X38945714Y22379715D01*
X38945714Y22165429D01*
X38874285Y22022572D01*
X38802857Y21951143D01*
X38660000Y21879715D01*
X38088571Y21879715D01*
X39374285Y22665429D02*
X40231428Y22665429D01*
X39802857Y21165429D02*
X39802857Y22665429D01*
X41374285Y22665429D02*
X41088571Y22665429D01*
X40945714Y22594000D01*
X40874285Y22522572D01*
X40731428Y22308286D01*
X40660000Y22022572D01*
X40660000Y21451143D01*
X40731428Y21308286D01*
X40802857Y21236858D01*
X40945714Y21165429D01*
X41231428Y21165429D01*
X41374285Y21236858D01*
X41445714Y21308286D01*
X41517142Y21451143D01*
X41517142Y21808286D01*
X41445714Y21951143D01*
X41374285Y22022572D01*
X41231428Y22094000D01*
X40945714Y22094000D01*
X40802857Y22022572D01*
X40731428Y21951143D01*
X40660000Y21808286D01*
X42445714Y22665429D02*
X42588571Y22665429D01*
X42731428Y22594000D01*
X42802857Y22522572D01*
X42874285Y22379715D01*
X42945714Y22094000D01*
X42945714Y21736858D01*
X42874285Y21451143D01*
X42802857Y21308286D01*
X42731428Y21236858D01*
X42588571Y21165429D01*
X42445714Y21165429D01*
X42302857Y21236858D01*
X42231428Y21308286D01*
X42160000Y21451143D01*
X42088571Y21736858D01*
X42088571Y22094000D01*
X42160000Y22379715D01*
X42231428Y22522572D01*
X42302857Y22594000D01*
X42445714Y22665429D01*
X44374285Y21165429D02*
X43517142Y21165429D01*
X43945714Y21165429D02*
X43945714Y22665429D01*
X43802857Y22451143D01*
X43660000Y22308286D01*
X43517142Y22236858D01*
X45302857Y22665429D02*
X45445714Y22665429D01*
X45588571Y22594000D01*
X45660000Y22522572D01*
X45731428Y22379715D01*
X45802857Y22094000D01*
X45802857Y21736858D01*
X45731428Y21451143D01*
X45660000Y21308286D01*
X45588571Y21236858D01*
X45445714Y21165429D01*
X45302857Y21165429D01*
X45160000Y21236858D01*
X45088571Y21308286D01*
X45017142Y21451143D01*
X44945714Y21736858D01*
X44945714Y22094000D01*
X45017142Y22379715D01*
X45088571Y22522572D01*
X45160000Y22594000D01*
X45302857Y22665429D01*
D11*
G04 #@! TO.P,C1,1*
G04 #@! TO.N,Net-(C1-Pad1)*
X16613000Y8382000D03*
G04 #@! TO.P,C1,2*
G04 #@! TO.N,Net-(C1-Pad2)*
X15113000Y8382000D03*
G04 #@! TD*
D12*
G04 #@! TO.P,C2,2*
G04 #@! TO.N,Net-(C2-Pad2)*
X19875000Y20701000D03*
G04 #@! TO.P,C2,1*
G04 #@! TO.N,GND*
X11875000Y20701000D03*
G04 #@! TD*
D11*
G04 #@! TO.P,C3,1*
G04 #@! TO.N,GND*
X23265000Y10922000D03*
G04 #@! TO.P,C3,2*
G04 #@! TO.N,Net-(C3-Pad2)*
X24765000Y10922000D03*
G04 #@! TD*
G04 #@! TO.P,C4,2*
G04 #@! TO.N,Net-(C4-Pad2)*
X28194000Y8382000D03*
G04 #@! TO.P,C4,1*
G04 #@! TO.N,Net-(C4-Pad1)*
X29694000Y8382000D03*
G04 #@! TD*
D13*
G04 #@! TO.N,GND*
G04 #@! TO.C,J1*
X5588000Y4002000D03*
X5588000Y12762000D03*
D14*
X6038000Y4002000D03*
X6038000Y12762000D03*
D15*
G04 #@! TD*
G04 #@! TO.P,J1,2*
G04 #@! TO.N,GND*
X2598000Y4002000D03*
G04 #@! TO.P,J1,2*
G04 #@! TO.N,GND*
X2598000Y12762000D03*
D16*
G04 #@! TO.P,J1,1*
G04 #@! TO.N,Net-(C1-Pad2)*
X2598000Y8382000D03*
G04 #@! TD*
D17*
G04 #@! TO.P,J2,2*
G04 #@! TO.N,GND*
X27940000Y21209000D03*
D18*
G04 #@! TO.P,J2,1*
G04 #@! TO.N,Net-(C2-Pad2)*
X27940000Y18669000D03*
G04 #@! TD*
D19*
G04 #@! TO.P,L1,2*
G04 #@! TO.N,Net-(C4-Pad2)*
X24765000Y8382000D03*
G04 #@! TO.P,L1,1*
G04 #@! TO.N,Net-(C3-Pad2)*
X24765000Y9282000D03*
G04 #@! TD*
D20*
G04 #@! TO.P,R1,1*
G04 #@! TO.N,Net-(C3-Pad2)*
X19685000Y9882000D03*
G04 #@! TO.P,R1,2*
G04 #@! TO.N,Net-(C1-Pad1)*
X19685000Y8382000D03*
G04 #@! TD*
G04 #@! TO.P,R2,2*
G04 #@! TO.N,Net-(C3-Pad2)*
X24892000Y12446000D03*
G04 #@! TO.P,R2,1*
G04 #@! TO.N,Net-(C2-Pad2)*
X24892000Y13946000D03*
G04 #@! TD*
D13*
G04 #@! TO.N,GND*
G04 #@! TO.C,J3*
X43111000Y12762000D03*
X43111000Y4002000D03*
D14*
X42661000Y12762000D03*
X42661000Y4002000D03*
D15*
G04 #@! TD*
G04 #@! TO.P,J3,2*
G04 #@! TO.N,GND*
X46101000Y12762000D03*
G04 #@! TO.P,J3,2*
G04 #@! TO.N,GND*
X46101000Y4002000D03*
D16*
G04 #@! TO.P,J3,1*
G04 #@! TO.N,Net-(C4-Pad1)*
X46101000Y8382000D03*
G04 #@! TD*
D21*
G04 #@! TO.P,U1,7*
G04 #@! TO.N,GND*
X22225000Y8890000D03*
D22*
G04 #@! TO.P,U1,6*
X22975000Y9390000D03*
G04 #@! TO.P,U1,5*
X22975000Y8890000D03*
G04 #@! TO.P,U1,4*
G04 #@! TO.N,Net-(C4-Pad2)*
X22975000Y8390000D03*
G04 #@! TO.P,U1,3*
G04 #@! TO.N,Net-(C1-Pad1)*
X21475000Y8390000D03*
G04 #@! TO.P,U1,2*
G04 #@! TO.N,GND*
X21475000Y8890000D03*
G04 #@! TO.P,U1,1*
X21475000Y9390000D03*
G04 #@! TD*
D11*
G04 #@! TO.P,C5,1*
G04 #@! TO.N,Net-(C3-Pad2)*
X19685000Y12192000D03*
G04 #@! TO.P,C5,2*
G04 #@! TO.N,GND*
X18185000Y12192000D03*
G04 #@! TD*
D23*
G04 #@! TO.N,GND*
X11875000Y20701000D03*
X22225000Y8890000D03*
X18185000Y12192000D03*
X23265000Y10922000D03*
G04 #@! TD*
D24*
G04 #@! TO.N,Net-(C1-Pad1)*
X19685000Y8382000D02*
X20782998Y8382000D01*
D25*
X21320000Y8382000D02*
X20782998Y8382000D01*
X21328000Y8390000D02*
X21320000Y8382000D01*
X21475000Y8390000D02*
X21328000Y8390000D01*
D24*
X19685000Y8382000D02*
X16613000Y8382000D01*
G04 #@! TO.N,Net-(C1-Pad2)*
X14113000Y8382000D02*
X2598000Y8382000D01*
X15113000Y8382000D02*
X14113000Y8382000D01*
D26*
G04 #@! TO.N,Net-(C2-Pad2)*
X19875000Y20701000D02*
X20193000Y20701000D01*
D24*
X24892000Y13946000D02*
X24892000Y16002000D01*
D27*
X24005000Y18034000D02*
X22860000Y18034000D01*
X27940000Y18669000D02*
X24640000Y18669000D01*
D26*
X20193000Y20701000D02*
X22860000Y18034000D01*
D27*
X24640000Y18669000D02*
X24005000Y18034000D01*
D26*
X22860000Y18034000D02*
X24892000Y16002000D01*
D25*
G04 #@! TO.N,GND*
X22975000Y8890000D02*
X22975000Y9390000D01*
X21475000Y8890000D02*
X21475000Y9390000D01*
X21475000Y9390000D02*
X21725000Y9390000D01*
X21475000Y8890000D02*
X22225000Y8890000D01*
X22975000Y8890000D02*
X22225000Y8890000D01*
X22975000Y9390000D02*
X21725000Y9390000D01*
D24*
X22265000Y10922000D02*
X23265000Y10922000D01*
X22225000Y10882000D02*
X22265000Y10922000D01*
X22225000Y8890000D02*
X22225000Y10882000D01*
D27*
X13324000Y25400000D02*
X11875000Y23951000D01*
X26749000Y25400000D02*
X13324000Y25400000D01*
X11875000Y23951000D02*
X11875000Y20701000D01*
X27940000Y24209000D02*
X26749000Y25400000D01*
X27940000Y21209000D02*
X27940000Y24209000D01*
X41561000Y4002000D02*
X2598000Y4002000D01*
X46101000Y4002000D02*
X41561000Y4002000D01*
X3936000Y12762000D02*
X11875000Y20701000D01*
X2598000Y12762000D02*
X3936000Y12762000D01*
X11875000Y17451000D02*
X17134000Y12192000D01*
X11875000Y20701000D02*
X11875000Y17451000D01*
D28*
X17134000Y12192000D02*
X18185000Y12192000D01*
X6038000Y4002000D02*
X8770000Y1270000D01*
X39929000Y1270000D02*
X42661000Y4002000D01*
X8770000Y1270000D02*
X39929000Y1270000D01*
D27*
X46101000Y12762000D02*
X46101000Y13589000D01*
X46101000Y13589000D02*
X44450000Y15240000D01*
X44450000Y15240000D02*
X36830000Y15240000D01*
X36830000Y15240000D02*
X33020000Y19050000D01*
X33020000Y19050000D02*
X33020000Y20320000D01*
X32131000Y21209000D02*
X27940000Y21209000D01*
X33020000Y20320000D02*
X32131000Y21209000D01*
D28*
G04 #@! TO.N,Net-(C3-Pad2)*
X19685000Y9882000D02*
X19685000Y10532000D01*
X19685000Y10532000D02*
X19685000Y11811000D01*
D24*
X19685000Y11811000D02*
X19685000Y12446000D01*
X19685000Y12446000D02*
X24892000Y12446000D01*
X24765000Y9282000D02*
X24765000Y10922000D01*
X24765000Y12319000D02*
X24892000Y12446000D01*
X24765000Y10922000D02*
X24765000Y12319000D01*
G04 #@! TO.N,Net-(C4-Pad2)*
X24765000Y8382000D02*
X23865000Y8382000D01*
X23865000Y8382000D02*
X23495000Y8382000D01*
X24765000Y8382000D02*
X28194000Y8382000D01*
D25*
X23487000Y8390000D02*
X23495000Y8382000D01*
X22975000Y8390000D02*
X23487000Y8390000D01*
D24*
G04 #@! TO.N,Net-(C4-Pad1)*
X30694000Y8382000D02*
X46101000Y8382000D01*
X29694000Y8382000D02*
X30694000Y8382000D01*
G04 #@! TD*
D29*
G04 #@! TO.N,GND*
G36*
X48820000Y12827000D02*
X25963383Y12827000D01*
X25940157Y12943765D01*
X25799809Y13153809D01*
X25736666Y13196000D01*
X25799809Y13238191D01*
X25940157Y13448235D01*
X25959664Y13546304D01*
X26791728Y14102272D01*
X27374115Y14973875D01*
X27578622Y16002000D01*
X27375819Y17021560D01*
X29240000Y17021560D01*
X29487765Y17070843D01*
X29697809Y17211191D01*
X29838157Y17421235D01*
X29887440Y17669000D01*
X29887440Y19669000D01*
X29838157Y19916765D01*
X29697809Y20126809D01*
X29487765Y20267157D01*
X29240000Y20316440D01*
X26640000Y20316440D01*
X26577459Y20304000D01*
X24801031Y20304000D01*
X24640000Y20336031D01*
X24478969Y20304000D01*
X24343416Y20277037D01*
X23780453Y20840000D01*
X36125000Y20840000D01*
X36125000Y17020000D01*
X47695000Y17020000D01*
X47695000Y20840000D01*
X46873572Y20840000D01*
X46873572Y23634000D01*
X36946429Y23634000D01*
X36946429Y20840000D01*
X36125000Y20840000D01*
X23780453Y20840000D01*
X22485937Y22134515D01*
X22473157Y22198765D01*
X22332809Y22408809D01*
X22130756Y22543818D01*
X22092729Y22600729D01*
X21221126Y23183115D01*
X20452521Y23336000D01*
X20193000Y23387622D01*
X19933479Y23336000D01*
X19615479Y23336000D01*
X18846874Y23183115D01*
X17975271Y22600729D01*
X17973742Y22598440D01*
X17875000Y22598440D01*
X17627235Y22549157D01*
X17417191Y22408809D01*
X17276843Y22198765D01*
X17227560Y21951000D01*
X17227560Y20897981D01*
X17188378Y20701000D01*
X17227560Y20504019D01*
X17227560Y19451000D01*
X17276843Y19203235D01*
X17417191Y18993191D01*
X17627235Y18852843D01*
X17875000Y18803560D01*
X17973742Y18803560D01*
X17975271Y18801271D01*
X18846874Y18218885D01*
X18973937Y18193611D01*
X21180282Y15987265D01*
X21180285Y15987263D01*
X23212282Y13955265D01*
X23824336Y13546303D01*
X23843843Y13448235D01*
X23888768Y13381000D01*
X19777086Y13381000D01*
X19685000Y13399317D01*
X19592914Y13381000D01*
X19320181Y13326750D01*
X19095763Y13176799D01*
X19037235Y13165157D01*
X18827191Y13024809D01*
X18686843Y12814765D01*
X18637560Y12567000D01*
X18637560Y11817000D01*
X18686843Y11569235D01*
X18695018Y11557000D01*
X16562606Y11557000D01*
X15329803Y12789803D01*
X15288601Y12817333D01*
X15240000Y12827000D01*
X710000Y12827000D01*
X710000Y25960000D01*
X48820001Y25960000D01*
X48820000Y12827000D01*
X48820000Y12827000D01*
G37*
X48820000Y12827000D02*
X25963383Y12827000D01*
X25940157Y12943765D01*
X25799809Y13153809D01*
X25736666Y13196000D01*
X25799809Y13238191D01*
X25940157Y13448235D01*
X25959664Y13546304D01*
X26791728Y14102272D01*
X27374115Y14973875D01*
X27578622Y16002000D01*
X27375819Y17021560D01*
X29240000Y17021560D01*
X29487765Y17070843D01*
X29697809Y17211191D01*
X29838157Y17421235D01*
X29887440Y17669000D01*
X29887440Y19669000D01*
X29838157Y19916765D01*
X29697809Y20126809D01*
X29487765Y20267157D01*
X29240000Y20316440D01*
X26640000Y20316440D01*
X26577459Y20304000D01*
X24801031Y20304000D01*
X24640000Y20336031D01*
X24478969Y20304000D01*
X24343416Y20277037D01*
X23780453Y20840000D01*
X36125000Y20840000D01*
X36125000Y17020000D01*
X47695000Y17020000D01*
X47695000Y20840000D01*
X46873572Y20840000D01*
X46873572Y23634000D01*
X36946429Y23634000D01*
X36946429Y20840000D01*
X36125000Y20840000D01*
X23780453Y20840000D01*
X22485937Y22134515D01*
X22473157Y22198765D01*
X22332809Y22408809D01*
X22130756Y22543818D01*
X22092729Y22600729D01*
X21221126Y23183115D01*
X20452521Y23336000D01*
X20193000Y23387622D01*
X19933479Y23336000D01*
X19615479Y23336000D01*
X18846874Y23183115D01*
X17975271Y22600729D01*
X17973742Y22598440D01*
X17875000Y22598440D01*
X17627235Y22549157D01*
X17417191Y22408809D01*
X17276843Y22198765D01*
X17227560Y21951000D01*
X17227560Y20897981D01*
X17188378Y20701000D01*
X17227560Y20504019D01*
X17227560Y19451000D01*
X17276843Y19203235D01*
X17417191Y18993191D01*
X17627235Y18852843D01*
X17875000Y18803560D01*
X17973742Y18803560D01*
X17975271Y18801271D01*
X18846874Y18218885D01*
X18973937Y18193611D01*
X21180282Y15987265D01*
X21180285Y15987263D01*
X23212282Y13955265D01*
X23824336Y13546303D01*
X23843843Y13448235D01*
X23888768Y13381000D01*
X19777086Y13381000D01*
X19685000Y13399317D01*
X19592914Y13381000D01*
X19320181Y13326750D01*
X19095763Y13176799D01*
X19037235Y13165157D01*
X18827191Y13024809D01*
X18686843Y12814765D01*
X18637560Y12567000D01*
X18637560Y11817000D01*
X18686843Y11569235D01*
X18695018Y11557000D01*
X16562606Y11557000D01*
X15329803Y12789803D01*
X15288601Y12817333D01*
X15240000Y12827000D01*
X710000Y12827000D01*
X710000Y25960000D01*
X48820001Y25960000D01*
X48820000Y12827000D01*
G36*
X48820000Y710000D02*
X710000Y710000D01*
X710000Y3683000D01*
X48820000Y3683000D01*
X48820000Y710000D01*
X48820000Y710000D01*
G37*
X48820000Y710000D02*
X710000Y710000D01*
X710000Y3683000D01*
X48820000Y3683000D01*
X48820000Y710000D01*
G36*
X24084000Y11562237D02*
X24006106Y11445659D01*
X23976536Y11297000D01*
X23976536Y10547000D01*
X24006106Y10398341D01*
X24084001Y10281763D01*
X24084001Y10033000D01*
X23876000Y10033000D01*
X23827399Y10023333D01*
X23786197Y9995803D01*
X23770330Y9976447D01*
X23059304Y8909908D01*
X23038489Y8896000D01*
X22925165Y8896000D01*
X22895001Y8890000D01*
X21554999Y8890000D01*
X21524835Y8896000D01*
X21377835Y8896000D01*
X21328000Y8905913D01*
X21280172Y8896399D01*
X20685018Y9967677D01*
X20652965Y10005467D01*
X20608890Y10028114D01*
X20574000Y10033000D01*
X20523464Y10033000D01*
X20523464Y10132000D01*
X20493894Y10280659D01*
X20409686Y10406686D01*
X20283659Y10490894D01*
X20266000Y10494407D01*
X20266000Y11454762D01*
X20296121Y11499842D01*
X20359686Y11542314D01*
X20443894Y11668341D01*
X20463121Y11765000D01*
X24084001Y11765000D01*
X24084000Y11562237D01*
X24084000Y11562237D01*
G37*
X24084000Y11562237D02*
X24006106Y11445659D01*
X23976536Y11297000D01*
X23976536Y10547000D01*
X24006106Y10398341D01*
X24084001Y10281763D01*
X24084001Y10033000D01*
X23876000Y10033000D01*
X23827399Y10023333D01*
X23786197Y9995803D01*
X23770330Y9976447D01*
X23059304Y8909908D01*
X23038489Y8896000D01*
X22925165Y8896000D01*
X22895001Y8890000D01*
X21554999Y8890000D01*
X21524835Y8896000D01*
X21377835Y8896000D01*
X21328000Y8905913D01*
X21280172Y8896399D01*
X20685018Y9967677D01*
X20652965Y10005467D01*
X20608890Y10028114D01*
X20574000Y10033000D01*
X20523464Y10033000D01*
X20523464Y10132000D01*
X20493894Y10280659D01*
X20409686Y10406686D01*
X20283659Y10490894D01*
X20266000Y10494407D01*
X20266000Y11454762D01*
X20296121Y11499842D01*
X20359686Y11542314D01*
X20443894Y11668341D01*
X20463121Y11765000D01*
X24084001Y11765000D01*
X24084000Y11562237D01*
G04 #@! TD*
M02*
