M48
;DRILL file {KiCad 5.0.2-bee76a0~70~ubuntu18.04.1} date fre 24 jul 2020 12:09:25
;FORMAT={-:-/ absolute / metric / decimal}
FMAT,2
METRIC,TZ
T1C1.143
T2C1.200
T3C1.400
%
G90
G05
T1
X61.959Y15.
X61.959Y12.46
X61.959Y9.92
X84.96Y46.5
X87.5Y46.5
X90.04Y46.5
X76.959Y39.403
X76.959Y36.863
X76.959Y34.323
T2
X60.5Y23.04
X60.5Y20.5
X69.Y2.
X71.54Y2.
X61.Y4.
X61.Y1.46
X88.96Y50.5
X91.5Y50.5
T3
X45.Y60.5
X45.Y55.42
X17.Y33.08
X17.Y28.
X45.Y45.
X45.Y39.92
X10.Y33.
X10.Y27.92
X23.Y9.
X28.08Y9.
T0
M30
