G04 #@! TF.GenerationSoftware,KiCad,Pcbnew,5.0.2-bee76a0~70~ubuntu18.04.1*
G04 #@! TF.CreationDate,2020-07-24T12:10:01+02:00*
G04 #@! TF.ProjectId,stator_psu,73746174-6f72-45f7-9073-752e6b696361,rev?*
G04 #@! TF.SameCoordinates,PX1c9c380PY9896800*
G04 #@! TF.FileFunction,Copper,L1,Top*
G04 #@! TF.FilePolarity,Positive*
%FSLAX46Y46*%
G04 Gerber Fmt 4.6, Leading zero omitted, Abs format (unit mm)*
G04 Created by KiCad (PCBNEW 5.0.2-bee76a0~70~ubuntu18.04.1) date fre 24 jul 2020 12:10:01*
%MOMM*%
%LPD*%
G01*
G04 APERTURE LIST*
G04 #@! TA.AperFunction,NonConductor*
%ADD10C,0.300000*%
G04 #@! TD*
G04 #@! TA.AperFunction,SMDPad,CuDef*
%ADD11R,2.510000X3.780000*%
G04 #@! TD*
G04 #@! TA.AperFunction,SMDPad,CuDef*
%ADD12R,3.780000X2.510000*%
G04 #@! TD*
G04 #@! TA.AperFunction,BGAPad,CuDef*
%ADD13C,2.510000*%
G04 #@! TD*
G04 #@! TA.AperFunction,SMDPad,CuDef*
%ADD14R,4.000000X2.500000*%
G04 #@! TD*
G04 #@! TA.AperFunction,SMDPad,CuDef*
%ADD15R,1.000000X1.600000*%
G04 #@! TD*
G04 #@! TA.AperFunction,SMDPad,CuDef*
%ADD16R,2.500000X4.000000*%
G04 #@! TD*
G04 #@! TA.AperFunction,ComponentPad*
%ADD17O,2.032000X2.540000*%
G04 #@! TD*
G04 #@! TA.AperFunction,ComponentPad*
%ADD18O,2.540000X2.032000*%
G04 #@! TD*
G04 #@! TA.AperFunction,SMDPad,CuDef*
%ADD19R,4.500880X2.900680*%
G04 #@! TD*
G04 #@! TA.AperFunction,SMDPad,CuDef*
%ADD20R,0.900000X1.700000*%
G04 #@! TD*
G04 #@! TA.AperFunction,SMDPad,CuDef*
%ADD21R,1.700000X0.900000*%
G04 #@! TD*
G04 #@! TA.AperFunction,SMDPad,CuDef*
%ADD22R,1.270000X1.524000*%
G04 #@! TD*
G04 #@! TA.AperFunction,SMDPad,CuDef*
%ADD23R,4.070000X1.770000*%
G04 #@! TD*
G04 #@! TA.AperFunction,SMDPad,CuDef*
%ADD24R,1.770000X4.070000*%
G04 #@! TD*
G04 #@! TA.AperFunction,SMDPad,CuDef*
%ADD25R,1.010000X1.010000*%
G04 #@! TD*
G04 #@! TA.AperFunction,SMDPad,CuDef*
%ADD26R,2.790000X3.430000*%
G04 #@! TD*
G04 #@! TA.AperFunction,SMDPad,CuDef*
%ADD27R,3.430000X2.790000*%
G04 #@! TD*
G04 #@! TA.AperFunction,BGAPad,CuDef*
%ADD28C,3.500000*%
G04 #@! TD*
G04 #@! TA.AperFunction,SMDPad,CuDef*
%ADD29R,5.250000X4.550000*%
G04 #@! TD*
G04 #@! TA.AperFunction,SMDPad,CuDef*
%ADD30R,10.800000X9.400000*%
G04 #@! TD*
G04 #@! TA.AperFunction,SMDPad,CuDef*
%ADD31R,1.100000X4.600000*%
G04 #@! TD*
G04 #@! TA.AperFunction,ComponentPad*
%ADD32O,3.600000X2.080000*%
G04 #@! TD*
G04 #@! TA.AperFunction,ComponentPad*
%ADD33R,3.600000X2.080000*%
G04 #@! TD*
G04 #@! TA.AperFunction,ComponentPad*
%ADD34R,2.080000X3.600000*%
G04 #@! TD*
G04 #@! TA.AperFunction,ComponentPad*
%ADD35O,2.080000X3.600000*%
G04 #@! TD*
G04 #@! TA.AperFunction,ComponentPad*
%ADD36O,2.000000X2.600000*%
G04 #@! TD*
G04 #@! TA.AperFunction,ComponentPad*
%ADD37R,2.000000X2.600000*%
G04 #@! TD*
G04 #@! TA.AperFunction,ComponentPad*
%ADD38O,2.600000X2.000000*%
G04 #@! TD*
G04 #@! TA.AperFunction,ComponentPad*
%ADD39R,2.600000X2.000000*%
G04 #@! TD*
G04 #@! TA.AperFunction,Conductor*
%ADD40C,3.000000*%
G04 #@! TD*
G04 #@! TA.AperFunction,Conductor*
%ADD41C,2.000000*%
G04 #@! TD*
G04 #@! TA.AperFunction,Conductor*
%ADD42C,1.000000*%
G04 #@! TD*
G04 #@! TA.AperFunction,Conductor*
%ADD43C,1.500000*%
G04 #@! TD*
G04 #@! TA.AperFunction,Conductor*
%ADD44C,0.500000*%
G04 #@! TD*
G04 #@! TA.AperFunction,Conductor*
%ADD45C,0.254000*%
G04 #@! TD*
G04 APERTURE END LIST*
D10*
X31750000Y392858D02*
X31750000Y1107143D01*
X32178571Y250000D02*
X30678571Y750000D01*
X32178571Y1250000D01*
X31392857Y2250000D02*
X31392857Y1750000D01*
X32178571Y1750000D02*
X30678571Y1750000D01*
X30678571Y2464286D01*
X30678571Y2821429D02*
X30678571Y3678572D01*
X32178571Y3250000D02*
X30678571Y3250000D01*
X31392857Y4178572D02*
X31392857Y4678572D01*
X32178571Y4892858D02*
X32178571Y4178572D01*
X30678571Y4178572D01*
X30678571Y4892858D01*
X32178571Y6392858D02*
X31464285Y5892858D01*
X32178571Y5535715D02*
X30678571Y5535715D01*
X30678571Y6107143D01*
X30750000Y6250000D01*
X30821428Y6321429D01*
X30964285Y6392858D01*
X31178571Y6392858D01*
X31321428Y6321429D01*
X31392857Y6250000D01*
X31464285Y6107143D01*
X31464285Y5535715D01*
X30678571Y7964286D02*
X30678571Y8821429D01*
X32178571Y8392858D02*
X30678571Y8392858D01*
X31392857Y9321429D02*
X31392857Y9821429D01*
X32178571Y10035715D02*
X32178571Y9321429D01*
X30678571Y9321429D01*
X30678571Y10035715D01*
X32107142Y10607143D02*
X32178571Y10821429D01*
X32178571Y11178572D01*
X32107142Y11321429D01*
X32035714Y11392858D01*
X31892857Y11464286D01*
X31750000Y11464286D01*
X31607142Y11392858D01*
X31535714Y11321429D01*
X31464285Y11178572D01*
X31392857Y10892858D01*
X31321428Y10750000D01*
X31250000Y10678572D01*
X31107142Y10607143D01*
X30964285Y10607143D01*
X30821428Y10678572D01*
X30750000Y10750000D01*
X30678571Y10892858D01*
X30678571Y11250000D01*
X30750000Y11464286D01*
X30678571Y11892858D02*
X30678571Y12750000D01*
X32178571Y12321429D02*
X30678571Y12321429D01*
X32035714Y50785715D02*
X32107142Y50714286D01*
X32178571Y50500000D01*
X32178571Y50357143D01*
X32107142Y50142858D01*
X31964285Y50000000D01*
X31821428Y49928572D01*
X31535714Y49857143D01*
X31321428Y49857143D01*
X31035714Y49928572D01*
X30892857Y50000000D01*
X30750000Y50142858D01*
X30678571Y50357143D01*
X30678571Y50500000D01*
X30750000Y50714286D01*
X30821428Y50785715D01*
X30678571Y51428572D02*
X31892857Y51428572D01*
X32035714Y51500000D01*
X32107142Y51571429D01*
X32178571Y51714286D01*
X32178571Y52000000D01*
X32107142Y52142858D01*
X32035714Y52214286D01*
X31892857Y52285715D01*
X30678571Y52285715D01*
X30678571Y52785715D02*
X30678571Y53642858D01*
X32178571Y53214286D02*
X30678571Y53214286D01*
X32178571Y55285715D02*
X30678571Y55285715D01*
X31392857Y55285715D02*
X31392857Y56142858D01*
X32178571Y56142858D02*
X30678571Y56142858D01*
X31392857Y56857143D02*
X31392857Y57357143D01*
X32178571Y57571429D02*
X32178571Y56857143D01*
X30678571Y56857143D01*
X30678571Y57571429D01*
X32178571Y59071429D02*
X31464285Y58571429D01*
X32178571Y58214286D02*
X30678571Y58214286D01*
X30678571Y58785715D01*
X30750000Y58928572D01*
X30821428Y59000000D01*
X30964285Y59071429D01*
X31178571Y59071429D01*
X31321428Y59000000D01*
X31392857Y58928572D01*
X31464285Y58785715D01*
X31464285Y58214286D01*
X31392857Y59714286D02*
X31392857Y60214286D01*
X32178571Y60428572D02*
X32178571Y59714286D01*
X30678571Y59714286D01*
X30678571Y60428572D01*
X31750000Y62142858D02*
X31750000Y62857143D01*
X32178571Y62000000D02*
X30678571Y62500000D01*
X32178571Y63000000D01*
X31392857Y64000000D02*
X31392857Y63500000D01*
X32178571Y63500000D02*
X30678571Y63500000D01*
X30678571Y64214286D01*
X32035714Y19678572D02*
X32107142Y19607143D01*
X32178571Y19392858D01*
X32178571Y19250000D01*
X32107142Y19035715D01*
X31964285Y18892858D01*
X31821428Y18821429D01*
X31535714Y18750000D01*
X31321428Y18750000D01*
X31035714Y18821429D01*
X30892857Y18892858D01*
X30750000Y19035715D01*
X30678571Y19250000D01*
X30678571Y19392858D01*
X30750000Y19607143D01*
X30821428Y19678572D01*
X30678571Y20321429D02*
X31892857Y20321429D01*
X32035714Y20392858D01*
X32107142Y20464286D01*
X32178571Y20607143D01*
X32178571Y20892858D01*
X32107142Y21035715D01*
X32035714Y21107143D01*
X31892857Y21178572D01*
X30678571Y21178572D01*
X30678571Y21678572D02*
X30678571Y22535715D01*
X32178571Y22107143D02*
X30678571Y22107143D01*
X32178571Y24178572D02*
X30678571Y24178572D01*
X31392857Y24178572D02*
X31392857Y25035715D01*
X32178571Y25035715D02*
X30678571Y25035715D01*
X31392857Y25750000D02*
X31392857Y26250000D01*
X32178571Y26464286D02*
X32178571Y25750000D01*
X30678571Y25750000D01*
X30678571Y26464286D01*
X32178571Y27964286D02*
X31464285Y27464286D01*
X32178571Y27107143D02*
X30678571Y27107143D01*
X30678571Y27678572D01*
X30750000Y27821429D01*
X30821428Y27892858D01*
X30964285Y27964286D01*
X31178571Y27964286D01*
X31321428Y27892858D01*
X31392857Y27821429D01*
X31464285Y27678572D01*
X31464285Y27107143D01*
X31392857Y28607143D02*
X31392857Y29107143D01*
X32178571Y29321429D02*
X32178571Y28607143D01*
X30678571Y28607143D01*
X30678571Y29321429D01*
X31750000Y31035715D02*
X31750000Y31750000D01*
X32178571Y30892858D02*
X30678571Y31392858D01*
X32178571Y31892858D01*
X31392857Y32892858D02*
X31392857Y32392858D01*
X32178571Y32392858D02*
X30678571Y32392858D01*
X30678571Y33107143D01*
X30678571Y33464286D02*
X30678571Y34321429D01*
X32178571Y33892858D02*
X30678571Y33892858D01*
X31392857Y34821429D02*
X31392857Y35321429D01*
X32178571Y35535715D02*
X32178571Y34821429D01*
X30678571Y34821429D01*
X30678571Y35535715D01*
X32178571Y37035715D02*
X31464285Y36535715D01*
X32178571Y36178572D02*
X30678571Y36178572D01*
X30678571Y36750000D01*
X30750000Y36892858D01*
X30821428Y36964286D01*
X30964285Y37035715D01*
X31178571Y37035715D01*
X31321428Y36964286D01*
X31392857Y36892858D01*
X31464285Y36750000D01*
X31464285Y36178572D01*
X30678571Y38607143D02*
X30678571Y39464286D01*
X32178571Y39035715D02*
X30678571Y39035715D01*
X31392857Y39964286D02*
X31392857Y40464286D01*
X32178571Y40678572D02*
X32178571Y39964286D01*
X30678571Y39964286D01*
X30678571Y40678572D01*
X32107142Y41250000D02*
X32178571Y41464286D01*
X32178571Y41821429D01*
X32107142Y41964286D01*
X32035714Y42035715D01*
X31892857Y42107143D01*
X31750000Y42107143D01*
X31607142Y42035715D01*
X31535714Y41964286D01*
X31464285Y41821429D01*
X31392857Y41535715D01*
X31321428Y41392858D01*
X31250000Y41321429D01*
X31107142Y41250000D01*
X30964285Y41250000D01*
X30821428Y41321429D01*
X30750000Y41392858D01*
X30678571Y41535715D01*
X30678571Y41892858D01*
X30750000Y42107143D01*
X30678571Y42535715D02*
X30678571Y43392858D01*
X32178571Y42964286D02*
X30678571Y42964286D01*
D11*
G04 #@! TO.P,U2,3*
G04 #@! TO.N,/8V_TO_16V_IN*
X2108000Y52769000D03*
G04 #@! TO.P,U2,4*
G04 #@! TO.N,GND*
X2108000Y57849000D03*
D12*
G04 #@! TO.P,U2,5*
G04 #@! TO.N,Net-(R1-Pad2)*
X21539000Y59500000D03*
G04 #@! TO.P,U2,2*
G04 #@! TO.N,/34V*
X10744000Y51118000D03*
D13*
G04 #@! TO.P,U2,8*
G04 #@! TO.N,Net-(U2-Pad8)*
X27000000Y51118000D03*
G04 #@! TO.P,U2,7*
G04 #@! TO.N,Net-(U2-Pad7)*
X27000000Y55309000D03*
G04 #@! TO.P,U2,6*
G04 #@! TO.N,Net-(C3-Pad1)*
X27000000Y59500000D03*
D12*
G04 #@! TO.P,U2,1*
G04 #@! TO.N,GND*
X18364000Y51118000D03*
G04 #@! TD*
D14*
G04 #@! TO.P,C1,1*
G04 #@! TO.N,/8V_TO_16V_IN*
X3000000Y43500000D03*
G04 #@! TO.P,C1,2*
G04 #@! TO.N,GND*
X11000000Y43500000D03*
G04 #@! TD*
G04 #@! TO.P,C2,2*
G04 #@! TO.N,GND*
X10500000Y18500000D03*
G04 #@! TO.P,C2,1*
G04 #@! TO.N,/8V_TO_16V_IN*
X2500000Y18500000D03*
G04 #@! TD*
D15*
G04 #@! TO.P,C3,2*
G04 #@! TO.N,Net-(C3-Pad2)*
X16500000Y62500000D03*
G04 #@! TO.P,C3,1*
G04 #@! TO.N,Net-(C3-Pad1)*
X19500000Y62500000D03*
G04 #@! TD*
G04 #@! TO.P,C4,1*
G04 #@! TO.N,Net-(C4-Pad1)*
X14500000Y5000000D03*
G04 #@! TO.P,C4,2*
G04 #@! TO.N,Net-(C4-Pad2)*
X17500000Y5000000D03*
G04 #@! TD*
D14*
G04 #@! TO.P,C5,1*
G04 #@! TO.N,/34V*
X25000000Y43500000D03*
G04 #@! TO.P,C5,2*
G04 #@! TO.N,GND*
X17000000Y43500000D03*
G04 #@! TD*
G04 #@! TO.P,C6,1*
G04 #@! TO.N,Net-(C6-Pad1)*
X24000000Y18500000D03*
G04 #@! TO.P,C6,2*
G04 #@! TO.N,GND*
X16000000Y18500000D03*
G04 #@! TD*
D16*
G04 #@! TO.P,C7,2*
G04 #@! TO.N,GND*
X54000000Y38500000D03*
G04 #@! TO.P,C7,1*
G04 #@! TO.N,/34V*
X54000000Y46500000D03*
G04 #@! TD*
D14*
G04 #@! TO.P,C8,2*
G04 #@! TO.N,/-20V*
X88959146Y9862872D03*
G04 #@! TO.P,C8,1*
G04 #@! TO.N,Net-(C8-Pad1)*
X80959146Y9862872D03*
G04 #@! TD*
D15*
G04 #@! TO.P,C9,1*
G04 #@! TO.N,/-20V*
X90459146Y16862872D03*
G04 #@! TO.P,C9,2*
G04 #@! TO.N,Net-(C8-Pad1)*
X87459146Y16862872D03*
G04 #@! TD*
D16*
G04 #@! TO.P,C10,1*
G04 #@! TO.N,/21V*
X66500000Y37000000D03*
G04 #@! TO.P,C10,2*
G04 #@! TO.N,GND*
X66500000Y45000000D03*
G04 #@! TD*
D14*
G04 #@! TO.P,C11,2*
G04 #@! TO.N,/-20V*
X75959146Y9862872D03*
G04 #@! TO.P,C11,1*
G04 #@! TO.N,GND*
X67959146Y9862872D03*
G04 #@! TD*
D15*
G04 #@! TO.P,C12,2*
G04 #@! TO.N,GND*
X93500000Y12000000D03*
G04 #@! TO.P,C12,1*
G04 #@! TO.N,/-20V*
X90500000Y12000000D03*
G04 #@! TD*
D17*
G04 #@! TO.P,D1,1*
G04 #@! TO.N,/11VB*
X90040000Y46500000D03*
G04 #@! TO.P,D1,3*
X84960000Y46500000D03*
G04 #@! TO.P,D1,2*
G04 #@! TO.N,Net-(C8-Pad1)*
X87500000Y46500000D03*
G04 #@! TD*
D18*
G04 #@! TO.P,D2,2*
G04 #@! TO.N,Net-(D2-Pad2)*
X76959146Y36862872D03*
G04 #@! TO.P,D2,3*
G04 #@! TO.N,/-20V*
X76959146Y39402872D03*
G04 #@! TO.P,D2,1*
X76959146Y34322872D03*
G04 #@! TD*
G04 #@! TO.P,D3,1*
G04 #@! TO.N,/-20V*
X61959146Y15000000D03*
G04 #@! TO.P,D3,3*
X61959146Y9920000D03*
G04 #@! TO.P,D3,2*
G04 #@! TO.N,GND*
X61959146Y12460000D03*
G04 #@! TD*
D19*
G04 #@! TO.P,L1,1*
G04 #@! TO.N,Net-(D2-Pad2)*
X66959146Y28113052D03*
G04 #@! TO.P,L1,2*
G04 #@! TO.N,GND*
X66959146Y17612692D03*
G04 #@! TD*
G04 #@! TO.P,L2,2*
G04 #@! TO.N,GND*
X76959146Y17612692D03*
G04 #@! TO.P,L2,1*
G04 #@! TO.N,Net-(D2-Pad2)*
X76959146Y28113052D03*
G04 #@! TD*
D20*
G04 #@! TO.P,R1,1*
G04 #@! TO.N,Net-(C3-Pad1)*
X25450000Y62500000D03*
G04 #@! TO.P,R1,2*
G04 #@! TO.N,Net-(R1-Pad2)*
X22550000Y62500000D03*
G04 #@! TD*
G04 #@! TO.P,R2,2*
G04 #@! TO.N,GND*
X14550000Y2000000D03*
G04 #@! TO.P,R2,1*
G04 #@! TO.N,Net-(C4-Pad1)*
X17450000Y2000000D03*
G04 #@! TD*
G04 #@! TO.P,R3,1*
G04 #@! TO.N,Net-(C3-Pad2)*
X13450000Y62500000D03*
G04 #@! TO.P,R3,2*
G04 #@! TO.N,/34V*
X10550000Y62500000D03*
G04 #@! TD*
G04 #@! TO.P,R4,1*
G04 #@! TO.N,Net-(C4-Pad2)*
X17450000Y8000000D03*
G04 #@! TO.P,R4,2*
G04 #@! TO.N,Net-(R4-Pad2)*
X14550000Y8000000D03*
G04 #@! TD*
D21*
G04 #@! TO.P,R5,2*
G04 #@! TO.N,GND*
X36500000Y4000000D03*
G04 #@! TO.P,R5,1*
G04 #@! TO.N,Net-(R5-Pad1)*
X36500000Y1100000D03*
G04 #@! TD*
D20*
G04 #@! TO.P,R6,2*
G04 #@! TO.N,GND*
X76000000Y50500000D03*
G04 #@! TO.P,R6,1*
G04 #@! TO.N,Net-(R6-Pad1)*
X78900000Y50500000D03*
G04 #@! TD*
G04 #@! TO.P,R7,2*
G04 #@! TO.N,GND*
X57050000Y50500000D03*
G04 #@! TO.P,R7,1*
G04 #@! TO.N,Net-(R7-Pad1)*
X59950000Y50500000D03*
G04 #@! TD*
G04 #@! TO.P,R8,1*
G04 #@! TO.N,GND*
X52950000Y33500000D03*
G04 #@! TO.P,R8,2*
G04 #@! TO.N,Net-(R8-Pad2)*
X50050000Y33500000D03*
G04 #@! TD*
D22*
G04 #@! TO.P,RV1,3*
G04 #@! TO.N,GND*
X90270000Y19460000D03*
G04 #@! TO.P,RV1,2*
G04 #@! TO.N,Net-(RV1-Pad2)*
X89000000Y24540000D03*
G04 #@! TO.P,RV1,1*
G04 #@! TO.N,/-20V*
X87730000Y19460000D03*
G04 #@! TD*
D23*
G04 #@! TO.P,U1,2*
G04 #@! TO.N,/8V_TO_16V_IN*
X3167000Y11168000D03*
D24*
G04 #@! TO.P,U1,4*
G04 #@! TO.N,Net-(C6-Pad1)*
X11168000Y10025000D03*
D25*
G04 #@! TO.P,U1,5*
G04 #@! TO.N,Net-(R4-Pad2)*
X11168000Y6596000D03*
D23*
G04 #@! TO.P,U1,3*
G04 #@! TO.N,GND*
X7739000Y11168000D03*
D25*
G04 #@! TO.P,U1,6*
G04 #@! TO.N,Net-(C4-Pad1)*
X11168000Y2024000D03*
G04 #@! TO.P,U1,7*
G04 #@! TO.N,GND*
X6596000Y2024000D03*
G04 #@! TO.P,U1,8*
G04 #@! TO.N,Net-(U1-Pad8)*
X4310000Y2024000D03*
G04 #@! TO.P,U1,9*
G04 #@! TO.N,Net-(U1-Pad9)*
X2024000Y2024000D03*
G04 #@! TO.P,U1,10*
G04 #@! TO.N,Net-(U1-Pad10)*
X2024000Y4310000D03*
G04 #@! TO.P,U1,1*
G04 #@! TO.N,Net-(U1-Pad1)*
X2024000Y6469000D03*
G04 #@! TD*
D26*
G04 #@! TO.P,U3,1*
G04 #@! TO.N,Net-(U3-Pad1)*
X57500000Y11000000D03*
D27*
G04 #@! TO.P,U3,2*
G04 #@! TO.N,/34V*
X39974000Y11000000D03*
G04 #@! TO.P,U3,5*
G04 #@! TO.N,/11VA*
X52928000Y2364000D03*
G04 #@! TO.P,U3,4*
G04 #@! TO.N,Net-(R5-Pad1)*
X48864000Y2364000D03*
G04 #@! TO.P,U3,3*
G04 #@! TO.N,GND*
X44800000Y2364000D03*
G04 #@! TD*
G04 #@! TO.P,U4,3*
G04 #@! TO.N,GND*
X80800000Y54364000D03*
G04 #@! TO.P,U4,4*
G04 #@! TO.N,Net-(R6-Pad1)*
X84864000Y54364000D03*
G04 #@! TO.P,U4,5*
G04 #@! TO.N,/11VB*
X88928000Y54364000D03*
G04 #@! TO.P,U4,2*
G04 #@! TO.N,/34V*
X75974000Y63000000D03*
D26*
G04 #@! TO.P,U4,1*
G04 #@! TO.N,Net-(U4-Pad1)*
X93500000Y63000000D03*
G04 #@! TD*
G04 #@! TO.P,U5,1*
G04 #@! TO.N,Net-(U5-Pad1)*
X69500000Y62500000D03*
D27*
G04 #@! TO.P,U5,2*
G04 #@! TO.N,/34V*
X51974000Y62500000D03*
G04 #@! TO.P,U5,5*
G04 #@! TO.N,/5V2_USB*
X64928000Y53864000D03*
G04 #@! TO.P,U5,4*
G04 #@! TO.N,Net-(R7-Pad1)*
X60864000Y53864000D03*
G04 #@! TO.P,U5,3*
G04 #@! TO.N,GND*
X56800000Y53864000D03*
G04 #@! TD*
D28*
G04 #@! TO.P,U6,1*
G04 #@! TO.N,/34V*
X40000000Y16000000D03*
G04 #@! TO.P,U6,2*
G04 #@! TO.N,Net-(U6-Pad2)*
X47620000Y16000000D03*
G04 #@! TO.P,U6,3*
G04 #@! TO.N,GND*
X55240000Y16000000D03*
G04 #@! TO.P,U6,8*
G04 #@! TO.N,/21V*
X40000000Y29716000D03*
G04 #@! TO.P,U6,7*
X43810000Y29716000D03*
G04 #@! TO.P,U6,6*
G04 #@! TO.N,Net-(R8-Pad2)*
X47620000Y29716000D03*
G04 #@! TO.P,U6,5*
G04 #@! TO.N,Net-(U6-Pad5)*
X51430000Y29716000D03*
G04 #@! TO.P,U6,4*
G04 #@! TO.N,GND*
X55240000Y29716000D03*
G04 #@! TD*
D29*
G04 #@! TO.P,U7,3*
G04 #@! TO.N,/-20V*
X88734146Y35812872D03*
X83184146Y40662872D03*
X83184146Y35812872D03*
X88734146Y40662872D03*
D30*
X85959146Y38237872D03*
D31*
G04 #@! TO.P,U7,5*
G04 #@! TO.N,Net-(U7-Pad5)*
X89359146Y29087872D03*
G04 #@! TO.P,U7,4*
G04 #@! TO.N,Net-(RV1-Pad2)*
X87659146Y29087872D03*
G04 #@! TO.P,U7,3*
G04 #@! TO.N,/-20V*
X85959146Y29087872D03*
G04 #@! TO.P,U7,2*
G04 #@! TO.N,Net-(C8-Pad1)*
X84259146Y29087872D03*
G04 #@! TO.P,U7,1*
G04 #@! TO.N,Net-(D2-Pad2)*
X82559146Y29087872D03*
G04 #@! TD*
D32*
G04 #@! TO.P,J1,2*
G04 #@! TO.N,GND*
X10000000Y27920000D03*
D33*
G04 #@! TO.P,J1,1*
G04 #@! TO.N,/8V_TO_16V_IN*
X10000000Y33000000D03*
G04 #@! TD*
D34*
G04 #@! TO.P,J2,1*
G04 #@! TO.N,GND*
X23000000Y9000000D03*
D35*
G04 #@! TO.P,J2,2*
G04 #@! TO.N,Net-(C6-Pad1)*
X28080000Y9000000D03*
G04 #@! TD*
D32*
G04 #@! TO.P,J3,2*
G04 #@! TO.N,/34V*
X17000000Y33080000D03*
D33*
G04 #@! TO.P,J3,1*
G04 #@! TO.N,GND*
X17000000Y28000000D03*
G04 #@! TD*
G04 #@! TO.P,J6,1*
G04 #@! TO.N,GND*
X45000000Y45000000D03*
D32*
G04 #@! TO.P,J6,2*
G04 #@! TO.N,/5V2_USB*
X45000000Y39920000D03*
G04 #@! TD*
G04 #@! TO.P,J9,2*
G04 #@! TO.N,/34V*
X45000000Y55420000D03*
D33*
G04 #@! TO.P,J9,1*
G04 #@! TO.N,GND*
X45000000Y60500000D03*
G04 #@! TD*
D36*
G04 #@! TO.P,J4,2*
G04 #@! TO.N,/11VB*
X88960000Y50500000D03*
D37*
G04 #@! TO.P,J4,1*
G04 #@! TO.N,GND*
X91500000Y50500000D03*
G04 #@! TD*
D38*
G04 #@! TO.P,J5,2*
G04 #@! TO.N,/11VA*
X61000000Y1460000D03*
D39*
G04 #@! TO.P,J5,1*
G04 #@! TO.N,GND*
X61000000Y4000000D03*
G04 #@! TD*
D38*
G04 #@! TO.P,J7,2*
G04 #@! TO.N,/21V*
X60500000Y23040000D03*
D39*
G04 #@! TO.P,J7,1*
G04 #@! TO.N,GND*
X60500000Y20500000D03*
G04 #@! TD*
D37*
G04 #@! TO.P,J8,1*
G04 #@! TO.N,/-20V*
X69000000Y2000000D03*
D36*
G04 #@! TO.P,J8,2*
G04 #@! TO.N,GND*
X71540000Y2000000D03*
G04 #@! TD*
D40*
G04 #@! TO.N,GND*
X3233002Y57849000D02*
X2108000Y57849000D01*
X5308010Y55773992D02*
X3233002Y57849000D01*
X5308010Y48441990D02*
X5308010Y55773992D01*
X10250000Y43500000D02*
X5308010Y48441990D01*
X11000000Y43500000D02*
X10250000Y43500000D01*
X17000000Y49754000D02*
X18364000Y51118000D01*
X17000000Y43500000D02*
X17000000Y49754000D01*
D41*
X17000000Y28000000D02*
X16920000Y27920000D01*
D40*
X7739000Y15739000D02*
X10500000Y18500000D01*
X7739000Y11168000D02*
X7739000Y15739000D01*
X13500000Y27920000D02*
X13500000Y19000000D01*
X14000000Y18500000D02*
X16000000Y18500000D01*
X13500000Y27920000D02*
X16920000Y27920000D01*
X13500000Y19000000D02*
X14000000Y18500000D01*
X10000000Y27920000D02*
X13500000Y27920000D01*
D42*
X9306001Y818999D02*
X8101000Y2024000D01*
X8101000Y2024000D02*
X6596000Y2024000D01*
X13368999Y818999D02*
X9306001Y818999D01*
X14550000Y2000000D02*
X13368999Y818999D01*
X6596000Y10025000D02*
X7739000Y11168000D01*
X6596000Y2024000D02*
X6596000Y10025000D01*
D40*
X16200008Y21700008D02*
X13000000Y18500000D01*
X27700001Y21110001D02*
X27109994Y21700008D01*
X27700001Y14460001D02*
X27700001Y21110001D01*
X23000000Y9760000D02*
X27700001Y14460001D01*
X23000000Y9000000D02*
X23000000Y9760000D01*
X13000000Y18500000D02*
X14000000Y18500000D01*
X27109994Y21700008D02*
X16200008Y21700008D01*
X10500000Y18500000D02*
X13000000Y18500000D01*
X13500000Y27920000D02*
X13500000Y43500000D01*
X17000000Y43500000D02*
X13500000Y43500000D01*
X13500000Y43500000D02*
X11000000Y43500000D01*
D41*
X76959146Y17612692D02*
X66959146Y17612692D01*
X66959146Y10862872D02*
X67959146Y9862872D01*
X67419146Y10402872D02*
X67959146Y9862872D01*
X67040000Y8943726D02*
X67959146Y9862872D01*
X82188999Y56959001D02*
X80800000Y55570002D01*
X92000000Y56562002D02*
X91603001Y56959001D01*
X91603001Y56959001D02*
X82188999Y56959001D01*
X92000000Y51000000D02*
X92000000Y56562002D01*
X80800000Y55570002D02*
X80800000Y54364000D01*
X91500000Y50500000D02*
X92000000Y51000000D01*
D43*
X79864000Y54364000D02*
X80800000Y54364000D01*
X76000000Y50500000D02*
X79864000Y54364000D01*
D41*
X93699990Y9193714D02*
X86006276Y1500000D01*
X91500000Y50500000D02*
X93699990Y48300010D01*
D43*
X92405000Y19460000D02*
X92945000Y20000000D01*
X90270000Y19460000D02*
X92405000Y19460000D01*
D41*
X93699990Y48300010D02*
X93699990Y20000000D01*
D43*
X92945000Y20000000D02*
X93699990Y20000000D01*
D41*
X93699990Y20000000D02*
X93699990Y9193714D01*
X44240000Y45000000D02*
X45000000Y45000000D01*
X41200000Y41960000D02*
X44240000Y45000000D01*
X41200000Y39792148D02*
X41200000Y41960000D01*
X43312158Y37679990D02*
X41200000Y39792148D01*
X49929990Y37679990D02*
X43312158Y37679990D01*
X50750000Y38500000D02*
X49929990Y37679990D01*
X54000000Y38500000D02*
X50750000Y38500000D01*
X45000000Y48040000D02*
X45000000Y45000000D01*
X41999990Y58259990D02*
X41999990Y51040010D01*
X44240000Y60500000D02*
X41999990Y58259990D01*
X41999990Y51040010D02*
X45000000Y48040000D01*
X45000000Y60500000D02*
X44240000Y60500000D01*
X60000000Y38500000D02*
X66500000Y45000000D01*
X54000000Y38500000D02*
X60000000Y38500000D01*
X75864000Y54364000D02*
X80800000Y54364000D01*
X66500000Y45000000D02*
X75864000Y54364000D01*
X56800000Y55070002D02*
X56800000Y53864000D01*
X58188999Y56459001D02*
X56800000Y55070002D01*
X74989999Y56459001D02*
X58188999Y56459001D01*
X77085000Y54364000D02*
X74989999Y56459001D01*
X80800000Y54364000D02*
X77085000Y54364000D01*
X56000000Y16000000D02*
X60500000Y20500000D01*
X55240000Y16000000D02*
X56000000Y16000000D01*
X57200000Y20500000D02*
X55200000Y22500000D01*
X60500000Y20500000D02*
X57200000Y20500000D01*
X39000000Y22500000D02*
X36500000Y25000000D01*
X36500000Y37260000D02*
X41200000Y41960000D01*
D40*
X55240000Y37260000D02*
X54000000Y38500000D01*
D42*
X52950000Y33500000D02*
X55240000Y33500000D01*
D40*
X55240000Y29716000D02*
X55240000Y33500000D01*
X55240000Y33500000D02*
X55240000Y37260000D01*
D42*
X57050000Y53614000D02*
X56800000Y53864000D01*
X57050000Y50500000D02*
X57050000Y53614000D01*
D41*
X36500000Y25000000D02*
X36500000Y28000000D01*
X36500000Y28000000D02*
X36500000Y37260000D01*
X66919146Y12460000D02*
X66959146Y12500000D01*
X61959146Y12460000D02*
X66919146Y12460000D01*
X66959146Y17612692D02*
X66959146Y12500000D01*
X66959146Y12500000D02*
X66959146Y10862872D01*
X85506276Y2000000D02*
X71540000Y2000000D01*
X86006276Y1500000D02*
X85506276Y2000000D01*
X71540000Y6282018D02*
X67959146Y9862872D01*
X71540000Y2000000D02*
X71540000Y6282018D01*
X53490001Y14250001D02*
X55240000Y16000000D01*
X57700000Y4000000D02*
X53490001Y8209999D01*
X61000000Y4000000D02*
X57700000Y4000000D01*
X49041000Y10000000D02*
X53490001Y10000000D01*
X44800000Y5759000D02*
X49041000Y10000000D01*
X44800000Y2364000D02*
X44800000Y5759000D01*
X53490001Y8209999D02*
X53490001Y10000000D01*
X53490001Y10000000D02*
X53490001Y14250001D01*
D43*
X38136000Y2364000D02*
X36500000Y4000000D01*
X44800000Y2364000D02*
X38136000Y2364000D01*
X44000000Y10205998D02*
X44000000Y22500000D01*
X42449001Y8654999D02*
X44000000Y10205998D01*
X37498999Y8654999D02*
X42449001Y8654999D01*
X27109994Y19044004D02*
X37498999Y8654999D01*
X27109994Y21700008D02*
X27109994Y19044004D01*
D41*
X55200000Y22500000D02*
X44000000Y22500000D01*
X44000000Y22500000D02*
X39000000Y22500000D01*
D43*
G04 #@! TO.N,Net-(C3-Pad2)*
X16500000Y62500000D02*
X13450000Y62500000D01*
G04 #@! TO.N,Net-(C3-Pad1)*
X27000000Y60950000D02*
X25450000Y62500000D01*
X27000000Y59500000D02*
X27000000Y60950000D01*
D42*
X21050001Y64050001D02*
X19500000Y62500000D01*
X24949999Y64050001D02*
X21050001Y64050001D01*
X25450000Y63550000D02*
X24949999Y64050001D01*
X25450000Y62500000D02*
X25450000Y63550000D01*
G04 #@! TO.N,Net-(C4-Pad1)*
X17450000Y2050000D02*
X14500000Y5000000D01*
X17450000Y2000000D02*
X17450000Y2050000D01*
X11524000Y2024000D02*
X14500000Y5000000D01*
X11168000Y2024000D02*
X11524000Y2024000D01*
G04 #@! TO.N,Net-(C4-Pad2)*
X17450000Y5050000D02*
X17500000Y5000000D01*
X17450000Y8000000D02*
X17450000Y5050000D01*
D40*
G04 #@! TO.N,/34V*
X10550000Y51312000D02*
X10744000Y51118000D01*
X19187002Y56500000D02*
X10550000Y56500000D01*
X21954001Y53733001D02*
X19187002Y56500000D01*
X21954001Y50795999D02*
X21954001Y53733001D01*
X25000000Y47750000D02*
X21954001Y50795999D01*
X25000000Y43500000D02*
X25000000Y47750000D01*
X10550000Y56500000D02*
X10550000Y51312000D01*
X10550000Y62500000D02*
X10550000Y56500000D01*
X17000000Y35500000D02*
X25000000Y43500000D01*
D41*
X17000000Y35500000D02*
X17000000Y33080000D01*
X45080000Y55420000D02*
X54000000Y46500000D01*
X45000000Y55420000D02*
X45080000Y55420000D01*
X51974000Y48526000D02*
X51974000Y62500000D01*
X54000000Y46500000D02*
X51974000Y48526000D01*
X75654000Y63000000D02*
X75974000Y63000000D01*
X72238999Y59584999D02*
X75654000Y63000000D01*
X58604001Y59584999D02*
X72238999Y59584999D01*
X55689000Y62500000D02*
X58604001Y59584999D01*
X51974000Y62500000D02*
X55689000Y62500000D01*
X25000000Y47750000D02*
X32250000Y47750000D01*
X32250000Y47750000D02*
X35000000Y50500000D01*
X48259000Y62500000D02*
X51974000Y62500000D01*
X35000000Y61000000D02*
X36740001Y62740001D01*
X48018999Y62740001D02*
X48259000Y62500000D01*
X36740001Y62740001D02*
X48018999Y62740001D01*
X35000000Y50500000D02*
X35000000Y61000000D01*
X40000000Y11026000D02*
X39974000Y11000000D01*
X40000000Y16000000D02*
X40000000Y11026000D01*
D43*
X34549990Y50049990D02*
X35000000Y50500000D01*
X34549990Y23924883D02*
X34549990Y50049990D01*
X40000000Y18474873D02*
X34549990Y23924883D01*
X40000000Y16000000D02*
X40000000Y18474873D01*
D40*
G04 #@! TO.N,Net-(C6-Pad1)*
X12050497Y10025000D02*
X11474001Y10025000D01*
X17575496Y15549999D02*
X12050497Y10025000D01*
X24000000Y18500000D02*
X21049999Y15549999D01*
X19650010Y15399989D02*
X19500000Y15549999D01*
X19650010Y6349990D02*
X19650010Y15399989D01*
X25400001Y5499999D02*
X20500001Y5499999D01*
X28080000Y8179998D02*
X25400001Y5499999D01*
X28080000Y9000000D02*
X28080000Y8179998D01*
X19500000Y15549999D02*
X17575496Y15549999D01*
X20500001Y5499999D02*
X19650010Y6349990D01*
X21049999Y15549999D02*
X19500000Y15549999D01*
D42*
G04 #@! TO.N,/-20V*
X85959146Y29087872D02*
X85959146Y38237872D01*
D41*
X78219146Y40662872D02*
X76959146Y39402872D01*
X83184146Y40662872D02*
X78219146Y40662872D01*
X82044146Y34322872D02*
X85959146Y38237872D01*
X76959146Y34322872D02*
X82044146Y34322872D01*
X90459146Y11362872D02*
X88959146Y9862872D01*
X90459146Y16862872D02*
X90459146Y11362872D01*
X88209146Y9862872D02*
X88959146Y9862872D01*
X78799144Y6612872D02*
X84959146Y6612872D01*
X75959146Y9452870D02*
X78799144Y6612872D01*
X84959146Y6612872D02*
X88209146Y9862872D01*
X75959146Y9862872D02*
X75959146Y9452870D01*
X75959146Y10751910D02*
X75959146Y9862872D01*
X80409587Y20023033D02*
X80409587Y15202351D01*
X80409587Y15202351D02*
X75959146Y10751910D01*
X79932620Y20500000D02*
X80409587Y20023033D01*
X63508705Y20008705D02*
X64000000Y20500000D01*
X64000000Y20500000D02*
X79932620Y20500000D01*
D42*
X86095000Y19460000D02*
X87730000Y19460000D01*
X85959146Y19595854D02*
X86095000Y19460000D01*
X85959146Y29087872D02*
X85959146Y19595854D01*
X87862018Y19460000D02*
X90459146Y16862872D01*
X87730000Y19460000D02*
X87862018Y19460000D01*
X61705146Y9920000D02*
X61959146Y9920000D01*
X59595001Y12030145D02*
X61705146Y9920000D01*
X59595001Y12889855D02*
X59595001Y12030145D01*
X61705146Y15000000D02*
X59595001Y12889855D01*
X61959146Y15000000D02*
X61705146Y15000000D01*
D41*
X63508705Y16549559D02*
X61959146Y15000000D01*
X63508705Y20008705D02*
X63508705Y16549559D01*
X69000000Y2879146D02*
X61959146Y9920000D01*
X69000000Y2000000D02*
X69000000Y2879146D01*
G04 #@! TO.N,Net-(C8-Pad1)*
X87215156Y17106862D02*
X83393138Y17106862D01*
X87459146Y16862872D02*
X87215156Y17106862D01*
X83393138Y11546864D02*
X83393138Y17106862D01*
X81709146Y9862872D02*
X83393138Y11546864D01*
X80959146Y9862872D02*
X81709146Y9862872D01*
D43*
X65035309Y30513393D02*
X63948705Y30513393D01*
X87500000Y46500000D02*
X87500000Y46005642D01*
X63948705Y30513393D02*
X63500000Y30064688D01*
X78409789Y43887873D02*
X65035309Y30513393D01*
X85382231Y43887873D02*
X78409789Y43887873D01*
X87500000Y46005642D02*
X85382231Y43887873D01*
X63500000Y26161416D02*
X64661416Y25000000D01*
X63500000Y30064688D02*
X63500000Y26161416D01*
X83031276Y25000000D02*
X84059147Y26027871D01*
X64661416Y25000000D02*
X83031276Y25000000D01*
D42*
X84259146Y26227870D02*
X84259146Y29087872D01*
X84059147Y26027871D02*
X84259146Y26227870D01*
D43*
X83031276Y17468724D02*
X83393138Y17106862D01*
X83031276Y25000000D02*
X83031276Y17468724D01*
D40*
G04 #@! TO.N,/21V*
X42000000Y29716000D02*
X45450001Y26265999D01*
X45450001Y26265999D02*
X57274001Y26265999D01*
D41*
X42000000Y29716000D02*
X43810000Y29716000D01*
D40*
X57274001Y26265999D02*
X60339990Y23200010D01*
D41*
X40000000Y29716000D02*
X42000000Y29716000D01*
D40*
X61049990Y23589990D02*
X60660010Y23200010D01*
X61049990Y31549990D02*
X61049990Y23589990D01*
X66500000Y37000000D02*
X61049990Y31549990D01*
D41*
G04 #@! TO.N,/11VB*
X88960000Y54332000D02*
X88928000Y54364000D01*
X88960000Y50500000D02*
X88960000Y54332000D01*
X85960000Y50500000D02*
X88960000Y50500000D01*
X85690000Y50500000D02*
X85960000Y50500000D01*
X84960000Y49770000D02*
X85690000Y50500000D01*
X84960000Y46500000D02*
X84960000Y49770000D01*
X88960000Y48756009D02*
X88960000Y50500000D01*
X90040000Y47676009D02*
X88960000Y48756009D01*
X90040000Y46500000D02*
X90040000Y47676009D01*
G04 #@! TO.N,Net-(D2-Pad2)*
X76159046Y28113052D02*
X76959146Y28113052D01*
X72708706Y31563392D02*
X76159046Y28113052D01*
X72708706Y33460343D02*
X72708706Y31563392D01*
X76111235Y36862872D02*
X72708706Y33460343D01*
X76959146Y36862872D02*
X76111235Y36862872D01*
X76959146Y28113052D02*
X66959146Y28113052D01*
X82184406Y29087872D02*
X82509145Y29087872D01*
X81209586Y28113052D02*
X82184406Y29087872D01*
X76959146Y28113052D02*
X81209586Y28113052D01*
D43*
G04 #@! TO.N,Net-(R1-Pad2)*
X21539000Y61489000D02*
X22550000Y62500000D01*
X21539000Y59500000D02*
X21539000Y61489000D01*
D42*
G04 #@! TO.N,Net-(R4-Pad2)*
X13146000Y6596000D02*
X11168000Y6596000D01*
X14550000Y8000000D02*
X13146000Y6596000D01*
D44*
G04 #@! TO.N,Net-(R5-Pad1)*
X48864000Y2364000D02*
X48720002Y2364000D01*
X37850000Y1100000D02*
X36500000Y1100000D01*
X38431001Y518999D02*
X37850000Y1100000D01*
X47018999Y518999D02*
X38431001Y518999D01*
X48864000Y2364000D02*
X47018999Y518999D01*
D43*
G04 #@! TO.N,Net-(R6-Pad1)*
X81756002Y50500000D02*
X84864000Y53607998D01*
X84864000Y53607998D02*
X84864000Y54364000D01*
X78900000Y50500000D02*
X81756002Y50500000D01*
D42*
G04 #@! TO.N,Net-(R7-Pad1)*
X59950000Y52950000D02*
X60864000Y53864000D01*
X59950000Y50500000D02*
X59950000Y52950000D01*
G04 #@! TO.N,Net-(R8-Pad2)*
X47620000Y31070000D02*
X50050000Y33500000D01*
X47620000Y29716000D02*
X47620000Y31070000D01*
G04 #@! TO.N,Net-(RV1-Pad2)*
X87659146Y25880854D02*
X89000000Y24540000D01*
X87659146Y29087872D02*
X87659146Y25880854D01*
D41*
G04 #@! TO.N,/11VA*
X53832000Y1460000D02*
X52928000Y2364000D01*
X61000000Y1460000D02*
X53832000Y1460000D01*
G04 #@! TO.N,/5V2_USB*
X50580001Y41700001D02*
X48800000Y39920000D01*
X48800000Y39920000D02*
X45000000Y39920000D01*
X54610003Y41700001D02*
X50580001Y41700001D01*
X64928000Y52017998D02*
X54610003Y41700001D01*
X64928000Y53864000D02*
X64928000Y52017998D01*
D40*
G04 #@! TO.N,/8V_TO_16V_IN*
X3000000Y40000000D02*
X10000000Y33000000D01*
X3000000Y43500000D02*
X3000000Y40000000D01*
X2108000Y44392000D02*
X3000000Y43500000D01*
X2108000Y52769000D02*
X2108000Y44392000D01*
X3167000Y17833000D02*
X2500000Y18500000D01*
X3167000Y11168000D02*
X3167000Y17833000D01*
X2500000Y25500000D02*
X10000000Y33000000D01*
X2500000Y18500000D02*
X2500000Y25500000D01*
G04 #@! TD*
D45*
G04 #@! TO.N,GND*
G36*
X91457560Y61285000D02*
X91506843Y61037235D01*
X91647191Y60827191D01*
X91857235Y60686843D01*
X92105000Y60637560D01*
X94265000Y60637560D01*
X94265001Y13377552D01*
X94126309Y13435000D01*
X93785750Y13435000D01*
X93627000Y13276250D01*
X93627000Y12127000D01*
X93647000Y12127000D01*
X93647000Y11873000D01*
X93627000Y11873000D01*
X93627000Y10723750D01*
X93785750Y10565000D01*
X94126309Y10565000D01*
X94265001Y10622448D01*
X94265001Y710000D01*
X72807647Y710000D01*
X73001942Y956980D01*
X73175000Y1573000D01*
X73175000Y1873000D01*
X71667000Y1873000D01*
X71667000Y1853000D01*
X71413000Y1853000D01*
X71413000Y1873000D01*
X71393000Y1873000D01*
X71393000Y2127000D01*
X71413000Y2127000D01*
X71413000Y3770777D01*
X71667000Y3770777D01*
X71667000Y2127000D01*
X73175000Y2127000D01*
X73175000Y2427000D01*
X73001942Y3043020D01*
X72606317Y3545922D01*
X72048355Y3859144D01*
X71920434Y3890124D01*
X71667000Y3770777D01*
X71413000Y3770777D01*
X71159566Y3890124D01*
X71031645Y3859144D01*
X70565099Y3597240D01*
X70457809Y3757809D01*
X70315965Y3852587D01*
X70178769Y4057915D01*
X70042253Y4149132D01*
X66213512Y7977872D01*
X67673396Y7977872D01*
X67832146Y8136622D01*
X67832146Y9735872D01*
X68086146Y9735872D01*
X68086146Y8136622D01*
X68244896Y7977872D01*
X70085455Y7977872D01*
X70318844Y8074545D01*
X70497473Y8253173D01*
X70594146Y8486562D01*
X70594146Y9577122D01*
X70435396Y9735872D01*
X68086146Y9735872D01*
X67832146Y9735872D01*
X65482896Y9735872D01*
X65324146Y9577122D01*
X65324146Y8867238D01*
X63803404Y10387980D01*
X63768354Y10564188D01*
X63403451Y11110305D01*
X63252457Y11211196D01*
X63288086Y11239182D01*
X65324146Y11239182D01*
X65324146Y10148622D01*
X65482896Y9989872D01*
X67832146Y9989872D01*
X67832146Y11589122D01*
X68086146Y11589122D01*
X68086146Y9989872D01*
X70435396Y9989872D01*
X70594146Y10148622D01*
X70594146Y11239182D01*
X70497473Y11472571D01*
X70318844Y11651199D01*
X70085455Y11747872D01*
X68244896Y11747872D01*
X68086146Y11589122D01*
X67832146Y11589122D01*
X67673396Y11747872D01*
X65832837Y11747872D01*
X65599448Y11651199D01*
X65420819Y11472571D01*
X65324146Y11239182D01*
X63288086Y11239182D01*
X63470382Y11382370D01*
X63787072Y11945523D01*
X63819121Y12077056D01*
X63699982Y12333000D01*
X62086146Y12333000D01*
X62086146Y12313000D01*
X61832146Y12313000D01*
X61832146Y12333000D01*
X61812146Y12333000D01*
X61812146Y12587000D01*
X61832146Y12587000D01*
X61832146Y12607000D01*
X62086146Y12607000D01*
X62086146Y12587000D01*
X63699982Y12587000D01*
X63819121Y12842944D01*
X63787072Y12974477D01*
X63470382Y13537630D01*
X63252457Y13708804D01*
X63403451Y13809695D01*
X63768354Y14355812D01*
X63803404Y14532019D01*
X64550957Y15279573D01*
X64687474Y15370790D01*
X64792085Y15527352D01*
X66673396Y15527352D01*
X66832146Y15686102D01*
X66832146Y17485692D01*
X67086146Y17485692D01*
X67086146Y15686102D01*
X67244896Y15527352D01*
X69335896Y15527352D01*
X69569285Y15624025D01*
X69747913Y15802654D01*
X69844586Y16036043D01*
X69844586Y17326942D01*
X74073706Y17326942D01*
X74073706Y16036043D01*
X74170379Y15802654D01*
X74349007Y15624025D01*
X74582396Y15527352D01*
X76673396Y15527352D01*
X76832146Y15686102D01*
X76832146Y17485692D01*
X74232456Y17485692D01*
X74073706Y17326942D01*
X69844586Y17326942D01*
X69685836Y17485692D01*
X67086146Y17485692D01*
X66832146Y17485692D01*
X66812146Y17485692D01*
X66812146Y17739692D01*
X66832146Y17739692D01*
X66832146Y17759692D01*
X67086146Y17759692D01*
X67086146Y17739692D01*
X69685836Y17739692D01*
X69844586Y17898442D01*
X69844586Y18865000D01*
X74073706Y18865000D01*
X74073706Y17898442D01*
X74232456Y17739692D01*
X76832146Y17739692D01*
X76832146Y17759692D01*
X77086146Y17759692D01*
X77086146Y17739692D01*
X77106146Y17739692D01*
X77106146Y17485692D01*
X77086146Y17485692D01*
X77086146Y15686102D01*
X77244896Y15527352D01*
X78422349Y15527352D01*
X74916896Y12021898D01*
X74780377Y11930679D01*
X74666542Y11760312D01*
X73959146Y11760312D01*
X73711381Y11711029D01*
X73501337Y11570681D01*
X73360989Y11360637D01*
X73311706Y11112872D01*
X73311706Y8612872D01*
X73360989Y8365107D01*
X73501337Y8155063D01*
X73711381Y8014715D01*
X73959146Y7965432D01*
X75134346Y7965432D01*
X77529158Y5570619D01*
X77620375Y5434103D01*
X77796291Y5316560D01*
X78161198Y5072736D01*
X78799144Y4945841D01*
X78960175Y4977872D01*
X84798116Y4977872D01*
X84959146Y4945841D01*
X85120176Y4977872D01*
X85120177Y4977872D01*
X85597091Y5072736D01*
X86137915Y5434103D01*
X86229134Y5570622D01*
X88623945Y7965432D01*
X90959146Y7965432D01*
X91206911Y8014715D01*
X91416955Y8155063D01*
X91557303Y8365107D01*
X91606586Y8612872D01*
X91606586Y10163170D01*
X91637915Y10184103D01*
X91999282Y10724927D01*
X92094146Y11201841D01*
X92094146Y11201845D01*
X92126176Y11362871D01*
X92094146Y11523897D01*
X92094146Y11714250D01*
X92365000Y11714250D01*
X92365000Y11073690D01*
X92461673Y10840301D01*
X92640302Y10661673D01*
X92873691Y10565000D01*
X93214250Y10565000D01*
X93373000Y10723750D01*
X93373000Y11873000D01*
X92523750Y11873000D01*
X92365000Y11714250D01*
X92094146Y11714250D01*
X92094146Y12926310D01*
X92365000Y12926310D01*
X92365000Y12285750D01*
X92523750Y12127000D01*
X93373000Y12127000D01*
X93373000Y13276250D01*
X93214250Y13435000D01*
X92873691Y13435000D01*
X92640302Y13338327D01*
X92461673Y13159699D01*
X92365000Y12926310D01*
X92094146Y12926310D01*
X92094146Y17023903D01*
X91999282Y17500817D01*
X91637915Y18041641D01*
X91343433Y18238407D01*
X91443327Y18338301D01*
X91540000Y18571690D01*
X91540000Y19174250D01*
X91381250Y19333000D01*
X90397000Y19333000D01*
X90397000Y19313000D01*
X90143000Y19313000D01*
X90143000Y19333000D01*
X90123000Y19333000D01*
X90123000Y19587000D01*
X90143000Y19587000D01*
X90143000Y20698250D01*
X90397000Y20698250D01*
X90397000Y19587000D01*
X91381250Y19587000D01*
X91540000Y19745750D01*
X91540000Y20348310D01*
X91443327Y20581699D01*
X91264698Y20760327D01*
X91031309Y20857000D01*
X90555750Y20857000D01*
X90397000Y20698250D01*
X90143000Y20698250D01*
X89984250Y20857000D01*
X89508691Y20857000D01*
X89275302Y20760327D01*
X89096673Y20581699D01*
X89000000Y20348310D01*
X89000000Y20284541D01*
X88963157Y20469765D01*
X88822809Y20679809D01*
X88612765Y20820157D01*
X88365000Y20869440D01*
X87095000Y20869440D01*
X87094146Y20869270D01*
X87094146Y24840723D01*
X87717560Y24217308D01*
X87717560Y23778000D01*
X87766843Y23530235D01*
X87907191Y23320191D01*
X88117235Y23179843D01*
X88365000Y23130560D01*
X89635000Y23130560D01*
X89882765Y23179843D01*
X90092809Y23320191D01*
X90233157Y23530235D01*
X90282440Y23778000D01*
X90282440Y25302000D01*
X90233157Y25549765D01*
X90092809Y25759809D01*
X89882765Y25900157D01*
X89635000Y25949440D01*
X89195692Y25949440D01*
X89004699Y26140432D01*
X89909146Y26140432D01*
X90156911Y26189715D01*
X90366955Y26330063D01*
X90507303Y26540107D01*
X90556586Y26787872D01*
X90556586Y31387872D01*
X90507303Y31635637D01*
X90366955Y31845681D01*
X90156911Y31986029D01*
X89909146Y32035312D01*
X88809146Y32035312D01*
X88561381Y31986029D01*
X88509146Y31951126D01*
X88456911Y31986029D01*
X88209146Y32035312D01*
X87109146Y32035312D01*
X87094146Y32032328D01*
X87094146Y32890432D01*
X91359146Y32890432D01*
X91606911Y32939715D01*
X91816955Y33080063D01*
X91957303Y33290107D01*
X92006586Y33537872D01*
X92006586Y42937872D01*
X91957303Y43185637D01*
X91816955Y43395681D01*
X91606911Y43536029D01*
X91359146Y43585312D01*
X87038355Y43585312D01*
X88143749Y44690705D01*
X88144187Y44690792D01*
X88690305Y45055695D01*
X88770000Y45174967D01*
X88849695Y45055695D01*
X89395812Y44690792D01*
X90040000Y44562655D01*
X90684187Y44690792D01*
X91230305Y45055695D01*
X91595208Y45601812D01*
X91691000Y46083391D01*
X91691000Y46916608D01*
X91675000Y46997046D01*
X91675000Y47514978D01*
X91707031Y47676009D01*
X91580136Y48313955D01*
X91349006Y48659864D01*
X91333028Y48683778D01*
X91373000Y48723750D01*
X91373000Y50373000D01*
X91627000Y50373000D01*
X91627000Y48723750D01*
X91785750Y48565000D01*
X92626309Y48565000D01*
X92859698Y48661673D01*
X93038327Y48840301D01*
X93135000Y49073690D01*
X93135000Y50214250D01*
X92976250Y50373000D01*
X91627000Y50373000D01*
X91373000Y50373000D01*
X91353000Y50373000D01*
X91353000Y50627000D01*
X91373000Y50627000D01*
X91373000Y52276250D01*
X91627000Y52276250D01*
X91627000Y50627000D01*
X92976250Y50627000D01*
X93135000Y50785750D01*
X93135000Y51926310D01*
X93038327Y52159699D01*
X92859698Y52338327D01*
X92626309Y52435000D01*
X91785750Y52435000D01*
X91627000Y52276250D01*
X91373000Y52276250D01*
X91214250Y52435000D01*
X90986782Y52435000D01*
X91100809Y52511191D01*
X91241157Y52721235D01*
X91290440Y52969000D01*
X91290440Y55759000D01*
X91241157Y56006765D01*
X91100809Y56216809D01*
X90890765Y56357157D01*
X90643000Y56406440D01*
X87213000Y56406440D01*
X86965235Y56357157D01*
X86896000Y56310895D01*
X86826765Y56357157D01*
X86579000Y56406440D01*
X83149000Y56406440D01*
X82901235Y56357157D01*
X82835804Y56313437D01*
X82641309Y56394000D01*
X81085750Y56394000D01*
X80927000Y56235250D01*
X80927000Y54491000D01*
X80947000Y54491000D01*
X80947000Y54237000D01*
X80927000Y54237000D01*
X80927000Y52492750D01*
X81085750Y52334000D01*
X81631317Y52334000D01*
X81182317Y51885000D01*
X79692285Y51885000D01*
X79597765Y51948157D01*
X79350000Y51997440D01*
X78450000Y51997440D01*
X78202235Y51948157D01*
X77992191Y51807809D01*
X77851843Y51597765D01*
X77802701Y51350709D01*
X77595359Y51040400D01*
X77487867Y50500000D01*
X77595359Y49959600D01*
X77802701Y49649291D01*
X77851843Y49402235D01*
X77992191Y49192191D01*
X78202235Y49051843D01*
X78450000Y49002560D01*
X79350000Y49002560D01*
X79597765Y49051843D01*
X79692285Y49115000D01*
X81619595Y49115000D01*
X81756002Y49087867D01*
X81892409Y49115000D01*
X82296402Y49195359D01*
X82754531Y49501471D01*
X82831801Y49617114D01*
X83369517Y50154830D01*
X83292969Y49770000D01*
X83325001Y49608966D01*
X83325000Y46997047D01*
X83309000Y46916609D01*
X83309000Y46083392D01*
X83404792Y45601813D01*
X83624582Y45272873D01*
X78546194Y45272873D01*
X78409788Y45300006D01*
X78273382Y45272873D01*
X77869389Y45192514D01*
X77411260Y44886402D01*
X77333991Y44770761D01*
X68397440Y35834209D01*
X68397440Y35996821D01*
X68511126Y36166964D01*
X68676826Y36999999D01*
X68511126Y37833035D01*
X68397440Y38003178D01*
X68397440Y39000000D01*
X68348157Y39247765D01*
X68207809Y39457809D01*
X67997765Y39598157D01*
X67750000Y39647440D01*
X65250000Y39647440D01*
X65002235Y39598157D01*
X64792191Y39457809D01*
X64651843Y39247765D01*
X64602560Y39000000D01*
X64602560Y38121906D01*
X59689009Y33208354D01*
X59510741Y33089239D01*
X59038864Y32383025D01*
X58914990Y31760268D01*
X58914990Y31760265D01*
X58873164Y31549990D01*
X58914990Y31339715D01*
X58914990Y27652983D01*
X58813250Y27805248D01*
X58107037Y28277125D01*
X57484280Y28400999D01*
X57484276Y28400999D01*
X57297910Y28438069D01*
X57630956Y29272591D01*
X57618641Y30221323D01*
X57279271Y31040636D01*
X56934528Y31230923D01*
X55419605Y29716000D01*
X55433748Y29701857D01*
X55254143Y29522252D01*
X55240000Y29536395D01*
X55225858Y29522252D01*
X55046253Y29701857D01*
X55060395Y29716000D01*
X53545472Y31230923D01*
X53379556Y31139343D01*
X53108371Y31410528D01*
X53725077Y31410528D01*
X55240000Y29895605D01*
X56754923Y31410528D01*
X56564636Y31755271D01*
X55683409Y32106956D01*
X54734677Y32094641D01*
X53915364Y31755271D01*
X53725077Y31410528D01*
X53108371Y31410528D01*
X52780994Y31737905D01*
X51904406Y32101000D01*
X50955594Y32101000D01*
X50079006Y31737905D01*
X49525000Y31183899D01*
X49432015Y31276884D01*
X50157692Y32002560D01*
X50500000Y32002560D01*
X50747765Y32051843D01*
X50957809Y32192191D01*
X51098157Y32402235D01*
X51147440Y32650000D01*
X51147440Y33199389D01*
X51150396Y33214250D01*
X51865000Y33214250D01*
X51865000Y32523690D01*
X51961673Y32290301D01*
X52140302Y32111673D01*
X52373691Y32015000D01*
X52664250Y32015000D01*
X52823000Y32173750D01*
X52823000Y33373000D01*
X53077000Y33373000D01*
X53077000Y32173750D01*
X53235750Y32015000D01*
X53526309Y32015000D01*
X53759698Y32111673D01*
X53938327Y32290301D01*
X54035000Y32523690D01*
X54035000Y33214250D01*
X53876250Y33373000D01*
X53077000Y33373000D01*
X52823000Y33373000D01*
X52023750Y33373000D01*
X51865000Y33214250D01*
X51150396Y33214250D01*
X51207235Y33500000D01*
X51147440Y33800610D01*
X51147440Y34350000D01*
X51122316Y34476310D01*
X51865000Y34476310D01*
X51865000Y33785750D01*
X52023750Y33627000D01*
X52823000Y33627000D01*
X52823000Y34826250D01*
X53077000Y34826250D01*
X53077000Y33627000D01*
X53876250Y33627000D01*
X54035000Y33785750D01*
X54035000Y34476310D01*
X53938327Y34709699D01*
X53759698Y34888327D01*
X53526309Y34985000D01*
X53235750Y34985000D01*
X53077000Y34826250D01*
X52823000Y34826250D01*
X52664250Y34985000D01*
X52373691Y34985000D01*
X52140302Y34888327D01*
X51961673Y34709699D01*
X51865000Y34476310D01*
X51122316Y34476310D01*
X51098157Y34597765D01*
X50957809Y34807809D01*
X50747765Y34948157D01*
X50500000Y34997440D01*
X49600000Y34997440D01*
X49352235Y34948157D01*
X49142191Y34807809D01*
X49001843Y34597765D01*
X48952560Y34350000D01*
X48952560Y34007692D01*
X46975353Y32030484D01*
X46269006Y31737905D01*
X45715000Y31183899D01*
X45160994Y31737905D01*
X44284406Y32101000D01*
X43335594Y32101000D01*
X42562769Y31780885D01*
X42000000Y31892826D01*
X41308871Y31755353D01*
X40474406Y32101000D01*
X39525594Y32101000D01*
X38649006Y31737905D01*
X37978095Y31066994D01*
X37615000Y30190406D01*
X37615000Y29241594D01*
X37978095Y28365006D01*
X38649006Y27694095D01*
X39525594Y27331000D01*
X40474406Y27331000D01*
X41104614Y27592041D01*
X43791638Y24905016D01*
X43910752Y24726750D01*
X44616965Y24254873D01*
X45239722Y24130999D01*
X45239725Y24130999D01*
X45450000Y24089173D01*
X45660275Y24130999D01*
X56389656Y24130999D01*
X58661463Y21859191D01*
X58565000Y21626309D01*
X58565000Y20785750D01*
X58723750Y20627000D01*
X60373000Y20627000D01*
X60373000Y20647000D01*
X60627000Y20647000D01*
X60627000Y20627000D01*
X60647000Y20627000D01*
X60647000Y20373000D01*
X60627000Y20373000D01*
X60627000Y19023750D01*
X60785750Y18865000D01*
X61873705Y18865000D01*
X61873706Y17226798D01*
X61237166Y16590258D01*
X61060958Y16555208D01*
X60514841Y16190305D01*
X60149938Y15644188D01*
X60021801Y15000000D01*
X60034777Y14934763D01*
X58871483Y13771468D01*
X58776712Y13708144D01*
X58569586Y13398157D01*
X58545721Y13362440D01*
X56105000Y13362440D01*
X55857235Y13313157D01*
X55647191Y13172809D01*
X55506843Y12962765D01*
X55457560Y12715000D01*
X55457560Y9285000D01*
X55506843Y9037235D01*
X55647191Y8827191D01*
X55857235Y8686843D01*
X56105000Y8637560D01*
X58895000Y8637560D01*
X59142765Y8686843D01*
X59352809Y8827191D01*
X59493157Y9037235D01*
X59542440Y9285000D01*
X59542440Y10477575D01*
X60034777Y9985237D01*
X60021801Y9920000D01*
X60149938Y9275812D01*
X60514841Y8729695D01*
X61060958Y8364792D01*
X61237166Y8329742D01*
X67352560Y2214347D01*
X67352560Y710000D01*
X62765263Y710000D01*
X62840136Y822055D01*
X62967031Y1460000D01*
X62840136Y2097945D01*
X62610670Y2441365D01*
X62659699Y2461673D01*
X62838327Y2640302D01*
X62935000Y2873691D01*
X62935000Y3714250D01*
X62776250Y3873000D01*
X61127000Y3873000D01*
X61127000Y3853000D01*
X60873000Y3853000D01*
X60873000Y3873000D01*
X59223750Y3873000D01*
X59065000Y3714250D01*
X59065000Y3095000D01*
X55290440Y3095000D01*
X55290440Y3759000D01*
X55241157Y4006765D01*
X55100809Y4216809D01*
X54890765Y4357157D01*
X54643000Y4406440D01*
X51213000Y4406440D01*
X50965235Y4357157D01*
X50896000Y4310895D01*
X50826765Y4357157D01*
X50579000Y4406440D01*
X47149000Y4406440D01*
X46901235Y4357157D01*
X46835804Y4313437D01*
X46641309Y4394000D01*
X45085750Y4394000D01*
X44927000Y4235250D01*
X44927000Y2491000D01*
X44947000Y2491000D01*
X44947000Y2237000D01*
X44927000Y2237000D01*
X44927000Y2217000D01*
X44673000Y2217000D01*
X44673000Y2237000D01*
X42608750Y2237000D01*
X42450000Y2078250D01*
X42450000Y1403999D01*
X38797580Y1403999D01*
X38537425Y1664154D01*
X38488049Y1738049D01*
X38195310Y1933652D01*
X37937165Y1985000D01*
X37937161Y1985000D01*
X37850000Y2002337D01*
X37815986Y1995571D01*
X37807809Y2007809D01*
X37597765Y2148157D01*
X37350000Y2197440D01*
X35650000Y2197440D01*
X35402235Y2148157D01*
X35192191Y2007809D01*
X35051843Y1797765D01*
X35002560Y1550000D01*
X35002560Y710000D01*
X33627000Y710000D01*
X33627000Y3714250D01*
X35015000Y3714250D01*
X35015000Y3423691D01*
X35111673Y3190302D01*
X35290301Y3011673D01*
X35523690Y2915000D01*
X36214250Y2915000D01*
X36373000Y3073750D01*
X36373000Y3873000D01*
X36627000Y3873000D01*
X36627000Y3073750D01*
X36785750Y2915000D01*
X37476310Y2915000D01*
X37709699Y3011673D01*
X37888327Y3190302D01*
X37985000Y3423691D01*
X37985000Y3714250D01*
X37826250Y3873000D01*
X36627000Y3873000D01*
X36373000Y3873000D01*
X35173750Y3873000D01*
X35015000Y3714250D01*
X33627000Y3714250D01*
X33627000Y3885310D01*
X42450000Y3885310D01*
X42450000Y2649750D01*
X42608750Y2491000D01*
X44673000Y2491000D01*
X44673000Y4235250D01*
X44514250Y4394000D01*
X42958691Y4394000D01*
X42725302Y4297327D01*
X42546673Y4118699D01*
X42450000Y3885310D01*
X33627000Y3885310D01*
X33627000Y4576309D01*
X35015000Y4576309D01*
X35015000Y4285750D01*
X35173750Y4127000D01*
X36373000Y4127000D01*
X36373000Y4926250D01*
X36627000Y4926250D01*
X36627000Y4127000D01*
X37826250Y4127000D01*
X37985000Y4285750D01*
X37985000Y4576309D01*
X37888327Y4809698D01*
X37709699Y4988327D01*
X37476310Y5085000D01*
X36785750Y5085000D01*
X36627000Y4926250D01*
X36373000Y4926250D01*
X36214250Y5085000D01*
X35523690Y5085000D01*
X35290301Y4988327D01*
X35111673Y4809698D01*
X35015000Y4576309D01*
X33627000Y4576309D01*
X33627000Y5126309D01*
X59065000Y5126309D01*
X59065000Y4285750D01*
X59223750Y4127000D01*
X60873000Y4127000D01*
X60873000Y5476250D01*
X61127000Y5476250D01*
X61127000Y4127000D01*
X62776250Y4127000D01*
X62935000Y4285750D01*
X62935000Y5126309D01*
X62838327Y5359698D01*
X62659699Y5538327D01*
X62426310Y5635000D01*
X61285750Y5635000D01*
X61127000Y5476250D01*
X60873000Y5476250D01*
X60714250Y5635000D01*
X59573690Y5635000D01*
X59340301Y5538327D01*
X59161673Y5359698D01*
X59065000Y5126309D01*
X33627000Y5126309D01*
X33627000Y22875881D01*
X33667102Y22849086D01*
X38571644Y17944543D01*
X37978095Y17350994D01*
X37615000Y16474406D01*
X37615000Y15525594D01*
X37978095Y14649006D01*
X38365000Y14262101D01*
X38365001Y13042440D01*
X38259000Y13042440D01*
X38011235Y12993157D01*
X37801191Y12852809D01*
X37660843Y12642765D01*
X37611560Y12395000D01*
X37611560Y9605000D01*
X37660843Y9357235D01*
X37801191Y9147191D01*
X38011235Y9006843D01*
X38259000Y8957560D01*
X41689000Y8957560D01*
X41936765Y9006843D01*
X42146809Y9147191D01*
X42287157Y9357235D01*
X42336440Y9605000D01*
X42336440Y12395000D01*
X42287157Y12642765D01*
X42146809Y12852809D01*
X41936765Y12993157D01*
X41689000Y13042440D01*
X41635000Y13042440D01*
X41635000Y14262101D01*
X42021905Y14649006D01*
X42385000Y15525594D01*
X42385000Y16474406D01*
X45235000Y16474406D01*
X45235000Y15525594D01*
X45598095Y14649006D01*
X46269006Y13978095D01*
X47145594Y13615000D01*
X48094406Y13615000D01*
X48970994Y13978095D01*
X49298371Y14305472D01*
X53725077Y14305472D01*
X53915364Y13960729D01*
X54796591Y13609044D01*
X55745323Y13621359D01*
X56564636Y13960729D01*
X56754923Y14305472D01*
X55240000Y15820395D01*
X53725077Y14305472D01*
X49298371Y14305472D01*
X49641905Y14649006D01*
X50005000Y15525594D01*
X50005000Y16443409D01*
X52849044Y16443409D01*
X52861359Y15494677D01*
X53200729Y14675364D01*
X53545472Y14485077D01*
X55060395Y16000000D01*
X55419605Y16000000D01*
X56934528Y14485077D01*
X57279271Y14675364D01*
X57630956Y15556591D01*
X57618641Y16505323D01*
X57279271Y17324636D01*
X56934528Y17514923D01*
X55419605Y16000000D01*
X55060395Y16000000D01*
X53545472Y17514923D01*
X53200729Y17324636D01*
X52849044Y16443409D01*
X50005000Y16443409D01*
X50005000Y16474406D01*
X49641905Y17350994D01*
X49298371Y17694528D01*
X53725077Y17694528D01*
X55240000Y16179605D01*
X56754923Y17694528D01*
X56564636Y18039271D01*
X55683409Y18390956D01*
X54734677Y18378641D01*
X53915364Y18039271D01*
X53725077Y17694528D01*
X49298371Y17694528D01*
X48970994Y18021905D01*
X48094406Y18385000D01*
X47145594Y18385000D01*
X46269006Y18021905D01*
X45598095Y17350994D01*
X45235000Y16474406D01*
X42385000Y16474406D01*
X42021905Y17350994D01*
X41385000Y17987899D01*
X41385000Y18338468D01*
X41412133Y18474874D01*
X41377895Y18646998D01*
X41304641Y19015273D01*
X40998529Y19473402D01*
X40882888Y19550671D01*
X40219309Y20214250D01*
X58565000Y20214250D01*
X58565000Y19373691D01*
X58661673Y19140302D01*
X58840301Y18961673D01*
X59073690Y18865000D01*
X60214250Y18865000D01*
X60373000Y19023750D01*
X60373000Y20373000D01*
X58723750Y20373000D01*
X58565000Y20214250D01*
X40219309Y20214250D01*
X35934990Y24498568D01*
X35934990Y38214250D01*
X52115000Y38214250D01*
X52115000Y36373691D01*
X52211673Y36140302D01*
X52390301Y35961673D01*
X52623690Y35865000D01*
X53714250Y35865000D01*
X53873000Y36023750D01*
X53873000Y38373000D01*
X54127000Y38373000D01*
X54127000Y36023750D01*
X54285750Y35865000D01*
X55376310Y35865000D01*
X55609699Y35961673D01*
X55788327Y36140302D01*
X55885000Y36373691D01*
X55885000Y38214250D01*
X55726250Y38373000D01*
X54127000Y38373000D01*
X53873000Y38373000D01*
X52273750Y38373000D01*
X52115000Y38214250D01*
X35934990Y38214250D01*
X35934990Y44714250D01*
X42565000Y44714250D01*
X42565000Y43833691D01*
X42661673Y43600302D01*
X42840301Y43421673D01*
X43073690Y43325000D01*
X44714250Y43325000D01*
X44873000Y43483750D01*
X44873000Y44873000D01*
X45127000Y44873000D01*
X45127000Y43483750D01*
X45285750Y43325000D01*
X46926310Y43325000D01*
X47159699Y43421673D01*
X47338327Y43600302D01*
X47435000Y43833691D01*
X47435000Y44714250D01*
X47276250Y44873000D01*
X45127000Y44873000D01*
X44873000Y44873000D01*
X42723750Y44873000D01*
X42565000Y44714250D01*
X35934990Y44714250D01*
X35934990Y46166309D01*
X42565000Y46166309D01*
X42565000Y45285750D01*
X42723750Y45127000D01*
X44873000Y45127000D01*
X44873000Y46516250D01*
X45127000Y46516250D01*
X45127000Y45127000D01*
X47276250Y45127000D01*
X47435000Y45285750D01*
X47435000Y46166309D01*
X47338327Y46399698D01*
X47159699Y46578327D01*
X46926310Y46675000D01*
X45285750Y46675000D01*
X45127000Y46516250D01*
X44873000Y46516250D01*
X44714250Y46675000D01*
X43073690Y46675000D01*
X42840301Y46578327D01*
X42661673Y46399698D01*
X42565000Y46166309D01*
X35934990Y46166309D01*
X35934990Y49122751D01*
X36042253Y49230014D01*
X36178769Y49321231D01*
X36540136Y49862055D01*
X36635000Y50338969D01*
X36635000Y50338973D01*
X36667030Y50499999D01*
X36635000Y50661025D01*
X36635000Y60214250D01*
X42565000Y60214250D01*
X42565000Y59333691D01*
X42661673Y59100302D01*
X42840301Y58921673D01*
X43073690Y58825000D01*
X44714250Y58825000D01*
X44873000Y58983750D01*
X44873000Y60373000D01*
X45127000Y60373000D01*
X45127000Y58983750D01*
X45285750Y58825000D01*
X46926310Y58825000D01*
X47159699Y58921673D01*
X47338327Y59100302D01*
X47435000Y59333691D01*
X47435000Y60214250D01*
X47276250Y60373000D01*
X45127000Y60373000D01*
X44873000Y60373000D01*
X42723750Y60373000D01*
X42565000Y60214250D01*
X36635000Y60214250D01*
X36635000Y60322762D01*
X37417240Y61105001D01*
X42565000Y61105001D01*
X42565000Y60785750D01*
X42723750Y60627000D01*
X44873000Y60627000D01*
X44873000Y60647000D01*
X45127000Y60647000D01*
X45127000Y60627000D01*
X47276250Y60627000D01*
X47435000Y60785750D01*
X47435000Y61084182D01*
X47550746Y61006843D01*
X47621055Y60959864D01*
X48259000Y60832969D01*
X48420031Y60865000D01*
X49659298Y60865000D01*
X49660843Y60857235D01*
X49801191Y60647191D01*
X50011235Y60506843D01*
X50259000Y60457560D01*
X50339001Y60457560D01*
X50339000Y52473238D01*
X47455276Y55356962D01*
X47467815Y55420000D01*
X47337815Y56073553D01*
X46967608Y56627608D01*
X46413553Y56997815D01*
X45924972Y57095000D01*
X44075028Y57095000D01*
X43586447Y56997815D01*
X43032392Y56627608D01*
X42662185Y56073553D01*
X42532185Y55420000D01*
X42662185Y54766447D01*
X43032392Y54212392D01*
X43586447Y53842185D01*
X44075028Y53745000D01*
X44442762Y53745000D01*
X50704014Y47483747D01*
X50795231Y47347231D01*
X50931748Y47256013D01*
X52102560Y46085201D01*
X52102560Y44500000D01*
X52151843Y44252235D01*
X52292191Y44042191D01*
X52502235Y43901843D01*
X52750000Y43852560D01*
X54450324Y43852560D01*
X53932765Y43335001D01*
X50741032Y43335001D01*
X50580001Y43367032D01*
X49942055Y43240137D01*
X49537747Y42969987D01*
X49537745Y42969985D01*
X49401232Y42878770D01*
X49310016Y42742256D01*
X48122761Y41555000D01*
X46126065Y41555000D01*
X45924972Y41595000D01*
X44075028Y41595000D01*
X43586447Y41497815D01*
X43032392Y41127608D01*
X42662185Y40573553D01*
X42532185Y39920000D01*
X42662185Y39266447D01*
X43032392Y38712392D01*
X43586447Y38342185D01*
X44075028Y38245000D01*
X45924972Y38245000D01*
X46126065Y38285000D01*
X48638970Y38285000D01*
X48800000Y38252969D01*
X48961030Y38285000D01*
X48961031Y38285000D01*
X49437945Y38379864D01*
X49978769Y38741231D01*
X50069988Y38877750D01*
X51257240Y40065001D01*
X52115000Y40065001D01*
X52115000Y38785750D01*
X52273750Y38627000D01*
X53873000Y38627000D01*
X53873000Y38647000D01*
X54127000Y38647000D01*
X54127000Y38627000D01*
X55726250Y38627000D01*
X55885000Y38785750D01*
X55885000Y40626309D01*
X55875043Y40650346D01*
X55879991Y40657751D01*
X59936490Y44714250D01*
X64615000Y44714250D01*
X64615000Y42873691D01*
X64711673Y42640302D01*
X64890301Y42461673D01*
X65123690Y42365000D01*
X66214250Y42365000D01*
X66373000Y42523750D01*
X66373000Y44873000D01*
X66627000Y44873000D01*
X66627000Y42523750D01*
X66785750Y42365000D01*
X67876310Y42365000D01*
X68109699Y42461673D01*
X68288327Y42640302D01*
X68385000Y42873691D01*
X68385000Y44714250D01*
X68226250Y44873000D01*
X66627000Y44873000D01*
X66373000Y44873000D01*
X64773750Y44873000D01*
X64615000Y44714250D01*
X59936490Y44714250D01*
X62348549Y47126309D01*
X64615000Y47126309D01*
X64615000Y45285750D01*
X64773750Y45127000D01*
X66373000Y45127000D01*
X66373000Y47476250D01*
X66627000Y47476250D01*
X66627000Y45127000D01*
X68226250Y45127000D01*
X68385000Y45285750D01*
X68385000Y47126309D01*
X68288327Y47359698D01*
X68109699Y47538327D01*
X67876310Y47635000D01*
X66785750Y47635000D01*
X66627000Y47476250D01*
X66373000Y47476250D01*
X66214250Y47635000D01*
X65123690Y47635000D01*
X64890301Y47538327D01*
X64711673Y47359698D01*
X64615000Y47126309D01*
X62348549Y47126309D01*
X65436490Y50214250D01*
X74915000Y50214250D01*
X74915000Y49523690D01*
X75011673Y49290301D01*
X75190302Y49111673D01*
X75423691Y49015000D01*
X75714250Y49015000D01*
X75873000Y49173750D01*
X75873000Y50373000D01*
X76127000Y50373000D01*
X76127000Y49173750D01*
X76285750Y49015000D01*
X76576309Y49015000D01*
X76809698Y49111673D01*
X76988327Y49290301D01*
X77085000Y49523690D01*
X77085000Y50214250D01*
X76926250Y50373000D01*
X76127000Y50373000D01*
X75873000Y50373000D01*
X75073750Y50373000D01*
X74915000Y50214250D01*
X65436490Y50214250D01*
X65970253Y50748012D01*
X66106769Y50839229D01*
X66468136Y51380053D01*
X66487282Y51476310D01*
X74915000Y51476310D01*
X74915000Y50785750D01*
X75073750Y50627000D01*
X75873000Y50627000D01*
X75873000Y51826250D01*
X76127000Y51826250D01*
X76127000Y50627000D01*
X76926250Y50627000D01*
X77085000Y50785750D01*
X77085000Y51476310D01*
X76988327Y51709699D01*
X76809698Y51888327D01*
X76576309Y51985000D01*
X76285750Y51985000D01*
X76127000Y51826250D01*
X75873000Y51826250D01*
X75714250Y51985000D01*
X75423691Y51985000D01*
X75190302Y51888327D01*
X75011673Y51709699D01*
X74915000Y51476310D01*
X66487282Y51476310D01*
X66555957Y51821560D01*
X66643000Y51821560D01*
X66890765Y51870843D01*
X67100809Y52011191D01*
X67241157Y52221235D01*
X67290440Y52469000D01*
X67290440Y54078250D01*
X78450000Y54078250D01*
X78450000Y52842690D01*
X78546673Y52609301D01*
X78725302Y52430673D01*
X78958691Y52334000D01*
X80514250Y52334000D01*
X80673000Y52492750D01*
X80673000Y54237000D01*
X78608750Y54237000D01*
X78450000Y54078250D01*
X67290440Y54078250D01*
X67290440Y55259000D01*
X67241157Y55506765D01*
X67100809Y55716809D01*
X66890765Y55857157D01*
X66749229Y55885310D01*
X78450000Y55885310D01*
X78450000Y54649750D01*
X78608750Y54491000D01*
X80673000Y54491000D01*
X80673000Y56235250D01*
X80514250Y56394000D01*
X78958691Y56394000D01*
X78725302Y56297327D01*
X78546673Y56118699D01*
X78450000Y55885310D01*
X66749229Y55885310D01*
X66643000Y55906440D01*
X63213000Y55906440D01*
X62965235Y55857157D01*
X62896000Y55810895D01*
X62826765Y55857157D01*
X62579000Y55906440D01*
X59149000Y55906440D01*
X58901235Y55857157D01*
X58835804Y55813437D01*
X58641309Y55894000D01*
X57085750Y55894000D01*
X56927000Y55735250D01*
X56927000Y53991000D01*
X56947000Y53991000D01*
X56947000Y53737000D01*
X56927000Y53737000D01*
X56927000Y53717000D01*
X56673000Y53717000D01*
X56673000Y53737000D01*
X54608750Y53737000D01*
X54450000Y53578250D01*
X54450000Y52342690D01*
X54546673Y52109301D01*
X54725302Y51930673D01*
X54958691Y51834000D01*
X56185975Y51834000D01*
X56061673Y51709699D01*
X55965000Y51476310D01*
X55965000Y50785750D01*
X56123750Y50627000D01*
X56923000Y50627000D01*
X56923000Y50647000D01*
X57177000Y50647000D01*
X57177000Y50627000D01*
X57976250Y50627000D01*
X58135000Y50785750D01*
X58135000Y51476310D01*
X58038327Y51709699D01*
X57914025Y51834000D01*
X58641309Y51834000D01*
X58815001Y51905945D01*
X58815000Y50388218D01*
X58852560Y50199390D01*
X58852560Y49650000D01*
X58901843Y49402235D01*
X59042191Y49192191D01*
X59252235Y49051843D01*
X59500000Y49002560D01*
X59600323Y49002560D01*
X55897440Y45299676D01*
X55897440Y48500000D01*
X55848157Y48747765D01*
X55707809Y48957809D01*
X55497765Y49098157D01*
X55250000Y49147440D01*
X53664799Y49147440D01*
X53609000Y49203239D01*
X53609000Y50214250D01*
X55965000Y50214250D01*
X55965000Y49523690D01*
X56061673Y49290301D01*
X56240302Y49111673D01*
X56473691Y49015000D01*
X56764250Y49015000D01*
X56923000Y49173750D01*
X56923000Y50373000D01*
X57177000Y50373000D01*
X57177000Y49173750D01*
X57335750Y49015000D01*
X57626309Y49015000D01*
X57859698Y49111673D01*
X58038327Y49290301D01*
X58135000Y49523690D01*
X58135000Y50214250D01*
X57976250Y50373000D01*
X57177000Y50373000D01*
X56923000Y50373000D01*
X56123750Y50373000D01*
X55965000Y50214250D01*
X53609000Y50214250D01*
X53609000Y55385310D01*
X54450000Y55385310D01*
X54450000Y54149750D01*
X54608750Y53991000D01*
X56673000Y53991000D01*
X56673000Y55735250D01*
X56514250Y55894000D01*
X54958691Y55894000D01*
X54725302Y55797327D01*
X54546673Y55618699D01*
X54450000Y55385310D01*
X53609000Y55385310D01*
X53609000Y60457560D01*
X53689000Y60457560D01*
X53936765Y60506843D01*
X54146809Y60647191D01*
X54287157Y60857235D01*
X54288702Y60865000D01*
X55011762Y60865000D01*
X57334015Y58542746D01*
X57425232Y58406230D01*
X57966056Y58044863D01*
X58442970Y57949999D01*
X58442971Y57949999D01*
X58604001Y57917968D01*
X58765031Y57949999D01*
X72077969Y57949999D01*
X72238999Y57917968D01*
X72400029Y57949999D01*
X72400030Y57949999D01*
X72876944Y58044863D01*
X73417768Y58406230D01*
X73508987Y58542749D01*
X75923799Y60957560D01*
X77689000Y60957560D01*
X77936765Y61006843D01*
X78146809Y61147191D01*
X78287157Y61357235D01*
X78336440Y61605000D01*
X78336440Y64265000D01*
X91457560Y64265000D01*
X91457560Y61285000D01*
X91457560Y61285000D01*
G37*
X91457560Y61285000D02*
X91506843Y61037235D01*
X91647191Y60827191D01*
X91857235Y60686843D01*
X92105000Y60637560D01*
X94265000Y60637560D01*
X94265001Y13377552D01*
X94126309Y13435000D01*
X93785750Y13435000D01*
X93627000Y13276250D01*
X93627000Y12127000D01*
X93647000Y12127000D01*
X93647000Y11873000D01*
X93627000Y11873000D01*
X93627000Y10723750D01*
X93785750Y10565000D01*
X94126309Y10565000D01*
X94265001Y10622448D01*
X94265001Y710000D01*
X72807647Y710000D01*
X73001942Y956980D01*
X73175000Y1573000D01*
X73175000Y1873000D01*
X71667000Y1873000D01*
X71667000Y1853000D01*
X71413000Y1853000D01*
X71413000Y1873000D01*
X71393000Y1873000D01*
X71393000Y2127000D01*
X71413000Y2127000D01*
X71413000Y3770777D01*
X71667000Y3770777D01*
X71667000Y2127000D01*
X73175000Y2127000D01*
X73175000Y2427000D01*
X73001942Y3043020D01*
X72606317Y3545922D01*
X72048355Y3859144D01*
X71920434Y3890124D01*
X71667000Y3770777D01*
X71413000Y3770777D01*
X71159566Y3890124D01*
X71031645Y3859144D01*
X70565099Y3597240D01*
X70457809Y3757809D01*
X70315965Y3852587D01*
X70178769Y4057915D01*
X70042253Y4149132D01*
X66213512Y7977872D01*
X67673396Y7977872D01*
X67832146Y8136622D01*
X67832146Y9735872D01*
X68086146Y9735872D01*
X68086146Y8136622D01*
X68244896Y7977872D01*
X70085455Y7977872D01*
X70318844Y8074545D01*
X70497473Y8253173D01*
X70594146Y8486562D01*
X70594146Y9577122D01*
X70435396Y9735872D01*
X68086146Y9735872D01*
X67832146Y9735872D01*
X65482896Y9735872D01*
X65324146Y9577122D01*
X65324146Y8867238D01*
X63803404Y10387980D01*
X63768354Y10564188D01*
X63403451Y11110305D01*
X63252457Y11211196D01*
X63288086Y11239182D01*
X65324146Y11239182D01*
X65324146Y10148622D01*
X65482896Y9989872D01*
X67832146Y9989872D01*
X67832146Y11589122D01*
X68086146Y11589122D01*
X68086146Y9989872D01*
X70435396Y9989872D01*
X70594146Y10148622D01*
X70594146Y11239182D01*
X70497473Y11472571D01*
X70318844Y11651199D01*
X70085455Y11747872D01*
X68244896Y11747872D01*
X68086146Y11589122D01*
X67832146Y11589122D01*
X67673396Y11747872D01*
X65832837Y11747872D01*
X65599448Y11651199D01*
X65420819Y11472571D01*
X65324146Y11239182D01*
X63288086Y11239182D01*
X63470382Y11382370D01*
X63787072Y11945523D01*
X63819121Y12077056D01*
X63699982Y12333000D01*
X62086146Y12333000D01*
X62086146Y12313000D01*
X61832146Y12313000D01*
X61832146Y12333000D01*
X61812146Y12333000D01*
X61812146Y12587000D01*
X61832146Y12587000D01*
X61832146Y12607000D01*
X62086146Y12607000D01*
X62086146Y12587000D01*
X63699982Y12587000D01*
X63819121Y12842944D01*
X63787072Y12974477D01*
X63470382Y13537630D01*
X63252457Y13708804D01*
X63403451Y13809695D01*
X63768354Y14355812D01*
X63803404Y14532019D01*
X64550957Y15279573D01*
X64687474Y15370790D01*
X64792085Y15527352D01*
X66673396Y15527352D01*
X66832146Y15686102D01*
X66832146Y17485692D01*
X67086146Y17485692D01*
X67086146Y15686102D01*
X67244896Y15527352D01*
X69335896Y15527352D01*
X69569285Y15624025D01*
X69747913Y15802654D01*
X69844586Y16036043D01*
X69844586Y17326942D01*
X74073706Y17326942D01*
X74073706Y16036043D01*
X74170379Y15802654D01*
X74349007Y15624025D01*
X74582396Y15527352D01*
X76673396Y15527352D01*
X76832146Y15686102D01*
X76832146Y17485692D01*
X74232456Y17485692D01*
X74073706Y17326942D01*
X69844586Y17326942D01*
X69685836Y17485692D01*
X67086146Y17485692D01*
X66832146Y17485692D01*
X66812146Y17485692D01*
X66812146Y17739692D01*
X66832146Y17739692D01*
X66832146Y17759692D01*
X67086146Y17759692D01*
X67086146Y17739692D01*
X69685836Y17739692D01*
X69844586Y17898442D01*
X69844586Y18865000D01*
X74073706Y18865000D01*
X74073706Y17898442D01*
X74232456Y17739692D01*
X76832146Y17739692D01*
X76832146Y17759692D01*
X77086146Y17759692D01*
X77086146Y17739692D01*
X77106146Y17739692D01*
X77106146Y17485692D01*
X77086146Y17485692D01*
X77086146Y15686102D01*
X77244896Y15527352D01*
X78422349Y15527352D01*
X74916896Y12021898D01*
X74780377Y11930679D01*
X74666542Y11760312D01*
X73959146Y11760312D01*
X73711381Y11711029D01*
X73501337Y11570681D01*
X73360989Y11360637D01*
X73311706Y11112872D01*
X73311706Y8612872D01*
X73360989Y8365107D01*
X73501337Y8155063D01*
X73711381Y8014715D01*
X73959146Y7965432D01*
X75134346Y7965432D01*
X77529158Y5570619D01*
X77620375Y5434103D01*
X77796291Y5316560D01*
X78161198Y5072736D01*
X78799144Y4945841D01*
X78960175Y4977872D01*
X84798116Y4977872D01*
X84959146Y4945841D01*
X85120176Y4977872D01*
X85120177Y4977872D01*
X85597091Y5072736D01*
X86137915Y5434103D01*
X86229134Y5570622D01*
X88623945Y7965432D01*
X90959146Y7965432D01*
X91206911Y8014715D01*
X91416955Y8155063D01*
X91557303Y8365107D01*
X91606586Y8612872D01*
X91606586Y10163170D01*
X91637915Y10184103D01*
X91999282Y10724927D01*
X92094146Y11201841D01*
X92094146Y11201845D01*
X92126176Y11362871D01*
X92094146Y11523897D01*
X92094146Y11714250D01*
X92365000Y11714250D01*
X92365000Y11073690D01*
X92461673Y10840301D01*
X92640302Y10661673D01*
X92873691Y10565000D01*
X93214250Y10565000D01*
X93373000Y10723750D01*
X93373000Y11873000D01*
X92523750Y11873000D01*
X92365000Y11714250D01*
X92094146Y11714250D01*
X92094146Y12926310D01*
X92365000Y12926310D01*
X92365000Y12285750D01*
X92523750Y12127000D01*
X93373000Y12127000D01*
X93373000Y13276250D01*
X93214250Y13435000D01*
X92873691Y13435000D01*
X92640302Y13338327D01*
X92461673Y13159699D01*
X92365000Y12926310D01*
X92094146Y12926310D01*
X92094146Y17023903D01*
X91999282Y17500817D01*
X91637915Y18041641D01*
X91343433Y18238407D01*
X91443327Y18338301D01*
X91540000Y18571690D01*
X91540000Y19174250D01*
X91381250Y19333000D01*
X90397000Y19333000D01*
X90397000Y19313000D01*
X90143000Y19313000D01*
X90143000Y19333000D01*
X90123000Y19333000D01*
X90123000Y19587000D01*
X90143000Y19587000D01*
X90143000Y20698250D01*
X90397000Y20698250D01*
X90397000Y19587000D01*
X91381250Y19587000D01*
X91540000Y19745750D01*
X91540000Y20348310D01*
X91443327Y20581699D01*
X91264698Y20760327D01*
X91031309Y20857000D01*
X90555750Y20857000D01*
X90397000Y20698250D01*
X90143000Y20698250D01*
X89984250Y20857000D01*
X89508691Y20857000D01*
X89275302Y20760327D01*
X89096673Y20581699D01*
X89000000Y20348310D01*
X89000000Y20284541D01*
X88963157Y20469765D01*
X88822809Y20679809D01*
X88612765Y20820157D01*
X88365000Y20869440D01*
X87095000Y20869440D01*
X87094146Y20869270D01*
X87094146Y24840723D01*
X87717560Y24217308D01*
X87717560Y23778000D01*
X87766843Y23530235D01*
X87907191Y23320191D01*
X88117235Y23179843D01*
X88365000Y23130560D01*
X89635000Y23130560D01*
X89882765Y23179843D01*
X90092809Y23320191D01*
X90233157Y23530235D01*
X90282440Y23778000D01*
X90282440Y25302000D01*
X90233157Y25549765D01*
X90092809Y25759809D01*
X89882765Y25900157D01*
X89635000Y25949440D01*
X89195692Y25949440D01*
X89004699Y26140432D01*
X89909146Y26140432D01*
X90156911Y26189715D01*
X90366955Y26330063D01*
X90507303Y26540107D01*
X90556586Y26787872D01*
X90556586Y31387872D01*
X90507303Y31635637D01*
X90366955Y31845681D01*
X90156911Y31986029D01*
X89909146Y32035312D01*
X88809146Y32035312D01*
X88561381Y31986029D01*
X88509146Y31951126D01*
X88456911Y31986029D01*
X88209146Y32035312D01*
X87109146Y32035312D01*
X87094146Y32032328D01*
X87094146Y32890432D01*
X91359146Y32890432D01*
X91606911Y32939715D01*
X91816955Y33080063D01*
X91957303Y33290107D01*
X92006586Y33537872D01*
X92006586Y42937872D01*
X91957303Y43185637D01*
X91816955Y43395681D01*
X91606911Y43536029D01*
X91359146Y43585312D01*
X87038355Y43585312D01*
X88143749Y44690705D01*
X88144187Y44690792D01*
X88690305Y45055695D01*
X88770000Y45174967D01*
X88849695Y45055695D01*
X89395812Y44690792D01*
X90040000Y44562655D01*
X90684187Y44690792D01*
X91230305Y45055695D01*
X91595208Y45601812D01*
X91691000Y46083391D01*
X91691000Y46916608D01*
X91675000Y46997046D01*
X91675000Y47514978D01*
X91707031Y47676009D01*
X91580136Y48313955D01*
X91349006Y48659864D01*
X91333028Y48683778D01*
X91373000Y48723750D01*
X91373000Y50373000D01*
X91627000Y50373000D01*
X91627000Y48723750D01*
X91785750Y48565000D01*
X92626309Y48565000D01*
X92859698Y48661673D01*
X93038327Y48840301D01*
X93135000Y49073690D01*
X93135000Y50214250D01*
X92976250Y50373000D01*
X91627000Y50373000D01*
X91373000Y50373000D01*
X91353000Y50373000D01*
X91353000Y50627000D01*
X91373000Y50627000D01*
X91373000Y52276250D01*
X91627000Y52276250D01*
X91627000Y50627000D01*
X92976250Y50627000D01*
X93135000Y50785750D01*
X93135000Y51926310D01*
X93038327Y52159699D01*
X92859698Y52338327D01*
X92626309Y52435000D01*
X91785750Y52435000D01*
X91627000Y52276250D01*
X91373000Y52276250D01*
X91214250Y52435000D01*
X90986782Y52435000D01*
X91100809Y52511191D01*
X91241157Y52721235D01*
X91290440Y52969000D01*
X91290440Y55759000D01*
X91241157Y56006765D01*
X91100809Y56216809D01*
X90890765Y56357157D01*
X90643000Y56406440D01*
X87213000Y56406440D01*
X86965235Y56357157D01*
X86896000Y56310895D01*
X86826765Y56357157D01*
X86579000Y56406440D01*
X83149000Y56406440D01*
X82901235Y56357157D01*
X82835804Y56313437D01*
X82641309Y56394000D01*
X81085750Y56394000D01*
X80927000Y56235250D01*
X80927000Y54491000D01*
X80947000Y54491000D01*
X80947000Y54237000D01*
X80927000Y54237000D01*
X80927000Y52492750D01*
X81085750Y52334000D01*
X81631317Y52334000D01*
X81182317Y51885000D01*
X79692285Y51885000D01*
X79597765Y51948157D01*
X79350000Y51997440D01*
X78450000Y51997440D01*
X78202235Y51948157D01*
X77992191Y51807809D01*
X77851843Y51597765D01*
X77802701Y51350709D01*
X77595359Y51040400D01*
X77487867Y50500000D01*
X77595359Y49959600D01*
X77802701Y49649291D01*
X77851843Y49402235D01*
X77992191Y49192191D01*
X78202235Y49051843D01*
X78450000Y49002560D01*
X79350000Y49002560D01*
X79597765Y49051843D01*
X79692285Y49115000D01*
X81619595Y49115000D01*
X81756002Y49087867D01*
X81892409Y49115000D01*
X82296402Y49195359D01*
X82754531Y49501471D01*
X82831801Y49617114D01*
X83369517Y50154830D01*
X83292969Y49770000D01*
X83325001Y49608966D01*
X83325000Y46997047D01*
X83309000Y46916609D01*
X83309000Y46083392D01*
X83404792Y45601813D01*
X83624582Y45272873D01*
X78546194Y45272873D01*
X78409788Y45300006D01*
X78273382Y45272873D01*
X77869389Y45192514D01*
X77411260Y44886402D01*
X77333991Y44770761D01*
X68397440Y35834209D01*
X68397440Y35996821D01*
X68511126Y36166964D01*
X68676826Y36999999D01*
X68511126Y37833035D01*
X68397440Y38003178D01*
X68397440Y39000000D01*
X68348157Y39247765D01*
X68207809Y39457809D01*
X67997765Y39598157D01*
X67750000Y39647440D01*
X65250000Y39647440D01*
X65002235Y39598157D01*
X64792191Y39457809D01*
X64651843Y39247765D01*
X64602560Y39000000D01*
X64602560Y38121906D01*
X59689009Y33208354D01*
X59510741Y33089239D01*
X59038864Y32383025D01*
X58914990Y31760268D01*
X58914990Y31760265D01*
X58873164Y31549990D01*
X58914990Y31339715D01*
X58914990Y27652983D01*
X58813250Y27805248D01*
X58107037Y28277125D01*
X57484280Y28400999D01*
X57484276Y28400999D01*
X57297910Y28438069D01*
X57630956Y29272591D01*
X57618641Y30221323D01*
X57279271Y31040636D01*
X56934528Y31230923D01*
X55419605Y29716000D01*
X55433748Y29701857D01*
X55254143Y29522252D01*
X55240000Y29536395D01*
X55225858Y29522252D01*
X55046253Y29701857D01*
X55060395Y29716000D01*
X53545472Y31230923D01*
X53379556Y31139343D01*
X53108371Y31410528D01*
X53725077Y31410528D01*
X55240000Y29895605D01*
X56754923Y31410528D01*
X56564636Y31755271D01*
X55683409Y32106956D01*
X54734677Y32094641D01*
X53915364Y31755271D01*
X53725077Y31410528D01*
X53108371Y31410528D01*
X52780994Y31737905D01*
X51904406Y32101000D01*
X50955594Y32101000D01*
X50079006Y31737905D01*
X49525000Y31183899D01*
X49432015Y31276884D01*
X50157692Y32002560D01*
X50500000Y32002560D01*
X50747765Y32051843D01*
X50957809Y32192191D01*
X51098157Y32402235D01*
X51147440Y32650000D01*
X51147440Y33199389D01*
X51150396Y33214250D01*
X51865000Y33214250D01*
X51865000Y32523690D01*
X51961673Y32290301D01*
X52140302Y32111673D01*
X52373691Y32015000D01*
X52664250Y32015000D01*
X52823000Y32173750D01*
X52823000Y33373000D01*
X53077000Y33373000D01*
X53077000Y32173750D01*
X53235750Y32015000D01*
X53526309Y32015000D01*
X53759698Y32111673D01*
X53938327Y32290301D01*
X54035000Y32523690D01*
X54035000Y33214250D01*
X53876250Y33373000D01*
X53077000Y33373000D01*
X52823000Y33373000D01*
X52023750Y33373000D01*
X51865000Y33214250D01*
X51150396Y33214250D01*
X51207235Y33500000D01*
X51147440Y33800610D01*
X51147440Y34350000D01*
X51122316Y34476310D01*
X51865000Y34476310D01*
X51865000Y33785750D01*
X52023750Y33627000D01*
X52823000Y33627000D01*
X52823000Y34826250D01*
X53077000Y34826250D01*
X53077000Y33627000D01*
X53876250Y33627000D01*
X54035000Y33785750D01*
X54035000Y34476310D01*
X53938327Y34709699D01*
X53759698Y34888327D01*
X53526309Y34985000D01*
X53235750Y34985000D01*
X53077000Y34826250D01*
X52823000Y34826250D01*
X52664250Y34985000D01*
X52373691Y34985000D01*
X52140302Y34888327D01*
X51961673Y34709699D01*
X51865000Y34476310D01*
X51122316Y34476310D01*
X51098157Y34597765D01*
X50957809Y34807809D01*
X50747765Y34948157D01*
X50500000Y34997440D01*
X49600000Y34997440D01*
X49352235Y34948157D01*
X49142191Y34807809D01*
X49001843Y34597765D01*
X48952560Y34350000D01*
X48952560Y34007692D01*
X46975353Y32030484D01*
X46269006Y31737905D01*
X45715000Y31183899D01*
X45160994Y31737905D01*
X44284406Y32101000D01*
X43335594Y32101000D01*
X42562769Y31780885D01*
X42000000Y31892826D01*
X41308871Y31755353D01*
X40474406Y32101000D01*
X39525594Y32101000D01*
X38649006Y31737905D01*
X37978095Y31066994D01*
X37615000Y30190406D01*
X37615000Y29241594D01*
X37978095Y28365006D01*
X38649006Y27694095D01*
X39525594Y27331000D01*
X40474406Y27331000D01*
X41104614Y27592041D01*
X43791638Y24905016D01*
X43910752Y24726750D01*
X44616965Y24254873D01*
X45239722Y24130999D01*
X45239725Y24130999D01*
X45450000Y24089173D01*
X45660275Y24130999D01*
X56389656Y24130999D01*
X58661463Y21859191D01*
X58565000Y21626309D01*
X58565000Y20785750D01*
X58723750Y20627000D01*
X60373000Y20627000D01*
X60373000Y20647000D01*
X60627000Y20647000D01*
X60627000Y20627000D01*
X60647000Y20627000D01*
X60647000Y20373000D01*
X60627000Y20373000D01*
X60627000Y19023750D01*
X60785750Y18865000D01*
X61873705Y18865000D01*
X61873706Y17226798D01*
X61237166Y16590258D01*
X61060958Y16555208D01*
X60514841Y16190305D01*
X60149938Y15644188D01*
X60021801Y15000000D01*
X60034777Y14934763D01*
X58871483Y13771468D01*
X58776712Y13708144D01*
X58569586Y13398157D01*
X58545721Y13362440D01*
X56105000Y13362440D01*
X55857235Y13313157D01*
X55647191Y13172809D01*
X55506843Y12962765D01*
X55457560Y12715000D01*
X55457560Y9285000D01*
X55506843Y9037235D01*
X55647191Y8827191D01*
X55857235Y8686843D01*
X56105000Y8637560D01*
X58895000Y8637560D01*
X59142765Y8686843D01*
X59352809Y8827191D01*
X59493157Y9037235D01*
X59542440Y9285000D01*
X59542440Y10477575D01*
X60034777Y9985237D01*
X60021801Y9920000D01*
X60149938Y9275812D01*
X60514841Y8729695D01*
X61060958Y8364792D01*
X61237166Y8329742D01*
X67352560Y2214347D01*
X67352560Y710000D01*
X62765263Y710000D01*
X62840136Y822055D01*
X62967031Y1460000D01*
X62840136Y2097945D01*
X62610670Y2441365D01*
X62659699Y2461673D01*
X62838327Y2640302D01*
X62935000Y2873691D01*
X62935000Y3714250D01*
X62776250Y3873000D01*
X61127000Y3873000D01*
X61127000Y3853000D01*
X60873000Y3853000D01*
X60873000Y3873000D01*
X59223750Y3873000D01*
X59065000Y3714250D01*
X59065000Y3095000D01*
X55290440Y3095000D01*
X55290440Y3759000D01*
X55241157Y4006765D01*
X55100809Y4216809D01*
X54890765Y4357157D01*
X54643000Y4406440D01*
X51213000Y4406440D01*
X50965235Y4357157D01*
X50896000Y4310895D01*
X50826765Y4357157D01*
X50579000Y4406440D01*
X47149000Y4406440D01*
X46901235Y4357157D01*
X46835804Y4313437D01*
X46641309Y4394000D01*
X45085750Y4394000D01*
X44927000Y4235250D01*
X44927000Y2491000D01*
X44947000Y2491000D01*
X44947000Y2237000D01*
X44927000Y2237000D01*
X44927000Y2217000D01*
X44673000Y2217000D01*
X44673000Y2237000D01*
X42608750Y2237000D01*
X42450000Y2078250D01*
X42450000Y1403999D01*
X38797580Y1403999D01*
X38537425Y1664154D01*
X38488049Y1738049D01*
X38195310Y1933652D01*
X37937165Y1985000D01*
X37937161Y1985000D01*
X37850000Y2002337D01*
X37815986Y1995571D01*
X37807809Y2007809D01*
X37597765Y2148157D01*
X37350000Y2197440D01*
X35650000Y2197440D01*
X35402235Y2148157D01*
X35192191Y2007809D01*
X35051843Y1797765D01*
X35002560Y1550000D01*
X35002560Y710000D01*
X33627000Y710000D01*
X33627000Y3714250D01*
X35015000Y3714250D01*
X35015000Y3423691D01*
X35111673Y3190302D01*
X35290301Y3011673D01*
X35523690Y2915000D01*
X36214250Y2915000D01*
X36373000Y3073750D01*
X36373000Y3873000D01*
X36627000Y3873000D01*
X36627000Y3073750D01*
X36785750Y2915000D01*
X37476310Y2915000D01*
X37709699Y3011673D01*
X37888327Y3190302D01*
X37985000Y3423691D01*
X37985000Y3714250D01*
X37826250Y3873000D01*
X36627000Y3873000D01*
X36373000Y3873000D01*
X35173750Y3873000D01*
X35015000Y3714250D01*
X33627000Y3714250D01*
X33627000Y3885310D01*
X42450000Y3885310D01*
X42450000Y2649750D01*
X42608750Y2491000D01*
X44673000Y2491000D01*
X44673000Y4235250D01*
X44514250Y4394000D01*
X42958691Y4394000D01*
X42725302Y4297327D01*
X42546673Y4118699D01*
X42450000Y3885310D01*
X33627000Y3885310D01*
X33627000Y4576309D01*
X35015000Y4576309D01*
X35015000Y4285750D01*
X35173750Y4127000D01*
X36373000Y4127000D01*
X36373000Y4926250D01*
X36627000Y4926250D01*
X36627000Y4127000D01*
X37826250Y4127000D01*
X37985000Y4285750D01*
X37985000Y4576309D01*
X37888327Y4809698D01*
X37709699Y4988327D01*
X37476310Y5085000D01*
X36785750Y5085000D01*
X36627000Y4926250D01*
X36373000Y4926250D01*
X36214250Y5085000D01*
X35523690Y5085000D01*
X35290301Y4988327D01*
X35111673Y4809698D01*
X35015000Y4576309D01*
X33627000Y4576309D01*
X33627000Y5126309D01*
X59065000Y5126309D01*
X59065000Y4285750D01*
X59223750Y4127000D01*
X60873000Y4127000D01*
X60873000Y5476250D01*
X61127000Y5476250D01*
X61127000Y4127000D01*
X62776250Y4127000D01*
X62935000Y4285750D01*
X62935000Y5126309D01*
X62838327Y5359698D01*
X62659699Y5538327D01*
X62426310Y5635000D01*
X61285750Y5635000D01*
X61127000Y5476250D01*
X60873000Y5476250D01*
X60714250Y5635000D01*
X59573690Y5635000D01*
X59340301Y5538327D01*
X59161673Y5359698D01*
X59065000Y5126309D01*
X33627000Y5126309D01*
X33627000Y22875881D01*
X33667102Y22849086D01*
X38571644Y17944543D01*
X37978095Y17350994D01*
X37615000Y16474406D01*
X37615000Y15525594D01*
X37978095Y14649006D01*
X38365000Y14262101D01*
X38365001Y13042440D01*
X38259000Y13042440D01*
X38011235Y12993157D01*
X37801191Y12852809D01*
X37660843Y12642765D01*
X37611560Y12395000D01*
X37611560Y9605000D01*
X37660843Y9357235D01*
X37801191Y9147191D01*
X38011235Y9006843D01*
X38259000Y8957560D01*
X41689000Y8957560D01*
X41936765Y9006843D01*
X42146809Y9147191D01*
X42287157Y9357235D01*
X42336440Y9605000D01*
X42336440Y12395000D01*
X42287157Y12642765D01*
X42146809Y12852809D01*
X41936765Y12993157D01*
X41689000Y13042440D01*
X41635000Y13042440D01*
X41635000Y14262101D01*
X42021905Y14649006D01*
X42385000Y15525594D01*
X42385000Y16474406D01*
X45235000Y16474406D01*
X45235000Y15525594D01*
X45598095Y14649006D01*
X46269006Y13978095D01*
X47145594Y13615000D01*
X48094406Y13615000D01*
X48970994Y13978095D01*
X49298371Y14305472D01*
X53725077Y14305472D01*
X53915364Y13960729D01*
X54796591Y13609044D01*
X55745323Y13621359D01*
X56564636Y13960729D01*
X56754923Y14305472D01*
X55240000Y15820395D01*
X53725077Y14305472D01*
X49298371Y14305472D01*
X49641905Y14649006D01*
X50005000Y15525594D01*
X50005000Y16443409D01*
X52849044Y16443409D01*
X52861359Y15494677D01*
X53200729Y14675364D01*
X53545472Y14485077D01*
X55060395Y16000000D01*
X55419605Y16000000D01*
X56934528Y14485077D01*
X57279271Y14675364D01*
X57630956Y15556591D01*
X57618641Y16505323D01*
X57279271Y17324636D01*
X56934528Y17514923D01*
X55419605Y16000000D01*
X55060395Y16000000D01*
X53545472Y17514923D01*
X53200729Y17324636D01*
X52849044Y16443409D01*
X50005000Y16443409D01*
X50005000Y16474406D01*
X49641905Y17350994D01*
X49298371Y17694528D01*
X53725077Y17694528D01*
X55240000Y16179605D01*
X56754923Y17694528D01*
X56564636Y18039271D01*
X55683409Y18390956D01*
X54734677Y18378641D01*
X53915364Y18039271D01*
X53725077Y17694528D01*
X49298371Y17694528D01*
X48970994Y18021905D01*
X48094406Y18385000D01*
X47145594Y18385000D01*
X46269006Y18021905D01*
X45598095Y17350994D01*
X45235000Y16474406D01*
X42385000Y16474406D01*
X42021905Y17350994D01*
X41385000Y17987899D01*
X41385000Y18338468D01*
X41412133Y18474874D01*
X41377895Y18646998D01*
X41304641Y19015273D01*
X40998529Y19473402D01*
X40882888Y19550671D01*
X40219309Y20214250D01*
X58565000Y20214250D01*
X58565000Y19373691D01*
X58661673Y19140302D01*
X58840301Y18961673D01*
X59073690Y18865000D01*
X60214250Y18865000D01*
X60373000Y19023750D01*
X60373000Y20373000D01*
X58723750Y20373000D01*
X58565000Y20214250D01*
X40219309Y20214250D01*
X35934990Y24498568D01*
X35934990Y38214250D01*
X52115000Y38214250D01*
X52115000Y36373691D01*
X52211673Y36140302D01*
X52390301Y35961673D01*
X52623690Y35865000D01*
X53714250Y35865000D01*
X53873000Y36023750D01*
X53873000Y38373000D01*
X54127000Y38373000D01*
X54127000Y36023750D01*
X54285750Y35865000D01*
X55376310Y35865000D01*
X55609699Y35961673D01*
X55788327Y36140302D01*
X55885000Y36373691D01*
X55885000Y38214250D01*
X55726250Y38373000D01*
X54127000Y38373000D01*
X53873000Y38373000D01*
X52273750Y38373000D01*
X52115000Y38214250D01*
X35934990Y38214250D01*
X35934990Y44714250D01*
X42565000Y44714250D01*
X42565000Y43833691D01*
X42661673Y43600302D01*
X42840301Y43421673D01*
X43073690Y43325000D01*
X44714250Y43325000D01*
X44873000Y43483750D01*
X44873000Y44873000D01*
X45127000Y44873000D01*
X45127000Y43483750D01*
X45285750Y43325000D01*
X46926310Y43325000D01*
X47159699Y43421673D01*
X47338327Y43600302D01*
X47435000Y43833691D01*
X47435000Y44714250D01*
X47276250Y44873000D01*
X45127000Y44873000D01*
X44873000Y44873000D01*
X42723750Y44873000D01*
X42565000Y44714250D01*
X35934990Y44714250D01*
X35934990Y46166309D01*
X42565000Y46166309D01*
X42565000Y45285750D01*
X42723750Y45127000D01*
X44873000Y45127000D01*
X44873000Y46516250D01*
X45127000Y46516250D01*
X45127000Y45127000D01*
X47276250Y45127000D01*
X47435000Y45285750D01*
X47435000Y46166309D01*
X47338327Y46399698D01*
X47159699Y46578327D01*
X46926310Y46675000D01*
X45285750Y46675000D01*
X45127000Y46516250D01*
X44873000Y46516250D01*
X44714250Y46675000D01*
X43073690Y46675000D01*
X42840301Y46578327D01*
X42661673Y46399698D01*
X42565000Y46166309D01*
X35934990Y46166309D01*
X35934990Y49122751D01*
X36042253Y49230014D01*
X36178769Y49321231D01*
X36540136Y49862055D01*
X36635000Y50338969D01*
X36635000Y50338973D01*
X36667030Y50499999D01*
X36635000Y50661025D01*
X36635000Y60214250D01*
X42565000Y60214250D01*
X42565000Y59333691D01*
X42661673Y59100302D01*
X42840301Y58921673D01*
X43073690Y58825000D01*
X44714250Y58825000D01*
X44873000Y58983750D01*
X44873000Y60373000D01*
X45127000Y60373000D01*
X45127000Y58983750D01*
X45285750Y58825000D01*
X46926310Y58825000D01*
X47159699Y58921673D01*
X47338327Y59100302D01*
X47435000Y59333691D01*
X47435000Y60214250D01*
X47276250Y60373000D01*
X45127000Y60373000D01*
X44873000Y60373000D01*
X42723750Y60373000D01*
X42565000Y60214250D01*
X36635000Y60214250D01*
X36635000Y60322762D01*
X37417240Y61105001D01*
X42565000Y61105001D01*
X42565000Y60785750D01*
X42723750Y60627000D01*
X44873000Y60627000D01*
X44873000Y60647000D01*
X45127000Y60647000D01*
X45127000Y60627000D01*
X47276250Y60627000D01*
X47435000Y60785750D01*
X47435000Y61084182D01*
X47550746Y61006843D01*
X47621055Y60959864D01*
X48259000Y60832969D01*
X48420031Y60865000D01*
X49659298Y60865000D01*
X49660843Y60857235D01*
X49801191Y60647191D01*
X50011235Y60506843D01*
X50259000Y60457560D01*
X50339001Y60457560D01*
X50339000Y52473238D01*
X47455276Y55356962D01*
X47467815Y55420000D01*
X47337815Y56073553D01*
X46967608Y56627608D01*
X46413553Y56997815D01*
X45924972Y57095000D01*
X44075028Y57095000D01*
X43586447Y56997815D01*
X43032392Y56627608D01*
X42662185Y56073553D01*
X42532185Y55420000D01*
X42662185Y54766447D01*
X43032392Y54212392D01*
X43586447Y53842185D01*
X44075028Y53745000D01*
X44442762Y53745000D01*
X50704014Y47483747D01*
X50795231Y47347231D01*
X50931748Y47256013D01*
X52102560Y46085201D01*
X52102560Y44500000D01*
X52151843Y44252235D01*
X52292191Y44042191D01*
X52502235Y43901843D01*
X52750000Y43852560D01*
X54450324Y43852560D01*
X53932765Y43335001D01*
X50741032Y43335001D01*
X50580001Y43367032D01*
X49942055Y43240137D01*
X49537747Y42969987D01*
X49537745Y42969985D01*
X49401232Y42878770D01*
X49310016Y42742256D01*
X48122761Y41555000D01*
X46126065Y41555000D01*
X45924972Y41595000D01*
X44075028Y41595000D01*
X43586447Y41497815D01*
X43032392Y41127608D01*
X42662185Y40573553D01*
X42532185Y39920000D01*
X42662185Y39266447D01*
X43032392Y38712392D01*
X43586447Y38342185D01*
X44075028Y38245000D01*
X45924972Y38245000D01*
X46126065Y38285000D01*
X48638970Y38285000D01*
X48800000Y38252969D01*
X48961030Y38285000D01*
X48961031Y38285000D01*
X49437945Y38379864D01*
X49978769Y38741231D01*
X50069988Y38877750D01*
X51257240Y40065001D01*
X52115000Y40065001D01*
X52115000Y38785750D01*
X52273750Y38627000D01*
X53873000Y38627000D01*
X53873000Y38647000D01*
X54127000Y38647000D01*
X54127000Y38627000D01*
X55726250Y38627000D01*
X55885000Y38785750D01*
X55885000Y40626309D01*
X55875043Y40650346D01*
X55879991Y40657751D01*
X59936490Y44714250D01*
X64615000Y44714250D01*
X64615000Y42873691D01*
X64711673Y42640302D01*
X64890301Y42461673D01*
X65123690Y42365000D01*
X66214250Y42365000D01*
X66373000Y42523750D01*
X66373000Y44873000D01*
X66627000Y44873000D01*
X66627000Y42523750D01*
X66785750Y42365000D01*
X67876310Y42365000D01*
X68109699Y42461673D01*
X68288327Y42640302D01*
X68385000Y42873691D01*
X68385000Y44714250D01*
X68226250Y44873000D01*
X66627000Y44873000D01*
X66373000Y44873000D01*
X64773750Y44873000D01*
X64615000Y44714250D01*
X59936490Y44714250D01*
X62348549Y47126309D01*
X64615000Y47126309D01*
X64615000Y45285750D01*
X64773750Y45127000D01*
X66373000Y45127000D01*
X66373000Y47476250D01*
X66627000Y47476250D01*
X66627000Y45127000D01*
X68226250Y45127000D01*
X68385000Y45285750D01*
X68385000Y47126309D01*
X68288327Y47359698D01*
X68109699Y47538327D01*
X67876310Y47635000D01*
X66785750Y47635000D01*
X66627000Y47476250D01*
X66373000Y47476250D01*
X66214250Y47635000D01*
X65123690Y47635000D01*
X64890301Y47538327D01*
X64711673Y47359698D01*
X64615000Y47126309D01*
X62348549Y47126309D01*
X65436490Y50214250D01*
X74915000Y50214250D01*
X74915000Y49523690D01*
X75011673Y49290301D01*
X75190302Y49111673D01*
X75423691Y49015000D01*
X75714250Y49015000D01*
X75873000Y49173750D01*
X75873000Y50373000D01*
X76127000Y50373000D01*
X76127000Y49173750D01*
X76285750Y49015000D01*
X76576309Y49015000D01*
X76809698Y49111673D01*
X76988327Y49290301D01*
X77085000Y49523690D01*
X77085000Y50214250D01*
X76926250Y50373000D01*
X76127000Y50373000D01*
X75873000Y50373000D01*
X75073750Y50373000D01*
X74915000Y50214250D01*
X65436490Y50214250D01*
X65970253Y50748012D01*
X66106769Y50839229D01*
X66468136Y51380053D01*
X66487282Y51476310D01*
X74915000Y51476310D01*
X74915000Y50785750D01*
X75073750Y50627000D01*
X75873000Y50627000D01*
X75873000Y51826250D01*
X76127000Y51826250D01*
X76127000Y50627000D01*
X76926250Y50627000D01*
X77085000Y50785750D01*
X77085000Y51476310D01*
X76988327Y51709699D01*
X76809698Y51888327D01*
X76576309Y51985000D01*
X76285750Y51985000D01*
X76127000Y51826250D01*
X75873000Y51826250D01*
X75714250Y51985000D01*
X75423691Y51985000D01*
X75190302Y51888327D01*
X75011673Y51709699D01*
X74915000Y51476310D01*
X66487282Y51476310D01*
X66555957Y51821560D01*
X66643000Y51821560D01*
X66890765Y51870843D01*
X67100809Y52011191D01*
X67241157Y52221235D01*
X67290440Y52469000D01*
X67290440Y54078250D01*
X78450000Y54078250D01*
X78450000Y52842690D01*
X78546673Y52609301D01*
X78725302Y52430673D01*
X78958691Y52334000D01*
X80514250Y52334000D01*
X80673000Y52492750D01*
X80673000Y54237000D01*
X78608750Y54237000D01*
X78450000Y54078250D01*
X67290440Y54078250D01*
X67290440Y55259000D01*
X67241157Y55506765D01*
X67100809Y55716809D01*
X66890765Y55857157D01*
X66749229Y55885310D01*
X78450000Y55885310D01*
X78450000Y54649750D01*
X78608750Y54491000D01*
X80673000Y54491000D01*
X80673000Y56235250D01*
X80514250Y56394000D01*
X78958691Y56394000D01*
X78725302Y56297327D01*
X78546673Y56118699D01*
X78450000Y55885310D01*
X66749229Y55885310D01*
X66643000Y55906440D01*
X63213000Y55906440D01*
X62965235Y55857157D01*
X62896000Y55810895D01*
X62826765Y55857157D01*
X62579000Y55906440D01*
X59149000Y55906440D01*
X58901235Y55857157D01*
X58835804Y55813437D01*
X58641309Y55894000D01*
X57085750Y55894000D01*
X56927000Y55735250D01*
X56927000Y53991000D01*
X56947000Y53991000D01*
X56947000Y53737000D01*
X56927000Y53737000D01*
X56927000Y53717000D01*
X56673000Y53717000D01*
X56673000Y53737000D01*
X54608750Y53737000D01*
X54450000Y53578250D01*
X54450000Y52342690D01*
X54546673Y52109301D01*
X54725302Y51930673D01*
X54958691Y51834000D01*
X56185975Y51834000D01*
X56061673Y51709699D01*
X55965000Y51476310D01*
X55965000Y50785750D01*
X56123750Y50627000D01*
X56923000Y50627000D01*
X56923000Y50647000D01*
X57177000Y50647000D01*
X57177000Y50627000D01*
X57976250Y50627000D01*
X58135000Y50785750D01*
X58135000Y51476310D01*
X58038327Y51709699D01*
X57914025Y51834000D01*
X58641309Y51834000D01*
X58815001Y51905945D01*
X58815000Y50388218D01*
X58852560Y50199390D01*
X58852560Y49650000D01*
X58901843Y49402235D01*
X59042191Y49192191D01*
X59252235Y49051843D01*
X59500000Y49002560D01*
X59600323Y49002560D01*
X55897440Y45299676D01*
X55897440Y48500000D01*
X55848157Y48747765D01*
X55707809Y48957809D01*
X55497765Y49098157D01*
X55250000Y49147440D01*
X53664799Y49147440D01*
X53609000Y49203239D01*
X53609000Y50214250D01*
X55965000Y50214250D01*
X55965000Y49523690D01*
X56061673Y49290301D01*
X56240302Y49111673D01*
X56473691Y49015000D01*
X56764250Y49015000D01*
X56923000Y49173750D01*
X56923000Y50373000D01*
X57177000Y50373000D01*
X57177000Y49173750D01*
X57335750Y49015000D01*
X57626309Y49015000D01*
X57859698Y49111673D01*
X58038327Y49290301D01*
X58135000Y49523690D01*
X58135000Y50214250D01*
X57976250Y50373000D01*
X57177000Y50373000D01*
X56923000Y50373000D01*
X56123750Y50373000D01*
X55965000Y50214250D01*
X53609000Y50214250D01*
X53609000Y55385310D01*
X54450000Y55385310D01*
X54450000Y54149750D01*
X54608750Y53991000D01*
X56673000Y53991000D01*
X56673000Y55735250D01*
X56514250Y55894000D01*
X54958691Y55894000D01*
X54725302Y55797327D01*
X54546673Y55618699D01*
X54450000Y55385310D01*
X53609000Y55385310D01*
X53609000Y60457560D01*
X53689000Y60457560D01*
X53936765Y60506843D01*
X54146809Y60647191D01*
X54287157Y60857235D01*
X54288702Y60865000D01*
X55011762Y60865000D01*
X57334015Y58542746D01*
X57425232Y58406230D01*
X57966056Y58044863D01*
X58442970Y57949999D01*
X58442971Y57949999D01*
X58604001Y57917968D01*
X58765031Y57949999D01*
X72077969Y57949999D01*
X72238999Y57917968D01*
X72400029Y57949999D01*
X72400030Y57949999D01*
X72876944Y58044863D01*
X73417768Y58406230D01*
X73508987Y58542749D01*
X75923799Y60957560D01*
X77689000Y60957560D01*
X77936765Y61006843D01*
X78146809Y61147191D01*
X78287157Y61357235D01*
X78336440Y61605000D01*
X78336440Y64265000D01*
X91457560Y64265000D01*
X91457560Y61285000D01*
G36*
X9010751Y64039249D02*
X8538874Y63333035D01*
X8415000Y62710278D01*
X8415001Y56710283D01*
X8373173Y56500000D01*
X8415000Y56289721D01*
X8415001Y52843377D01*
X8396191Y52830809D01*
X8255843Y52620765D01*
X8206560Y52373000D01*
X8206560Y49863000D01*
X8255843Y49615235D01*
X8396191Y49405191D01*
X8606235Y49264843D01*
X8854000Y49215560D01*
X9748306Y49215560D01*
X9910965Y49106875D01*
X10743999Y48941174D01*
X11577035Y49106875D01*
X11739693Y49215560D01*
X12634000Y49215560D01*
X12881765Y49264843D01*
X13091809Y49405191D01*
X13232157Y49615235D01*
X13281440Y49863000D01*
X13281440Y50832250D01*
X15839000Y50832250D01*
X15839000Y49736690D01*
X15935673Y49503301D01*
X16114302Y49324673D01*
X16347691Y49228000D01*
X18078250Y49228000D01*
X18237000Y49386750D01*
X18237000Y50991000D01*
X15997750Y50991000D01*
X15839000Y50832250D01*
X13281440Y50832250D01*
X13281440Y52373000D01*
X13256316Y52499310D01*
X15839000Y52499310D01*
X15839000Y51403750D01*
X15997750Y51245000D01*
X18237000Y51245000D01*
X18237000Y52849250D01*
X18078250Y53008000D01*
X16347691Y53008000D01*
X16114302Y52911327D01*
X15935673Y52732699D01*
X15839000Y52499310D01*
X13256316Y52499310D01*
X13232157Y52620765D01*
X13091809Y52830809D01*
X12881765Y52971157D01*
X12685000Y53010296D01*
X12685000Y54365000D01*
X18302657Y54365000D01*
X19659656Y53008000D01*
X18649750Y53008000D01*
X18491000Y52849250D01*
X18491000Y51245000D01*
X18511000Y51245000D01*
X18511000Y50991000D01*
X18491000Y50991000D01*
X18491000Y49386750D01*
X18649750Y49228000D01*
X20380309Y49228000D01*
X20428133Y49247809D01*
X20593020Y49137635D01*
X22865001Y46865653D01*
X22865000Y45370587D01*
X22752235Y45348157D01*
X22542191Y45207809D01*
X22401843Y44997765D01*
X22352560Y44750000D01*
X22352560Y43871906D01*
X15341638Y36860983D01*
X14988874Y36333035D01*
X14823174Y35500000D01*
X14988874Y34666965D01*
X15177546Y34384597D01*
X15032392Y34287608D01*
X14662185Y33733553D01*
X14532185Y33080000D01*
X14662185Y32426447D01*
X15032392Y31872392D01*
X15586447Y31502185D01*
X16075028Y31405000D01*
X17924972Y31405000D01*
X18413553Y31502185D01*
X18967608Y31872392D01*
X19337815Y32426447D01*
X19467815Y33080000D01*
X19337815Y33733553D01*
X18967608Y34287608D01*
X18871302Y34351957D01*
X26121906Y41602560D01*
X27000000Y41602560D01*
X27247765Y41651843D01*
X27457809Y41792191D01*
X27598157Y42002235D01*
X27647440Y42250000D01*
X27647440Y44750000D01*
X27598157Y44997765D01*
X27457809Y45207809D01*
X27247765Y45348157D01*
X27135000Y45370587D01*
X27135000Y46115000D01*
X29373000Y46115000D01*
X29373000Y10839810D01*
X29287608Y10967608D01*
X28733552Y11337815D01*
X28080000Y11467815D01*
X27426447Y11337815D01*
X26872392Y10967608D01*
X26622808Y10594078D01*
X26540751Y10539249D01*
X26068874Y9833035D01*
X25945000Y9210278D01*
X25945000Y9064344D01*
X24675000Y7794343D01*
X24675000Y8714250D01*
X24516250Y8873000D01*
X23127000Y8873000D01*
X23127000Y8853000D01*
X22873000Y8853000D01*
X22873000Y8873000D01*
X22853000Y8873000D01*
X22853000Y9127000D01*
X22873000Y9127000D01*
X22873000Y11276250D01*
X23127000Y11276250D01*
X23127000Y9127000D01*
X24516250Y9127000D01*
X24675000Y9285750D01*
X24675000Y10926310D01*
X24578327Y11159699D01*
X24399698Y11338327D01*
X24166309Y11435000D01*
X23285750Y11435000D01*
X23127000Y11276250D01*
X22873000Y11276250D01*
X22714250Y11435000D01*
X21833691Y11435000D01*
X21785010Y11414836D01*
X21785010Y13519375D01*
X21883035Y13538873D01*
X22589248Y14010750D01*
X22708363Y14189018D01*
X25121906Y16602560D01*
X26000000Y16602560D01*
X26247765Y16651843D01*
X26457809Y16792191D01*
X26598157Y17002235D01*
X26647440Y17250000D01*
X26647440Y19750000D01*
X26598157Y19997765D01*
X26457809Y20207809D01*
X26247765Y20348157D01*
X26000000Y20397440D01*
X25003176Y20397440D01*
X24833035Y20511125D01*
X23999999Y20676826D01*
X23166964Y20511125D01*
X22996822Y20397440D01*
X22000000Y20397440D01*
X21752235Y20348157D01*
X21542191Y20207809D01*
X21401843Y19997765D01*
X21352560Y19750000D01*
X21352560Y18871906D01*
X20165654Y17684999D01*
X19710275Y17684999D01*
X19500000Y17726825D01*
X19289725Y17684999D01*
X18635000Y17684999D01*
X18635000Y18214250D01*
X18476250Y18373000D01*
X16127000Y18373000D01*
X16127000Y18353000D01*
X15873000Y18353000D01*
X15873000Y18373000D01*
X13523750Y18373000D01*
X13365000Y18214250D01*
X13365000Y17123690D01*
X13461673Y16890301D01*
X13640302Y16711673D01*
X13873691Y16615000D01*
X15621151Y16615000D01*
X11713592Y12707440D01*
X10283000Y12707440D01*
X10035235Y12658157D01*
X10011172Y12642079D01*
X9900309Y12688000D01*
X8024750Y12688000D01*
X7866000Y12529250D01*
X7866000Y11295000D01*
X7886000Y11295000D01*
X7886000Y11041000D01*
X7866000Y11041000D01*
X7866000Y9806750D01*
X8024750Y9648000D01*
X9372164Y9648000D01*
X9462875Y9191964D01*
X9635560Y8933523D01*
X9635560Y7990000D01*
X9684843Y7742235D01*
X9825191Y7532191D01*
X10035235Y7391843D01*
X10086777Y7381591D01*
X10064843Y7348765D01*
X10015560Y7101000D01*
X10015560Y6620106D01*
X10010765Y6596000D01*
X10015560Y6571894D01*
X10015560Y6091000D01*
X10064843Y5843235D01*
X10205191Y5633191D01*
X10415235Y5492843D01*
X10663000Y5443560D01*
X11673000Y5443560D01*
X11760678Y5461000D01*
X13034217Y5461000D01*
X13146000Y5438765D01*
X13257783Y5461000D01*
X13352560Y5479852D01*
X13352560Y5457693D01*
X11071309Y3176440D01*
X10663000Y3176440D01*
X10415235Y3127157D01*
X10205191Y2986809D01*
X10064843Y2776765D01*
X10015560Y2529000D01*
X10015560Y2048106D01*
X10010765Y2024000D01*
X10015560Y1999894D01*
X10015560Y1519000D01*
X10064843Y1271235D01*
X10205191Y1061191D01*
X10415235Y920843D01*
X10663000Y871560D01*
X11499894Y871560D01*
X11524000Y866765D01*
X11548106Y871560D01*
X11673000Y871560D01*
X11920765Y920843D01*
X12130809Y1061191D01*
X12134688Y1066997D01*
X12342289Y1205711D01*
X12405613Y1300482D01*
X13465000Y2359868D01*
X13465000Y2285750D01*
X13623750Y2127000D01*
X14423000Y2127000D01*
X14423000Y2147000D01*
X14677000Y2147000D01*
X14677000Y2127000D01*
X15476250Y2127000D01*
X15622059Y2272809D01*
X16352560Y1542308D01*
X16352560Y1150000D01*
X16401843Y902235D01*
X16530291Y710000D01*
X15458026Y710000D01*
X15538327Y790301D01*
X15635000Y1023690D01*
X15635000Y1714250D01*
X15476250Y1873000D01*
X14677000Y1873000D01*
X14677000Y1853000D01*
X14423000Y1853000D01*
X14423000Y1873000D01*
X13623750Y1873000D01*
X13465000Y1714250D01*
X13465000Y1023690D01*
X13561673Y790301D01*
X13641974Y710000D01*
X735000Y710000D01*
X735000Y6974000D01*
X871560Y6974000D01*
X871560Y5964000D01*
X920843Y5716235D01*
X1061191Y5506191D01*
X1235830Y5389500D01*
X1061191Y5272809D01*
X920843Y5062765D01*
X871560Y4815000D01*
X871560Y3805000D01*
X920843Y3557235D01*
X1061191Y3347191D01*
X1271235Y3206843D01*
X1471541Y3167000D01*
X1271235Y3127157D01*
X1061191Y2986809D01*
X920843Y2776765D01*
X871560Y2529000D01*
X871560Y1519000D01*
X920843Y1271235D01*
X1061191Y1061191D01*
X1271235Y920843D01*
X1519000Y871560D01*
X2529000Y871560D01*
X2776765Y920843D01*
X2986809Y1061191D01*
X3127157Y1271235D01*
X3167000Y1471541D01*
X3206843Y1271235D01*
X3347191Y1061191D01*
X3557235Y920843D01*
X3805000Y871560D01*
X4815000Y871560D01*
X5062765Y920843D01*
X5272809Y1061191D01*
X5413157Y1271235D01*
X5456000Y1486624D01*
X5456000Y1392690D01*
X5552673Y1159301D01*
X5731302Y980673D01*
X5964691Y884000D01*
X6310250Y884000D01*
X6469000Y1042750D01*
X6469000Y1897000D01*
X6723000Y1897000D01*
X6723000Y1042750D01*
X6881750Y884000D01*
X7227309Y884000D01*
X7460698Y980673D01*
X7639327Y1159301D01*
X7736000Y1392690D01*
X7736000Y1738250D01*
X7577250Y1897000D01*
X6723000Y1897000D01*
X6469000Y1897000D01*
X6449000Y1897000D01*
X6449000Y2151000D01*
X6469000Y2151000D01*
X6469000Y3005250D01*
X6723000Y3005250D01*
X6723000Y2151000D01*
X7577250Y2151000D01*
X7736000Y2309750D01*
X7736000Y2655310D01*
X7639327Y2888699D01*
X7460698Y3067327D01*
X7227309Y3164000D01*
X6881750Y3164000D01*
X6723000Y3005250D01*
X6469000Y3005250D01*
X6310250Y3164000D01*
X5964691Y3164000D01*
X5731302Y3067327D01*
X5552673Y2888699D01*
X5456000Y2655310D01*
X5456000Y2561376D01*
X5413157Y2776765D01*
X5272809Y2986809D01*
X5062765Y3127157D01*
X4815000Y3176440D01*
X3805000Y3176440D01*
X3557235Y3127157D01*
X3347191Y2986809D01*
X3206843Y2776765D01*
X3167000Y2576459D01*
X3127157Y2776765D01*
X2986809Y2986809D01*
X2776765Y3127157D01*
X2576459Y3167000D01*
X2776765Y3206843D01*
X2986809Y3347191D01*
X3127157Y3557235D01*
X3176440Y3805000D01*
X3176440Y4815000D01*
X3127157Y5062765D01*
X2986809Y5272809D01*
X2812170Y5389500D01*
X2986809Y5506191D01*
X3127157Y5716235D01*
X3176440Y5964000D01*
X3176440Y6974000D01*
X3127157Y7221765D01*
X2986809Y7431809D01*
X2776765Y7572157D01*
X2529000Y7621440D01*
X1519000Y7621440D01*
X1271235Y7572157D01*
X1061191Y7431809D01*
X920843Y7221765D01*
X871560Y6974000D01*
X735000Y6974000D01*
X735000Y9784559D01*
X884235Y9684843D01*
X1132000Y9635560D01*
X1623201Y9635560D01*
X1627751Y9628751D01*
X2333964Y9156874D01*
X3167000Y8991173D01*
X4000035Y9156874D01*
X4706249Y9628751D01*
X4710799Y9635560D01*
X5202000Y9635560D01*
X5449765Y9684843D01*
X5464682Y9694810D01*
X5577691Y9648000D01*
X7453250Y9648000D01*
X7612000Y9806750D01*
X7612000Y11041000D01*
X7592000Y11041000D01*
X7592000Y11295000D01*
X7612000Y11295000D01*
X7612000Y12529250D01*
X7453250Y12688000D01*
X5577691Y12688000D01*
X5464682Y12641190D01*
X5449765Y12651157D01*
X5302000Y12680549D01*
X5302000Y17622727D01*
X5343826Y17833001D01*
X5302000Y18043274D01*
X5302000Y18043279D01*
X5267992Y18214250D01*
X7865000Y18214250D01*
X7865000Y17123690D01*
X7961673Y16890301D01*
X8140302Y16711673D01*
X8373691Y16615000D01*
X10214250Y16615000D01*
X10373000Y16773750D01*
X10373000Y18373000D01*
X10627000Y18373000D01*
X10627000Y16773750D01*
X10785750Y16615000D01*
X12626309Y16615000D01*
X12859698Y16711673D01*
X13038327Y16890301D01*
X13135000Y17123690D01*
X13135000Y18214250D01*
X12976250Y18373000D01*
X10627000Y18373000D01*
X10373000Y18373000D01*
X8023750Y18373000D01*
X7865000Y18214250D01*
X5267992Y18214250D01*
X5178126Y18666036D01*
X5147440Y18711961D01*
X5147440Y19750000D01*
X5122316Y19876310D01*
X7865000Y19876310D01*
X7865000Y18785750D01*
X8023750Y18627000D01*
X10373000Y18627000D01*
X10373000Y20226250D01*
X10627000Y20226250D01*
X10627000Y18627000D01*
X12976250Y18627000D01*
X13135000Y18785750D01*
X13135000Y19876310D01*
X13365000Y19876310D01*
X13365000Y18785750D01*
X13523750Y18627000D01*
X15873000Y18627000D01*
X15873000Y20226250D01*
X16127000Y20226250D01*
X16127000Y18627000D01*
X18476250Y18627000D01*
X18635000Y18785750D01*
X18635000Y19876310D01*
X18538327Y20109699D01*
X18359698Y20288327D01*
X18126309Y20385000D01*
X16285750Y20385000D01*
X16127000Y20226250D01*
X15873000Y20226250D01*
X15714250Y20385000D01*
X13873691Y20385000D01*
X13640302Y20288327D01*
X13461673Y20109699D01*
X13365000Y19876310D01*
X13135000Y19876310D01*
X13038327Y20109699D01*
X12859698Y20288327D01*
X12626309Y20385000D01*
X10785750Y20385000D01*
X10627000Y20226250D01*
X10373000Y20226250D01*
X10214250Y20385000D01*
X8373691Y20385000D01*
X8140302Y20288327D01*
X7961673Y20109699D01*
X7865000Y19876310D01*
X5122316Y19876310D01*
X5098157Y19997765D01*
X4957809Y20207809D01*
X4747765Y20348157D01*
X4635000Y20370587D01*
X4635000Y24615655D01*
X7658848Y27639502D01*
X7610252Y27533290D01*
X7643901Y27396338D01*
X7965794Y26825399D01*
X8481673Y26421103D01*
X9113000Y26245000D01*
X9873000Y26245000D01*
X9873000Y27793000D01*
X10127000Y27793000D01*
X10127000Y26245000D01*
X10887000Y26245000D01*
X11518327Y26421103D01*
X12034206Y26825399D01*
X12356099Y27396338D01*
X12389748Y27533290D01*
X12306953Y27714250D01*
X14565000Y27714250D01*
X14565000Y26833691D01*
X14661673Y26600302D01*
X14840301Y26421673D01*
X15073690Y26325000D01*
X16714250Y26325000D01*
X16873000Y26483750D01*
X16873000Y27873000D01*
X17127000Y27873000D01*
X17127000Y26483750D01*
X17285750Y26325000D01*
X18926310Y26325000D01*
X19159699Y26421673D01*
X19338327Y26600302D01*
X19435000Y26833691D01*
X19435000Y27714250D01*
X19276250Y27873000D01*
X17127000Y27873000D01*
X16873000Y27873000D01*
X14723750Y27873000D01*
X14565000Y27714250D01*
X12306953Y27714250D01*
X12270922Y27793000D01*
X10127000Y27793000D01*
X9873000Y27793000D01*
X9853000Y27793000D01*
X9853000Y28047000D01*
X9873000Y28047000D01*
X9873000Y29595000D01*
X10127000Y29595000D01*
X10127000Y28047000D01*
X12270922Y28047000D01*
X12389748Y28306710D01*
X12356099Y28443662D01*
X12034206Y29014601D01*
X11840628Y29166309D01*
X14565000Y29166309D01*
X14565000Y28285750D01*
X14723750Y28127000D01*
X16873000Y28127000D01*
X16873000Y29516250D01*
X17127000Y29516250D01*
X17127000Y28127000D01*
X19276250Y28127000D01*
X19435000Y28285750D01*
X19435000Y29166309D01*
X19338327Y29399698D01*
X19159699Y29578327D01*
X18926310Y29675000D01*
X17285750Y29675000D01*
X17127000Y29516250D01*
X16873000Y29516250D01*
X16714250Y29675000D01*
X15073690Y29675000D01*
X14840301Y29578327D01*
X14661673Y29399698D01*
X14565000Y29166309D01*
X11840628Y29166309D01*
X11518327Y29418897D01*
X10887000Y29595000D01*
X10127000Y29595000D01*
X9873000Y29595000D01*
X9614346Y29595000D01*
X11331906Y31312560D01*
X11800000Y31312560D01*
X12047765Y31361843D01*
X12257809Y31502191D01*
X12398157Y31712235D01*
X12447440Y31960000D01*
X12447440Y34040000D01*
X12398157Y34287765D01*
X12257809Y34497809D01*
X12047765Y34638157D01*
X11800000Y34687440D01*
X11331906Y34687440D01*
X5135000Y40884345D01*
X5135000Y41629413D01*
X5247765Y41651843D01*
X5457809Y41792191D01*
X5598157Y42002235D01*
X5647440Y42250000D01*
X5647440Y43214250D01*
X8365000Y43214250D01*
X8365000Y42123690D01*
X8461673Y41890301D01*
X8640302Y41711673D01*
X8873691Y41615000D01*
X10714250Y41615000D01*
X10873000Y41773750D01*
X10873000Y43373000D01*
X11127000Y43373000D01*
X11127000Y41773750D01*
X11285750Y41615000D01*
X13126309Y41615000D01*
X13359698Y41711673D01*
X13538327Y41890301D01*
X13635000Y42123690D01*
X13635000Y43214250D01*
X14365000Y43214250D01*
X14365000Y42123690D01*
X14461673Y41890301D01*
X14640302Y41711673D01*
X14873691Y41615000D01*
X16714250Y41615000D01*
X16873000Y41773750D01*
X16873000Y43373000D01*
X17127000Y43373000D01*
X17127000Y41773750D01*
X17285750Y41615000D01*
X19126309Y41615000D01*
X19359698Y41711673D01*
X19538327Y41890301D01*
X19635000Y42123690D01*
X19635000Y43214250D01*
X19476250Y43373000D01*
X17127000Y43373000D01*
X16873000Y43373000D01*
X14523750Y43373000D01*
X14365000Y43214250D01*
X13635000Y43214250D01*
X13476250Y43373000D01*
X11127000Y43373000D01*
X10873000Y43373000D01*
X8523750Y43373000D01*
X8365000Y43214250D01*
X5647440Y43214250D01*
X5647440Y44750000D01*
X5622316Y44876310D01*
X8365000Y44876310D01*
X8365000Y43785750D01*
X8523750Y43627000D01*
X10873000Y43627000D01*
X10873000Y45226250D01*
X11127000Y45226250D01*
X11127000Y43627000D01*
X13476250Y43627000D01*
X13635000Y43785750D01*
X13635000Y44876310D01*
X14365000Y44876310D01*
X14365000Y43785750D01*
X14523750Y43627000D01*
X16873000Y43627000D01*
X16873000Y45226250D01*
X17127000Y45226250D01*
X17127000Y43627000D01*
X19476250Y43627000D01*
X19635000Y43785750D01*
X19635000Y44876310D01*
X19538327Y45109699D01*
X19359698Y45288327D01*
X19126309Y45385000D01*
X17285750Y45385000D01*
X17127000Y45226250D01*
X16873000Y45226250D01*
X16714250Y45385000D01*
X14873691Y45385000D01*
X14640302Y45288327D01*
X14461673Y45109699D01*
X14365000Y44876310D01*
X13635000Y44876310D01*
X13538327Y45109699D01*
X13359698Y45288327D01*
X13126309Y45385000D01*
X11285750Y45385000D01*
X11127000Y45226250D01*
X10873000Y45226250D01*
X10714250Y45385000D01*
X8873691Y45385000D01*
X8640302Y45288327D01*
X8461673Y45109699D01*
X8365000Y44876310D01*
X5622316Y44876310D01*
X5598157Y44997765D01*
X5457809Y45207809D01*
X5247765Y45348157D01*
X5000000Y45397440D01*
X4243000Y45397440D01*
X4243000Y52979279D01*
X4119126Y53602036D01*
X4010440Y53764696D01*
X4010440Y54659000D01*
X3961157Y54906765D01*
X3820809Y55116809D01*
X3610765Y55257157D01*
X3363000Y55306440D01*
X853000Y55306440D01*
X735000Y55282969D01*
X735000Y55324000D01*
X1822250Y55324000D01*
X1981000Y55482750D01*
X1981000Y57722000D01*
X2235000Y57722000D01*
X2235000Y55482750D01*
X2393750Y55324000D01*
X3489310Y55324000D01*
X3722699Y55420673D01*
X3901327Y55599302D01*
X3998000Y55832691D01*
X3998000Y57563250D01*
X3839250Y57722000D01*
X2235000Y57722000D01*
X1981000Y57722000D01*
X1961000Y57722000D01*
X1961000Y57976000D01*
X1981000Y57976000D01*
X1981000Y60215250D01*
X2235000Y60215250D01*
X2235000Y57976000D01*
X3839250Y57976000D01*
X3998000Y58134750D01*
X3998000Y59865309D01*
X3901327Y60098698D01*
X3722699Y60277327D01*
X3489310Y60374000D01*
X2393750Y60374000D01*
X2235000Y60215250D01*
X1981000Y60215250D01*
X1822250Y60374000D01*
X735000Y60374000D01*
X735000Y64265000D01*
X9348611Y64265000D01*
X9010751Y64039249D01*
X9010751Y64039249D01*
G37*
X9010751Y64039249D02*
X8538874Y63333035D01*
X8415000Y62710278D01*
X8415001Y56710283D01*
X8373173Y56500000D01*
X8415000Y56289721D01*
X8415001Y52843377D01*
X8396191Y52830809D01*
X8255843Y52620765D01*
X8206560Y52373000D01*
X8206560Y49863000D01*
X8255843Y49615235D01*
X8396191Y49405191D01*
X8606235Y49264843D01*
X8854000Y49215560D01*
X9748306Y49215560D01*
X9910965Y49106875D01*
X10743999Y48941174D01*
X11577035Y49106875D01*
X11739693Y49215560D01*
X12634000Y49215560D01*
X12881765Y49264843D01*
X13091809Y49405191D01*
X13232157Y49615235D01*
X13281440Y49863000D01*
X13281440Y50832250D01*
X15839000Y50832250D01*
X15839000Y49736690D01*
X15935673Y49503301D01*
X16114302Y49324673D01*
X16347691Y49228000D01*
X18078250Y49228000D01*
X18237000Y49386750D01*
X18237000Y50991000D01*
X15997750Y50991000D01*
X15839000Y50832250D01*
X13281440Y50832250D01*
X13281440Y52373000D01*
X13256316Y52499310D01*
X15839000Y52499310D01*
X15839000Y51403750D01*
X15997750Y51245000D01*
X18237000Y51245000D01*
X18237000Y52849250D01*
X18078250Y53008000D01*
X16347691Y53008000D01*
X16114302Y52911327D01*
X15935673Y52732699D01*
X15839000Y52499310D01*
X13256316Y52499310D01*
X13232157Y52620765D01*
X13091809Y52830809D01*
X12881765Y52971157D01*
X12685000Y53010296D01*
X12685000Y54365000D01*
X18302657Y54365000D01*
X19659656Y53008000D01*
X18649750Y53008000D01*
X18491000Y52849250D01*
X18491000Y51245000D01*
X18511000Y51245000D01*
X18511000Y50991000D01*
X18491000Y50991000D01*
X18491000Y49386750D01*
X18649750Y49228000D01*
X20380309Y49228000D01*
X20428133Y49247809D01*
X20593020Y49137635D01*
X22865001Y46865653D01*
X22865000Y45370587D01*
X22752235Y45348157D01*
X22542191Y45207809D01*
X22401843Y44997765D01*
X22352560Y44750000D01*
X22352560Y43871906D01*
X15341638Y36860983D01*
X14988874Y36333035D01*
X14823174Y35500000D01*
X14988874Y34666965D01*
X15177546Y34384597D01*
X15032392Y34287608D01*
X14662185Y33733553D01*
X14532185Y33080000D01*
X14662185Y32426447D01*
X15032392Y31872392D01*
X15586447Y31502185D01*
X16075028Y31405000D01*
X17924972Y31405000D01*
X18413553Y31502185D01*
X18967608Y31872392D01*
X19337815Y32426447D01*
X19467815Y33080000D01*
X19337815Y33733553D01*
X18967608Y34287608D01*
X18871302Y34351957D01*
X26121906Y41602560D01*
X27000000Y41602560D01*
X27247765Y41651843D01*
X27457809Y41792191D01*
X27598157Y42002235D01*
X27647440Y42250000D01*
X27647440Y44750000D01*
X27598157Y44997765D01*
X27457809Y45207809D01*
X27247765Y45348157D01*
X27135000Y45370587D01*
X27135000Y46115000D01*
X29373000Y46115000D01*
X29373000Y10839810D01*
X29287608Y10967608D01*
X28733552Y11337815D01*
X28080000Y11467815D01*
X27426447Y11337815D01*
X26872392Y10967608D01*
X26622808Y10594078D01*
X26540751Y10539249D01*
X26068874Y9833035D01*
X25945000Y9210278D01*
X25945000Y9064344D01*
X24675000Y7794343D01*
X24675000Y8714250D01*
X24516250Y8873000D01*
X23127000Y8873000D01*
X23127000Y8853000D01*
X22873000Y8853000D01*
X22873000Y8873000D01*
X22853000Y8873000D01*
X22853000Y9127000D01*
X22873000Y9127000D01*
X22873000Y11276250D01*
X23127000Y11276250D01*
X23127000Y9127000D01*
X24516250Y9127000D01*
X24675000Y9285750D01*
X24675000Y10926310D01*
X24578327Y11159699D01*
X24399698Y11338327D01*
X24166309Y11435000D01*
X23285750Y11435000D01*
X23127000Y11276250D01*
X22873000Y11276250D01*
X22714250Y11435000D01*
X21833691Y11435000D01*
X21785010Y11414836D01*
X21785010Y13519375D01*
X21883035Y13538873D01*
X22589248Y14010750D01*
X22708363Y14189018D01*
X25121906Y16602560D01*
X26000000Y16602560D01*
X26247765Y16651843D01*
X26457809Y16792191D01*
X26598157Y17002235D01*
X26647440Y17250000D01*
X26647440Y19750000D01*
X26598157Y19997765D01*
X26457809Y20207809D01*
X26247765Y20348157D01*
X26000000Y20397440D01*
X25003176Y20397440D01*
X24833035Y20511125D01*
X23999999Y20676826D01*
X23166964Y20511125D01*
X22996822Y20397440D01*
X22000000Y20397440D01*
X21752235Y20348157D01*
X21542191Y20207809D01*
X21401843Y19997765D01*
X21352560Y19750000D01*
X21352560Y18871906D01*
X20165654Y17684999D01*
X19710275Y17684999D01*
X19500000Y17726825D01*
X19289725Y17684999D01*
X18635000Y17684999D01*
X18635000Y18214250D01*
X18476250Y18373000D01*
X16127000Y18373000D01*
X16127000Y18353000D01*
X15873000Y18353000D01*
X15873000Y18373000D01*
X13523750Y18373000D01*
X13365000Y18214250D01*
X13365000Y17123690D01*
X13461673Y16890301D01*
X13640302Y16711673D01*
X13873691Y16615000D01*
X15621151Y16615000D01*
X11713592Y12707440D01*
X10283000Y12707440D01*
X10035235Y12658157D01*
X10011172Y12642079D01*
X9900309Y12688000D01*
X8024750Y12688000D01*
X7866000Y12529250D01*
X7866000Y11295000D01*
X7886000Y11295000D01*
X7886000Y11041000D01*
X7866000Y11041000D01*
X7866000Y9806750D01*
X8024750Y9648000D01*
X9372164Y9648000D01*
X9462875Y9191964D01*
X9635560Y8933523D01*
X9635560Y7990000D01*
X9684843Y7742235D01*
X9825191Y7532191D01*
X10035235Y7391843D01*
X10086777Y7381591D01*
X10064843Y7348765D01*
X10015560Y7101000D01*
X10015560Y6620106D01*
X10010765Y6596000D01*
X10015560Y6571894D01*
X10015560Y6091000D01*
X10064843Y5843235D01*
X10205191Y5633191D01*
X10415235Y5492843D01*
X10663000Y5443560D01*
X11673000Y5443560D01*
X11760678Y5461000D01*
X13034217Y5461000D01*
X13146000Y5438765D01*
X13257783Y5461000D01*
X13352560Y5479852D01*
X13352560Y5457693D01*
X11071309Y3176440D01*
X10663000Y3176440D01*
X10415235Y3127157D01*
X10205191Y2986809D01*
X10064843Y2776765D01*
X10015560Y2529000D01*
X10015560Y2048106D01*
X10010765Y2024000D01*
X10015560Y1999894D01*
X10015560Y1519000D01*
X10064843Y1271235D01*
X10205191Y1061191D01*
X10415235Y920843D01*
X10663000Y871560D01*
X11499894Y871560D01*
X11524000Y866765D01*
X11548106Y871560D01*
X11673000Y871560D01*
X11920765Y920843D01*
X12130809Y1061191D01*
X12134688Y1066997D01*
X12342289Y1205711D01*
X12405613Y1300482D01*
X13465000Y2359868D01*
X13465000Y2285750D01*
X13623750Y2127000D01*
X14423000Y2127000D01*
X14423000Y2147000D01*
X14677000Y2147000D01*
X14677000Y2127000D01*
X15476250Y2127000D01*
X15622059Y2272809D01*
X16352560Y1542308D01*
X16352560Y1150000D01*
X16401843Y902235D01*
X16530291Y710000D01*
X15458026Y710000D01*
X15538327Y790301D01*
X15635000Y1023690D01*
X15635000Y1714250D01*
X15476250Y1873000D01*
X14677000Y1873000D01*
X14677000Y1853000D01*
X14423000Y1853000D01*
X14423000Y1873000D01*
X13623750Y1873000D01*
X13465000Y1714250D01*
X13465000Y1023690D01*
X13561673Y790301D01*
X13641974Y710000D01*
X735000Y710000D01*
X735000Y6974000D01*
X871560Y6974000D01*
X871560Y5964000D01*
X920843Y5716235D01*
X1061191Y5506191D01*
X1235830Y5389500D01*
X1061191Y5272809D01*
X920843Y5062765D01*
X871560Y4815000D01*
X871560Y3805000D01*
X920843Y3557235D01*
X1061191Y3347191D01*
X1271235Y3206843D01*
X1471541Y3167000D01*
X1271235Y3127157D01*
X1061191Y2986809D01*
X920843Y2776765D01*
X871560Y2529000D01*
X871560Y1519000D01*
X920843Y1271235D01*
X1061191Y1061191D01*
X1271235Y920843D01*
X1519000Y871560D01*
X2529000Y871560D01*
X2776765Y920843D01*
X2986809Y1061191D01*
X3127157Y1271235D01*
X3167000Y1471541D01*
X3206843Y1271235D01*
X3347191Y1061191D01*
X3557235Y920843D01*
X3805000Y871560D01*
X4815000Y871560D01*
X5062765Y920843D01*
X5272809Y1061191D01*
X5413157Y1271235D01*
X5456000Y1486624D01*
X5456000Y1392690D01*
X5552673Y1159301D01*
X5731302Y980673D01*
X5964691Y884000D01*
X6310250Y884000D01*
X6469000Y1042750D01*
X6469000Y1897000D01*
X6723000Y1897000D01*
X6723000Y1042750D01*
X6881750Y884000D01*
X7227309Y884000D01*
X7460698Y980673D01*
X7639327Y1159301D01*
X7736000Y1392690D01*
X7736000Y1738250D01*
X7577250Y1897000D01*
X6723000Y1897000D01*
X6469000Y1897000D01*
X6449000Y1897000D01*
X6449000Y2151000D01*
X6469000Y2151000D01*
X6469000Y3005250D01*
X6723000Y3005250D01*
X6723000Y2151000D01*
X7577250Y2151000D01*
X7736000Y2309750D01*
X7736000Y2655310D01*
X7639327Y2888699D01*
X7460698Y3067327D01*
X7227309Y3164000D01*
X6881750Y3164000D01*
X6723000Y3005250D01*
X6469000Y3005250D01*
X6310250Y3164000D01*
X5964691Y3164000D01*
X5731302Y3067327D01*
X5552673Y2888699D01*
X5456000Y2655310D01*
X5456000Y2561376D01*
X5413157Y2776765D01*
X5272809Y2986809D01*
X5062765Y3127157D01*
X4815000Y3176440D01*
X3805000Y3176440D01*
X3557235Y3127157D01*
X3347191Y2986809D01*
X3206843Y2776765D01*
X3167000Y2576459D01*
X3127157Y2776765D01*
X2986809Y2986809D01*
X2776765Y3127157D01*
X2576459Y3167000D01*
X2776765Y3206843D01*
X2986809Y3347191D01*
X3127157Y3557235D01*
X3176440Y3805000D01*
X3176440Y4815000D01*
X3127157Y5062765D01*
X2986809Y5272809D01*
X2812170Y5389500D01*
X2986809Y5506191D01*
X3127157Y5716235D01*
X3176440Y5964000D01*
X3176440Y6974000D01*
X3127157Y7221765D01*
X2986809Y7431809D01*
X2776765Y7572157D01*
X2529000Y7621440D01*
X1519000Y7621440D01*
X1271235Y7572157D01*
X1061191Y7431809D01*
X920843Y7221765D01*
X871560Y6974000D01*
X735000Y6974000D01*
X735000Y9784559D01*
X884235Y9684843D01*
X1132000Y9635560D01*
X1623201Y9635560D01*
X1627751Y9628751D01*
X2333964Y9156874D01*
X3167000Y8991173D01*
X4000035Y9156874D01*
X4706249Y9628751D01*
X4710799Y9635560D01*
X5202000Y9635560D01*
X5449765Y9684843D01*
X5464682Y9694810D01*
X5577691Y9648000D01*
X7453250Y9648000D01*
X7612000Y9806750D01*
X7612000Y11041000D01*
X7592000Y11041000D01*
X7592000Y11295000D01*
X7612000Y11295000D01*
X7612000Y12529250D01*
X7453250Y12688000D01*
X5577691Y12688000D01*
X5464682Y12641190D01*
X5449765Y12651157D01*
X5302000Y12680549D01*
X5302000Y17622727D01*
X5343826Y17833001D01*
X5302000Y18043274D01*
X5302000Y18043279D01*
X5267992Y18214250D01*
X7865000Y18214250D01*
X7865000Y17123690D01*
X7961673Y16890301D01*
X8140302Y16711673D01*
X8373691Y16615000D01*
X10214250Y16615000D01*
X10373000Y16773750D01*
X10373000Y18373000D01*
X10627000Y18373000D01*
X10627000Y16773750D01*
X10785750Y16615000D01*
X12626309Y16615000D01*
X12859698Y16711673D01*
X13038327Y16890301D01*
X13135000Y17123690D01*
X13135000Y18214250D01*
X12976250Y18373000D01*
X10627000Y18373000D01*
X10373000Y18373000D01*
X8023750Y18373000D01*
X7865000Y18214250D01*
X5267992Y18214250D01*
X5178126Y18666036D01*
X5147440Y18711961D01*
X5147440Y19750000D01*
X5122316Y19876310D01*
X7865000Y19876310D01*
X7865000Y18785750D01*
X8023750Y18627000D01*
X10373000Y18627000D01*
X10373000Y20226250D01*
X10627000Y20226250D01*
X10627000Y18627000D01*
X12976250Y18627000D01*
X13135000Y18785750D01*
X13135000Y19876310D01*
X13365000Y19876310D01*
X13365000Y18785750D01*
X13523750Y18627000D01*
X15873000Y18627000D01*
X15873000Y20226250D01*
X16127000Y20226250D01*
X16127000Y18627000D01*
X18476250Y18627000D01*
X18635000Y18785750D01*
X18635000Y19876310D01*
X18538327Y20109699D01*
X18359698Y20288327D01*
X18126309Y20385000D01*
X16285750Y20385000D01*
X16127000Y20226250D01*
X15873000Y20226250D01*
X15714250Y20385000D01*
X13873691Y20385000D01*
X13640302Y20288327D01*
X13461673Y20109699D01*
X13365000Y19876310D01*
X13135000Y19876310D01*
X13038327Y20109699D01*
X12859698Y20288327D01*
X12626309Y20385000D01*
X10785750Y20385000D01*
X10627000Y20226250D01*
X10373000Y20226250D01*
X10214250Y20385000D01*
X8373691Y20385000D01*
X8140302Y20288327D01*
X7961673Y20109699D01*
X7865000Y19876310D01*
X5122316Y19876310D01*
X5098157Y19997765D01*
X4957809Y20207809D01*
X4747765Y20348157D01*
X4635000Y20370587D01*
X4635000Y24615655D01*
X7658848Y27639502D01*
X7610252Y27533290D01*
X7643901Y27396338D01*
X7965794Y26825399D01*
X8481673Y26421103D01*
X9113000Y26245000D01*
X9873000Y26245000D01*
X9873000Y27793000D01*
X10127000Y27793000D01*
X10127000Y26245000D01*
X10887000Y26245000D01*
X11518327Y26421103D01*
X12034206Y26825399D01*
X12356099Y27396338D01*
X12389748Y27533290D01*
X12306953Y27714250D01*
X14565000Y27714250D01*
X14565000Y26833691D01*
X14661673Y26600302D01*
X14840301Y26421673D01*
X15073690Y26325000D01*
X16714250Y26325000D01*
X16873000Y26483750D01*
X16873000Y27873000D01*
X17127000Y27873000D01*
X17127000Y26483750D01*
X17285750Y26325000D01*
X18926310Y26325000D01*
X19159699Y26421673D01*
X19338327Y26600302D01*
X19435000Y26833691D01*
X19435000Y27714250D01*
X19276250Y27873000D01*
X17127000Y27873000D01*
X16873000Y27873000D01*
X14723750Y27873000D01*
X14565000Y27714250D01*
X12306953Y27714250D01*
X12270922Y27793000D01*
X10127000Y27793000D01*
X9873000Y27793000D01*
X9853000Y27793000D01*
X9853000Y28047000D01*
X9873000Y28047000D01*
X9873000Y29595000D01*
X10127000Y29595000D01*
X10127000Y28047000D01*
X12270922Y28047000D01*
X12389748Y28306710D01*
X12356099Y28443662D01*
X12034206Y29014601D01*
X11840628Y29166309D01*
X14565000Y29166309D01*
X14565000Y28285750D01*
X14723750Y28127000D01*
X16873000Y28127000D01*
X16873000Y29516250D01*
X17127000Y29516250D01*
X17127000Y28127000D01*
X19276250Y28127000D01*
X19435000Y28285750D01*
X19435000Y29166309D01*
X19338327Y29399698D01*
X19159699Y29578327D01*
X18926310Y29675000D01*
X17285750Y29675000D01*
X17127000Y29516250D01*
X16873000Y29516250D01*
X16714250Y29675000D01*
X15073690Y29675000D01*
X14840301Y29578327D01*
X14661673Y29399698D01*
X14565000Y29166309D01*
X11840628Y29166309D01*
X11518327Y29418897D01*
X10887000Y29595000D01*
X10127000Y29595000D01*
X9873000Y29595000D01*
X9614346Y29595000D01*
X11331906Y31312560D01*
X11800000Y31312560D01*
X12047765Y31361843D01*
X12257809Y31502191D01*
X12398157Y31712235D01*
X12447440Y31960000D01*
X12447440Y34040000D01*
X12398157Y34287765D01*
X12257809Y34497809D01*
X12047765Y34638157D01*
X11800000Y34687440D01*
X11331906Y34687440D01*
X5135000Y40884345D01*
X5135000Y41629413D01*
X5247765Y41651843D01*
X5457809Y41792191D01*
X5598157Y42002235D01*
X5647440Y42250000D01*
X5647440Y43214250D01*
X8365000Y43214250D01*
X8365000Y42123690D01*
X8461673Y41890301D01*
X8640302Y41711673D01*
X8873691Y41615000D01*
X10714250Y41615000D01*
X10873000Y41773750D01*
X10873000Y43373000D01*
X11127000Y43373000D01*
X11127000Y41773750D01*
X11285750Y41615000D01*
X13126309Y41615000D01*
X13359698Y41711673D01*
X13538327Y41890301D01*
X13635000Y42123690D01*
X13635000Y43214250D01*
X14365000Y43214250D01*
X14365000Y42123690D01*
X14461673Y41890301D01*
X14640302Y41711673D01*
X14873691Y41615000D01*
X16714250Y41615000D01*
X16873000Y41773750D01*
X16873000Y43373000D01*
X17127000Y43373000D01*
X17127000Y41773750D01*
X17285750Y41615000D01*
X19126309Y41615000D01*
X19359698Y41711673D01*
X19538327Y41890301D01*
X19635000Y42123690D01*
X19635000Y43214250D01*
X19476250Y43373000D01*
X17127000Y43373000D01*
X16873000Y43373000D01*
X14523750Y43373000D01*
X14365000Y43214250D01*
X13635000Y43214250D01*
X13476250Y43373000D01*
X11127000Y43373000D01*
X10873000Y43373000D01*
X8523750Y43373000D01*
X8365000Y43214250D01*
X5647440Y43214250D01*
X5647440Y44750000D01*
X5622316Y44876310D01*
X8365000Y44876310D01*
X8365000Y43785750D01*
X8523750Y43627000D01*
X10873000Y43627000D01*
X10873000Y45226250D01*
X11127000Y45226250D01*
X11127000Y43627000D01*
X13476250Y43627000D01*
X13635000Y43785750D01*
X13635000Y44876310D01*
X14365000Y44876310D01*
X14365000Y43785750D01*
X14523750Y43627000D01*
X16873000Y43627000D01*
X16873000Y45226250D01*
X17127000Y45226250D01*
X17127000Y43627000D01*
X19476250Y43627000D01*
X19635000Y43785750D01*
X19635000Y44876310D01*
X19538327Y45109699D01*
X19359698Y45288327D01*
X19126309Y45385000D01*
X17285750Y45385000D01*
X17127000Y45226250D01*
X16873000Y45226250D01*
X16714250Y45385000D01*
X14873691Y45385000D01*
X14640302Y45288327D01*
X14461673Y45109699D01*
X14365000Y44876310D01*
X13635000Y44876310D01*
X13538327Y45109699D01*
X13359698Y45288327D01*
X13126309Y45385000D01*
X11285750Y45385000D01*
X11127000Y45226250D01*
X10873000Y45226250D01*
X10714250Y45385000D01*
X8873691Y45385000D01*
X8640302Y45288327D01*
X8461673Y45109699D01*
X8365000Y44876310D01*
X5622316Y44876310D01*
X5598157Y44997765D01*
X5457809Y45207809D01*
X5247765Y45348157D01*
X5000000Y45397440D01*
X4243000Y45397440D01*
X4243000Y52979279D01*
X4119126Y53602036D01*
X4010440Y53764696D01*
X4010440Y54659000D01*
X3961157Y54906765D01*
X3820809Y55116809D01*
X3610765Y55257157D01*
X3363000Y55306440D01*
X853000Y55306440D01*
X735000Y55282969D01*
X735000Y55324000D01*
X1822250Y55324000D01*
X1981000Y55482750D01*
X1981000Y57722000D01*
X2235000Y57722000D01*
X2235000Y55482750D01*
X2393750Y55324000D01*
X3489310Y55324000D01*
X3722699Y55420673D01*
X3901327Y55599302D01*
X3998000Y55832691D01*
X3998000Y57563250D01*
X3839250Y57722000D01*
X2235000Y57722000D01*
X1981000Y57722000D01*
X1961000Y57722000D01*
X1961000Y57976000D01*
X1981000Y57976000D01*
X1981000Y60215250D01*
X2235000Y60215250D01*
X2235000Y57976000D01*
X3839250Y57976000D01*
X3998000Y58134750D01*
X3998000Y59865309D01*
X3901327Y60098698D01*
X3722699Y60277327D01*
X3489310Y60374000D01*
X2393750Y60374000D01*
X2235000Y60215250D01*
X1981000Y60215250D01*
X1822250Y60374000D01*
X735000Y60374000D01*
X735000Y64265000D01*
X9348611Y64265000D01*
X9010751Y64039249D01*
G04 #@! TD*
M02*
